<svg width="256" height="290" viewBox="0 0 256 290" fill="none" xmlns="http://www.w3.org/2000/svg">
<g clip-path="url(#clip0_623_1269)">
<path d="M128 0.046875L256 72.4519V217.309L128 289.714L0 217.309V72.4519L128 0.046875Z" fill="white"/>
<path d="M233.155 212.288L132.253 269.428V224.991L195.142 190.359L233.155 212.288ZM240.062 206.057V86.6548L203.16 107.955V184.755L240.062 206.057ZM22.4617 212.287L123.365 269.381V224.943L60.4757 190.359L22.4617 212.288V212.287ZM15.5547 206.057V86.6548L52.4577 107.955V184.755L15.5547 206.057ZM19.8547 78.9268L123.365 20.3838V63.3738L57.0467 99.8408L56.5147 100.131L19.8547 78.9268ZM235.715 78.9268L132.253 20.3828V63.3728L198.523 99.8878L199.054 100.178L235.715 78.9248V78.9268Z" fill="#8ED6FB"/>
<path d="M123.364 214.846L61.3438 180.696V113.122L123.364 148.914V214.846ZM132.252 214.846L194.272 180.745V113.122L132.252 148.914V214.846ZM65.4978 105.297L127.808 71.0508L190.068 105.297L127.808 141.234L65.4978 105.297Z" fill="#1C78C0"/>
</g>
<defs>
<clipPath id="clip0_623_1269">
<rect width="256" height="290" fill="white"/>
</clipPath>
</defs>
</svg>
