<svg width="512" height="116" viewBox="0 0 512 116" fill="none" xmlns="http://www.w3.org/2000/svg">
<g clip-path="url(#clip0_623_1273)">
<path d="M255.42 28.976C235.427 28.976 221.012 42.015 221.012 61.573C221.012 81.132 237.238 94.171 257.232 94.171C269.311 94.171 279.959 89.39 286.552 81.331L272.697 73.327C269.039 77.329 263.479 79.665 257.231 79.665C248.557 79.665 241.186 75.138 238.451 67.894H289.195C289.594 65.865 289.829 63.764 289.829 61.555C289.829 42.015 275.414 28.976 255.42 28.976ZM238.29 55.235C240.553 48.009 246.747 43.463 255.403 43.463C264.078 43.463 270.272 48.009 272.517 55.235H238.29ZM450.428 28.975C430.435 28.975 416.019 42.015 416.019 61.573C416.019 81.132 432.245 94.171 452.239 94.171C464.318 94.171 474.966 89.39 481.559 81.331L467.704 73.327C464.046 77.329 458.487 79.665 452.239 79.665C443.564 79.665 436.193 75.138 433.459 67.894H484.2C484.599 65.865 484.834 63.764 484.834 61.555C484.834 42.015 470.419 28.975 450.426 28.975H450.428ZM433.314 55.235C435.578 48.009 441.771 43.463 450.428 43.463C459.102 43.463 465.296 48.009 467.541 55.235H433.314ZM362.631 61.573C362.631 72.439 369.731 79.683 380.741 79.683C388.202 79.683 393.798 76.297 396.678 70.773L410.586 78.796C404.827 88.394 394.034 94.171 380.741 94.171C360.73 94.171 346.333 81.131 346.333 61.573C346.333 42.015 360.748 28.976 380.741 28.976C394.034 28.976 404.809 34.753 410.586 44.351L396.678 52.374C393.798 46.85 388.202 43.464 380.741 43.464C369.749 43.464 362.631 50.706 362.631 61.573ZM512 9.055V92.36H495.701V9.055H512ZM66.916 0L133.831 115.903H0L66.916 0ZM234.214 9.055L184.032 95.982L133.849 9.055H152.666L184.032 63.385L215.398 9.055H234.214ZM340.899 30.787V48.335C339.088 47.81 337.169 47.448 335.104 47.448C324.582 47.448 316.994 54.692 316.994 65.558V92.36H300.695V30.787H316.994V47.447C316.994 38.247 327.697 30.787 340.899 30.787Z" fill="black"/>
</g>
<defs>
<clipPath id="clip0_623_1273">
<rect width="512" height="116" fill="white"/>
</clipPath>
</defs>
</svg>
