<svg width="512" height="200" viewBox="0 0 512 200" fill="none" xmlns="http://www.w3.org/2000/svg">
<g clip-path="url(#clip0_623_1285)">
<path d="M351.141 17.6954L351.027 16.5984L349.25 16.7504L349.363 17.8464L351.141 17.6954ZM363.09 46.4334L363.128 47.0384L364.376 46.9254C364.338 46.5474 364.489 45.9424 364.754 45.1864L364.64 44.0894C364.111 44.1274 363.581 44.9214 363.09 46.4334ZM316.465 82.6214C316.39 81.6004 313.213 77.6304 306.936 70.6344C306.823 69.3494 308.978 67.4204 313.402 64.8874L326.032 53.8834C328.868 50.2904 330.532 44.4674 331.024 36.3754L330.872 34.5224C330.381 28.9264 326.335 24.4264 318.659 20.9854C314.121 17.9224 305.953 16.2204 294.155 15.9184C284.399 16.7504 271.656 20.2284 255.963 26.3924C251.652 29.4934 246.737 32.5944 241.216 35.6944L241.291 36.6404C241.632 36.6024 242.161 36.4134 242.766 35.9974C243.409 35.9214 243.787 36.2244 243.825 36.8294L244.77 36.3374L245.224 36.2994L245.262 36.7154C245.3 37.2074 241.896 39.8924 235.014 44.6944L235.544 45.6774L235.09 45.7154L233.955 45.2994C233.993 45.6394 233.502 45.8664 232.556 45.9424L232.594 46.3584L233.691 47.7194C233.351 47.7574 232.821 47.6064 232.103 47.3414C230.514 47.4924 228.964 48.3244 227.414 49.9124L228.057 47.1144C230.363 37.1694 231.951 28.3584 232.783 20.7204L232.67 20.2284C231.082 19.2074 229.531 17.7704 228.094 15.9554C228.132 14.7834 228.132 14.1034 228.094 13.9514L227.981 13.5354L227.527 13.6494C222.536 21.1364 212.931 33.9174 198.675 51.9924C187.823 64.8494 182.226 71.9964 181.886 73.4334C177.462 78.0084 175.344 80.7694 175.571 81.7144C174.399 82.4704 173.907 83.2264 174.096 84.0584C173.756 84.1344 173.529 84.0214 173.453 83.6804C171.563 86.7434 168.764 88.7094 165.021 89.5794L161.088 90.4874C160.559 90.6004 160.294 90.9784 160.332 91.6214L160.445 92.1134L161.92 91.7724L162.034 92.1884L158.706 93.4744L152.807 94.8354L149.706 95.0244C149.252 95.4784 152.164 94.9874 151.03 95.2514L147.173 96.1594C144.828 96.6884 143.543 96.4994 143.316 95.5544L142.862 95.6674C142.938 96.0834 142.975 96.3864 142.9 96.6504L142.673 95.7054L139.572 96.4234C139.345 94.9874 135.148 89.7684 127.018 80.7694C126.867 79.0294 129.74 76.4954 135.602 73.2064L152.164 58.6474C155.87 53.8834 158.063 46.2444 158.782 35.7324L158.555 33.2744C157.912 25.8634 152.542 19.8884 142.446 15.2754C136.471 11.2294 125.732 9.07344 110.229 8.73344C97.3721 9.83044 80.5821 14.4054 59.9361 22.3844C54.2641 26.5054 47.7981 30.5894 40.5381 34.6354L40.6511 35.9214C41.1431 35.8834 41.7851 35.6194 42.5791 35.1654C43.4111 35.0894 43.8651 35.4674 43.9411 36.2244L45.2261 35.5054L45.8691 35.4674L45.9071 36.0724C45.9451 36.6774 41.4451 40.1944 32.3321 46.6224L33.0501 47.7574L32.4081 47.7954L31.0081 47.3034C31.0461 47.6814 30.4031 47.9464 29.0801 48.0594L29.1551 48.7404L30.6681 50.4044C30.1771 50.4424 29.4961 50.2904 28.6261 49.9884C25.6771 50.2534 22.8031 52.3704 19.9671 56.3794L20.6851 57.5134C23.1431 55.2444 24.5801 54.1104 24.9961 54.0724L25.1471 55.9254C24.7311 55.9634 24.0881 56.2274 23.2191 56.6814L24.7691 59.0264C27.6972 55.8612 31.0135 53.0785 34.6391 50.7444C36.4161 51.1984 37.3611 51.7654 37.3991 52.3704L38.7601 52.2574C48.5161 45.0344 58.1591 39.8164 67.7261 36.6024L67.8391 37.8874C66.0621 40.5344 64.8521 41.8964 64.2091 41.9714C64.2851 42.8794 64.5871 43.6734 65.1541 44.3544C65.3061 45.9804 60.9571 56.9464 52.1461 77.2144C32.1431 124.33 15.3531 159.194 1.70312 181.732C1.74013 182.185 2.00513 182.79 2.49713 183.547C5.86213 182.753 7.98012 181.921 8.88712 181.126L9.60612 181.051L9.71913 182.337L10.9671 182.223L12.2531 181.505C12.2911 181.883 12.7071 182.072 13.5761 181.996L13.6901 183.282C13.8031 184.53 13.0851 186.42 11.5721 189.03C10.2111 190.58 8.73612 193.832 7.18612 198.786L7.22312 199.391L8.47113 199.277C13.9171 193.189 18.0381 187.214 20.8741 181.391C36.7561 176.74 48.8571 172.165 57.2511 167.665C65.6841 166.946 72.1121 164.715 76.4991 161.047L76.4231 160.367L73.2471 161.312L72.5281 161.388L72.4521 160.707C78.6541 159.762 82.9271 158.4 85.3091 156.51C97.3721 147.207 106.485 140.628 112.649 136.733C125.316 127.431 133.56 118.355 137.303 109.545C138.011 109.391 138.717 109.227 139.421 109.053C141.198 108.978 142.181 108.94 142.446 108.864C142.37 108.524 142.522 108.335 142.862 108.259C145.698 107.957 144.337 108.448 146.152 108.032L150.916 106.936C150.614 107.011 150.5 107.163 150.576 107.465L151.294 107.011C151.143 107.011 151.03 106.974 150.916 106.936L151.71 106.747L151.332 106.974C151.862 107.049 152.429 107.011 153.072 106.86L153.412 108.259L131.745 142.708L126.942 148.72L124.598 156.585L125.052 156.472L127.396 155.489L126.64 158.552L126.867 159.459L127.509 160.253C127.207 160.329 127.094 160.518 127.169 160.858L127.283 161.35L128.266 161.123C129.703 159.875 130.308 158.741 130.081 157.72C131.631 157.984 132.652 158.098 133.182 157.947L133.295 158.438C132.35 158.665 131.858 159.421 131.782 160.707L131.896 161.199L132.425 161.085C140.291 152.501 159.576 123.12 175.042 103.192C174.55 101.037 182.604 98.0494 199.242 94.1924L199.772 94.0794C200.377 96.6884 199.091 103.003 195.915 113.024C193.873 119.074 192.89 122.402 193.041 122.931C190.394 130.985 189.146 135.334 189.297 136.015L183.398 155.337C179.579 165.245 176.668 175.644 174.626 186.61C174.966 186.534 175.495 186.572 176.252 186.761L177.083 186.042C177.159 186.383 177.386 186.496 177.726 186.42L177.386 185.021L179.957 184.946C180.713 184.757 181.356 183.811 181.886 182.072C181.772 179.463 182.302 178.064 183.474 177.761C185.062 171.56 186.045 168.459 186.386 168.345C187.86 162.182 188.957 158.665 189.675 157.795C191.907 149.779 193.532 145.657 194.591 145.392L194.818 146.376L193.192 150.573C190.356 163.165 187.482 173.11 184.571 180.408L185.403 184.038L185.932 183.925C192.965 168.799 203.099 138.851 216.296 94.0794C216.675 90.1464 218.565 87.0834 221.931 84.9284L221.174 84.1344L221.061 83.7184C222.574 83.3784 223.632 82.7734 224.237 81.9414C224.162 81.6004 222.838 81.1094 220.267 80.4284L226.847 52.2194C228.283 50.9334 229.115 50.2534 229.38 50.2534L229.494 51.6904C229.153 51.7274 228.624 51.9164 228.019 52.3324L229.267 54.1104C231.535 51.6524 233.993 49.5344 236.678 47.7574C238.039 48.1354 238.72 48.5894 238.796 49.0434L239.779 48.9674C247.266 43.4844 254.602 39.5514 261.824 37.1694L261.9 38.1144C260.577 40.1184 259.669 41.1394 259.177 41.1774C259.253 41.8584 259.442 42.4634 259.782 42.9924C259.896 44.2404 256.644 52.5594 249.989 67.9874C234.787 103.721 222.044 130.153 211.683 147.321C211.721 147.661 211.948 148.115 212.364 148.72C214.897 148.115 216.523 147.472 217.166 146.867L217.62 146.829L217.696 147.775L218.754 147.699L219.7 147.207C219.737 147.472 220.078 147.586 220.721 147.548L220.796 148.569C220.872 149.476 220.343 150.913 219.17 152.879C218.074 154.052 216.939 156.51 215.729 160.253L215.767 160.745L216.75 160.669C220.872 156.056 224.01 151.518 226.166 147.056C238.228 143.502 247.417 140.061 253.77 136.657C260.236 136.09 265.114 134.426 268.442 131.628L268.404 131.137L265.946 131.855L265.417 131.893L265.379 131.401C270.068 130.721 273.358 129.662 275.135 128.263C284.286 121.229 291.206 116.2 295.895 113.251C310.491 102.625 317.297 92.4154 316.465 82.6214ZM313.97 83.2644L314.31 87.0834C313.856 88.0294 313.365 88.5204 312.911 88.5584L312.344 82.0544C313.402 82.4324 313.932 82.8104 313.97 83.2644ZM27.6431 52.4844L27.0001 52.5214L26.8871 51.3494L29.4961 51.1224L29.5341 51.7274C29.1181 51.7654 28.4751 51.9924 27.6431 52.4844ZM14.9001 179.954C13.3871 179.274 12.0261 179.009 10.8541 179.122L10.7021 177.269C10.6271 176.551 11.0431 176.059 11.9501 175.87C12.7821 175.795 13.2741 176.4 13.3491 177.61C15.5431 174.925 16.7531 173.564 16.9801 173.526L18.3791 174.093C17.9251 177.875 16.7531 179.803 14.9001 179.954ZM151.068 37.5094C150.425 37.5854 149.139 35.5814 147.286 31.6104L147.173 30.4384C148.383 30.3254 149.631 32.2914 150.954 36.3374L151.068 37.5094ZM149.252 23.4054L148.723 24.6534L130.232 16.9394C142.559 17.3554 148.912 19.5104 149.252 23.4054ZM71.1671 90.4494L68.5581 90.6764L68.4441 89.5034L71.0531 89.2774L71.1671 90.4494ZM69.0491 50.1774L69.6921 50.1394L69.8431 51.9924C69.2381 52.0304 68.4441 52.9374 67.4611 54.6774L67.3471 53.3914C68.5201 51.9924 69.1251 50.9334 69.0491 50.1774ZM63.5661 63.1094L63.7931 65.5674L63.1501 65.6054L62.9231 63.1474L63.5661 63.1094ZM60.6921 67.7234L61.9401 67.6094C61.8271 69.6514 61.2601 70.7484 60.2391 70.8234L59.5961 70.8614C60.3901 69.5004 60.7681 68.4414 60.6921 67.7234ZM58.5371 74.1514L59.2551 74.0754L59.2931 74.6804L58.1211 76.6474L56.8731 76.7604L56.8351 76.1554C58.0831 76.0424 58.6501 75.3994 58.5371 74.1514ZM56.4191 79.9374L56.0411 83.0374L55.3981 83.0754L55.1341 80.0124L56.4191 79.9374ZM35.2061 140.25C34.3741 144.485 33.4661 146.64 32.5211 146.716L32.4831 146.111C32.2561 144.031 33.1641 142.065 35.2061 140.25ZM31.3111 148.682L31.3491 149.287C31.4241 150.119 31.0461 150.611 30.2141 150.648L30.1771 150.043C30.1011 149.325 30.4791 148.871 31.3111 148.682ZM30.1771 166.19L32.1431 166.001L32.2181 166.682C31.7271 166.719 31.0841 166.984 30.2901 167.438L29.0421 167.551C28.9661 166.909 29.3821 166.417 30.1761 166.19H30.1771ZM86.1411 148.909C75.0991 154.354 68.5951 158.06 66.6671 159.988C54.7181 164.148 48.7811 166.719 48.8941 167.74C38.2691 171.938 31.2731 175.039 27.9081 176.967C27.1141 177.043 25.9791 176.74 24.4671 176.059C24.2781 173.904 25.2611 172.165 27.3401 170.766C29.1931 170.614 30.9701 170.879 32.6721 171.597C34.6391 170.576 38.0801 169.442 42.9581 168.232L42.8441 166.946L38.9121 167.287C39.4031 166.606 43.1841 164.829 50.2931 161.955L52.2601 161.766L52.2981 162.371C48.9321 162.673 47.0791 163.657 46.6631 165.434C46.7391 166.228 47.1931 166.568 48.0251 166.493C50.5581 164.904 51.8061 163.959 51.7681 163.694C56.5711 162.787 69.8431 155.829 91.5861 142.859L91.7001 144.031C91.7381 144.598 89.8851 146.186 86.1411 148.909ZM52.7891 159.875C55.9661 159.61 58.6881 158.325 60.9571 156.094C61.8641 156.018 62.3561 156.358 62.3941 157.152C60.8431 157.304 57.8561 158.589 53.5081 161.085L52.8651 161.123L52.7891 159.875ZM106.598 118.544L89.9221 131.742C77.5191 139.872 70.8641 143.955 69.9191 144.031C50.1801 154.884 37.8911 160.518 33.1261 160.934L32.4081 161.009C33.0131 158.779 41.7851 140.817 58.8021 107.011C66.2891 106.368 78.0871 102.89 94.1581 96.5374L98.0901 96.1964C106.22 95.4784 112.308 97.0664 116.317 100.848L116.543 103.305C113.518 112.003 110.191 117.07 106.598 118.544ZM74.0031 100.205L76.6881 99.9784L76.7251 100.583L74.0411 100.81L74.0031 100.205ZM111.703 93.8144L113.67 93.6254C115.485 94.4954 116.43 95.2514 116.506 95.9324L116.543 96.5374C114.804 96.6884 113.178 95.7814 111.703 93.8144ZM117.035 63.4504C115.296 65.5294 110.531 69.0844 102.741 74.0754C100.17 74.3024 90.6031 78.0084 74.0411 85.2684C73.2131 84.8901 72.3008 84.7339 71.3941 84.8154L71.2801 83.6424C71.0911 81.2604 72.1501 78.2734 74.4941 74.6434C75.7801 67.8364 77.1791 63.9414 78.7301 62.9964L92.5321 31.9514C92.3801 30.0224 95.3301 28.5474 101.38 27.5264L103.346 27.3374L103.498 29.1154C109.434 28.2074 113.14 27.6784 114.577 27.5644C125.543 26.6194 131.253 28.8504 131.707 34.1824L132.955 34.0684L132.69 30.9304L134.051 30.8164C137.265 32.5944 139.005 34.7494 139.232 37.2824C139.383 39.0224 138.438 41.1774 136.433 43.7494C135.602 43.8244 135.11 43.2194 135.034 42.0094L133.673 42.1234L133.371 45.9044C127.812 54.2234 123.766 58.4964 121.27 58.7234C119.001 61.8624 117.602 63.4124 117.035 63.4504ZM125.505 85.1934C124.371 84.4364 123.463 84.0964 122.783 84.1344L122.631 82.2814L123.879 82.1684L126.64 83.7944C126.753 84.6634 126.375 85.1174 125.505 85.1934ZM134.278 95.5914C135.488 96.0834 136.207 96.6124 136.358 97.1044L135.753 97.2554L135.791 97.2934C135.677 97.2934 135.526 97.3314 135.412 97.3694L134.505 98.0874L134.278 95.5914ZM135.11 100.81L134.997 100.318L136.585 99.9404L136.698 100.432L135.11 100.81ZM138.929 105.083C140.555 104.818 141.349 104.705 144.374 104.024L144.488 104.516L138.74 105.839C138.816 105.574 138.891 105.31 138.929 105.083ZM144.526 107.465C142.106 107.692 142.635 107.389 138.778 108.259L138.664 107.768L143.467 106.217L145.774 105.688L146 106.595C144.979 106.822 145.736 106.822 144.526 107.465ZM149.631 106.255C149.063 106.406 148.61 106.142 148.345 105.499L149.82 105.158C150.462 105.007 150.878 105.272 151.03 105.915L149.631 106.255ZM163.47 91.3564L163.357 90.8654L165.739 90.2984L165.966 91.2054L163.47 91.3564ZM178.256 182.034C178.407 181.353 178.445 180.862 178.369 180.521L178.899 180.408C179.541 180.257 179.919 180.484 180.071 181.089L180.184 181.58L178.256 182.034ZM188.617 95.2514L187.558 95.0624C185.856 95.7434 184.419 96.2344 183.247 96.4994L182.264 96.7264C181.697 96.8774 181.243 96.6504 181.016 96.0454L187.936 94.4574L190.205 93.3984L190.961 94.2684C189.864 94.4954 189.07 94.8354 188.617 95.2514ZM193.948 93.5494L193.835 93.0584C194.175 92.9824 194.629 92.7184 195.121 92.2264L200.036 91.0924L200.15 91.5834C197.541 92.2264 195.461 92.8694 193.948 93.5494ZM194.705 83.6044C194.364 83.6804 193.911 83.9834 193.343 84.4364C193.268 84.0964 192.587 84.0964 191.301 84.3994C191.075 83.4534 194.705 82.1304 202.23 80.3904L203.288 80.1634L203.515 81.0714C198.221 82.6214 195.272 83.4914 194.705 83.6044ZM207.94 69.3114C207.41 75.3234 205.293 78.7274 201.549 79.5964L201.436 79.1054L198.108 80.3904L196.633 80.7314C195.877 80.9204 195.196 80.8824 194.591 80.6934L194.289 79.3694C194.175 78.8784 198.978 72.2224 208.734 59.4414L209.868 59.6314C210.284 61.3704 209.641 64.5844 207.94 69.3114ZM231.346 49.2694L230.893 49.3074L230.817 48.3624L232.783 48.1734L232.821 48.6644C232.481 48.7404 231.989 48.9294 231.346 49.2694ZM221.704 146.111C220.569 145.581 219.548 145.355 218.679 145.43L218.565 143.993C218.527 143.502 218.83 143.161 219.473 142.972C220.116 142.897 220.494 143.35 220.569 144.334C222.195 142.254 223.103 141.195 223.292 141.195L224.313 141.611C223.935 144.485 223.065 145.997 221.704 146.111ZM325.087 37.9634C324.595 38.0014 323.65 36.4884 322.175 33.4254L322.1 32.4804C323.045 32.4044 324.028 33.8794 325.011 36.9044L325.087 37.9634ZM323.726 27.1484L323.272 28.1314L309.281 22.2704C318.621 22.5734 323.461 24.1994 323.726 27.1484ZM264.396 78.0844L262.429 78.2734L262.354 77.3274L264.32 77.1764L264.396 78.0844ZM262.77 47.4924L263.299 47.4544L263.412 48.8914C262.921 48.9294 262.316 49.6104 261.597 50.9334L261.522 49.9884C262.392 48.8914 262.807 48.0594 262.77 47.4924ZM258.648 57.3244L258.799 59.1774L258.27 59.2154L258.118 57.3624L258.648 57.3244ZM256.417 60.8414L257.4 60.7654C257.287 62.3534 256.871 63.1854 256.152 63.2614L255.623 63.2984C256.19 62.2404 256.455 61.4084 256.417 60.8414ZM254.829 65.6814L255.283 65.6434L255.32 66.1344L254.451 67.6474L253.467 67.7234L253.43 67.2314C254.451 67.1554 254.904 66.6264 254.829 65.6814ZM253.241 70.0674L252.9 72.4874L252.446 72.5254L252.257 70.1434L253.241 70.0674ZM237.094 115.935C236.451 119.112 235.771 120.738 235.052 120.813L235.014 120.397C234.901 118.809 235.581 117.297 237.094 115.935ZM234.107 122.326L234.144 122.742C234.22 123.422 233.918 123.801 233.237 123.838L233.199 123.347C233.161 122.855 233.464 122.515 234.107 122.326ZM233.275 135.636L234.787 135.523L234.825 136.014C234.485 136.052 233.955 136.241 233.35 136.582L232.367 136.657C232.329 136.128 232.632 135.788 233.275 135.636ZM275.74 122.515C267.421 126.637 262.467 129.435 260.917 130.872C251.841 134.048 247.342 136.015 247.417 136.809C239.363 140.023 234.069 142.329 231.573 143.804C230.968 143.842 230.098 143.615 228.964 143.086C228.813 141.46 229.569 140.136 231.157 139.153C232.594 139.04 233.955 139.229 235.203 139.758C236.716 139.002 239.325 138.17 243.031 137.225L242.955 136.279L239.854 136.506C240.233 135.977 243.144 134.615 248.552 132.422L250.064 132.309L250.102 132.725C247.531 132.952 246.094 133.708 245.791 135.069C245.829 135.674 246.207 135.977 246.85 135.901C248.741 134.653 249.648 133.935 249.648 133.708C253.278 133.065 263.337 127.771 279.862 117.864L279.937 118.809C279.975 119.225 278.576 120.435 275.74 122.515ZM250.405 130.834C252.862 130.607 254.942 129.662 256.682 127.998C257.324 127.922 257.703 128.225 257.74 128.83C256.606 128.943 254.375 129.889 251.009 131.704L250.48 131.742L250.405 130.834ZM291.319 99.4114L278.727 109.545C269.311 115.708 264.207 118.809 263.412 118.885C248.438 127.128 239.136 131.401 235.468 131.704L234.939 131.742C235.392 130.04 242.086 116.389 255.018 90.7514C260.652 90.2604 269.576 87.5754 281.828 82.7354L284.891 82.4704C291.054 81.9414 295.668 83.1514 298.693 86.0624L298.844 87.9154C296.537 94.4194 294.042 98.2384 291.319 99.4114ZM266.589 85.4954L268.555 85.3064L268.593 85.7984L266.627 85.9874L266.589 85.4954ZM295.214 80.6174L296.727 80.5044C298.126 81.1844 298.844 81.7904 298.882 82.2814L298.92 82.6974C297.596 82.8104 296.348 82.1304 295.214 80.6174ZM299.184 57.5894C297.861 59.1774 294.269 61.8994 288.408 65.6814C286.441 65.8704 279.181 68.6684 266.627 74.1134C266.022 73.8864 265.341 73.8114 264.622 73.8494L264.547 72.9034C264.396 71.0884 265.19 68.8194 266.929 66.0594C267.912 60.8414 269.009 57.9294 270.143 57.2484L280.693 33.6524C280.58 32.2534 282.811 31.1194 287.349 30.2494L288.861 30.1364L288.975 31.5734C293.437 30.8544 296.235 30.4384 297.369 30.3254C305.688 29.6064 310.037 31.2704 310.377 35.3544L311.36 35.2784L311.171 33.0094L312.155 32.9344C314.575 34.2574 315.86 35.8464 316.012 37.7364C316.125 39.0984 315.444 40.7614 314.007 42.6904C313.365 42.7654 312.987 42.3124 312.911 41.3294L311.928 41.4044L311.625 44.2404C307.428 50.6314 304.365 53.9214 302.436 54.0724C300.735 56.3794 299.676 57.5514 299.184 57.5894ZM303.609 73.3194L303.495 71.8824L304.478 71.8074L306.596 73.0924C306.634 73.6974 306.331 74.0384 305.688 74.1134C304.781 73.5464 304.1 73.2814 303.609 73.3194ZM127.585 165.169L126.602 165.396L125.77 166.114C125.921 166.719 126.299 166.946 126.942 166.795C127.585 166.644 127.85 166.266 127.699 165.661L127.585 165.169ZM123.842 157.72L123.955 158.211C124.598 158.06 124.862 157.682 124.711 157.077L124.598 156.585C123.993 156.737 123.728 157.115 123.842 157.72ZM150.462 94.3814L151.597 94.1174L151.37 93.1344L150.236 93.3984L150.462 94.3814ZM493.586 123.196C482.09 125.767 480.653 125.313 478.233 125.502L478.309 126.448L479.368 126.372L479.935 126.334L479.784 126.221L481.031 125.729C492.413 124.481 493.737 124.935 493.623 123.649L493.586 123.196ZM431.684 131.401L431.76 132.347H431.911L431.836 131.401H431.684ZM424.575 106.482L423.554 106.142C422.722 108.373 422.306 109.696 422.344 110.074L422.382 110.49C423.176 110.452 423.895 109.091 424.575 106.482ZM495.93 123.007L496.006 123.952L497.669 124.254L497.594 123.309L495.93 123.007ZM417.693 132.573L415.122 132.271L414.668 133.254L414.706 133.746L430.02 132.46L429.945 131.515L417.693 132.573ZM410.735 99.0334L410.698 98.5414L410.168 98.5794L409.223 99.1844L409.752 100.091C410.471 100.016 410.811 99.6754 410.735 99.0334ZM503.19 116.049L503.909 115.973C504.325 115.935 504.514 115.595 504.476 114.99L504.06 114.082C501.451 114.309 500.241 114.423 498.123 115.595L498.085 115.104L494.947 115.406C494.871 114.461 494.607 113.969 494.191 114.007L492.565 114.158C490.674 114.309 489.766 114.234 488.821 114.952C488.783 114.612 488.67 114.461 488.481 114.461L486.666 114.612L485.607 115.217C485.569 114.877 485.456 114.725 485.266 114.725L484.624 115.293L484.586 114.801L482.052 114.612L481.447 114.65L481.523 115.595L482.809 115.935L484.019 115.86C484.435 116.125 484.888 116.2 485.418 116.162L486.477 115.633L486.514 116.049C480.578 117.524 480.615 117.259 476.531 117.94C476.078 117.637 475.737 117.486 475.51 117.524L475.435 117.599C474.981 117.561 474.716 117.259 474.679 116.767L476.796 116.503C476.947 116.503 477.061 116.654 478.233 116.881C479.935 116.049 480.01 115.708 480.918 115.633L480.842 114.687C475.019 115.822 477.363 115.066 470.065 115.708L469.725 115.746L469.649 114.801C479.027 113.667 475.889 114.309 479.103 113.402C479.141 113.742 479.254 113.893 479.443 113.893C479.788 113.541 480.241 113.315 480.729 113.251L481.372 113.213C484.661 112.948 485.758 113.591 492.262 111.776L492.3 112.192L493.359 111.662L494.342 111.587C494.266 110.641 495.703 110.49 496.195 110.452L496.119 109.431C484.699 111.738 481.712 111.095 478.536 112.003L478.498 111.587C475.511 112.116 475.397 111.889 474.641 111.927C474.414 111.965 474.074 112.154 473.695 112.532C473.658 112.192 473.544 112.04 473.317 112.04C473.204 112.04 473.166 112.078 473.128 112.078L463.448 113.666C463.41 113.402 463.297 113.251 463.07 113.288C458.041 114.347 459.402 114.536 452.671 115.141C452.368 115.179 451.953 115.33 451.423 115.671C451.385 115.406 451.234 115.255 450.894 115.292L446.772 115.633L444.012 116.313C443.974 116.049 443.823 115.898 443.482 115.935C441.932 116.351 440.571 116.616 439.474 116.692H439.398C438.718 116.767 439.739 116.503 439.209 116.276L438.377 116.767C437.167 116.881 437.81 116.692 433.651 116.729C426.353 117.637 427.147 117.75 426.353 117.788L423.63 117.599C423.668 117.864 423.517 118.053 423.214 118.053C420.113 117.637 418.525 117.145 418.487 116.578C418.903 113.629 419.622 112.116 420.643 112.04L421.172 112.003L420.718 112.986L421.248 112.948C422.231 112.419 422.685 111.927 422.647 111.473L422.571 110.452L421.588 110.528L421.512 109.583C421.437 108.864 421.55 108.221 421.815 107.692L424.046 104.1L424.122 105.045L425.18 104.969L425.105 104.024L424.5 103.154C425.294 102.474 425.899 102.095 426.39 102.058L426.353 101.566L424.916 101.68L424.802 100.243C427.676 94.2684 429.037 90.7894 428.962 89.8064L429.983 90.2224C430.626 90.1844 430.928 89.8064 430.89 89.1254L429.907 89.2014L429.869 88.7854C429.8 88.095 429.931 87.3993 430.247 86.7814C431.798 85.1554 432.516 83.5294 432.365 81.8274C432.668 81.7894 432.819 81.9414 432.857 82.2814C434.18 81.5254 435.201 79.5214 435.957 76.1934C438.302 71.9584 441.629 63.4884 445.978 50.8204C454.297 28.4344 453.957 26.0524 455.129 20.7584L454.146 20.8334C454.221 21.5144 454.07 22.1574 453.768 22.7624C453.087 22.4974 452.558 22.3464 452.18 22.3844L452.142 21.9684C451.99 20.0394 452.785 17.7334 454.6 15.0104L455.053 14.9724L455.885 18.2244L456.868 18.1494C456.831 17.9224 457.095 16.6364 457.625 14.2544C457.587 13.7624 457.209 13.4604 456.452 13.4224L455.507 14.0274C455.432 13.3464 455.469 11.5694 455.583 8.73344L455.091 8.77144C454.259 7.93944 453.843 7.25844 453.805 6.69144L448.398 7.22044C448.36 6.84244 448.171 6.27544 447.793 5.55744C447.755 5.06544 448.965 4.57344 451.461 4.08244L452.558 4.49844L453.579 3.89344C453.616 4.23344 453.805 4.38444 454.183 4.34744L455.204 3.74244C455.242 4.08244 455.431 4.23344 455.81 4.19544L456.301 4.15844L456.225 3.06144C455.469 3.13744 453.465 3.13744 450.289 3.02344L449.268 3.70444L449.23 3.09944C423.857 5.17844 409.45 6.35144 406.009 6.69144C405.555 6.72944 403.778 6.69144 400.639 6.61544C400.677 7.03144 400.299 7.25844 399.543 7.33444L398.446 6.84244L394.74 7.78844C393.87 7.86344 392.396 7.82544 390.354 7.59944C389.787 8.05244 389.106 8.31744 388.274 8.39344C387.82 8.43044 393.681 8.09044 399.126 7.71244C398.559 8.16644 397.69 8.43044 396.48 8.54444C395.648 8.62044 394.929 8.50644 394.324 8.16644C393.492 8.54444 390.808 9.14944 386.308 10.0564L385.211 9.64144L367.514 12.3634C366.833 12.0234 366.039 11.9094 365.132 11.9854C364.186 12.0614 362.598 12.4014 360.405 13.0064L351.859 16.5604L352.502 17.6194C352.918 17.5814 353.523 17.3554 354.241 16.9394L357.267 17.2034L356.888 20.0394C354.09 21.2874 352.464 23.1404 352.01 25.4854C347.813 27.3374 345.733 28.6614 345.733 29.4554L345.771 29.9474L346.414 29.9094L347.548 29.3044L348.872 30.8924L349.061 33.0854C349.136 33.7664 342.065 48.6274 327.923 77.6684C315.671 105.65 309.243 120.965 308.638 123.725C304.441 124.897 302.02 126.599 301.302 128.868C301.378 129.586 302.625 130.078 305.045 130.267L305.159 131.363L304.062 133.178L304.251 135.372C304.365 136.506 307.428 137.376 313.44 137.981C313.402 137.603 313.592 137.376 314.007 137.338C314.121 138.699 313.743 141.346 312.873 145.279L313.516 145.241C316.011 141.838 317.184 139.493 317.07 138.208L317.6 138.17C318.205 138.132 318.848 138.813 319.604 140.287C318.848 140.59 316.201 146.602 311.663 158.363L312.306 159.421L312.949 159.384C318.507 145.317 321.986 137.527 323.423 136.052C330.721 135.409 343.351 134.124 361.275 132.195L362.409 131.515C362.447 131.893 362.674 132.082 363.09 132.044L364.262 131.931L365.397 131.25C365.434 131.628 365.661 131.817 366.077 131.779L379.652 130.607C383.245 130.305 384.946 129.208 384.795 127.355C384.757 126.864 386.875 126.296 391.148 125.691C391.564 125.653 392.169 125.767 393.001 126.032C392.963 125.691 395.118 125.351 399.429 124.973C399.543 122.704 400.261 121.494 401.547 121.381L401.433 120.284C400.223 120.397 398.862 120.7 397.274 121.229C394.438 121.078 392.623 120.851 391.866 120.586C391.11 121.002 390.543 121.229 390.127 121.267L380.673 121.57L379.539 122.175C379.501 121.834 379.274 121.683 378.858 121.721L378.329 121.759L377.119 122.364C377.081 122.023 376.098 121.759 374.131 121.494L372.922 122.212L370.577 122.401L370.539 121.796C382.715 120.473 388.728 118.809 388.576 116.843C389.371 116.767 389.787 117.145 389.862 117.94L393.417 117.032L393.303 115.935L364.149 116.729C364.186 117.108 363.997 117.334 363.582 117.372L360.027 117.07C359.119 117.145 358.363 117.41 357.758 117.864L356.435 117.372C352.767 117.675 350.044 118.129 348.229 118.696C345.733 118.507 342.973 118.544 339.91 118.809L333.368 119.376L330.343 119.036C330.192 117.108 333.935 107.616 341.649 90.6004C343.881 84.8524 345.922 81.2604 347.889 79.8994C348.305 79.8614 348.91 80.0124 349.742 80.3524L354.393 78.7644L356.775 79.1424C360.783 78.8024 365.434 77.6684 370.766 75.7014C372.09 75.5884 373.073 75.6644 373.791 75.9664L377.346 75.1344L387.934 74.2274C392.433 73.8494 397.311 72.8654 402.605 71.2394L402.492 70.1434C400.526 70.3324 399.505 69.9924 399.429 69.1974C399.316 67.7234 397.879 67.1184 395.118 67.3444L395.005 66.2484L397.917 65.4164L405.555 64.7734L405.441 63.6774C405.139 63.7144 403.589 63.6774 400.715 63.5634L400.601 62.3914L403.551 62.1264C404.345 62.0514 404.685 61.6724 404.61 60.9164C400.639 61.0304 398.635 60.8414 398.597 60.3114C370.917 61.6724 357.04 61.9374 356.964 61.0674C356.548 61.1054 355.981 61.3704 355.225 61.8244L354.506 60.6894C361.842 45.1104 366.153 37.2454 367.401 37.1314C367.438 37.7364 367.136 38.7194 366.455 40.0434L366.493 40.5344L367.665 40.4214C370.577 33.4634 373.035 29.8714 375.077 29.7204C383.774 28.9634 373.867 28.3964 392.471 25.4854C393.228 25.8254 393.757 25.9764 394.135 25.9384C401.433 24.4644 411.605 22.9134 424.651 21.3254L424.575 20.2284L417.617 20.8714L417.542 19.7754C418.374 19.6994 419.054 19.4344 419.622 18.9814L419.659 19.5864C420.038 19.5484 420.567 19.2834 421.248 18.8294C422.458 18.7164 423.365 18.8294 424.008 19.1704C426.428 18.5274 428.394 18.1494 429.831 17.9974L434.18 17.5814C435.239 16.9014 435.73 16.2964 435.693 15.7294L435.655 15.2374C434.558 15.3504 433.31 15.2754 431.836 15.0104C431.798 14.4054 432.1 13.9894 432.819 13.8004L440.911 13.0444L444.617 12.0984C444.654 12.5144 444.844 12.6664 445.146 12.6664C445.524 12.6284 446.054 12.3634 446.734 11.9094C446.923 11.9474 447.15 11.9474 447.339 11.9854C446.848 13.0064 446.28 14.4814 445.713 16.4094L444.654 16.4854C444.579 15.7664 444.39 15.1244 444.049 14.5564L443.52 14.5944C433.688 41.9714 429.302 54.7154 420.227 75.7394C418.563 81.1094 417.164 84.0964 415.954 84.7394C415.992 85.3444 416.37 85.6464 417.013 85.5714C417.239 88.2184 416.634 90.8274 415.16 93.3984C410.962 105.499 408.164 112.116 406.727 113.326L407.672 119.036C407.71 119.641 407.408 119.981 406.765 120.057L405.782 120.133C405.63 118.544 405.063 117.788 404.042 117.902L403.513 117.94C402.227 119.944 401.244 122.25 400.601 124.935L401.584 124.859C402.908 123.99 403.513 122.969 403.399 121.796L405.366 121.607L406.5 122.023C405.593 123.46 405.177 124.595 405.252 125.464L405.782 126.372L404.496 129.397L404.534 129.889C405.668 129.775 406.916 130.153 408.24 130.947C409.147 130.872 410.13 130.456 411.227 129.737C412.361 129.624 416.596 129.586 423.895 129.586L427.562 128.338C432.025 128.3 432.743 128.414 436.6 128.074L438.188 127.922L439.02 127.355L439.058 127.847C443.104 127.506 443.369 127.771 446.545 128.149L446.583 128.641L444.352 128.83L444.427 129.775C445.108 129.7 445.713 129.51 446.205 129.095C446.772 129.057 447.112 129.359 447.15 130.04C446.243 130.116 445.222 130.342 444.087 130.721L443.104 130.38C441.554 130.796 441.894 130.91 440.835 130.985L439.285 130.683C439.323 130.947 439.171 131.136 438.907 131.136C438.944 131.742 439.285 132.044 439.852 132.006L441.44 131.855L449.721 131.136L452.86 130.456C452.898 130.721 453.011 130.872 453.276 130.834L454.788 130.267L457.625 130.04C459.818 129.851 459.78 129.7 464.544 128.943C464.507 128.641 464.62 128.527 464.847 128.49L464.885 128.905C472.637 127.582 473.128 127.506 474.376 127.09L474.489 127.317C476.418 126.864 475.321 126.977 475.851 126.599C475.889 126.939 476.002 127.09 476.191 127.09L477.552 126.977L477.477 125.956L474.716 125.918L474.679 125.843C474.565 125.88 474.489 125.88 474.376 125.918H473.998V125.994C472.145 126.372 472.107 126.107 470.897 126.221L463.977 126.599L463.939 126.107L467.796 125.578L469.195 125.464L469.99 124.897L470.027 125.389C475.473 124.935 477.401 126.296 502.585 120.927C503.946 120.813 503.833 119.679 504.703 117.334C504.242 117.366 503.781 117.261 503.379 117.032C501.3 117.826 500.203 117.448 496.195 118.091C495.854 118.129 495.59 117.826 495.476 117.221L495.438 116.805L499.295 116.918C500.014 116.843 501.413 116.729 503.493 115.557C503.493 115.898 502.736 116.087 503.19 116.049ZM316.995 119.036L315.217 119.187C315.142 118.469 316.087 115.746 318.053 111.095L319.226 110.982C319.264 112.078 318.545 114.763 316.995 119.036ZM319.15 110.415L319.112 109.923C319.074 109.318 319.453 108.902 320.285 108.713L320.322 109.204C320.36 109.923 319.982 110.339 319.15 110.415ZM342.784 128.679L342.822 129.17L339.872 129.435L339.834 128.943L342.784 128.679ZM339.229 128.376C339.267 128.981 338.36 129.662 336.393 130.342L332.763 130.078L331.591 130.191L331.478 129.095L339.229 128.376ZM363.128 18.3764L361.35 18.5274L361.313 17.9224C361.275 17.3174 361.615 16.9014 362.371 16.7124L363.014 16.6744L364.224 17.1654C364.262 17.8844 363.922 18.3004 363.128 18.3764ZM390.165 13.0824L390.732 13.0444L390.807 14.1404L389.181 14.2924C389.144 13.6874 389.446 13.2714 390.165 13.0824ZM383.358 15.4644L380.673 15.1614L380.635 14.6704C384.152 14.3674 385.324 13.9894 387.48 13.3844C387.518 13.8004 387.896 13.9514 388.576 13.8764L388.652 14.9724L387.593 15.0864C386.761 15.1614 386.043 15.0484 385.438 14.7084C384.795 15.1244 384.114 15.3884 383.358 15.4644ZM386.724 25.2584L386.686 24.7664L391.034 24.3504L391.072 24.8424L386.724 25.2584ZM391.375 21.4764L391.337 20.8714L393.454 20.6824L393.492 21.2874L391.375 21.4764ZM391.866 14.0654L391.299 14.1034L391.791 12.9304L396.631 12.4774L396.669 13.0824C395.421 13.1954 393.795 13.5354 391.866 14.0654ZM394.324 24.5014L394.248 23.4054L396.366 23.2164C397.085 23.1404 397.463 23.4804 397.501 24.2374L394.324 24.5014ZM407.143 7.03144L404.42 7.78844L403.929 7.82544C402.643 7.93944 400.979 7.90144 399.013 7.71244C402.53 7.48544 405.895 7.22044 407.143 7.03144ZM404.231 19.1324L404.269 19.6234L400.526 19.9644L400.488 19.4724L404.231 19.1324ZM410.357 22.0434C410.319 21.5904 409.601 21.2874 408.126 21.1364L404.383 22.1954L401.509 22.3084C400.866 21.8544 400.526 21.5524 400.488 21.3254L403.816 21.5144L411.303 20.3044L415.122 20.4554L415.16 21.0604C413.269 21.2494 411.681 21.5904 410.357 22.0434ZM448.89 12.0984C449.343 12.1364 449.646 12.1364 449.759 12.1364C451.083 10.8514 452.558 9.83044 454.259 9.11144C452.898 15.0864 450.78 19.5104 447.869 22.3844L445.751 21.0984C447.528 16.5984 448.587 13.6114 448.89 12.0984ZM442.386 23.2544L442.915 23.2164C442.196 24.5774 441.554 25.2954 441.024 25.3334L440.911 23.8964C441.251 23.8964 441.743 23.6694 442.386 23.2544ZM438.188 33.2744C439.209 29.1904 440.192 26.8844 441.1 26.2794L441.138 26.7704C440.608 30.5524 439.776 32.5564 438.68 32.7074L438.869 35.0894C437.961 36.3754 437.545 37.3584 437.583 38.1144L437.054 38.1524L436.751 34.8624C437.356 34.7874 437.848 34.2574 438.188 33.2744ZM436.562 38.7194C436.6 39.2874 436.222 40.6104 435.466 42.6524L434.936 42.6904L434.823 41.2534C435.541 39.5894 436.146 38.7574 436.562 38.7194ZM406.047 127.279L406.009 126.864L406.992 126.788L407.105 128.225C406.576 128.263 406.198 127.96 406.047 127.279ZM449.646 128.414C449.608 128.074 449.457 127.922 449.117 127.96L446.659 128.187L446.621 127.695H446.848L452.671 127.204L452.709 127.695C451.007 127.771 449.986 128.036 449.646 128.414ZM446.734 127.204C446.961 127.317 446.848 127.431 446.734 127.506C446.621 127.469 446.47 127.355 446.734 127.204ZM447.037 120.397L443.785 120.662L443.747 120.17L446.696 119.906L449.268 119.263C449.306 119.565 449.457 119.679 449.797 119.641C452.86 119.112 452.558 118.961 454.032 118.847C454.524 118.809 454.827 119.112 454.864 119.717L447.037 120.397ZM458.419 119.414C456.604 119.225 456.49 119.074 455.205 119.187L455.167 118.771L458.078 118.507L458.116 118.923C457.814 118.961 458.91 119.036 458.419 119.414ZM458.646 118.885L458.608 118.469L460.196 118.318L460.234 118.734L458.646 118.885ZM462.162 118.582L462.125 118.166C462.389 118.129 462.767 117.94 463.259 117.561C464.053 117.486 464.469 118.015 464.545 118.62L462.162 118.582ZM466.662 118.015L466.624 117.524L468.553 117.372L468.591 117.864L466.662 118.015ZM469.347 117.788C469.309 117.221 469.536 116.881 470.028 116.805L470.67 117.637C470.633 117.372 470.746 117.221 470.973 117.183L471.465 118.091L469.347 117.788ZM440.798 130.116L440.722 129.17L440.419 129.208L440.495 130.153L440.798 130.116ZM507.237 112.91C507.539 112.721 507.69 112.532 506.972 112.419C506.631 112.797 507.35 112.91 506.594 112.948L506.631 113.288C506.707 113.213 506.896 113.099 507.047 112.986L506.631 113.326V113.364L505.837 114.385L507.425 113.818H507.615L507.539 112.872L507.237 112.91ZM509.997 115.066L509.694 115.104L509.77 116.049L512.001 115.86C511.963 115.255 510.488 115.066 509.997 115.066ZM506.556 113.402L506.594 113.364V113.326C506.594 113.326 506.556 113.364 506.556 113.402Z" fill="black"/>
<path d="M361.387 43.41L361.425 44.015L362.673 43.902C362.635 43.524 362.786 42.919 363.051 42.162L362.938 41.066C362.408 41.104 361.879 41.898 361.387 43.41ZM349.438 14.672L349.325 13.575L347.547 13.726L347.661 14.823L349.438 14.672ZM314.763 79.598C314.687 78.577 311.511 74.607 305.234 67.611C305.12 66.326 307.276 64.397 311.7 61.864L324.33 50.86C327.166 47.267 328.829 41.444 329.321 33.352L329.17 31.499C328.678 25.902 324.632 21.403 316.956 17.962C312.418 14.899 304.25 13.197 292.453 12.894C282.697 13.726 269.953 17.205 254.261 23.369C249.95 26.47 245.034 29.57 239.513 32.671L239.589 33.617C239.929 33.579 240.458 33.39 241.064 32.974C241.706 32.898 242.085 33.201 242.122 33.806L243.068 33.314L243.521 33.276L243.559 33.692C243.597 34.184 240.194 36.868 233.312 41.671L233.841 42.654L233.387 42.692L232.253 42.276C232.291 42.616 231.799 42.843 230.854 42.919L230.892 43.335L231.988 44.696C231.648 44.734 231.119 44.583 230.4 44.318C228.812 44.469 227.261 45.301 225.711 46.889L226.354 44.091C228.661 34.146 230.249 25.335 231.081 17.697L230.967 17.205C229.379 16.184 227.829 14.747 226.392 12.932C226.43 11.76 226.43 11.079 226.392 10.928L226.278 10.512L225.825 10.626C220.833 18.113 211.228 30.894 196.973 48.969C186.12 61.826 180.523 68.972 180.183 70.409C175.759 74.985 173.641 77.745 173.868 78.691C172.696 79.447 172.204 80.203 172.394 81.035C172.053 81.111 171.826 80.997 171.751 80.657C169.86 83.72 167.062 85.686 163.318 86.556L159.385 87.463C158.856 87.577 158.591 87.955 158.629 88.598L158.743 89.089L160.217 88.749L160.331 89.165L157.003 90.451L151.104 91.812L148.004 92.001C147.55 92.455 150.461 91.963 149.327 92.228L145.47 93.136C143.126 93.665 141.84 93.476 141.613 92.531L141.159 92.644C141.235 93.06 141.273 93.362 141.197 93.627L140.97 92.682L137.869 93.4C137.643 91.963 133.445 86.745 125.315 77.745C125.164 76.006 128.038 73.472 133.899 70.183L150.461 55.624C154.167 50.86 156.36 43.221 157.079 32.709L156.852 30.251C156.209 22.84 150.84 16.865 140.743 12.252C134.769 8.206 124.03 6.05 108.526 5.71C95.669 6.806 78.88 11.382 58.233 19.361C52.561 23.482 46.095 27.566 38.835 31.612L38.948 32.898C39.44 32.86 40.083 32.596 40.877 32.142C41.709 32.066 42.163 32.444 42.238 33.201L43.524 32.482L44.167 32.444L44.204 33.049C44.242 33.654 39.742 37.171 30.629 43.599L31.348 44.734L30.705 44.772L29.306 44.28C29.344 44.658 28.701 44.923 27.377 45.036L27.453 45.717L28.965 47.381C28.474 47.419 27.793 47.267 26.924 46.965C23.974 47.229 21.1 49.347 18.264 53.355L18.983 54.49C21.441 52.221 22.877 51.087 23.293 51.049L23.445 52.902C23.029 52.939 22.386 53.204 21.516 53.658L23.067 56.002C25.9953 52.8376 29.3111 50.0552 32.936 47.721C34.713 48.175 35.659 48.742 35.696 49.347L37.058 49.234C46.814 42.011 56.456 36.793 66.023 33.579L66.137 34.864C64.359 37.511 63.149 38.873 62.506 38.948C62.582 39.856 62.885 40.65 63.452 41.331C63.603 42.957 59.254 53.923 50.444 74.191C30.44 121.307 13.651 156.171 0 178.708C0.038 179.162 0.303 179.767 0.794 180.523C4.16 179.729 6.277 178.898 7.185 178.103L7.903 178.028L8.017 179.313L9.264 179.2L10.55 178.482C10.588 178.86 11.004 179.049 11.874 178.973L11.987 180.259C12.1 181.507 11.382 183.397 9.869 186.006C8.508 187.557 7.033 190.809 5.483 195.763L5.521 196.367L6.769 196.254C12.214 190.166 16.336 184.191 19.172 178.368C35.054 173.717 47.154 169.141 55.549 164.642C63.981 163.923 70.409 161.692 74.796 158.024L74.72 157.344L71.544 158.289L70.825 158.365L70.75 157.684C76.951 156.739 81.224 155.377 83.607 153.487C95.669 144.184 104.782 137.605 110.946 133.71C123.614 124.408 131.857 115.332 135.601 106.522C136.281 106.37 136.962 106.219 137.718 106.03C139.495 105.955 140.479 105.917 140.743 105.841C140.668 105.501 140.819 105.312 141.159 105.236C143.995 104.934 142.634 105.425 144.449 105.009L149.214 103.913L150.008 103.723L149.63 103.95C150.159 104.026 150.726 103.988 151.369 103.837L151.709 105.236L130.042 139.684L125.24 145.697L122.895 153.562L123.349 153.449L125.693 152.466L124.937 155.529L125.164 156.436L125.807 157.23C125.504 157.306 125.391 157.495 125.466 157.835L125.58 158.327L126.563 158.1C128 156.852 128.605 155.718 128.378 154.697C129.928 154.961 130.949 155.075 131.479 154.924L131.592 155.415C130.647 155.642 130.155 156.398 130.08 157.684L130.193 158.175L130.723 158.062C138.588 149.478 157.873 120.097 173.339 100.169C172.847 98.014 180.902 95.026 197.54 91.169L198.069 91.056C198.674 93.665 197.389 99.98 194.212 110.001C192.17 116.051 191.187 119.378 191.338 119.908C188.691 127.962 187.443 132.311 187.595 132.991L181.696 152.314C177.876 162.222 174.965 172.62 172.923 183.586C173.263 183.511 173.793 183.549 174.549 183.738L175.381 183.019C175.456 183.36 175.683 183.473 176.024 183.397L175.683 181.998L178.255 181.923C179.011 181.734 179.654 180.788 180.183 179.049C180.07 176.44 180.599 175.041 181.771 174.738C183.359 168.537 184.343 165.436 184.683 165.322C186.158 159.159 187.254 155.642 187.973 154.772C190.204 146.756 191.83 142.634 192.889 142.369L193.116 143.352L191.49 147.55C188.653 160.142 185.78 170.087 182.868 177.385L183.7 181.015L184.229 180.902C191.263 165.776 201.397 135.827 214.594 91.056C214.972 87.123 216.863 84.06 220.228 81.905L219.472 81.111L219.358 80.695C220.871 80.354 221.93 79.75 222.535 78.918C222.459 78.577 221.136 78.086 218.564 77.405L225.144 49.196C226.581 47.91 227.413 47.23 227.677 47.23L227.791 48.666C227.451 48.704 226.921 48.893 226.316 49.309L227.564 51.087C229.833 48.629 232.291 46.511 234.975 44.734C236.337 45.112 237.017 45.566 237.093 46.019L238.076 45.944C245.563 40.461 252.899 36.528 260.122 34.146L260.197 35.091C258.874 37.095 257.966 38.116 257.475 38.154C257.55 38.835 257.739 39.44 258.08 39.969C258.193 41.217 254.941 49.536 248.286 64.964C233.085 100.698 220.341 127.13 209.98 144.298C210.018 144.638 210.245 145.092 210.661 145.697C213.195 145.092 214.821 144.449 215.464 143.844L215.917 143.806L215.993 144.751L217.052 144.676L217.997 144.184C218.035 144.449 218.375 144.562 219.018 144.525L219.094 145.546C219.169 146.453 218.64 147.89 217.468 149.856C216.371 151.029 215.237 153.487 214.027 157.23L214.064 157.722L215.048 157.646C219.169 153.033 222.308 148.495 224.463 144.033C236.526 140.479 245.715 137.037 252.067 133.634C258.534 133.067 263.411 131.403 266.739 128.605L266.701 128.113L264.243 128.832L263.714 128.87L263.676 128.378C268.365 127.697 271.655 126.639 273.432 125.24C282.583 118.206 289.503 113.177 294.192 110.227C308.788 99.602 315.595 89.392 314.763 79.598ZM312.267 80.241L312.607 84.06C312.154 85.006 311.662 85.497 311.208 85.535L310.641 79.031C311.7 79.409 312.229 79.787 312.267 80.241ZM25.94 49.461L25.298 49.498L25.184 48.326L27.793 48.099L27.831 48.704C27.415 48.742 26.772 48.969 25.94 49.461ZM13.197 176.931C11.685 176.25 10.323 175.986 9.151 176.099L9 174.246C8.924 173.528 9.34 173.036 10.248 172.847C11.079 172.772 11.571 173.377 11.647 174.587C13.84 171.902 15.05 170.541 15.277 170.503L16.676 171.07C16.222 174.851 15.05 176.78 13.197 176.931ZM149.365 34.486C148.722 34.562 147.436 32.558 145.584 28.587L145.47 27.415C146.68 27.302 147.928 29.268 149.251 33.314L149.365 34.486ZM147.55 20.382L147.02 21.63L128.529 13.915C140.857 14.331 147.21 16.487 147.55 20.382ZM69.464 87.426L66.855 87.653L66.742 86.48L69.351 86.253L69.464 87.426ZM67.346 47.154L67.989 47.116L68.141 48.969C67.536 49.007 66.742 49.914 65.758 51.654L65.645 50.368C66.817 48.969 67.422 47.91 67.346 47.154ZM61.863 60.086L62.09 62.544L61.448 62.582L61.221 60.124L61.863 60.086ZM58.99 64.7L60.238 64.586C60.124 66.628 59.557 67.725 58.536 67.8L57.893 67.838C58.687 66.477 59.065 65.418 58.99 64.7ZM56.834 71.128L57.553 71.052L57.59 71.657L56.418 73.624L55.17 73.737L55.133 73.132C56.381 73.019 56.948 72.376 56.834 71.128ZM54.717 76.914L54.339 80.014L53.696 80.052L53.431 76.989L54.717 76.914ZM33.503 137.227C32.671 141.462 31.764 143.617 30.818 143.693L30.781 143.088C30.554 141.008 31.461 139.042 33.503 137.227ZM29.608 145.659L29.646 146.264C29.722 147.096 29.344 147.588 28.512 147.625L28.474 147.02C28.398 146.302 28.776 145.848 29.608 145.659ZM28.474 163.167L30.44 162.978L30.516 163.659C30.024 163.696 29.381 163.961 28.587 164.415L27.339 164.528C27.264 163.885 27.68 163.394 28.474 163.167ZM84.438 145.886C73.397 151.331 66.893 155.037 64.964 156.965C53.015 161.125 47.078 163.696 47.192 164.717C36.566 168.915 29.57 172.015 26.205 173.944C25.411 174.019 24.277 173.717 22.764 173.036C22.575 170.881 23.558 169.141 25.638 167.742C27.491 167.591 29.268 167.856 30.97 168.574C32.936 167.553 36.377 166.419 41.255 165.209L41.142 163.923L37.209 164.263C37.7 163.583 41.482 161.806 48.591 158.932L50.557 158.743L50.595 159.348C47.23 159.65 45.377 160.633 44.961 162.411C45.036 163.205 45.49 163.545 46.322 163.469C48.856 161.881 50.103 160.936 50.066 160.671C54.868 159.764 68.141 152.806 89.884 139.836L89.997 141.008C90.035 141.575 88.182 143.163 84.438 145.886ZM51.087 156.852C54.263 156.587 56.986 155.302 59.254 153.071C60.162 152.995 60.654 153.335 60.691 154.129C59.141 154.281 56.154 155.566 51.805 158.062L51.162 158.1L51.087 156.852ZM104.896 115.521L88.22 128.756C75.817 136.886 69.162 140.97 68.178 141.046C48.44 151.898 36.15 157.533 31.386 157.949L30.667 158.024C31.272 155.793 40.045 137.832 57.061 104.026C64.548 103.383 76.346 99.904 92.417 93.552L96.35 93.211C104.48 92.493 110.568 94.081 114.576 97.862L114.803 100.32C111.816 108.98 108.488 114.047 104.896 115.521ZM72.3 97.182L74.985 96.955L75.023 97.56L72.338 97.787L72.3 97.182ZM110.001 90.791L111.967 90.602C113.782 91.472 114.727 92.228 114.803 92.909L114.841 93.514C113.101 93.665 111.475 92.757 110.001 90.791ZM115.332 60.427C113.593 62.506 108.828 66.061 101.039 71.052C98.467 71.279 88.9 74.985 72.338 82.245C71.5099 81.8667 70.5978 81.7103 69.691 81.791L69.578 80.619C69.389 78.237 70.447 75.25 72.792 71.62C74.077 64.813 75.477 60.918 77.027 59.973L90.829 28.928C90.678 26.999 93.627 25.524 99.677 24.503L101.644 24.314L101.795 26.092C107.732 25.184 111.437 24.655 112.874 24.541C123.841 23.596 129.55 25.827 130.004 31.159L131.252 31.045L130.987 27.907L132.349 27.793C135.563 29.57 137.302 31.726 137.529 34.259C137.68 35.999 136.735 38.154 134.731 40.726C133.899 40.801 133.407 40.196 133.332 38.986L131.97 39.1L131.668 42.881C126.109 51.2 122.063 55.473 119.568 55.7C117.299 58.838 115.9 60.389 115.332 60.427ZM123.803 82.17C122.668 81.413 121.761 81.073 121.08 81.111L120.929 79.258L122.177 79.144L124.937 80.771C125.051 81.64 124.672 82.094 123.803 82.17ZM132.576 92.568C133.786 93.06 134.504 93.589 134.655 94.081L134.05 94.232L134.088 94.27C133.975 94.27 133.823 94.308 133.71 94.346L132.802 95.064L132.576 92.568ZM133.407 97.787L133.294 97.295L134.882 96.917L134.996 97.409L133.407 97.787ZM137.227 102.06C138.853 101.795 139.647 101.682 142.672 101.001L142.785 101.492L137.038 102.816C137.113 102.551 137.189 102.287 137.227 102.06ZM142.823 104.442C140.403 104.669 140.932 104.366 137.075 105.236L136.962 104.744L141.802 103.194L144.109 102.665L144.336 103.572C143.277 103.799 144.033 103.799 142.823 104.442ZM147.928 103.232C147.361 103.383 146.907 103.119 146.642 102.476L148.117 102.135C148.76 101.984 149.176 102.249 149.327 102.892L147.928 103.232ZM161.768 88.333L161.654 87.842L164.037 87.274L164.264 88.182L161.768 88.333ZM176.553 179.011C176.704 178.33 176.742 177.839 176.666 177.498L177.196 177.385C177.839 177.234 178.217 177.461 178.368 178.066L178.482 178.557L176.553 179.011ZM186.914 92.228L185.855 92.039C184.154 92.72 182.717 93.211 181.544 93.476L180.561 93.703C179.994 93.854 179.54 93.627 179.313 93.022L186.233 91.434L188.502 90.375L189.259 91.245C188.162 91.472 187.368 91.812 186.914 92.228ZM192.246 90.526L192.132 90.035C192.473 89.959 192.926 89.695 193.418 89.203L198.334 88.068L198.447 88.56C195.838 89.203 193.758 89.846 192.246 90.526ZM193.002 80.581C192.662 80.657 192.208 80.959 191.641 81.413C191.565 81.073 190.885 81.073 189.599 81.375C189.372 80.43 193.002 79.107 200.527 77.367L201.586 77.14L201.813 78.048C196.519 79.598 193.569 80.468 193.002 80.581ZM206.237 66.288C205.708 72.3 203.59 75.703 199.846 76.573L199.733 76.082L196.405 77.367L194.931 77.708C194.174 77.897 193.494 77.859 192.889 77.67L192.586 76.346C192.473 75.855 197.275 69.199 207.031 56.418L208.165 56.607C208.581 58.347 207.939 61.561 206.237 66.288ZM229.644 46.246L229.19 46.284L229.114 45.339L231.081 45.15L231.118 45.641C230.778 45.717 230.287 45.906 229.644 46.246ZM220.001 143.088C218.867 142.558 217.846 142.331 216.976 142.407L216.863 140.97C216.825 140.479 217.127 140.138 217.77 139.949C218.413 139.874 218.791 140.327 218.867 141.31C220.493 139.231 221.4 138.172 221.589 138.172L222.61 138.588C222.232 141.462 221.363 142.974 220.001 143.088ZM323.384 34.94C322.893 34.978 321.947 33.465 320.473 30.402L320.397 29.457C321.342 29.381 322.326 30.856 323.309 33.881L323.384 34.94ZM322.023 24.125L321.569 25.108L307.578 19.247C316.918 19.55 321.758 21.176 322.023 24.125ZM262.693 75.061L260.727 75.25L260.651 74.304L262.617 74.115L262.693 75.061ZM261.067 44.469L261.596 44.431L261.71 45.868C261.218 45.906 260.613 46.587 259.895 47.91L259.819 46.965C260.689 45.868 261.105 45.036 261.067 44.469ZM256.945 54.301L257.097 56.154L256.567 56.192L256.416 54.339L256.945 54.301ZM254.714 57.817L255.697 57.742C255.584 59.33 255.168 60.162 254.45 60.237L253.92 60.275C254.487 59.217 254.752 58.385 254.714 57.817ZM253.126 62.658L253.58 62.62L253.618 63.111L252.748 64.624L251.765 64.7L251.727 64.208C252.748 64.132 253.202 63.603 253.126 62.658ZM251.538 67.044L251.198 69.464L250.744 69.502L250.555 67.12L251.538 67.044ZM235.391 112.912C234.749 116.089 234.068 117.715 233.349 117.79L233.312 117.374C233.198 115.786 233.879 114.273 235.391 112.912ZM232.404 119.303L232.442 119.719C232.518 120.399 232.215 120.777 231.534 120.815L231.497 120.324C231.459 119.832 231.761 119.492 232.404 119.303ZM231.572 132.613L233.085 132.5L233.122 132.991C232.782 133.029 232.253 133.218 231.648 133.559L230.665 133.634C230.627 133.105 230.929 132.765 231.572 132.613ZM274.037 119.492C265.718 123.614 260.764 126.412 259.214 127.849C250.139 131.025 245.639 132.991 245.715 133.785C237.66 137 232.366 139.306 229.871 140.781C229.266 140.819 228.396 140.592 227.261 140.063C227.11 138.437 227.866 137.113 229.455 136.13C230.892 136.017 232.253 136.206 233.501 136.735C235.013 135.979 237.622 135.147 241.328 134.201L241.253 133.256L238.19 133.521C238.568 132.991 241.479 131.63 246.887 129.437L248.399 129.323L248.437 129.739C245.866 129.966 244.429 130.723 244.126 132.084C244.164 132.689 244.542 132.991 245.185 132.916C247.076 131.668 247.983 130.949 247.983 130.723C251.614 130.08 261.672 124.786 278.197 114.879L278.272 115.824C278.272 116.202 276.873 117.412 274.037 119.492ZM248.702 127.811C251.16 127.584 253.24 126.639 254.979 124.975C255.622 124.937 256 125.202 256.038 125.807C254.903 125.92 252.672 126.866 249.307 128.681L248.778 128.718L248.702 127.811ZM289.617 96.388L277.025 106.522C267.609 112.685 262.504 115.786 261.71 115.862C246.736 124.105 237.433 128.378 233.765 128.681L233.236 128.718C233.69 127.017 240.383 113.366 253.315 87.728C258.949 87.237 267.874 84.552 280.125 79.712L283.188 79.447C289.352 78.918 293.965 80.128 296.99 83.039L297.142 84.892C294.835 91.396 292.339 95.215 289.617 96.388ZM264.886 82.472L266.853 82.283L266.89 82.775L264.924 82.964L264.886 82.472ZM293.511 77.594L295.024 77.481C296.423 78.161 297.142 78.766 297.179 79.258L297.217 79.674C295.894 79.787 294.646 79.107 293.511 77.594ZM297.482 54.565C296.158 56.154 292.566 58.876 286.705 62.658C284.739 62.847 277.478 65.645 264.924 71.09C264.319 70.863 263.638 70.788 262.92 70.825L262.844 69.88C262.693 68.065 263.487 65.796 265.227 63.036C266.21 57.817 267.306 54.906 268.441 54.225L278.991 30.629C278.877 29.23 281.108 28.096 285.646 27.226L287.159 27.113L287.272 28.549C291.734 27.831 294.532 27.415 295.667 27.302C303.986 26.583 308.334 28.247 308.675 32.331L309.658 32.255L309.469 29.986L310.452 29.911C312.872 31.234 314.158 32.822 314.309 34.713C314.422 36.074 313.742 37.738 312.305 39.667C311.662 39.742 311.284 39.289 311.208 38.305L310.225 38.381L309.923 41.217C305.725 47.608 302.662 50.897 300.734 51.049C299.032 53.355 297.973 54.528 297.482 54.565ZM301.906 70.296L301.793 68.859L302.776 68.784L304.893 70.069C304.931 70.674 304.629 71.015 303.986 71.09C303.078 70.523 302.398 70.258 301.906 70.296ZM125.882 162.146L124.899 162.373L124.067 163.091C124.219 163.696 124.597 163.923 125.24 163.772C125.882 163.621 126.147 163.243 125.996 162.638L125.882 162.146ZM122.139 154.697L122.252 155.188C122.895 155.037 123.16 154.659 123.009 154.054L122.895 153.562C122.29 153.713 122.025 154.092 122.139 154.697ZM148.911 104.404L149.63 103.95C149.478 103.95 149.365 103.912 149.251 103.875C148.987 103.95 148.873 104.139 148.911 104.404ZM148.76 91.358L149.894 91.094L149.667 90.11L148.533 90.375L148.76 91.358ZM415.991 129.55L413.419 129.248L412.965 130.231L413.003 130.723L428.318 129.437L428.242 128.492L415.991 129.55ZM429.982 128.378L430.057 129.323H430.208L430.133 128.378H429.982ZM494.227 119.983L494.303 120.929L495.967 121.231L495.891 120.286L494.227 119.983ZM491.883 120.172C480.388 122.744 478.951 122.29 476.531 122.479L476.606 123.424L477.665 123.349L478.232 123.311L478.081 123.198L479.329 122.706C490.711 121.458 492.034 121.912 491.921 120.626L491.883 120.172ZM422.873 103.459L421.852 103.119C421.02 105.349 420.604 106.673 420.642 107.051L420.679 107.467C421.474 107.429 422.192 106.068 422.873 103.459ZM409.033 96.01L408.995 95.518L408.466 95.556L407.52 96.161L408.05 97.068C408.768 96.993 409.108 96.652 409.033 96.01ZM439.095 127.092L439.019 126.147L438.717 126.185L438.792 127.13L439.095 127.092ZM501.488 113.026L502.206 112.95C502.622 112.912 502.811 112.572 502.773 111.967L502.357 111.059C499.748 111.286 498.538 111.4 496.421 112.572L496.383 112.08L493.244 112.383C493.169 111.437 492.904 110.946 492.488 110.984L490.862 111.135C488.971 111.286 488.064 111.211 487.118 111.929C487.081 111.589 486.967 111.437 486.778 111.437L484.963 111.589L483.904 112.194C483.866 111.853 483.753 111.702 483.564 111.702L482.921 112.269L482.883 111.778L480.35 111.589L479.745 111.627L479.82 112.572L481.106 112.912L482.316 112.837C482.732 113.101 483.186 113.177 483.715 113.139L484.774 112.61L484.812 113.026C478.875 114.5 478.913 114.236 474.829 114.916C474.375 114.614 474.035 114.463 473.808 114.5L473.732 114.576C473.279 114.538 473.014 114.236 472.976 113.744L475.094 113.479C475.245 113.479 475.358 113.631 476.53 113.858C478.232 113.026 478.308 112.685 479.215 112.61L479.14 111.664C473.316 112.799 475.661 112.042 468.363 112.685L468.022 112.723L467.947 111.778C477.325 110.643 474.186 111.286 477.4 110.379C477.438 110.719 477.552 110.87 477.741 110.87C478.086 110.518 478.538 110.292 479.026 110.227L479.669 110.19C482.959 109.925 484.056 110.568 490.56 108.753L490.597 109.169L491.656 108.639L492.639 108.564C492.564 107.618 494.001 107.467 494.492 107.429L494.417 106.408C482.997 108.715 480.009 108.072 476.833 108.98L476.795 108.564C473.808 109.093 473.695 108.866 472.938 108.904C472.711 108.942 472.371 109.131 471.993 109.509C471.955 109.169 471.842 109.017 471.615 109.017C471.501 109.017 471.464 109.055 471.426 109.055L461.745 110.643C461.708 110.379 461.594 110.227 461.367 110.265C456.338 111.324 457.699 111.513 450.968 112.118C450.666 112.156 450.25 112.307 449.721 112.647C449.683 112.383 449.531 112.232 449.191 112.269L445.069 112.61L442.309 113.29C442.271 113.026 442.12 112.874 441.78 112.912C440.229 113.328 438.868 113.593 437.771 113.668H437.696C437.015 113.744 438.036 113.479 437.507 113.253L436.675 113.744C435.465 113.858 436.108 113.668 431.948 113.706C424.65 114.614 425.444 114.727 424.65 114.765L421.927 114.576C421.965 114.841 421.814 115.03 421.511 115.03C418.411 114.614 416.823 114.122 416.785 113.555C417.201 110.606 417.919 109.093 418.94 109.017L419.47 108.98L419.016 109.963L419.545 109.925C420.528 109.395 420.982 108.904 420.944 108.45L420.869 107.429L419.885 107.505L419.81 106.559C419.734 105.841 419.848 105.198 420.112 104.669L422.343 101.076L422.419 102.022L423.478 101.946L423.402 101.001L422.797 100.131C423.591 99.45 424.196 99.072 424.688 99.034L424.65 98.543L423.213 98.656L423.1 97.219C425.974 91.245 427.335 87.766 427.259 86.783L428.28 87.199C428.923 87.161 429.225 86.783 429.188 86.102L428.204 86.178L428.167 85.762C428.097 85.0715 428.228 84.3755 428.545 83.758C430.095 82.132 430.814 80.506 430.662 78.804C430.965 78.766 431.116 78.918 431.154 79.258C432.478 78.502 433.499 76.497 434.255 73.17C436.599 68.935 439.927 60.464 444.275 47.797C452.595 25.411 452.254 23.029 453.426 17.735L452.443 17.81C452.519 18.491 452.368 19.134 452.065 19.739C451.384 19.474 450.855 19.323 450.477 19.361L450.439 18.945C450.288 17.016 451.082 14.71 452.897 11.987L453.351 11.949L454.183 15.201L455.166 15.126C455.128 14.899 455.393 13.613 455.922 11.231C455.884 10.739 455.506 10.437 454.75 10.399L453.805 11.004C453.729 10.323 453.767 8.546 453.88 5.71L453.388 5.748C452.557 4.916 452.141 4.235 452.103 3.668L446.695 4.197C446.658 3.819 446.469 3.252 446.09 2.533C446.053 2.042 447.263 1.55 449.758 1.059L450.855 1.475L451.876 0.87C451.914 1.21 452.103 1.361 452.481 1.323L453.502 0.718C453.54 1.059 453.729 1.21 454.107 1.172L454.599 1.134L454.523 0.038C453.767 0.113 451.763 0.113 448.586 0L447.565 0.681L447.527 0.076C422.154 2.155 407.747 3.328 404.306 3.668C403.852 3.706 402.075 3.668 398.937 3.592C398.974 4.008 398.596 4.235 397.84 4.311L396.743 3.819L393.038 4.765C392.168 4.84 390.693 4.802 388.651 4.575C388.084 5.029 387.403 5.294 386.571 5.37C386.118 5.407 391.979 5.067 397.424 4.689C396.857 5.143 395.987 5.407 394.777 5.521C393.945 5.596 393.227 5.483 392.622 5.143C391.79 5.521 389.105 6.126 384.605 7.033L383.509 6.617L365.812 9.34C365.131 9 364.337 8.886 363.429 8.962C362.484 9.037 360.896 9.378 358.703 9.983L350.157 13.537L350.799 14.596C351.215 14.558 351.82 14.331 352.539 13.915L355.564 14.18L355.186 17.016C352.388 18.264 350.762 20.117 350.308 22.461C346.111 24.314 344.031 25.638 344.031 26.432L344.069 26.923L344.711 26.886L345.846 26.281L347.169 27.869L347.358 30.062C347.434 30.743 340.363 45.603 326.22 74.645C313.969 102.627 307.54 117.942 306.935 120.702C302.738 121.874 300.318 123.576 299.599 125.845C299.675 126.563 300.923 127.055 303.343 127.244L303.456 128.34L302.36 130.155L302.549 132.349C302.662 133.483 305.725 134.353 311.738 134.958C311.7 134.58 311.889 134.353 312.305 134.315C312.418 135.676 312.04 138.323 311.17 142.256L311.813 142.218C314.309 138.815 315.481 136.47 315.368 135.185L315.897 135.147C316.502 135.109 317.145 135.79 317.901 137.264C317.145 137.567 314.498 143.579 309.96 155.339L310.603 156.398L311.246 156.36C316.805 142.294 320.284 134.504 321.72 133.029C329.019 132.386 341.648 131.101 359.572 129.172L360.707 128.491C360.744 128.87 360.971 129.059 361.387 129.021L362.56 128.907L363.694 128.227C363.732 128.605 363.959 128.794 364.375 128.756L377.95 127.584C381.542 127.281 383.244 126.185 383.092 124.332C383.055 123.84 385.172 123.273 389.445 122.668C389.861 122.63 390.466 122.744 391.298 123.008C391.26 122.668 393.416 122.328 397.727 121.95C397.84 119.681 398.558 118.471 399.844 118.357L399.731 117.261C398.521 117.374 397.159 117.677 395.571 118.206C392.735 118.055 390.92 117.828 390.164 117.563C389.407 117.979 388.84 118.206 388.424 118.244L378.971 118.546L377.836 119.151C377.798 118.811 377.572 118.66 377.156 118.698L376.626 118.735L375.416 119.341C375.378 119 374.395 118.735 372.429 118.471L371.219 119.189L368.875 119.378L368.837 118.773C381.013 117.45 387.025 115.786 386.874 113.82C387.668 113.744 388.084 114.122 388.159 114.916L391.714 114.009L391.601 112.912L362.446 113.706C362.484 114.084 362.295 114.311 361.879 114.349L358.324 114.047C357.417 114.122 356.661 114.387 356.056 114.841L354.732 114.349C351.064 114.652 348.341 115.105 346.526 115.673C344.031 115.484 341.27 115.521 338.207 115.786L331.666 116.353L328.641 116.013C328.489 114.084 332.233 104.593 339.947 87.577C342.178 81.829 344.22 78.237 346.186 76.876C346.602 76.838 347.207 76.989 348.039 77.329L352.69 75.741L355.072 76.119C359.081 75.779 363.732 74.645 369.064 72.678C370.387 72.565 371.37 72.641 372.089 72.943L375.643 72.111L386.231 71.203C390.731 70.825 395.609 69.842 400.903 68.216L400.789 67.12C398.823 67.309 397.802 66.968 397.727 66.174C397.613 64.7 396.176 64.094 393.416 64.321L393.302 63.225L396.214 62.393L403.852 61.75L403.739 60.654C403.436 60.691 401.886 60.654 399.012 60.54L398.899 59.368L401.848 59.103C402.642 59.028 402.983 58.649 402.907 57.893C398.937 58.006 396.932 57.817 396.895 57.288C369.215 58.649 355.337 58.914 355.262 58.044C354.846 58.082 354.278 58.347 353.522 58.801L352.804 57.666C360.139 42.087 364.45 34.221 365.698 34.108C365.736 34.713 365.433 35.696 364.79 37.02L364.828 37.511L366.001 37.398C368.912 30.44 371.37 26.848 373.412 26.697C382.109 25.94 372.202 25.373 390.807 22.461C391.563 22.802 392.092 22.953 392.47 22.915C399.768 21.44 409.94 19.89 422.986 18.302L422.91 17.205L415.953 17.848L415.877 16.751C416.709 16.676 417.39 16.411 417.957 15.957L417.995 16.562C418.373 16.525 418.902 16.26 419.583 15.806C420.793 15.693 421.7 15.806 422.343 16.146C424.763 15.504 426.73 15.125 428.167 14.974L432.515 14.558C433.574 13.878 434.066 13.273 434.028 12.705L433.99 12.214C432.893 12.327 431.646 12.252 430.171 11.987C430.133 11.382 430.435 10.966 431.154 10.777L439.246 10.021L442.952 9.075C442.99 9.491 443.179 9.642 443.481 9.642C443.859 9.605 444.389 9.34 445.069 8.886C445.259 8.924 445.485 8.924 445.674 8.962C445.183 9.983 444.616 11.458 444.048 13.386L442.99 13.462C442.914 12.743 442.725 12.1 442.385 11.533L441.855 11.571C432.024 38.948 427.637 51.692 418.562 72.716C416.898 78.086 415.499 81.073 414.289 81.716C414.327 82.321 414.705 82.623 415.348 82.548C415.575 85.195 414.97 87.804 413.495 90.375C409.297 102.476 406.499 109.093 405.062 110.303L406.008 116.013C406.045 116.618 405.743 116.958 405.1 117.034L404.117 117.11C403.966 115.521 403.398 114.765 402.378 114.879L401.848 114.916C400.562 116.92 399.579 119.227 398.937 121.912L399.92 121.836C401.243 120.967 401.848 119.946 401.735 118.773L403.701 118.584L404.835 119C403.928 120.437 403.512 121.572 403.588 122.441L404.117 123.349L402.831 126.374L402.869 126.866C404.004 126.752 405.251 127.13 406.575 127.924C407.482 127.849 408.466 127.433 409.562 126.714C410.697 126.601 414.932 126.563 422.23 126.563L425.898 125.315C430.36 125.277 431.078 125.391 434.935 125.05L436.523 124.899L437.355 124.332L437.393 124.824C441.439 124.483 441.704 124.748 444.88 125.126L444.918 125.618L442.687 125.807L442.763 126.752C443.443 126.676 444.048 126.487 444.54 126.071C445.107 126.034 445.447 126.336 445.485 127.017C444.578 127.092 443.557 127.319 442.422 127.697L441.439 127.357C439.889 127.773 440.229 127.886 439.17 127.962L437.62 127.66C437.658 127.924 437.507 128.113 437.242 128.113C437.28 128.718 437.62 129.021 438.187 128.983L439.775 128.832L448.057 128.113L451.195 127.433C451.233 127.697 451.346 127.849 451.611 127.811L453.124 127.244L455.96 127.017C458.153 126.828 458.115 126.676 462.88 125.92C462.842 125.618 462.955 125.504 463.182 125.466L463.22 125.882C470.972 124.559 471.463 124.483 472.711 124.067L472.825 124.294C474.753 123.84 473.657 123.954 474.186 123.576C474.224 123.916 474.337 124.067 474.526 124.067L475.888 123.954L475.812 122.933L473.052 122.895L473.014 122.819C472.9 122.857 472.825 122.857 472.711 122.895H472.333V122.971C470.48 123.349 470.442 123.084 469.232 123.198L462.312 123.576L462.275 123.084L466.132 122.555L467.531 122.441L468.325 121.874L468.363 122.366C473.808 121.912 475.736 123.273 500.92 117.904C502.282 117.79 502.168 116.656 503.038 114.311C502.577 114.343 502.117 114.238 501.715 114.009C499.635 114.803 498.538 114.425 494.53 115.068C494.19 115.106 493.925 114.803 493.811 114.198L493.773 113.782L497.63 113.895C498.349 113.82 499.748 113.706 501.828 112.534C501.828 112.874 501.034 113.063 501.487 113.026H501.488ZM315.292 116.013L313.515 116.164C313.439 115.446 314.385 112.723 316.351 108.072L317.523 107.959C317.561 109.055 316.842 111.74 315.292 116.013ZM317.448 107.391L317.41 106.9C317.372 106.295 317.75 105.879 318.582 105.69L318.62 106.181C318.658 106.9 318.279 107.316 317.448 107.391ZM341.081 125.655L341.119 126.147L338.17 126.412L338.132 125.92L341.081 125.655ZM337.527 125.353C337.565 125.958 336.657 126.639 334.691 127.319L331.06 127.055L329.888 127.168L329.775 126.071L337.527 125.353ZM361.425 15.352L359.648 15.504L359.61 14.899C359.572 14.294 359.913 13.878 360.669 13.689L361.312 13.651L362.522 14.142C362.559 14.861 362.219 15.277 361.425 15.352ZM388.462 10.058L389.029 10.021L389.105 11.117L387.479 11.268C387.441 10.663 387.743 10.248 388.462 10.058ZM381.655 12.441L378.971 12.138L378.933 11.647C382.45 11.344 383.622 10.966 385.777 10.361C385.815 10.777 386.193 10.928 386.874 10.853L386.949 11.949L385.891 12.063C385.059 12.138 384.34 12.025 383.735 11.684C383.092 12.1 382.412 12.365 381.655 12.441ZM385.021 22.235L384.983 21.743L389.332 21.327L389.37 21.819L385.021 22.235ZM389.672 18.453L389.634 17.848L391.752 17.659L391.79 18.264L389.672 18.453ZM390.164 11.042L389.596 11.079L390.088 9.907L394.928 9.453L394.966 10.058C393.718 10.172 392.092 10.512 390.164 11.042ZM392.622 21.478L392.546 20.382L394.664 20.193C395.382 20.117 395.76 20.457 395.798 21.214L392.622 21.478ZM405.44 4.008L402.718 4.765L402.226 4.802C400.941 4.916 399.277 4.878 397.31 4.689C400.827 4.462 404.193 4.197 405.44 4.008ZM402.529 16.109L402.567 16.6L398.823 16.941L398.785 16.449L402.529 16.109ZM408.655 19.02C408.617 18.567 407.898 18.264 406.424 18.113L402.68 19.172L399.806 19.285C399.163 18.831 398.823 18.529 398.785 18.302L402.113 18.491L409.6 17.281L413.419 17.432L413.457 18.037C411.566 18.226 409.978 18.567 408.655 19.02ZM447.187 9.075C447.641 9.113 447.943 9.113 448.057 9.113C449.38 7.827 450.855 6.806 452.557 6.088C451.195 12.063 449.078 16.487 446.166 19.361L444.048 18.075C445.826 13.575 446.885 10.588 447.187 9.075ZM440.683 20.23L441.212 20.193C440.494 21.554 439.851 22.272 439.322 22.31L439.208 20.873C439.549 20.873 440.04 20.646 440.683 20.23ZM436.486 30.251C437.507 26.167 438.49 23.861 439.397 23.256L439.435 23.747C438.906 27.528 438.074 29.533 436.977 29.684L437.166 32.066C436.259 33.352 435.843 34.335 435.88 35.091L435.351 35.129L435.049 31.839C435.654 31.764 436.145 31.234 436.486 30.251ZM434.86 35.696C434.897 36.263 434.519 37.587 433.763 39.629L433.234 39.667L433.12 38.23C433.839 36.566 434.445 35.734 434.86 35.696ZM404.344 124.256L404.306 123.84L405.289 123.765L405.403 125.202C404.873 125.24 404.495 124.937 404.344 124.256ZM447.943 125.391C447.905 125.05 447.754 124.899 447.414 124.937L444.956 125.164L444.918 124.672H445.145L450.968 124.181L451.006 124.672C449.305 124.748 448.284 125.013 447.943 125.391ZM445.032 124.181C445.259 124.294 445.145 124.408 445.032 124.483C444.918 124.445 444.767 124.332 445.032 124.181ZM445.334 117.374L442.082 117.639L442.044 117.147L444.994 116.883L447.565 116.24C447.603 116.542 447.754 116.656 448.095 116.618C451.158 116.089 450.855 115.937 452.33 115.824C452.821 115.786 453.124 116.089 453.162 116.694L445.334 117.374ZM456.716 116.391C454.901 116.202 454.788 116.051 453.502 116.164L453.464 115.748L456.376 115.484L456.414 115.9C456.111 115.937 457.208 116.013 456.716 116.391ZM456.943 115.862L456.905 115.446L458.493 115.294L458.531 115.71L456.943 115.862ZM460.46 115.559L460.422 115.143C460.687 115.106 461.065 114.916 461.556 114.538C462.35 114.463 462.766 114.992 462.842 115.597L460.46 115.559ZM464.96 114.992L464.922 114.5L466.85 114.349L466.888 114.841L464.96 114.992ZM467.644 114.765C467.607 114.198 467.833 113.858 468.325 113.782L468.968 114.614C468.93 114.349 469.043 114.198 469.27 114.16L469.762 115.068L467.644 114.765ZM504.853 110.379L504.891 110.341V110.303C504.891 110.303 504.853 110.341 504.853 110.379ZM505.534 109.887C505.836 109.698 505.988 109.509 505.269 109.396C504.929 109.774 505.647 109.887 504.891 109.925L504.929 110.265C505.004 110.19 505.194 110.076 505.345 109.963L504.929 110.303V110.341L504.135 111.362L505.723 110.795H505.912L505.836 109.849L505.534 109.887ZM508.294 112.043L507.992 112.08L508.067 113.026L510.298 112.837C510.261 112.232 508.786 112.043 508.294 112.043Z" fill="#F9DC3E"/>
</g>
<defs>
<clipPath id="clip0_623_1285">
<rect width="512" height="200" fill="white"/>
</clipPath>
</defs>
</svg>
