<svg width="32" height="32" viewBox="0 0 32 32" fill="none" xmlns="http://www.w3.org/2000/svg">
<path d="M26.1099 17.5708C25.2306 17.572 24.3631 17.773 23.5729 18.1588C23.3255 17.7483 23.1345 17.3063 23.0049 16.8448C22.9305 16.4831 22.9133 16.1119 22.9539 15.7448C23.0394 15.3409 23.1503 14.9428 23.2859 14.5528C23.2809 14.5018 23.2249 14.2608 22.6619 14.2528C22.0989 14.2448 21.6139 14.3598 21.5619 14.5088C21.4641 14.781 21.3856 15.0597 21.3269 15.3428C20.861 16.4923 20.2874 17.5952 19.6139 18.6368C19.2366 18.0182 19.0814 17.2895 19.1739 16.5708C19.2594 16.1669 19.3703 15.7688 19.5059 15.3788C19.5009 15.3278 19.4449 15.0868 18.8819 15.0788C18.3189 15.0708 17.8339 15.1858 17.7819 15.3348C17.7299 15.4838 17.6639 15.8348 17.5469 16.1688C17.4299 16.5028 16.0639 19.5548 15.7059 20.3418C15.5219 20.7418 15.3629 21.0678 15.2509 21.2878C15.2456 21.3021 15.2389 21.3158 15.2309 21.3288L15.0779 21.6208V21.6258C15.0009 21.7638 14.9189 21.8918 14.8779 21.8918C14.8064 21.6061 14.8098 21.3068 14.8879 21.0228C15.0879 19.9638 15.5779 18.3178 15.5729 18.2608C15.5729 18.2298 15.6649 17.9438 15.2559 17.7958C15.161 17.7507 15.0545 17.7361 14.951 17.754C14.8475 17.7719 14.7521 17.8214 14.6779 17.8958C14.6419 17.8958 14.6169 17.9828 14.6169 17.9828C14.6169 17.9828 15.0619 16.1318 13.7679 16.1318C13.264 16.2332 12.7854 16.4343 12.3604 16.7233C11.9354 17.0124 11.5724 17.3835 11.2929 17.8148C10.9449 18.0038 10.2039 18.4078 9.41091 18.8428C9.11091 19.0118 8.79691 19.1808 8.50591 19.3428C8.48591 19.3228 8.46491 19.2968 8.44491 19.2768C6.86991 17.5988 3.97491 16.4148 4.09991 14.1698C4.14591 13.3518 4.42691 11.2038 9.65891 8.59482C13.9649 6.47282 17.3919 7.06082 17.9849 8.36482C18.8339 10.2268 16.1489 13.6838 11.6999 14.1848C11.2077 14.2847 10.6994 14.2726 10.2125 14.1496C9.72556 14.0265 9.27254 13.7956 8.88691 13.4738C8.65191 13.2178 8.61591 13.2028 8.52891 13.2538C8.38591 13.3308 8.47791 13.5608 8.52891 13.6938C8.69863 14.001 8.92819 14.271 9.20404 14.4879C9.47988 14.7048 9.7964 14.8643 10.1349 14.9568C11.8851 15.335 13.7099 15.1542 15.3519 14.4398C18.0519 13.3968 20.1519 10.4968 19.5359 8.06782C18.9169 5.60282 14.8259 4.78982 10.9539 6.16782C8.52866 6.9839 6.28774 8.26933 4.35891 9.95082C2.22591 11.9458 1.88891 13.6788 2.02691 14.4058C2.52691 16.9838 6.07791 18.6608 7.49891 19.9058C7.4347 19.9423 7.37003 19.978 7.30491 20.0128C6.59391 20.3658 3.88391 21.7828 3.20491 23.2808C2.43791 24.9808 3.32791 26.1958 3.91591 26.3598C4.80191 26.5719 5.73203 26.502 6.57642 26.16C7.4208 25.8179 8.13731 25.2208 8.62591 24.4518C9.04197 23.814 9.29772 23.0851 9.37137 22.3272C9.44502 21.5693 9.33439 20.8048 9.04891 20.0988C9.04408 20.0874 9.03732 20.0769 9.02891 20.0678L9.58591 19.7408C9.92436 19.5408 10.2671 19.348 10.6139 19.1628C10.4057 19.7633 10.2835 20.3901 10.2509 21.0248C10.1802 21.9976 10.4779 22.9614 11.0849 23.7248C11.1773 23.8043 11.2845 23.8647 11.4004 23.9025C11.5162 23.9402 11.6384 23.9546 11.7599 23.9448C12.3599 23.9448 12.6349 23.4448 12.9359 22.8508C13.3039 22.1248 13.6359 21.2808 13.6359 21.2808C13.6359 21.2808 13.2219 23.5618 14.3469 23.5618C14.7559 23.5618 15.1699 23.0298 15.3549 22.7618V22.7668L15.3859 22.7158L15.4519 22.6088V22.5988C15.6159 22.3128 15.9839 21.6628 16.5309 20.5838C17.2369 19.1928 17.9169 17.4538 17.9169 17.4538C17.9825 17.836 18.073 18.2135 18.1879 18.5838C18.3526 19.0328 18.5474 19.4701 18.7709 19.8928C18.6069 20.1228 18.5049 20.2508 18.5049 20.2508L18.5099 20.2558C18.3769 20.4298 18.2339 20.6188 18.0749 20.8028C17.6018 21.3229 17.1629 21.8731 16.7609 22.4498C16.7012 22.5467 16.6806 22.6627 16.7035 22.7742C16.7264 22.8857 16.7909 22.9843 16.8839 23.0498C17.0944 23.1594 17.3344 23.1989 17.5689 23.1628C17.9224 23.1429 18.2699 23.0634 18.5969 22.9278C18.9129 22.8166 19.211 22.66 19.4819 22.4628C19.7611 22.2694 19.9859 22.0073 20.1346 21.7019C20.2833 21.3965 20.3509 21.0579 20.3309 20.7188C20.2995 20.2917 20.1903 19.8738 20.0089 19.4858C20.0599 19.4138 20.1089 19.3428 20.1569 19.2708C20.7254 18.4222 21.2379 17.5373 21.6909 16.6218C21.7565 17.004 21.847 17.3815 21.9619 17.7518C22.0978 18.1398 22.265 18.516 22.4619 18.8768C21.8079 19.38 21.2927 20.0415 20.9649 20.7988C20.6429 21.7298 20.8929 22.1488 21.3649 22.2458C21.6232 22.2636 21.8814 22.2107 22.1119 22.0928C22.4508 21.9815 22.77 21.8174 23.0579 21.6068C23.3615 21.4277 23.6157 21.1759 23.7978 20.8741C23.9798 20.5722 24.084 20.2299 24.1009 19.8778C24.0782 19.5264 23.9988 19.1809 23.8659 18.8548C24.729 18.5176 25.6648 18.4101 26.5819 18.5428C29.0159 18.8288 29.4969 20.3478 29.4049 20.9878C29.3618 21.2147 29.2705 21.4297 29.1374 21.6184C29.0042 21.8071 28.8322 21.9651 28.6329 22.0818C28.4639 22.1888 28.4079 22.2248 28.4229 22.3018C28.4429 22.4148 28.5229 22.4088 28.6679 22.3888C29.0347 22.2748 29.3584 22.0523 29.5962 21.7506C29.834 21.4489 29.9748 21.0822 29.9999 20.6988C30.0769 19.1988 28.6449 17.5538 26.1129 17.5688L26.1099 17.5708ZM7.32991 23.8988C6.52191 24.7788 5.39691 25.1108 4.91091 24.8298C4.38891 24.5298 4.59391 23.2298 5.58591 22.2978C6.17436 21.7681 6.81038 21.2938 7.48591 20.8808C7.60391 20.8088 7.77791 20.7068 7.98591 20.5808L8.04191 20.5498L8.16491 20.4728C8.34213 21.0666 8.3582 21.6969 8.21147 22.2989C8.06473 22.901 7.76047 23.4532 7.32991 23.8988ZM13.2109 19.8988C12.9299 20.5838 12.3419 22.3388 11.9839 22.2408C11.6769 22.1588 11.4839 20.8288 11.9229 19.5148C12.1446 18.8823 12.4674 18.2899 12.8789 17.7608C13.3189 17.2698 13.8049 17.1058 13.9219 17.3058C13.8152 18.2007 13.5755 19.0747 13.2109 19.8988ZM18.0639 22.2208C17.9459 22.2818 17.8339 22.3208 17.7829 22.2928C17.7469 22.2728 17.8339 22.1928 17.8339 22.1928C17.8339 22.1928 18.4429 21.5378 18.6829 21.2418C18.8209 21.0678 18.9829 20.8638 19.1589 20.6328V20.6988C19.1589 21.4808 18.4019 22.0078 18.0649 22.2228L18.0639 22.2208ZM21.8079 21.3668C21.7209 21.3058 21.7359 21.1008 22.0279 20.4618C22.2309 20.0514 22.5146 19.6862 22.8619 19.3878C22.9151 19.5392 22.9429 19.6984 22.9439 19.8588C22.9478 20.2004 22.8386 20.5336 22.6333 20.8066C22.428 21.0795 22.1381 21.2769 21.8089 21.3678L21.8079 21.3668Z" fill="#CD6799"/>
</svg>
