<svg width="256" height="256" viewBox="0 0 256 256" fill="none" xmlns="http://www.w3.org/2000/svg">
<g clip-path="url(#clip0_623_1288)">
<path d="M255.902 121.097C255.816 117.813 255.642 114.443 255.47 111.159C255.297 107.789 255.21 104.419 254.865 101.049C254.26 96.4673 253.655 91.8013 252.618 87.3073C251.84 83.5913 250.544 80.0483 249.248 76.5053C247.606 72.3563 245.964 68.1223 243.89 64.1473C240.519 57.7523 236.112 52.0483 232.05 46.0853C229.37 42.2823 225.915 39.1713 223.322 35.2833C221.852 33.0363 219.692 31.1343 217.532 29.4063C214.075 26.6413 210.445 24.1343 206.816 21.7163C204.05 19.8133 201.285 17.9993 198.346 16.3573C196.013 15.0603 193.506 14.0233 191.086 12.9003C188.322 11.6033 185.643 10.0483 182.532 9.44334C181.754 9.27034 181.062 9.01134 180.285 8.75334C178.297 8.06034 176.395 7.28334 174.408 6.67834C171.384 5.72834 168.446 4.60334 165.334 3.82634C162.31 3.04834 159.199 2.52934 156.088 2.09734C152.631 1.57934 149.088 1.40734 145.631 1.06034C143.384 0.801344 141.137 0.542344 138.976 0.455344C135.693 0.283344 132.322 0.283344 129.038 0.196344C127.396 0.110344 125.668 -0.0626565 124.026 0.0233435C121.52 0.110344 119.014 0.369344 116.506 0.715344C114.088 0.975344 111.668 1.40634 109.334 1.75234C106.483 2.09734 103.631 2.27034 100.779 2.61634C98.0986 2.96234 95.3346 3.48034 92.6556 3.91234C91.7046 4.08534 90.7536 4.43234 89.8036 4.60334C87.7296 5.03634 85.5686 5.20934 83.4936 5.90034C79.7786 7.02334 76.0626 8.32034 72.4326 9.70234C69.0626 11.0853 65.7786 12.5543 62.5816 14.2833C59.2976 16.0973 56.1866 18.2583 53.0746 20.3333C50.1366 22.3193 47.1986 24.3943 44.3466 26.6413C41.5816 28.8013 38.9886 31.2213 36.4826 33.6413C35.0996 35.0233 33.9766 36.6653 32.6796 38.2213C30.5196 40.7273 28.3586 43.1473 26.2846 45.7393C24.5566 47.9003 22.9996 50.1473 21.3596 52.3943C18.4196 56.3693 15.9146 60.6043 13.5816 64.8383C12.6306 66.5663 11.7666 68.2953 10.9016 70.0233C9.60559 72.6163 8.22359 75.1233 7.01359 77.8013C6.14959 79.6163 5.45759 81.6033 4.93959 83.5913C3.71808 87.8434 2.53703 92.1069 1.39659 96.3813C0.359586 100.183 0.0995862 104.16 0.0135862 108.048C-0.0734138 111.504 0.272586 114.875 0.618586 118.332C0.704586 119.196 0.186586 120.233 1.22359 120.924C1.30959 120.924 1.22359 121.27 1.13659 121.356C0.876586 121.876 1.13659 122.393 1.65559 122.566C1.65559 122.566 1.74159 122.653 1.74159 122.739H1.30959C1.04959 123.517 1.91459 124.122 1.56859 124.986C1.48259 125.159 1.82859 125.504 2.00059 125.764C2.00059 126.024 1.91459 126.369 2.00059 126.628C2.08759 127.406 2.43359 128.183 2.43359 129.048C2.43359 129.653 2.95159 130.344 3.12359 130.949C3.21059 131.209 3.12359 131.64 2.95159 131.813C2.43359 132.418 2.51959 132.937 3.29759 133.283C3.47059 133.369 3.72959 133.714 3.72959 133.887C3.72959 134.407 3.55659 134.924 3.46959 135.443C3.64259 135.616 3.72959 135.788 3.64259 135.961C3.64259 136.221 3.38259 136.481 3.47059 136.653C4.16059 138.035 4.42059 139.591 4.50759 141.146C4.50759 141.492 4.68059 141.838 4.85259 142.27C4.93959 142.27 5.19859 142.27 5.37159 142.356L4.85159 143.912C5.28459 143.652 5.63059 143.566 6.06159 143.393C6.32159 144.517 6.58159 145.554 6.92659 146.504C7.01359 146.677 7.18659 146.85 7.44559 147.024C7.35859 147.196 7.35859 147.541 7.18559 147.628C7.53159 149.183 7.70459 150.653 8.30959 152.122C8.39659 152.122 8.48259 152.035 8.56859 152.035C8.30859 150.48 8.13659 148.838 7.87759 147.282V146.764C7.87759 146.764 8.05059 146.677 8.13659 146.677C8.22359 147.023 8.39659 147.455 8.39659 147.714C9.08659 147.714 10.1246 148.146 10.8156 148.146C10.9026 147.887 10.9886 147.541 11.0756 147.369C10.5556 146.85 10.1246 146.072 9.60559 145.554C9.77859 146.245 9.60559 146.504 9.60559 146.764C9.20926 146.575 8.80561 146.402 8.39559 146.245C8.74159 145.813 9.08759 145.381 9.60559 144.862C9.60559 144.085 9.17359 143.393 7.96359 143.48C8.48259 143.307 9.00159 143.048 9.60559 142.875C9.69259 143.135 9.77859 143.393 9.86559 143.566C10.5556 142.356 9.51959 141.406 9.51959 140.196C9.60559 138.727 8.74159 137.258 8.48259 135.702C8.05059 133.282 8.13659 129.653 7.87759 127.233C7.87759 127.06 7.61759 126.887 7.44559 126.714C7.35859 126.801 6.92559 127.924 6.84059 128.011C7.09959 130.085 7.35859 132.159 7.53059 134.233C7.44559 134.233 7.35859 134.233 7.35859 134.319C7.01359 132.504 6.66759 130.603 6.23559 128.529C6.14959 129.134 6.06259 129.393 6.06259 129.739C5.80259 129.653 5.71759 129.566 5.28459 129.393C5.63059 130.171 5.97659 130.69 6.23459 131.295C5.63059 131.035 4.93959 131.122 4.93959 131.122V133.542C4.07559 132.677 3.81559 131.986 3.38359 131.382C3.21059 130.69 3.12359 129.998 2.95159 129.307L3.21059 129.22C3.12459 128.875 2.95059 128.615 2.95059 128.356C2.85392 127.666 2.7679 126.975 2.69259 126.282C2.77859 126.196 3.12459 126.109 3.29759 125.937L2.60559 124.9C3.29759 124.986 3.72959 125.072 4.16159 125.072C4.16159 124.9 4.24759 124.813 4.16159 124.727C3.29759 123.949 3.90159 123.257 4.24759 122.567C4.42059 122.22 5.02559 122.134 5.19759 121.788C5.88959 120.492 7.01359 119.455 7.01359 117.813C7.01359 117.035 7.27259 116.171 7.35859 115.393C7.53159 113.924 7.70459 112.455 7.79159 110.986C7.96359 109.086 7.79159 107.183 8.22359 105.369C8.91359 102.344 9.77859 99.3193 10.7296 96.2953C11.4196 94.1353 12.1986 92.0603 13.0626 89.9003C14.3596 86.5303 15.5686 83.1603 17.2106 79.9613C19.5446 75.2953 22.2236 70.8013 24.8156 66.2213C26.4576 63.3693 28.1856 60.6913 30.0006 57.9243C31.7296 55.2453 33.4576 52.4803 35.4456 49.9743C38.2106 46.4313 41.2356 43.1473 44.6056 40.2083C48.0626 37.0983 51.3456 33.9003 55.0626 31.0483C59.9026 27.3323 65.0006 24.0483 70.4456 21.1963C74.8526 18.8633 79.4326 17.0483 84.0136 15.3193C86.9516 14.1963 90.1486 13.6793 93.1736 12.7273C96.6306 11.6033 100.088 11.0853 103.717 10.9983C106.051 10.9123 108.297 10.6533 110.631 10.3943C112.705 10.2213 114.779 10.0483 117.026 9.78934C116.857 10.0036 116.712 10.2352 116.594 10.4803C115.643 11.8633 114.606 13.2453 113.656 14.6283C112.878 15.7523 112.014 16.9613 111.236 18.0853C109.853 19.9003 108.384 21.7153 107.088 23.6163C105.1 26.4683 103.285 29.4063 101.211 32.2583C99.1366 35.0233 96.8896 37.6163 94.7296 40.2953C91.8776 44.0113 89.1986 47.8133 86.3466 51.5293C83.7536 55.0733 80.9886 58.4433 78.4826 61.9863C76.2356 65.0973 74.2476 68.3813 72.0876 71.5793C68.8896 76.3323 65.6926 80.9993 62.4946 85.7513C59.9887 89.3728 57.4536 92.9739 54.8896 96.5543C54.7166 96.8143 54.4576 96.9003 54.1986 97.0723C54.0256 97.2453 53.6786 97.4183 53.6786 97.5923C53.5076 98.1963 53.5076 98.8023 53.2476 99.3193C52.5566 100.616 51.8656 101.912 51.0876 103.122C50.6556 103.813 50.0506 104.418 49.5316 105.109C49.3586 105.023 49.2716 104.937 49.0996 104.937C49.4456 104.072 50.9146 103.554 50.2236 102.258C49.7916 102.949 49.3586 103.554 48.9266 104.245L47.8896 106.319C48.2356 106.579 48.8396 106.751 48.2356 107.27C47.9756 107.702 47.7156 108.22 47.4576 108.653C47.5446 108.653 47.5446 108.739 47.6306 108.739C47.8896 108.393 48.1496 108.134 48.4086 107.789C48.4946 107.789 48.5816 107.875 48.6676 107.875C48.4076 108.739 47.8896 109.517 47.4576 110.295C47.1116 110.986 46.2476 111.505 45.6426 112.023C45.7296 112.109 46.3346 112.369 46.4206 112.455C46.6796 112.109 46.7666 112.282 47.0256 111.937C47.1986 112.197 47.4576 111.764 47.5446 112.023C47.8036 111.677 48.0626 111.418 48.1496 111.159C48.4946 110.295 49.0136 109.603 49.8776 109.259C50.2236 109.085 50.4826 108.825 50.7416 108.566C53.3346 105.887 56.0136 103.296 58.3466 100.443C61.9766 96.0353 65.2606 91.4553 68.7166 86.9613C70.1866 85.0613 71.9146 83.1593 73.4696 81.3443C73.6426 81.4313 73.8156 81.4313 73.9026 81.5173C73.7296 83.3323 73.5566 85.2333 73.4696 87.0483C73.2096 90.2453 73.0376 93.4433 72.7786 96.7283C72.6926 98.0233 72.7786 99.3193 72.6926 100.616C72.6926 100.961 72.4326 101.22 72.4326 101.566C72.4326 102.43 72.6926 103.381 72.6926 104.246C72.4326 107.443 72.0876 110.554 71.8276 113.751C71.7416 114.443 72.0876 115.134 72.2606 115.739C72.1736 115.653 72.0876 115.566 71.8276 115.393C71.8276 120.406 72.7776 125.333 72.0006 130.258C72.3466 130.171 72.5196 130.085 72.5196 129.912C72.6056 129.307 72.7786 128.702 72.7786 128.097C72.8656 127.579 72.7786 127.06 72.7786 126.455V125.591C72.8656 124.035 73.2106 122.393 73.0376 120.838C72.8656 119.109 72.8656 117.468 73.2106 115.825C73.3836 115.135 73.1246 114.27 73.5566 113.406V114.702C73.4696 119.628 73.6426 124.554 72.9516 129.48C72.8656 129.912 73.2106 130.69 72.2606 130.603C72.1736 130.603 72.0876 131.035 71.9146 131.295C71.4826 132.159 72.4326 133.282 71.5686 134.146C71.3956 134.319 71.7416 135.097 71.8276 135.616C71.8276 135.788 71.9146 135.961 71.8276 136.048C71.4826 136.653 71.4826 136.653 72.0006 136.739C72.0876 138.64 72.2606 140.369 72.3466 142.183H72.6056C73.7296 138.899 73.0376 135.529 73.6426 132.159C73.7296 133.541 73.8156 134.924 73.7296 136.393C73.7296 138.64 73.6426 140.801 73.5566 143.048C73.5566 143.48 73.4696 143.912 73.3836 144.344C73.1236 145.554 73.0376 146.764 72.6056 147.887C72.2606 148.751 72.4326 150.048 72.4326 151.085V154.368C72.4326 154.455 72.6926 154.714 72.6926 155.06C72.7786 155.838 72.3466 156.616 72.6056 157.48C72.6926 157.653 72.5196 157.912 72.4326 158.085C72.3466 158.345 72.2606 158.603 72.3466 158.862L72.6056 160.159C72.6056 160.245 72.6926 160.332 72.7786 160.504C72.8656 160.159 72.8656 159.899 72.8656 159.814C74.3346 159.986 73.5556 161.282 74.2476 161.974C73.9026 162.146 73.6426 162.234 73.6426 162.319C73.7296 162.665 73.9026 162.924 73.9026 163.27C73.9026 164.047 73.8156 164.74 73.7296 165.517C73.7296 167.504 73.6426 169.492 73.6426 171.393C73.6426 171.653 73.7296 171.913 73.7296 172.171C73.7296 172.344 73.6426 172.517 73.6426 172.776V174.591H73.9886C73.8156 174.851 73.6426 175.109 73.3836 175.368C73.2976 175.368 73.0376 175.368 73.0376 175.282V164.393H71.7416C71.5686 169.578 72.0006 174.245 71.0506 179.084C70.0136 179.171 69.6676 179.344 68.5446 179.344C65.8646 179.344 63.1866 179.344 60.5076 179.43C57.3096 179.43 54.1976 179.517 51.0006 179.517C49.4456 179.517 47.8036 179.689 46.2476 179.689C44.1736 179.689 42.0136 179.43 39.9396 179.43C36.7416 179.43 33.6296 179.69 30.4336 179.776C28.0996 179.862 25.7666 179.862 23.4336 179.949C21.8776 180.035 20.3216 180.122 18.7666 180.294C18.0756 180.381 17.4706 180.64 16.6056 180.899C16.3456 180.899 15.7416 180.813 15.2236 180.899C14.3596 181.072 13.5816 181.591 12.7176 181.763C11.4206 182.023 11.0756 182.368 11.2476 183.665V184.529C11.0678 184.357 10.864 184.211 10.6426 184.097C10.5566 184.097 10.4706 184.183 10.4706 184.183C10.5566 184.443 10.7296 184.615 10.8156 184.875C11.1616 184.702 11.5936 184.27 11.9396 184.27H13.1496C12.9766 184.27 12.8896 184.788 12.6296 185.22C13.1511 185.025 13.6701 184.824 14.1866 184.615C14.2726 184.875 14.2726 185.22 14.2726 185.307C15.4826 185.22 16.6056 184.875 17.6426 185.134C21.0126 185.998 24.4706 186.344 27.9266 186.689C30.1736 186.862 32.3346 186.949 34.5816 187.035C37.7786 187.208 40.9766 187.381 44.1736 187.381C46.8526 187.381 49.4456 187.122 52.1236 187.122C55.8406 187.122 59.5566 187.294 63.2726 187.382C64.0506 187.382 64.9146 187.294 65.7786 187.294H72.0876C77.7046 187.122 83.3216 187.035 88.9396 186.862C92.1366 186.776 95.4196 186.603 98.6186 186.517L108.469 186.257C112.273 186.171 116.075 186.171 119.791 186.084C122.643 186.084 125.409 185.998 128.26 185.912C131.458 185.825 134.742 185.566 137.939 185.393C139.668 185.307 141.396 185.134 143.125 184.961C145.199 184.788 147.359 184.529 149.433 184.442C152.543 184.27 155.742 184.183 158.853 184.01C162.742 183.751 166.631 183.405 170.606 183.32C174.236 183.146 177.952 183.233 181.581 183.146C184.779 183.06 187.976 182.887 191.26 182.801L196.705 182.541C196.705 182.541 200.334 182.455 202.149 182.282C205.259 182.109 208.371 181.763 211.482 181.677C213.47 181.591 215.458 181.677 217.445 181.591C220.643 181.504 223.927 181.331 227.124 181.331C228.334 181.331 229.631 181.504 231.186 181.591C230.495 182.196 230.063 182.541 229.544 182.973C229.89 183.06 230.234 183.233 230.581 183.405C230.581 183.492 230.495 183.578 230.495 183.751C230.063 183.751 229.631 183.838 229.198 183.838C229.026 184.27 228.853 184.442 228.68 185.308H230.235C229.631 185.308 229.112 186.084 228.507 186.603C228.594 186.689 228.68 186.689 228.766 186.776C227.816 186.43 227.211 186.603 226.865 187.554C227.124 187.64 227.297 187.64 227.555 187.64C227.47 187.9 227.384 188.16 227.297 188.504C227.211 188.677 227.124 188.85 227.124 189.109L226.864 188.85C226.864 188.677 226.864 188.504 226.779 188.331C226.259 188.851 225.482 189.196 225.914 190.319C225.569 190.492 225.137 190.665 224.704 190.924C224.791 191.097 224.964 191.27 225.05 191.529C224.273 191.615 223.495 191.789 223.668 192.739C224.013 192.825 224.358 192.999 224.618 193.084C224.186 193.257 223.754 193.516 223.322 193.689C223.235 193.862 223.149 194.294 222.976 194.381C221.766 194.641 222.458 195.072 222.803 195.504C222.543 195.677 222.285 195.85 222.026 195.936C222.285 196.023 222.458 196.109 222.631 196.282C222.371 196.455 222.198 196.542 222.026 196.628C222.198 196.714 222.458 196.888 222.544 196.888C222.198 197.146 221.766 197.492 221.248 197.924C221.248 198.097 221.248 198.184 221.334 198.356C220.989 198.702 220.643 199.047 220.297 199.566C219.952 200.084 219.779 200.776 219.347 201.294C217.532 203.282 216.235 205.615 213.902 207.171C213.038 207.776 212.26 208.553 211.482 209.331C209.927 210.801 208.544 212.442 206.902 213.825C204.742 215.64 202.495 217.282 200.161 218.925C197.31 220.911 194.458 222.899 191.606 224.8C190.05 225.837 188.322 226.615 186.68 227.566C185.038 228.516 183.483 229.381 181.84 230.331C180.803 231.023 179.853 231.973 178.729 232.492C175.877 233.702 172.853 234.739 169.915 235.862C169.655 235.948 169.483 236.035 169.223 236.122C167.063 237.072 164.989 238.109 162.828 238.887C160.84 239.578 158.767 240.097 156.692 240.529C156.001 240.702 155.222 240.529 154.446 240.615C152.976 240.875 151.506 241.22 150.038 241.393C146.236 241.913 142.433 242.257 138.631 242.776C136.384 243.036 134.223 243.467 131.976 243.726C130.421 243.813 128.779 243.64 127.223 243.64C126.1 243.64 124.89 243.9 123.766 243.726C121.952 243.467 120.136 243.036 118.322 242.689C117.89 242.603 117.285 242.43 116.939 242.603C116.248 242.948 115.643 242.43 114.952 242.603C114.52 242.689 114.088 242.344 113.655 242.344C113.31 242.257 112.878 242.43 112.445 242.344C111.495 242.084 110.631 241.739 109.594 241.825C108.557 241.912 107.52 241.393 106.396 241.135C104.841 240.788 103.372 240.442 101.816 240.097C101.211 239.924 100.693 239.665 100.088 239.319C99.9146 239.405 99.6546 239.579 99.3096 239.579C97.8396 239.319 96.3716 239.233 94.9886 238.714C93.7786 238.282 92.6556 237.677 91.3586 237.85C91.0136 237.936 90.7536 237.763 90.4086 237.763C90.1486 237.418 89.8886 236.726 89.6306 236.726C87.9006 236.813 86.8646 235.344 85.3956 234.912C84.6176 234.652 84.0136 233.788 83.2356 233.529C81.3346 232.751 79.7786 231.109 77.6186 230.85C76.9266 230.763 76.2356 230.418 75.4576 230.158C75.7166 230.504 75.8896 230.763 76.1476 231.023L75.9756 231.195C73.6426 229.813 71.3096 228.43 68.9756 227.135C68.6306 227.047 68.3716 226.702 68.1116 226.529L65.7786 224.973C65.5186 224.8 65.0006 224.541 65.0006 224.627C64.4826 225.233 63.9636 224.714 63.6186 224.541C61.2846 222.899 58.6056 221.862 56.3586 220.047C55.4086 219.27 54.2846 218.751 53.5936 217.8C52.3836 216.331 50.9136 215.294 49.2726 214.43C47.9766 213.74 46.7666 212.961 45.5566 212.183C44.9516 211.751 44.3466 211.233 44.3466 210.283C44.3466 209.677 44.0866 209.073 43.3096 209.418C42.9636 208.899 42.6186 208.294 42.1866 208.121C41.1496 207.689 40.4566 206.912 39.6796 206.221C38.9026 205.529 38.2976 204.578 37.3466 204.233C35.6186 203.541 34.5816 202.073 33.5446 200.863C31.1246 198.01 28.9636 194.899 26.7166 191.874C26.5446 191.615 26.1986 191.442 25.9396 191.184L25.8526 191.27C26.2846 192.134 26.7166 192.912 27.1496 193.776C27.0626 193.862 26.8896 193.949 26.8036 194.036C26.2836 193.43 25.6796 192.826 25.1616 192.22C25.0746 192.307 24.9886 192.393 24.9016 192.393L31.1246 202.245C31.6426 203.023 32.0746 203.8 32.5936 204.578C32.4954 204.686 32.3781 204.774 32.2476 204.838C31.2976 204.665 30.4336 203.973 30.0006 203.195C29.2236 201.813 28.3586 200.949 26.6306 201.121C26.4576 200.516 26.2846 199.825 26.1986 199.221C25.8526 199.221 25.5936 199.221 24.9886 199.134C26.1986 201.035 27.2356 202.677 28.3586 204.578C27.9266 204.319 27.6676 204.146 27.4946 204.06C29.0506 205.702 30.1736 207.776 32.1616 208.813C32.5936 210.8 34.8406 211.751 35.3586 213.653C34.9266 213.566 34.5816 213.479 34.1486 213.393C33.4576 212.529 32.6786 211.665 31.9026 210.714C32.0746 211.319 32.3346 211.837 32.6796 212.27C33.7166 213.566 34.6676 214.862 35.8776 215.986C36.3096 216.418 36.9146 216.591 36.9146 217.368C37.0876 217.195 37.2606 217.109 37.6046 216.936C37.4326 217.282 37.3466 217.456 37.2606 217.714C37.6056 217.714 37.8656 217.8 38.1246 217.8C38.2976 218.32 38.0376 219.097 39.0746 218.924C39.1616 218.924 39.2476 219.01 39.3346 219.097C39.7666 220.22 40.4576 220.22 41.4086 219.788C41.5816 219.702 42.0136 219.788 42.0986 219.961C42.5316 220.911 43.1366 220.998 43.9146 220.307C43.9146 220.739 44.0006 221.171 44.0006 221.517H44.3466C44.3466 221.344 44.2606 221.084 44.2606 220.652C44.6926 220.998 44.9506 221.172 45.1246 221.344C45.9886 222.554 46.7666 223.677 47.9766 224.627C49.6186 226.01 51.0866 227.479 52.6426 228.777C55.6676 231.282 59.0376 233.357 62.4086 235.257C66.5566 237.59 70.5316 240.097 74.7666 242.343C79.8646 245.023 85.3096 246.837 90.9266 248.134C93.0006 248.566 94.9886 248.998 97.0626 249.516C98.8776 250.036 100.693 250.813 102.507 251.246C105.273 251.85 108.125 252.368 110.89 252.887C111.495 252.973 112.1 253.06 112.79 253.147V253.319C113.569 253.319 114.52 252.973 114.693 253.232C115.125 253.924 115.47 253.578 115.989 253.492C116.594 253.319 117.285 253.319 117.976 253.319C120.396 253.405 122.729 253.924 125.149 253.751C125.668 253.751 126.446 253.319 126.878 254.183C127.051 254.096 127.137 254.01 127.31 253.924C127.655 253.837 128.088 253.837 128.433 253.751V253.924C128.26 254.01 128.088 254.01 127.742 254.097C128.174 254.183 128.432 254.269 128.692 254.357C128.52 254.529 128.432 254.529 128.26 254.615C128.088 254.701 127.828 254.788 127.483 255.047C130.593 255.652 133.532 255.739 136.125 255.047V254.529H136.47C136.47 254.701 136.557 254.874 136.643 255.047C140.618 255.393 144.507 254.874 148.223 253.578C148.569 254.01 148.828 254.615 149.347 253.751C149.52 253.492 149.952 253.405 150.297 253.319C151.075 253.146 152.026 252.8 152.717 253.06C153.495 253.32 153.754 252.627 154.359 252.627C155.344 252.631 156.327 252.544 157.297 252.368C157.816 252.282 158.334 252.022 158.939 251.85C158.939 251.763 158.939 251.677 158.853 251.59C158.248 251.504 157.557 251.418 157.038 251.418C158.075 250.899 159.026 250.468 159.976 250.035C159.976 250.121 160.063 250.121 160.063 250.208C159.803 250.294 159.631 250.64 159.285 250.64H160.495C160.235 250.64 159.89 251.418 159.458 251.936C162.568 251.158 165.421 250.467 168.186 249.776V249.603C167.841 249.689 167.581 249.689 167.322 249.776C167.236 247.961 169.222 248.566 169.915 247.529C169.05 247.789 168.185 248.047 167.322 248.22V248.047C170.26 246.751 173.285 245.455 176.222 244.158C176.222 244.245 176.31 244.245 176.31 244.331C175.79 244.677 175.273 244.936 174.495 245.368C175.013 245.455 175.359 245.455 175.618 245.541C175.618 245.801 175.618 245.973 175.532 246.061C177.001 245.973 176.655 244.677 177.087 243.899C177.347 243.985 177.692 244.159 177.952 244.072C178.729 243.899 179.421 243.64 180.198 243.382C181.063 243.122 181.927 242.862 182.791 242.516C184.174 241.911 185.47 241.134 186.853 240.442C187.112 240.356 187.543 240.442 187.89 240.442C188.149 240.442 188.322 240.269 188.495 240.097C188.84 239.837 189.185 239.319 189.445 239.405C190.655 239.578 191.519 239.146 191.865 238.023C191.952 238.023 191.952 237.936 192.038 237.936C192.47 237.591 192.902 237.246 193.334 236.986C195.236 235.948 197.05 234.912 198.952 233.874C199.038 233.788 199.211 233.874 199.384 233.874C199.643 233.874 199.989 233.874 200.161 233.788C201.285 233.269 202.321 232.665 203.359 232.06C203.099 231.973 203.359 231.887 202.495 231.8V231.627C203.359 231.455 203.618 231.368 204.137 231.195L203.964 231.023C206.211 228.776 209.063 227.134 211.223 225.233C211.655 225.319 211.828 225.405 212.087 225.405C212.174 225.146 212.174 224.887 212.174 224.715C212.519 224.282 212.864 223.763 213.297 223.418C215.197 221.689 217.273 220.22 219.001 218.405C221.507 215.899 223.927 213.307 226.174 210.628C228.248 208.208 230.322 205.788 232.05 203.109C234.47 199.393 236.544 195.591 238.704 191.702C240.26 188.936 241.643 186.172 243.198 183.405C243.371 183.146 243.717 182.801 243.976 182.801C246.309 182.541 248.643 182.368 250.89 182.109C251.408 182.023 252.013 181.677 252.532 181.419C252.272 180.986 252.099 180.467 251.84 180.035C251.495 179.516 250.976 179.085 250.63 178.566C250.285 178.134 250.026 177.616 249.766 177.097C249.506 176.665 249.248 176.319 248.988 175.887C248.47 174.937 247.951 173.987 247.518 172.949C247.433 172.689 247.26 172.257 247.346 171.999C248.902 168.629 249.506 164.999 250.976 161.629C252.445 158.171 252.876 154.282 253.569 150.566C254.174 147.023 254.519 143.48 254.951 139.936C255.211 137.43 255.556 135.01 255.643 132.504C256.161 128.529 255.988 124.814 255.902 121.097ZM38.6416 217.541C38.0386 216.851 37.5196 216.072 36.9146 215.381L37.1736 215.121C38.1236 216.159 39.0756 217.195 40.0256 218.319C39.5076 218.06 38.9026 217.887 38.6426 217.541H38.6416ZM40.0256 218.319C40.2846 218.233 40.5446 218.233 40.8036 218.146C41.0626 218.578 41.2356 219.097 41.4936 219.616C40.2836 219.529 39.6796 219.01 40.0256 218.319ZM129.902 254.01V253.751C131.544 253.578 133.1 253.405 134.742 253.233V253.493C133.139 253.751 131.523 253.924 129.902 254.01ZM151.68 251.763C150.47 252.023 149.174 252.195 147.964 252.368C147.532 252.455 147.014 252.888 146.841 252.109C146.668 252.195 146.495 252.195 146.321 252.282C146.754 253.578 147.791 252.542 148.655 253.06C146.754 253.32 144.939 253.492 143.125 253.751V253.578C143.643 253.492 144.248 253.405 144.767 253.319V253.06C143.902 252.973 143.037 252.887 142.174 252.887C141.914 252.887 141.569 253.233 141.31 253.319C140.964 253.405 140.618 253.492 140.186 253.492C138.716 253.578 137.248 253.578 135.865 253.665C135.779 253.665 135.605 253.578 135.52 253.578V253.319C141.31 252.541 147.014 251.763 152.804 250.986C152.89 251.158 152.89 251.331 152.976 251.504C152.458 251.504 152.112 251.677 151.68 251.764V251.763ZM152.976 250.899C154.964 250.64 156.779 250.467 158.68 250.209C154.705 251.331 153.409 251.504 152.976 250.899ZM77.7046 76.4203C80.4706 72.6173 83.3216 68.8143 86.0876 64.9253C86.9516 63.8023 87.6426 62.5923 88.5076 61.4693C88.7666 61.1233 89.1116 60.9503 89.5446 60.6043L89.4576 60.4323C89.8036 59.9993 90.1476 59.6543 90.3216 59.3083C90.7536 58.6183 91.0136 57.8393 91.3586 57.0613C91.4456 56.8883 91.7046 56.7163 91.7046 56.7163C92.9146 57.3203 92.9146 56.0243 93.3466 55.5923C94.121 54.7209 94.8703 53.8276 95.5936 52.9133C96.1116 52.2233 96.6306 51.6173 97.0626 50.8393C97.1486 50.5803 96.8896 50.1493 96.8026 49.8023H96.5446C96.8036 49.6293 97.0626 49.3703 97.3216 49.1973C97.4086 49.1973 97.4086 49.1973 97.4946 49.1113C98.0136 48.3333 98.5316 47.5553 99.0506 46.8643C100.088 45.4813 101.211 44.0983 102.421 42.8883C102.248 43.3203 102.075 43.7533 101.903 44.0983C101.989 44.0983 101.989 44.1853 102.075 44.1853C103.112 42.8023 104.235 41.5063 105.273 40.1233C105.186 40.0373 105.1 39.9503 105.013 39.9503C104.582 40.3823 104.236 40.8143 103.803 41.2463C103.717 41.1603 103.631 41.0743 103.543 41.0743C104.409 39.9503 105.273 38.8273 106.137 37.5303C106.31 37.7903 106.483 38.1353 106.827 38.8273C107.174 37.9623 107.52 37.3573 107.779 36.7533C107.519 37.0133 107.174 37.2713 106.915 37.5303L106.655 37.2713L108.211 34.9383C109.853 32.6043 111.495 30.1853 113.137 27.8513C113.742 26.9873 114.52 26.2963 115.037 25.4323C116.68 22.1483 119.273 19.5553 121.26 16.5303C121.693 15.9263 122.297 15.4073 122.816 14.8883C123.248 14.3703 123.594 14.5433 123.94 14.9753C126.273 17.9133 128.606 20.9383 130.939 23.8763C132.668 26.0373 134.396 28.1113 136.038 30.3573C138.026 33.1233 139.927 35.8883 141.915 38.6543C144.162 41.8513 146.409 45.0493 148.569 48.3343C151.853 53.1723 154.964 58.0123 158.248 62.8513C160.668 66.3953 163.088 69.8513 165.421 73.3953H161.013C156.952 73.3083 152.803 72.9623 148.742 73.1353C143.211 73.3953 137.594 73.9993 132.062 74.4313C125.062 75.0363 117.976 75.1233 110.977 75.1233C108.47 75.1233 105.964 75.4683 103.457 75.6413C100.433 75.8143 97.4946 75.9873 94.4696 76.0743C90.9266 76.2463 87.4696 76.3343 83.9266 76.4193C81.9396 76.5063 79.8646 76.4203 77.7046 76.4203ZM176.828 116.172V116.95C176.742 116.95 176.655 117.036 176.482 117.036C176.137 115.826 175.791 114.53 175.359 113.32C174.495 110.814 173.544 108.308 171.989 106.061C170.259 103.641 168.705 101.135 166.976 98.6293C166.544 98.0243 165.939 97.5053 165.421 96.9873C163.606 94.9993 161.791 92.9253 159.458 91.4573C156.022 89.3073 152.407 87.4565 148.655 85.9253C147.618 85.4933 146.668 84.9753 145.631 84.3703H147.705L162.483 84.1113C165.68 84.0243 168.791 84.0243 171.989 83.8513C172.767 83.8513 173.199 84.1113 173.631 84.8023C174.409 86.0983 175.186 87.3943 176.05 88.6923C176.137 88.8633 176.31 89.1233 176.31 89.3823C176.31 91.2833 176.31 93.2723 176.396 95.1723C176.483 97.1603 176.655 99.0623 176.742 101.049C176.742 103.036 176.569 105.11 176.655 107.184C176.742 110.124 176.828 113.147 176.828 116.172ZM83.8396 87.2213C87.9016 87.0483 91.7896 86.7883 95.7656 86.6163C98.8756 86.4433 102.074 86.3563 105.185 86.1843C106.482 86.0973 107.692 86.0113 108.988 86.1843C107.605 86.8753 106.223 87.5663 105.013 88.4313C103.457 89.4673 101.988 90.8513 100.432 91.9743C98.8766 93.0973 97.4936 94.4803 96.1976 95.9493C94.5556 97.9373 92.7406 99.6653 91.0126 101.566C89.8026 102.949 88.4196 104.246 87.3826 105.714C85.9126 107.616 84.6176 109.69 83.2346 111.85C83.6666 103.64 84.1846 95.5173 83.8396 87.2213ZM140.272 170.356C137.506 171.047 134.655 171.826 131.802 172.171C129.382 172.517 126.877 172.431 124.371 172.431C122.124 172.431 119.963 172.344 117.716 172.171C115.21 171.912 112.704 171.652 110.284 170.529C108.21 169.579 106.05 168.714 103.976 167.677C101.902 166.64 99.8256 165.43 98.2716 163.529C97.1476 162.146 95.5916 161.023 94.2096 159.813C94.4614 160.855 95.1135 161.755 96.0246 162.319C95.5926 162.839 94.9876 162.579 94.1236 161.196C93.8636 161.368 93.6036 161.456 93.4316 161.541C93.6916 160.936 93.9506 160.332 94.2096 159.813C93.8646 159.123 93.4316 158.344 93.0866 157.653C92.3916 156.52 91.7286 155.367 91.0986 154.196C90.9256 153.936 90.9256 153.677 90.7526 153.418C90.3206 152.899 89.8886 152.381 89.5426 151.862C88.8516 150.825 88.2466 149.702 87.3826 148.665C87.3826 148.925 87.4686 149.183 87.4686 149.529C87.3826 149.529 87.2966 149.615 87.2966 149.615L85.4816 145.208C85.3946 145.208 85.3946 145.208 85.3086 145.295L86.8646 150.998C86.7776 150.998 86.6916 151.085 86.6046 151.085C86.3446 150.739 86.0866 150.393 85.9136 149.961C85.7406 149.271 85.2226 149.271 84.7896 149.529C84.5296 149.702 84.3576 150.307 84.4446 150.566C85.0496 152.036 85.7406 153.504 86.4316 154.974C86.6046 155.492 86.7776 155.924 87.0366 156.444C87.1236 156.616 87.3826 156.788 87.3826 157.048C87.7286 157.739 87.9876 158.43 88.4196 159.035C89.1976 160.072 90.0616 161.109 90.8396 162.146C91.6176 163.183 92.3086 164.307 92.9996 165.344C93.0866 165.517 93.3456 165.517 93.4316 165.604C93.8646 166.899 95.3336 167.85 96.3706 167.332C96.6296 169.319 98.7896 170.012 99.6546 171.912C98.8062 171.567 97.9701 171.192 97.1476 170.788C97.0616 170.875 97.0616 170.961 96.9756 171.134C98.0126 171.652 99.0496 172.171 99.9996 172.776C100.864 173.294 101.729 173.813 102.506 174.418C103.544 175.368 104.753 175.888 106.223 176.233C106.136 175.973 106.05 175.887 106.05 175.887C108.34 176.951 110.616 178.046 112.877 179.171C103.889 179.344 94.2966 179.517 84.3566 179.689C84.3566 178.047 84.2716 176.492 84.2716 174.85C84.2716 174.16 84.4446 173.554 84.3576 172.862C84.0976 168.887 84.0976 164.912 83.5806 161.023C83.0606 156.875 83.0606 152.813 83.1486 148.665C83.2346 146.418 83.0616 144.085 82.9756 141.838C82.9756 138.813 82.9756 135.875 83.0616 132.85C83.0616 132.418 83.2346 132.072 83.4076 131.64H83.6666C83.7526 131.813 83.6666 132.072 83.8396 132.16C84.0986 132.418 84.5296 132.85 84.7036 132.764C85.2226 132.418 85.9996 132.072 86.1726 131.554C86.6046 130.517 86.7776 129.394 86.7776 128.356C86.7776 127.579 87.1236 127.06 87.4676 126.541C87.6416 126.282 87.7276 126.023 87.9016 125.677C87.5556 125.418 87.2096 125.245 86.7776 124.9C87.1236 123.95 87.0366 122.825 88.3336 122.307C88.5066 122.22 88.5066 121.788 88.5926 121.529C88.6786 120.839 88.7656 120.06 88.8516 119.369C89.0246 119.629 89.1106 119.714 89.2836 119.887C89.3706 119.714 89.4566 119.628 89.4566 119.628C89.4566 119.282 89.3706 118.591 89.4566 118.591C90.4936 118.418 90.0616 117.295 90.5806 116.776C90.6666 116.69 90.4936 116.43 90.4936 116.258C90.4936 116.085 90.4936 115.825 90.5806 115.825C91.7896 115.566 91.6176 114.27 92.3946 113.665C92.6546 113.492 92.7406 113.233 93.0866 112.801C93.7766 114.011 92.5666 114.616 92.4816 115.481C93.9506 114.616 94.3816 112.542 93.5186 111.937C93.8646 111.677 94.2086 111.332 94.4686 110.987C95.4186 109.949 96.4566 108.998 97.3206 107.961C97.9256 107.183 98.2706 106.233 98.8766 105.455C99.2226 105.023 99.9136 104.677 100.432 104.418C101.988 103.554 103.457 102.603 104.408 101.134C104.581 100.961 104.84 100.788 105.098 100.616C105.358 100.443 105.877 100.443 105.963 100.183C106.05 100.011 105.79 99.5793 105.617 99.3193C105.963 99.1463 106.309 98.8013 107 98.4553C106.74 98.9753 106.655 99.3193 106.482 99.6653L106.914 100.097C107.692 99.4923 108.902 98.8013 109.679 98.2823C109.679 98.1963 109.247 97.8503 109.247 97.8503C108.729 98.1103 107.951 98.5423 107.173 98.8873C107.346 98.6283 107.346 98.4553 107.432 98.3693C108.642 97.5913 109.852 96.8133 111.148 96.2093C114.173 94.8253 117.198 93.4433 120.222 92.1463C120.741 91.8873 121.432 92.0603 122.037 92.0603C122.296 92.0603 122.469 92.0603 122.729 91.9743C124.111 91.5423 125.494 91.1103 126.877 90.7643C127.496 90.5936 128.135 90.5065 128.777 90.5053C131.371 90.5913 133.963 90.5913 136.556 90.7653C137.679 90.8503 138.716 91.1103 139.753 91.4553C141.05 91.8873 142.432 92.4923 143.642 93.0973C145.102 93.8789 146.516 94.7447 147.877 95.6903C150.383 97.3323 152.716 99.1463 155.222 100.616C157.642 102.086 159.542 104.072 161.099 106.319C162.999 108.999 165.161 111.419 166.025 114.702L167.321 120.406C167.58 121.443 168.185 122.48 167.926 123.69C167.494 125.85 167.148 128.097 166.803 130.258C166.63 131.122 166.457 131.986 166.543 132.85C166.716 135.53 165.679 137.862 164.642 140.282C164.296 141.06 163.778 141.838 163.346 142.702C163.432 142.788 163.951 143.048 164.036 143.048L164.815 141.492C164.901 141.492 164.901 141.492 164.988 141.579C164.556 142.789 164.21 144.085 163.778 145.295C162.741 147.975 161.704 150.739 160.408 153.332C159.716 154.802 158.506 156.012 157.642 157.393C156.778 158.603 156.087 159.899 155.222 161.023C154.445 161.974 153.667 162.924 152.63 163.616C150.296 165.344 147.877 167.072 145.37 168.456C143.815 169.406 142 169.924 140.272 170.356ZM94.2096 165.776L94.1236 165.862C93.9506 165.776 93.6916 165.689 93.5186 165.517L91.4446 162.407C91.2716 162.147 91.1846 161.887 91.2716 161.541C92.2011 162.987 93.181 164.399 94.2096 165.776ZM147.963 177.616C151.852 175.973 155.05 173.64 157.988 170.961C158.42 170.529 158.852 170.097 159.371 169.751C163 167.504 165.679 164.393 168.099 160.936C170.864 156.961 172.679 152.467 174.926 148.233C175.099 147.887 175.272 147.541 175.445 147.283C175.272 157.134 176.395 166.813 177.691 176.578C167.926 176.924 157.988 177.271 147.963 177.616ZM235.593 175.023C235.506 175.196 235.333 175.368 235.247 175.541C235.16 175.368 235.16 175.109 235.074 174.764C234.554 176.146 233.432 175.455 232.654 175.455C227.988 175.541 223.234 175.541 218.568 175.541C214.074 175.541 209.494 175.541 205 175.628C203.53 175.628 201.975 175.973 200.506 176.06C196.963 176.233 193.42 176.32 189.876 176.405C189.616 176.405 189.358 175.973 188.926 175.628C188.84 175.801 188.666 176.06 188.406 176.405C188.321 176.233 188.148 176.06 187.975 175.801C187.902 176.037 187.815 176.268 187.715 176.492H187.457C187.284 175.282 186.937 174.159 186.937 172.949C186.937 170.356 187.197 167.764 187.284 165.171C187.37 163.961 187.284 162.838 187.284 161.714C187.63 161.974 187.889 162.146 188.234 162.406C188.407 162.06 188.58 161.801 188.753 161.541C188.753 161.541 188.58 161.455 188.407 161.282C188.58 161.196 188.753 161.023 188.753 160.937C188.84 160.677 189.012 160.418 189.012 160.245C189.012 159.64 188.84 159.122 188.752 158.603C188.84 158.603 188.926 158.603 189.012 158.517L189.531 161.109H189.79C189.445 160.504 190.568 159.986 189.617 159.294C189.531 159.208 189.704 158.689 189.704 158.43C189.444 157.912 189.272 157.393 189.012 156.702C189.099 156.616 189.358 156.529 189.617 156.443C189.272 156.27 189.012 156.097 188.753 156.01C189.617 155.233 189.617 154.801 188.84 153.936C189.012 153.85 189.185 153.85 189.185 153.764C189.185 152.986 189.185 152.208 189.012 151.43C188.84 150.566 189.272 149.53 187.975 149.011C188.055 149.258 188.171 149.491 188.321 149.702C188.321 149.702 188.061 149.788 187.801 149.962C186.679 148.924 187.37 147.542 187.111 145.986C187.716 146.159 188.148 146.332 188.58 146.504C188.407 145.9 187.975 145.208 187.716 144.43H187.37V138.727C187.37 138.813 187.975 138.813 188.32 138.899C188.32 138.813 188.407 138.727 188.407 138.64C188.147 138.294 187.802 137.95 187.457 137.517L187.63 137.344C186.938 136.48 187.284 135.27 187.284 135.011V128.961C188.148 129.825 186.852 130.949 188.148 131.467V130.603H188.062C187.975 129.307 187.975 128.011 187.889 126.714H187.716C187.63 126.887 187.63 126.974 187.543 127.146H187.37C187.543 120.319 187.716 113.492 187.889 106.492C188.753 107.616 189.704 108.653 190.309 109.776C192.296 113.406 194.889 116.517 197.309 119.801C199.383 122.653 201.284 125.764 203.185 128.702C205.518 132.245 207.765 135.788 210.099 139.332C211.834 142.016 213.621 144.666 215.457 147.282C217.099 149.615 218.827 151.862 220.556 154.109C222.025 156.097 223.58 158.085 225.049 160.072C226.778 162.492 228.506 164.912 230.235 167.245C231.099 168.455 232.049 169.665 233 170.875C233.518 171.566 234.296 172.085 234.815 172.517C234.728 172.517 234.642 172.517 234.469 172.43C234.728 172.776 234.901 173.035 235.074 173.208C236.024 173.726 236.111 174.245 235.593 175.023ZM240 153.418V152.813C240 152.986 240.086 153.245 240 153.418ZM242.938 115.308C242.852 115.308 242.333 114.788 242.247 114.702C242.16 114.962 242.247 115.22 242.074 115.566C241.988 115.307 241.383 115.393 241.383 115.134C241.296 116.344 241.901 117.554 241.815 118.764C242.074 118.591 243.111 118.504 243.37 118.245C243.457 118.332 243.629 118.418 243.716 118.418C241.988 119.714 242.42 121.011 243.196 122.48C243.37 122.825 243.889 123.517 243.37 124.208C243.197 124.381 243.457 124.9 243.543 125.332H243.802V125.504L243.025 125.764C242.852 125.504 241.815 124.986 241.815 124.554V128.961C242.679 129.221 242.679 130.431 243.025 131.035C243.197 130.776 243.284 130.603 243.37 130.345L243.457 130.43C243.37 130.95 243.284 131.467 243.111 131.986C242.938 132.764 242.765 133.456 242.679 134.233C242.679 134.319 242.852 134.493 242.852 134.578C241.901 136.739 242.42 139.159 242.074 141.406C241.814 143.048 242.074 144.776 241.901 146.504C241.728 147.974 241.383 149.529 241.037 150.998C240.951 151.258 240.777 151.344 240.346 151.518C240.518 150.48 240.432 149.788 240.259 148.838C240.173 148.838 239.049 148.233 238.963 148.233C238.963 149.443 239.653 151.085 239.913 152.467C239.653 152.381 238.617 151.777 238.531 151.777C238.358 152.813 238.358 154.197 238.271 155.319C238.185 156.183 237.407 156.961 237.321 157.912C237.321 158.43 237.926 158.776 237.839 159.64H238.531C238.531 157.912 239.309 156.356 239.309 154.541H239.568C239.654 154.714 239.914 154.887 239.827 154.974C239.654 155.924 239.309 156.961 239.395 157.912C239.395 158.43 239.827 158.949 239.654 159.554C239.481 160.072 239.394 160.591 239.309 161.368C239.222 160.936 239.136 160.764 239.136 160.504C239.049 160.504 238.272 160.418 238.185 160.418C238.099 160.936 238.79 161.455 238.704 161.888C238.617 161.974 238.531 161.974 238.358 162.06L235.506 157.912C233.259 154.628 231.012 151.344 228.765 147.974C228.184 147.149 227.664 146.283 227.21 145.381C224.53 140.801 221.593 136.393 218.309 132.159C215.802 128.961 213.815 125.504 211.481 122.134C209.321 118.937 207.16 115.825 205 112.628C204.222 111.591 203.272 110.64 202.58 109.518C200.333 105.974 198.346 102.344 196.099 98.8013C194.198 95.8623 192.123 93.0113 190.136 90.1593C189.424 89.1649 188.733 88.1563 188.062 87.1343C187.975 86.9613 187.889 86.7883 187.889 86.5293C187.716 84.6293 187.543 82.7273 187.457 80.9123C187.457 79.1833 187.63 77.4553 187.63 75.6403V74.0853C187.63 73.6533 187.716 73.3073 187.716 72.8753C187.802 72.7883 187.889 72.6163 187.975 72.5293C185.469 72.5293 182.877 72.4433 180.37 72.5293C178.729 72.6163 177.864 71.9243 176.74 70.7153C173.457 66.9983 171.037 62.7653 168.185 58.7893C165.505 54.9863 162.741 51.2703 159.975 47.5543C157.729 44.5293 155.482 41.5913 153.235 38.5663C150.729 35.1103 148.309 31.6533 145.715 28.1963C142.605 24.0483 139.408 19.9003 136.21 15.7523C134.74 13.8503 133.099 12.0363 131.457 10.0483C132.58 10.2213 133.617 10.3943 134.655 10.4803L138.803 10.7403C141.913 11.0003 145.025 11.1713 148.136 11.6033C150.729 11.9493 153.321 12.4683 156 12.9003C161.704 13.8503 167.32 15.4063 172.766 17.2213C175.963 18.2583 179.074 19.6413 182.185 20.9373C189.185 23.7893 195.84 27.2453 202.407 30.8753C204.482 31.9983 205.691 33.8133 207.247 35.4553C209.494 37.7893 211.741 40.1223 213.901 42.5423C216.407 45.3943 218.741 48.3323 221.16 51.2703C223.32 53.8633 225.568 56.4553 227.728 59.0483C228.42 59.8263 228.938 60.7763 229.543 61.6403C230.926 63.7143 232.481 65.7023 233.691 67.9503C234.556 69.5913 235.074 71.4923 235.679 73.3073C236.543 75.9873 237.407 78.5793 238.272 81.2583C238.881 83.2792 239.4 85.3262 239.827 87.3933C240.173 88.7763 240.086 90.2453 240.517 91.6283C241.037 93.4433 240.517 95.4303 241.037 97.2453C241.123 97.4183 241.21 97.6773 241.296 97.8503C241.642 98.1963 241.901 98.5413 241.383 99.0603C241.296 99.1463 241.296 99.4923 241.383 99.7513C241.555 99.5793 241.642 99.4063 241.815 99.1463C241.815 99.3193 241.901 99.4063 241.901 99.4923C241.901 99.8383 241.815 100.183 241.901 100.529C241.901 100.702 242.074 100.961 242.16 101.134C242.333 100.961 242.506 100.875 242.852 100.616C243.629 103.554 243.716 106.492 243.716 109.517C243.716 112.369 244.234 115.22 243.025 117.987C243.284 117.035 242.679 116.172 242.938 115.308Z" fill="#DD3735"/>
<path d="M187.999 149.197C188.085 149.197 188.172 149.284 188.172 149.284L188.085 149.197C188.085 149.111 188.085 149.111 187.999 149.197ZM201.653 234.58C200.703 235.271 199.752 235.876 198.542 236.135C198.456 236.049 198.456 235.962 198.369 235.876C199.32 235.271 200.357 234.666 201.308 234.061C201.394 234.234 201.567 234.407 201.653 234.58ZM39.617 117.481C40.567 116.271 41.518 115.061 42.555 113.852C42.641 113.938 43.333 114.111 43.419 114.197C42.469 115.407 41.172 117.049 40.222 118.345C40.049 118.173 39.79 117.568 39.617 117.481ZM15.074 159.827C14.382 158.358 13.691 156.802 13 155.333C13.086 155.247 13.691 154.987 13.777 154.987C14.728 156.37 15.16 158.012 15.851 159.481C15.851 159.481 15.16 159.827 15.074 159.827ZM37.111 118.345C36.592 119.123 36.074 119.987 35.555 120.765C35.469 120.679 34.518 121.111 34.432 121.024C34.95 120.247 36.246 118.864 36.765 118.086C36.851 118.173 36.938 118.259 37.111 118.345ZM192.406 238.123C192.493 238.123 192.493 238.036 192.579 238.036C193.184 238.123 193.876 238.209 194.567 238.209C193.443 238.987 192.752 238.901 192.406 238.123ZM37.283 121.975C37.37 121.716 37.543 121.456 37.715 121.197C37.888 121.197 38.148 121.111 38.148 121.111C38.493 120.506 38.493 120.074 38.839 119.555C38.753 119.469 38.666 119.469 38.58 119.382C38.061 119.728 37.543 120.16 37.024 120.506C37.197 120.679 37.197 120.765 37.197 120.938C36.506 120.852 36.246 121.197 35.901 122.148C35.814 122.407 35.382 122.493 34.95 122.839C34.864 123.012 34.777 123.444 34.604 123.876L34.691 123.963C34.5656 124.077 34.4187 124.165 34.259 124.222C33.74 124.74 33.135 125.173 32.617 125.691C32.53 125.95 32.444 126.21 32.444 126.469C33.049 125.864 34.086 124.74 34.864 124.049L34.95 124.135C35.296 123.617 35.555 123.098 35.901 122.58C35.987 122.666 35.987 122.753 36.074 122.839C35.814 123.53 35.555 124.308 35.296 125C35.123 125.086 34.864 125.259 34.864 125.173C34.518 125.432 34.259 125.777 33.913 126.037L32.358 127.074C31.493 127.852 30.629 128.543 29.679 129.321C29.074 130.271 28.469 131.135 27.777 132.259C28.814 132 29.074 132.432 28.987 133.296C30.197 133.469 30.283 132.518 30.629 131.827C30.716 131.654 30.802 131.308 30.975 131.222C31.753 130.531 32.617 129.926 33.481 129.234C33.654 129.061 33.654 128.716 33.654 128.456C33.654 128.37 33.222 128.37 32.963 128.284C33.74 127.419 34.864 125.95 35.642 125C36.074 124.74 36.506 124.395 36.506 124.135C36.419 123.185 37.024 122.926 37.715 122.58C37.37 122.321 37.283 122.061 37.283 121.975Z" fill="#DD3735"/>
<path d="M39.0138 121.026C38.6678 121.631 38.3228 122.15 37.9768 122.755L37.4578 122.495C37.1128 124.483 35.9028 126.212 34.6928 126.557C35.0388 126.73 35.3838 126.903 35.6438 126.816C35.9028 126.73 36.0758 126.298 36.2478 126.039L38.5818 122.668L39.3598 121.372L39.0138 121.026ZM10.2358 158.964C10.6678 158.964 11.0998 159.051 11.6188 159.051C11.6188 158.705 12.0508 158.792 12.0508 158.446H12.3098C12.3098 158.878 12.3968 159.224 12.3968 159.656H10.5818C10.4948 159.569 10.1498 159.051 10.2358 158.964ZM9.54475 154.989C9.28575 154.73 8.85275 154.471 8.85275 154.211C8.76675 153.866 9.02575 153.434 9.28575 153.002C9.45775 153.606 9.54475 154.125 9.71775 154.73C9.63075 154.816 9.54475 154.903 9.54475 154.989ZM11.7048 149.458C12.0508 150.323 12.3968 151.273 12.7418 152.137C12.6558 152.137 12.1368 152.397 12.0508 152.483C11.7048 151.619 11.2728 150.668 10.9278 149.804C11.0138 149.718 11.5318 149.458 11.7048 149.458ZM204.075 232.076C204.507 231.903 205.026 231.816 205.717 231.643C204.939 232.248 204.334 232.68 203.816 233.199C203.729 233.112 203.643 233.026 203.557 233.026C203.729 232.68 203.902 232.421 204.075 232.075V232.076ZM97.8658 49.4705C98.3838 49.1245 98.8158 48.8655 99.3348 48.5195L99.5078 48.6925C98.9888 49.3845 98.5568 50.0755 97.9518 50.9395C97.8658 50.3345 97.8658 49.9885 97.7788 49.5565C97.6928 49.5565 97.7788 49.5565 97.8658 49.4705ZM123.186 93.1985C123.964 92.8535 124.742 92.5075 125.693 92.0755C125.606 92.5935 125.606 92.9395 125.606 93.2855C125.347 93.1985 125.001 93.1125 124.742 93.1125C124.224 93.1985 123.273 93.8905 122.841 93.9765C122.754 93.9765 123.186 93.2855 123.186 93.1985ZM188.001 166.483C188.174 167.347 189.816 167.779 188.174 168.643C188.433 168.816 188.692 168.903 188.952 169.076C188.952 169.162 188.865 169.335 188.779 169.421C188.606 169.508 188.26 169.681 188.087 169.594C188.001 169.594 187.828 169.248 187.828 169.076C187.828 168.298 187.915 167.52 188.001 166.483Z" fill="#DD3735"/>
</g>
<defs>
<clipPath id="clip0_623_1288">
<rect width="256" height="256" fill="white"/>
</clipPath>
</defs>
</svg>
