<svg width="256" height="256" viewBox="0 0 256 256" fill="none" xmlns="http://www.w3.org/2000/svg">
<g clip-path="url(#clip0_623_1266)">
<path d="M0 0H256V256H0V0Z" fill="#F7DF1E"/>
<path d="M67.3135 213.931L86.9035 202.075C90.6835 208.776 94.1215 214.446 102.368 214.446C110.273 214.446 115.259 211.354 115.259 199.326V117.528H139.315V199.666C139.315 224.583 124.71 235.925 103.4 235.925C84.1545 235.925 72.9835 225.958 67.3125 213.929M152.382 211.353L171.97 200.012C177.127 208.433 183.83 214.619 195.686 214.619C205.655 214.619 212.01 209.635 212.01 202.761C212.01 194.513 205.481 191.591 194.483 186.781L188.47 184.201C171.113 176.814 159.6 167.534 159.6 147.944C159.6 129.9 173.347 116.152 194.828 116.152C210.122 116.152 221.119 121.48 229.023 135.399L210.292 147.429C206.167 140.04 201.701 137.119 194.826 137.119C187.78 137.119 183.313 141.587 183.313 147.429C183.313 154.646 187.781 157.569 198.091 162.037L204.104 164.614C224.554 173.379 236.068 182.314 236.068 202.418C236.068 224.072 219.056 235.928 196.201 235.928C173.861 235.928 159.427 225.274 152.382 211.354" fill="black"/>
</g>
<defs>
<clipPath id="clip0_623_1266">
<rect width="256" height="256" fill="white"/>
</clipPath>
</defs>
</svg>
