<svg width="1460" height="322" viewBox="0 0 1460 322" fill="none" xmlns="http://www.w3.org/2000/svg">
<path d="M38.5232 277.35V35.25C38.5232 21.3 38.5232 16.35 35.8232 12.3C32.6732 7.79997 29.0732 6.44999 2.52324 6C1.17324 6 0.273243 5.54998 0.273243 2.84998C0.273243 1.04998 0.723242 0.149992 2.52324 0.149992C13.7732 0.149992 41.6732 0.599986 54.2732 0.599986C66.8732 0.599986 89.3732 0.149992 105.123 0.149992C161.823 0.149992 217.623 8.69999 217.623 69.9C217.623 113.55 194.673 143.25 130.323 150C200.073 151.8 232.023 177 232.023 223.8C232.023 275.1 204.123 312 106.023 312C95.2232 312 77.2232 311.55 54.2732 311.55C41.6732 311.55 13.7732 312 2.52324 312C0.723242 312 0.273243 310.65 0.273243 308.85C0.273243 306.6 1.17324 306.15 2.52324 306.15C27.2732 306.15 33.1232 304.35 35.8232 300.3C38.5232 296.7 38.5232 287.25 38.5232 277.35ZM72.7232 154.5V280.5C72.7232 296.25 74.0732 300.3 79.0232 302.55C85.3232 305.25 102.423 305.25 109.173 305.25C175.773 305.25 194.223 280.05 194.223 230.1C194.223 187.8 173.073 162.6 128.073 156.3C119.073 154.95 107.373 154.5 96.5732 154.5H72.7232ZM72.7232 147.75H96.5732C108.723 147.75 121.773 145.95 131.673 143.7C165.873 136.05 181.173 113.1 181.173 76.2C181.173 32.55 171.273 6.89999 101.973 6.89999C86.6732 6.89999 80.8232 6.89999 76.7732 9.59998C72.7232 12.3 72.7232 18.6 72.7232 34.35V147.75ZM343.416 152.25H375.816C401.016 152.25 422.166 151.35 437.466 143.7C454.566 135.15 464.466 111.75 464.466 76.65C464.466 30.75 443.316 6.89999 377.166 6.89999C362.766 6.89999 351.516 6.89999 347.466 9.59998C343.866 11.85 343.416 17.25 343.416 33V152.25ZM423.066 155.85C448.716 158.1 466.716 167.1 475.266 177.45C489.216 194.55 494.166 215.7 501.816 268.35C506.766 302.1 513.966 308.4 524.316 308.4C533.316 308.4 538.266 303 538.266 294C538.266 289.5 539.616 287.25 543.216 287.25C546.816 287.25 548.166 289.05 548.166 291.75C548.166 302.55 539.616 314.7 517.566 314.7C503.616 314.7 489.666 312.9 479.316 302.1C467.616 289.05 464.466 265.2 461.766 241.8C457.266 203.55 450.516 184.2 438.816 172.5C427.566 161.25 401.466 159 375.816 159H343.416V277.35C343.416 285.45 343.416 295.8 346.116 299.85C349.266 304.35 355.116 306.15 384.816 306.15C386.616 306.15 387.066 307.05 387.066 309.3C387.066 311.1 386.616 312 384.816 312C378.516 312 341.166 311.55 326.766 311.55C314.166 311.55 284.466 312 273.216 312C271.416 312 271.416 310.65 271.416 308.85C271.416 306.6 272.316 306.15 273.666 306.15C298.866 306.15 304.716 304.35 306.966 300.3C309.666 295.35 309.666 287.25 309.666 277.35V35.25C309.666 21.3 309.666 16.35 306.966 12.3C303.816 7.79997 299.316 6.44999 273.666 6C272.316 6 271.416 5.54998 271.416 3.29998C271.416 1.49997 271.866 0.149992 273.666 0.149992C284.916 0.149992 312.816 0.599986 325.416 0.599986C338.016 0.599986 362.316 0.149992 378.066 0.149992C442.416 0.149992 501.366 10.05 501.366 78.45C501.366 122.1 473.466 148.2 423.066 155.85ZM596.878 260.25L684.178 12.3C686.878 5.09998 688.228 2.39999 689.128 1.49997C690.028 0.599986 691.378 0.149992 694.078 0.149992H705.328C707.128 0.149992 708.928 0.149992 709.828 1.04998C711.178 1.95 712.078 5.09998 714.778 12.3L807.478 277.35C810.628 285.9 813.778 295.35 817.828 300.3C822.328 305.7 830.428 306.15 843.028 306.15C844.828 306.15 845.728 306.6 845.728 309.3C845.728 311.1 845.278 312 843.478 312C826.378 311.55 810.178 311.55 798.478 311.55C785.878 311.55 757.978 311.55 742.228 312C740.428 312 739.978 311.1 739.978 308.85C739.978 306.15 741.328 306.15 743.128 306.15C755.728 306.15 765.178 305.25 770.128 303.9C774.178 303 775.528 300.3 775.528 297.15C775.528 294.45 774.628 288.6 770.578 277.35L738.178 185.1H632.428L608.578 254.4C602.728 270.6 600.928 279.15 600.928 289.05C600.928 293.55 603.628 298.95 608.128 301.2C615.328 304.8 626.578 305.7 633.328 306.15C635.128 306.15 636.478 306.15 636.478 308.85C636.478 311.1 635.578 312 633.778 312C622.528 311.55 604.528 311.55 591.928 311.55C579.778 311.55 568.978 311.55 554.578 312C552.778 312 552.328 311.1 552.328 309.3C552.328 306.6 553.228 306.15 555.028 306.15C564.928 305.7 573.028 302.55 579.328 296.25C584.728 290.85 590.128 278.7 596.878 260.25ZM634.678 178.35H735.928C697.678 66.3 691.828 47.85 685.978 28.05C679.678 47.85 672.928 67.2 634.678 178.35ZM1106.42 260.7C1105.97 235.5 1105.97 184.2 1105.52 57.3C1105.52 28.95 1102.37 19.95 1096.07 14.1C1092.02 10.05 1080.77 6.89999 1066.37 6C1064.57 6 1064.12 5.54998 1064.12 2.84998C1064.12 1.04998 1064.57 0.149992 1066.37 0.149992C1072.67 0.149992 1095.17 0.599986 1109.57 0.599986C1122.17 0.599986 1138.82 0.149992 1149.62 0.149992C1151.42 0.149992 1151.87 1.49997 1151.87 3.29998C1151.87 6 1150.97 6 1149.62 6C1128.47 8.24999 1122.62 12.3 1119.47 17.7C1117.22 21.75 1113.62 30.3 1113.62 57.3V316.95C1113.62 320.1 1111.82 321.45 1109.57 321.45C1107.32 321.45 1105.97 320.1 1104.17 316.95C935.422 62.7 923.272 44.7 910.222 25.35C910.672 47.85 910.672 96 910.672 253.95C910.672 282.75 913.822 291.75 920.122 297.6C924.172 301.65 935.872 305.25 950.272 306.15C952.072 306.15 952.972 307.05 952.972 309.3C952.972 311.1 952.522 312 950.722 312C944.422 312 921.022 311.55 906.622 311.55C894.022 311.55 877.372 312 866.122 312C864.322 312 863.872 310.65 863.872 308.85C863.872 306.6 864.772 306.15 866.122 306.15C887.722 303.9 893.572 299.4 896.722 294C898.972 289.95 902.572 281.4 902.572 253.95V35.25C902.572 21.3 902.572 16.35 899.872 12.3C896.722 7.79997 892.672 6.44999 866.572 6C865.222 6 864.322 5.54998 864.322 2.84998C864.322 1.04998 864.772 0.149992 866.572 0.149992C873.322 0.149992 890.872 0.599986 903.022 0.599986C912.922 0.599986 923.722 0.149992 929.572 0.149992C934.072 0.149992 935.872 2.39999 938.122 5.54998C1081.67 221.55 1093.37 238.65 1106.42 260.7ZM1220.21 277.35V35.25C1220.21 24.9 1219.76 17.25 1217.51 12.3C1214.81 6.89999 1204.46 6 1184.21 6C1182.86 6 1181.96 6 1181.96 3.29998C1181.96 1.49997 1182.41 0.149992 1184.21 0.149992C1195.46 0.149992 1224.26 0.599986 1236.86 0.599986C1254.41 0.599986 1274.66 0.149992 1288.61 0.149992C1402.46 0.149992 1459.16 37.95 1459.16 152.7C1459.16 262.5 1400.66 312 1287.26 312C1271.51 312 1252.61 311.55 1236.86 311.55C1224.26 311.55 1195.46 312 1184.21 312C1182.41 312 1181.96 311.1 1181.96 309.3C1181.96 306.6 1182.86 306.15 1184.21 306.15C1204.91 306.15 1215.26 305.25 1217.51 300.3C1220.21 295.35 1220.21 287.25 1220.21 277.35ZM1254.41 275.55C1254.41 289.5 1254.86 296.25 1259.36 299.4C1264.76 303 1275.56 304.35 1288.61 304.35C1388.06 304.35 1421.36 246.3 1421.36 154.5C1421.36 69 1397.06 6.89999 1295.36 6.89999C1269.71 6.89999 1263.41 7.79997 1258.46 11.85C1254.41 15.45 1254.41 24.9 1254.41 35.7V275.55Z" fill="#C5B29A"/>
</svg>
