<svg width="2802" height="324" viewBox="0 0 2802 324" fill="none" xmlns="http://www.w3.org/2000/svg">
<path d="M0.259571 163.2C0.259571 68.25 52.9096 0.299986 144.71 0.299986C180.71 0.299986 200.06 9.29998 214.46 16.95C219.41 19.65 223.91 21 225.71 21C230.66 21 233.36 17.85 234.71 7.95C235.16 4.34999 236.51 4.34999 238.76 4.34999C241.01 4.34999 241.91 4.79998 241.91 7.04998C241.91 12 241.46 34.05 241.46 51.15C241.46 70.05 241.91 88.5 241.91 96.15C241.91 99.3 241.01 99.75 238.31 99.75C235.61 99.75 235.16 99.3 234.71 95.25C231.11 63.75 225.26 47.55 210.41 32.7C194.66 16.5 170.81 7.04998 144.71 7.04998C68.6596 7.04998 38.5096 60.6 38.5096 166.8C38.5096 232.95 53.3596 317.1 140.66 317.1C196.46 317.1 227.51 286.95 234.26 239.7C235.61 230.25 237.86 228.45 243.26 228.45C248.21 228.45 250.46 229.8 250.46 235.65C250.46 239.7 249.56 248.25 244.61 260.4C229.76 297.3 197.36 323.85 138.41 323.85C52.4596 323.85 0.259571 269.4 0.259571 163.2ZM300.462 266.25L387.762 18.3C390.462 11.1 391.812 8.39999 392.712 7.49997C393.612 6.59999 394.962 6.14999 397.662 6.14999H408.912C410.712 6.14999 412.512 6.14999 413.412 7.04998C414.762 7.95 415.662 11.1 418.362 18.3L511.062 283.35C514.212 291.9 517.362 301.35 521.412 306.3C525.912 311.7 534.012 312.15 546.612 312.15C548.412 312.15 549.312 312.6 549.312 315.3C549.312 317.1 548.862 318 547.062 318C529.962 317.55 513.762 317.55 502.062 317.55C489.462 317.55 461.562 317.55 445.812 318C444.012 318 443.562 317.1 443.562 314.85C443.562 312.15 444.912 312.15 446.712 312.15C459.312 312.15 468.762 311.25 473.712 309.9C477.762 309 479.112 306.3 479.112 303.15C479.112 300.45 478.212 294.6 474.162 283.35L441.762 191.1H336.012L312.162 260.4C306.312 276.6 304.512 285.15 304.512 295.05C304.512 299.55 307.212 304.95 311.712 307.2C318.912 310.8 330.162 311.7 336.912 312.15C338.712 312.15 340.062 312.15 340.062 314.85C340.062 317.1 339.162 318 337.362 318C326.112 317.55 308.112 317.55 295.512 317.55C283.362 317.55 272.562 317.55 258.162 318C256.362 318 255.912 317.1 255.912 315.3C255.912 312.6 256.812 312.15 258.612 312.15C268.512 311.7 276.612 308.55 282.912 302.25C288.312 296.85 293.712 284.7 300.462 266.25ZM338.262 184.35H439.512C401.262 72.3 395.412 53.85 389.562 34.05C383.262 53.85 376.512 73.2 338.262 184.35ZM602.556 283.35V41.25C602.556 27.75 602.556 22.35 599.856 18.3C596.706 13.8 592.206 12.45 566.556 12C565.206 12 564.306 11.55 564.306 9.29998C564.306 7.49997 564.756 6.14999 566.556 6.14999C577.806 6.14999 606.606 6.59999 619.206 6.59999C633.606 6.59999 666.456 6.14999 672.756 6.14999C674.556 6.14999 675.006 7.04998 675.006 8.84998C675.006 11.1 674.106 12 672.306 12C645.306 12 641.706 14.7 639.006 18.75C636.756 21.9 636.756 30 636.756 41.25V283.35C636.756 295.5 636.756 302.25 639.456 306.3C642.156 310.35 649.806 311.25 657.006 311.25H702.006C724.506 311.25 739.356 308.1 747.006 304.5C756.006 300.45 763.206 293.25 767.256 286.05C771.756 277.95 777.156 259.5 778.956 244.2C779.406 241.05 780.306 240.6 782.556 240.6C785.256 240.6 786.156 240.6 786.156 244.2C786.156 248.7 785.706 266.25 785.706 276.6C785.706 286.95 786.156 306.3 786.156 311.25C786.156 316.2 785.256 318 778.506 318C740.706 318 643.056 317.55 618.306 317.55C605.706 317.55 577.806 318 566.556 318C564.756 318 564.306 317.1 564.306 315.3C564.306 312.6 565.206 312.15 566.556 312.15C586.806 312.15 597.606 311.25 599.856 306.3C602.556 301.35 602.556 293.25 602.556 283.35ZM813.248 163.2C813.248 68.25 865.898 0.299986 957.698 0.299986C993.698 0.299986 1013.05 9.29998 1027.45 16.95C1032.4 19.65 1036.9 21 1038.7 21C1043.65 21 1046.35 17.85 1047.7 7.95C1048.15 4.34999 1049.5 4.34999 1051.75 4.34999C1054 4.34999 1054.9 4.79998 1054.9 7.04998C1054.9 12 1054.45 34.05 1054.45 51.15C1054.45 70.05 1054.9 88.5 1054.9 96.15C1054.9 99.3 1054 99.75 1051.3 99.75C1048.6 99.75 1048.15 99.3 1047.7 95.25C1044.1 63.75 1038.25 47.55 1023.4 32.7C1007.65 16.5 983.798 7.04998 957.698 7.04998C881.648 7.04998 851.498 60.6 851.498 166.8C851.498 232.95 866.348 317.1 953.648 317.1C1009.45 317.1 1040.5 286.95 1047.25 239.7C1048.6 230.25 1050.85 228.45 1056.25 228.45C1061.2 228.45 1063.45 229.8 1063.45 235.65C1063.45 239.7 1062.55 248.25 1057.6 260.4C1042.75 297.3 1010.35 323.85 951.398 323.85C865.448 323.85 813.248 269.4 813.248 163.2ZM1127.63 181.2V41.25C1127.63 27.3 1127.63 22.35 1124.93 18.3C1121.78 13.8 1117.28 12.45 1091.18 12C1089.83 12 1088.93 12 1088.93 9.29998C1088.93 7.49997 1089.38 6.14999 1091.18 6.14999C1102.43 6.14999 1131.68 6.59999 1144.28 6.59999C1158.68 6.59999 1191.53 6.14999 1197.83 6.14999C1199.63 6.14999 1200.08 7.04998 1200.08 8.84998C1200.08 11.55 1199.63 12 1197.83 12C1170.38 12 1166.33 14.7 1163.63 18.75C1161.38 21.9 1161.38 30.45 1161.38 41.25V180.75C1161.38 200.1 1161.83 219 1162.73 232.05C1165.88 286.95 1185.68 317.1 1246.88 317.1C1300.88 317.1 1335.53 292.35 1341.83 233.85C1343.18 219.9 1343.18 202.35 1343.18 182.1V63.3C1343.18 35.4 1339.13 25.95 1333.73 20.55C1329.68 16.5 1317.53 12.9 1303.58 12C1301.78 12 1301.33 11.55 1301.33 8.84998C1301.33 7.04998 1301.78 6.14999 1303.58 6.14999C1309.88 6.14999 1332.83 6.59999 1347.23 6.59999C1359.83 6.59999 1377.38 6.14999 1388.18 6.14999C1389.98 6.14999 1390.43 7.49997 1390.43 9.29998C1390.43 11.55 1389.53 12 1388.18 12C1367.48 14.7 1360.73 19.2 1357.58 24.15C1354.88 28.2 1351.28 35.4 1351.28 63.3V179.85C1351.28 203.25 1351.28 221.7 1349.48 236.55C1342.28 295.5 1307.18 323.85 1245.08 323.85C1182.98 323.85 1135.73 303.6 1129.43 237.9C1128.08 224.4 1127.63 202.8 1127.63 181.2ZM1457.29 283.35V41.25C1457.29 27.75 1457.29 22.35 1454.59 18.3C1451.44 13.8 1446.94 12.45 1421.29 12C1419.94 12 1419.04 11.55 1419.04 9.29998C1419.04 7.49997 1419.49 6.14999 1421.29 6.14999C1432.54 6.14999 1461.34 6.59999 1473.94 6.59999C1488.34 6.59999 1521.19 6.14999 1527.49 6.14999C1529.29 6.14999 1529.74 7.04998 1529.74 8.84998C1529.74 11.1 1528.84 12 1527.04 12C1500.04 12 1496.44 14.7 1493.74 18.75C1491.49 21.9 1491.49 30 1491.49 41.25V283.35C1491.49 295.5 1491.49 302.25 1494.19 306.3C1496.89 310.35 1504.54 311.25 1511.74 311.25H1556.74C1579.24 311.25 1594.09 308.1 1601.74 304.5C1610.74 300.45 1617.94 293.25 1621.99 286.05C1626.49 277.95 1631.89 259.5 1633.69 244.2C1634.14 241.05 1635.04 240.6 1637.29 240.6C1639.99 240.6 1640.89 240.6 1640.89 244.2C1640.89 248.7 1640.44 266.25 1640.44 276.6C1640.44 286.95 1640.89 306.3 1640.89 311.25C1640.89 316.2 1639.99 318 1633.24 318C1595.44 318 1497.79 317.55 1473.04 317.55C1460.44 317.55 1432.54 318 1421.29 318C1419.49 318 1419.04 317.1 1419.04 315.3C1419.04 312.6 1419.94 312.15 1421.29 312.15C1441.54 312.15 1452.34 311.25 1454.59 306.3C1457.29 301.35 1457.29 293.25 1457.29 283.35ZM1699.24 266.25L1786.54 18.3C1789.24 11.1 1790.59 8.39999 1791.49 7.49997C1792.39 6.59999 1793.74 6.14999 1796.44 6.14999H1807.69C1809.49 6.14999 1811.29 6.14999 1812.19 7.04998C1813.54 7.95 1814.44 11.1 1817.14 18.3L1909.84 283.35C1912.99 291.9 1916.14 301.35 1920.19 306.3C1924.69 311.7 1932.79 312.15 1945.39 312.15C1947.19 312.15 1948.09 312.6 1948.09 315.3C1948.09 317.1 1947.64 318 1945.84 318C1928.74 317.55 1912.54 317.55 1900.84 317.55C1888.24 317.55 1860.34 317.55 1844.59 318C1842.79 318 1842.34 317.1 1842.34 314.85C1842.34 312.15 1843.69 312.15 1845.49 312.15C1858.09 312.15 1867.54 311.25 1872.49 309.9C1876.54 309 1877.89 306.3 1877.89 303.15C1877.89 300.45 1876.99 294.6 1872.94 283.35L1840.54 191.1H1734.79L1710.94 260.4C1705.09 276.6 1703.29 285.15 1703.29 295.05C1703.29 299.55 1705.99 304.95 1710.49 307.2C1717.69 310.8 1728.94 311.7 1735.69 312.15C1737.49 312.15 1738.84 312.15 1738.84 314.85C1738.84 317.1 1737.94 318 1736.14 318C1724.89 317.55 1706.89 317.55 1694.29 317.55C1682.14 317.55 1671.34 317.55 1656.94 318C1655.14 318 1654.69 317.1 1654.69 315.3C1654.69 312.6 1655.59 312.15 1657.39 312.15C1667.29 311.7 1675.39 308.55 1681.69 302.25C1687.09 296.85 1692.49 284.7 1699.24 266.25ZM1737.04 184.35H1838.29C1800.04 72.3 1794.19 53.85 1788.34 34.05C1782.04 53.85 1775.29 73.2 1737.04 184.35ZM2040.88 283.35V41.25C2040.88 29.1 2040.88 21.9 2038.18 17.85C2035.48 13.8 2027.83 12.9 2020.63 12.9C1988.68 12.9 1972.93 14.25 1966.18 17.4C1947.28 26.4 1940.98 44.4 1937.38 75.9C1936.93 79.05 1936.48 79.5 1933.78 79.5C1931.08 79.5 1930.63 79.05 1930.63 75.45C1930.63 69.6 1931.08 55.65 1931.08 43.95C1931.08 34.5 1930.63 19.2 1930.63 13.35C1930.63 7.49997 1931.53 6.14999 1936.48 6.14999C1974.28 6.14999 2033.23 6.59999 2057.98 6.59999C2082.73 6.59999 2141.68 6.14999 2179.48 6.14999C2184.43 6.14999 2185.33 7.04998 2185.33 13.8C2185.33 19.65 2184.88 35.4 2184.88 45.3C2184.88 55.2 2185.33 71.4 2185.33 75.9C2185.33 79.05 2184.43 79.5 2182.18 79.5C2179.48 79.5 2179.03 79.05 2178.58 76.35C2175.43 45.75 2168.23 25.95 2149.33 17.4C2142.58 14.25 2127.73 12.9 2095.33 12.9C2088.13 12.9 2080.48 13.8 2077.78 17.85C2075.08 21.9 2075.08 29.1 2075.08 41.25V283.35C2075.08 291.45 2075.08 301.35 2077.33 305.85C2079.58 309.9 2084.08 312.15 2111.98 312.15C2113.78 312.15 2114.23 312.6 2114.23 315.3C2114.23 317.1 2113.78 318 2111.98 318C2105.68 318 2071.93 317.55 2057.53 317.55C2044.93 317.55 2015.68 318 2004.43 318C2002.63 318 2002.18 317.1 2002.18 314.85C2002.18 312.6 2003.08 312.15 2004.43 312.15C2030.08 312.15 2035.93 310.35 2038.18 306.3C2040.88 301.35 2040.88 293.25 2040.88 283.35ZM2483.04 155.55C2483.04 263.1 2430.39 323.85 2341.74 323.85C2261.64 323.85 2207.19 265.35 2207.19 164.55C2207.19 62.85 2266.59 0.299986 2347.59 0.299986C2435.34 0.299986 2483.04 66.9 2483.04 155.55ZM2445.69 160.95C2445.69 38.1 2402.04 7.04998 2346.24 7.04998C2294.94 7.04998 2245.44 39.9 2245.44 160.5C2245.44 283.35 2291.34 317.1 2343.99 317.1C2404.29 317.1 2445.69 281.55 2445.69 160.95ZM2596.27 158.25H2628.67C2653.87 158.25 2675.02 157.35 2690.32 149.7C2707.42 141.15 2717.32 117.75 2717.32 82.65C2717.32 36.75 2696.17 12.9 2630.02 12.9C2615.62 12.9 2604.37 12.9 2600.32 15.6C2596.72 17.85 2596.27 23.25 2596.27 39V158.25ZM2675.92 161.85C2701.57 164.1 2719.57 173.1 2728.12 183.45C2742.07 200.55 2747.02 221.7 2754.67 274.35C2759.62 308.1 2766.82 314.4 2777.17 314.4C2786.17 314.4 2791.12 309 2791.12 300C2791.12 295.5 2792.47 293.25 2796.07 293.25C2799.67 293.25 2801.02 295.05 2801.02 297.75C2801.02 308.55 2792.47 320.7 2770.42 320.7C2756.47 320.7 2742.52 318.9 2732.17 308.1C2720.47 295.05 2717.32 271.2 2714.62 247.8C2710.12 209.55 2703.37 190.2 2691.67 178.5C2680.42 167.25 2654.32 165 2628.67 165H2596.27V283.35C2596.27 291.45 2596.27 301.8 2598.97 305.85C2602.12 310.35 2607.97 312.15 2637.67 312.15C2639.47 312.15 2639.92 313.05 2639.92 315.3C2639.92 317.1 2639.47 318 2637.67 318C2631.37 318 2594.02 317.55 2579.62 317.55C2567.02 317.55 2537.32 318 2526.07 318C2524.27 318 2524.27 316.65 2524.27 314.85C2524.27 312.6 2525.17 312.15 2526.52 312.15C2551.72 312.15 2557.57 310.35 2559.82 306.3C2562.52 301.35 2562.52 293.25 2562.52 283.35V41.25C2562.52 27.3 2562.52 22.35 2559.82 18.3C2556.67 13.8 2552.17 12.45 2526.52 12C2525.17 12 2524.27 11.55 2524.27 9.29998C2524.27 7.49997 2524.72 6.14999 2526.52 6.14999C2537.77 6.14999 2565.67 6.59999 2578.27 6.59999C2590.87 6.59999 2615.17 6.14999 2630.92 6.14999C2695.27 6.14999 2754.22 16.05 2754.22 84.45C2754.22 128.1 2726.32 154.2 2675.92 161.85Z" fill="#C5B29A"/>
</svg>
