<svg width="2983" height="324" viewBox="0 0 2983 324" fill="none" xmlns="http://www.w3.org/2000/svg">
<path d="M0.685352 163.2C0.685352 68.25 53.3354 0.299986 145.135 0.299986C181.135 0.299986 200.485 9.29998 214.885 16.95C219.835 19.65 224.335 21 226.135 21C231.085 21 233.785 17.85 235.135 7.95C235.585 4.34999 236.935 4.34999 239.185 4.34999C241.435 4.34999 242.335 4.79998 242.335 7.04998C242.335 12 241.885 34.05 241.885 51.15C241.885 70.05 242.335 88.5 242.335 96.15C242.335 99.3 241.435 99.75 238.735 99.75C236.035 99.75 235.585 99.3 235.135 95.25C231.535 63.75 225.685 47.55 210.835 32.7C195.085 16.5 171.235 7.04998 145.135 7.04998C69.0854 7.04998 38.9354 60.6 38.9354 166.8C38.9354 232.95 53.7854 317.1 141.085 317.1C196.885 317.1 227.935 286.95 234.685 239.7C236.035 230.25 238.285 228.45 243.685 228.45C248.635 228.45 250.885 229.8 250.885 235.65C250.885 239.7 249.985 248.25 245.035 260.4C230.185 297.3 197.785 323.85 138.835 323.85C52.8854 323.85 0.685352 269.4 0.685352 163.2ZM355.043 158.25H387.443C412.643 158.25 433.793 157.35 449.093 149.7C466.193 141.15 476.093 117.75 476.093 82.65C476.093 36.75 454.943 12.9 388.793 12.9C374.393 12.9 363.143 12.9 359.093 15.6C355.493 17.85 355.043 23.25 355.043 39V158.25ZM434.693 161.85C460.343 164.1 478.343 173.1 486.893 183.45C500.843 200.55 505.793 221.7 513.443 274.35C518.393 308.1 525.593 314.4 535.943 314.4C544.943 314.4 549.893 309 549.893 300C549.893 295.5 551.243 293.25 554.843 293.25C558.443 293.25 559.793 295.05 559.793 297.75C559.793 308.55 551.243 320.7 529.193 320.7C515.243 320.7 501.293 318.9 490.943 308.1C479.243 295.05 476.093 271.2 473.393 247.8C468.893 209.55 462.143 190.2 450.443 178.5C439.193 167.25 413.093 165 387.443 165H355.043V283.35C355.043 291.45 355.043 301.8 357.743 305.85C360.893 310.35 366.743 312.15 396.443 312.15C398.243 312.15 398.693 313.05 398.693 315.3C398.693 317.1 398.243 318 396.443 318C390.143 318 352.793 317.55 338.393 317.55C325.793 317.55 296.093 318 284.843 318C283.043 318 283.043 316.65 283.043 314.85C283.043 312.6 283.943 312.15 285.293 312.15C310.493 312.15 316.343 310.35 318.593 306.3C321.293 301.35 321.293 293.25 321.293 283.35V41.25C321.293 27.3 321.293 22.35 318.593 18.3C315.443 13.8 310.943 12.45 285.293 12C283.943 12 283.043 11.55 283.043 9.29998C283.043 7.49997 283.493 6.14999 285.293 6.14999C296.543 6.14999 324.443 6.59999 337.043 6.59999C349.643 6.59999 373.943 6.14999 389.693 6.14999C454.043 6.14999 512.993 16.05 512.993 84.45C512.993 128.1 485.093 154.2 434.693 161.85ZM666.288 283.35V179.85L580.788 41.25C574.938 31.8 569.088 22.8 564.588 17.85C560.538 13.35 553.338 12 540.288 12C538.488 12 537.588 11.55 537.588 8.84998C537.588 7.04998 538.038 6.14999 539.838 6.14999C550.638 6.14999 576.738 6.59999 589.788 6.59999C603.738 6.59999 634.788 6.14999 645.588 6.14999C647.388 6.14999 647.838 7.04998 647.838 9.29998C647.838 12 646.938 12 645.138 12C632.538 12 619.938 13.35 616.338 14.25C611.838 15.6 610.938 17.4 610.938 21C610.938 24.15 614.088 30.45 620.388 40.8C674.388 128.55 686.088 149.25 696.888 170.4C710.838 145.65 723.438 124.95 754.038 72.75C767.538 49.8 773.388 34.05 773.388 27.3C773.388 20.55 770.688 18.75 765.288 16.5C759.438 13.35 749.988 12.45 742.788 12C740.988 12 740.088 11.55 740.088 9.29998C740.088 7.04998 740.538 6.14999 742.338 6.14999C752.688 6.14999 771.138 6.59999 783.288 6.59999C795.888 6.59999 811.188 6.14999 821.988 6.14999C823.788 6.14999 824.238 7.04998 824.238 8.84998C824.238 11.55 823.788 12 821.988 12C812.088 12.45 802.188 16.5 796.338 21.9C790.938 27.3 783.288 39 772.488 57L700.038 178.5V283.35C700.038 292.35 700.038 301.35 702.288 305.85C704.538 309.9 709.488 312.15 736.488 312.15C738.288 312.15 738.738 313.05 738.738 315.3C738.738 317.1 738.288 318 736.488 318C730.188 318 697.338 317.55 682.938 317.55C670.338 317.55 641.088 318 629.838 318C628.038 318 627.588 317.1 627.588 315.3C627.588 312.6 628.488 312.15 629.838 312.15C654.588 312.15 661.338 310.35 663.588 306.3C666.288 301.35 666.288 293.25 666.288 283.35ZM910.951 176.7H932.551C960.451 176.7 977.101 174 992.401 166.35C1012.65 156 1025.25 129 1025.25 90.75C1025.25 43.5 1019.85 12.9 942.901 12.9C929.401 12.9 919.051 12.9 915.001 15.6C911.851 17.85 910.951 23.25 910.951 39V176.7ZM877.201 283.35V41.25C877.201 27.3 877.201 22.35 874.501 18.3C871.351 13.8 866.851 12.45 841.201 12C839.851 12 838.951 11.55 838.951 9.29998C838.951 7.49997 839.401 6.14999 841.201 6.14999C852.451 6.14999 881.251 6.59999 893.851 6.59999C906.451 6.59999 931.651 6.14999 947.401 6.14999C1010.4 6.14999 1062.15 16.95 1062.15 89.85C1062.15 137.55 1037.85 163.2 999.601 175.8C982.501 181.2 958.201 183.45 932.551 183.45H910.951V283.35C910.951 291.45 911.401 301.8 913.651 305.85C916.351 310.35 924.451 312.15 955.501 312.15C957.301 312.15 957.751 313.05 957.751 315.3C957.751 317.1 957.301 318 955.501 318C949.201 318 908.251 317.55 893.851 317.55C881.251 317.55 852.451 318 841.201 318C839.401 318 838.951 317.1 838.951 314.85C838.951 312.6 839.851 312.15 841.201 312.15C866.401 312.15 872.251 310.35 874.501 306.3C877.201 301.35 877.201 293.25 877.201 283.35ZM1204.59 283.35V41.25C1204.59 29.1 1204.59 21.9 1201.89 17.85C1199.19 13.8 1191.54 12.9 1184.34 12.9C1152.39 12.9 1136.64 14.25 1129.89 17.4C1110.99 26.4 1104.69 44.4 1101.09 75.9C1100.64 79.05 1100.19 79.5 1097.49 79.5C1094.79 79.5 1094.34 79.05 1094.34 75.45C1094.34 69.6 1094.79 55.65 1094.79 43.95C1094.79 34.5 1094.34 19.2 1094.34 13.35C1094.34 7.49997 1095.24 6.14999 1100.19 6.14999C1137.99 6.14999 1196.94 6.59999 1221.69 6.59999C1246.44 6.59999 1305.39 6.14999 1343.19 6.14999C1348.14 6.14999 1349.04 7.04998 1349.04 13.8C1349.04 19.65 1348.59 35.4 1348.59 45.3C1348.59 55.2 1349.04 71.4 1349.04 75.9C1349.04 79.05 1348.14 79.5 1345.89 79.5C1343.19 79.5 1342.74 79.05 1342.29 76.35C1339.14 45.75 1331.94 25.95 1313.04 17.4C1306.29 14.25 1291.44 12.9 1259.04 12.9C1251.84 12.9 1244.19 13.8 1241.49 17.85C1238.79 21.9 1238.79 29.1 1238.79 41.25V283.35C1238.79 291.45 1238.79 301.35 1241.04 305.85C1243.29 309.9 1247.79 312.15 1275.69 312.15C1277.49 312.15 1277.94 312.6 1277.94 315.3C1277.94 317.1 1277.49 318 1275.69 318C1269.39 318 1235.64 317.55 1221.24 317.55C1208.64 317.55 1179.39 318 1168.14 318C1166.34 318 1165.89 317.1 1165.89 314.85C1165.89 312.6 1166.79 312.15 1168.14 312.15C1193.79 312.15 1199.64 310.35 1201.89 306.3C1204.59 301.35 1204.59 293.25 1204.59 283.35ZM1646.75 155.55C1646.75 263.1 1594.1 323.85 1505.45 323.85C1425.35 323.85 1370.9 265.35 1370.9 164.55C1370.9 62.85 1430.3 0.299986 1511.3 0.299986C1599.05 0.299986 1646.75 66.9 1646.75 155.55ZM1609.4 160.95C1609.4 38.1 1565.75 7.04998 1509.95 7.04998C1458.65 7.04998 1409.15 39.9 1409.15 160.5C1409.15 283.35 1455.05 317.1 1507.7 317.1C1568 317.1 1609.4 281.55 1609.4 160.95ZM1822.36 289.65C1828.66 270.3 1836.76 246.9 1900.21 63.75C1906.06 47.55 1907.86 39 1907.86 29.1C1907.86 24.6 1905.16 19.2 1900.66 16.95C1893.46 13.35 1882.21 12.45 1875.46 12C1873.66 12 1872.76 11.55 1872.76 9.29998C1872.76 7.04998 1873.21 6.14999 1875.01 6.14999C1886.26 6.59999 1904.26 6.59999 1916.86 6.59999C1929.46 6.59999 1939.81 6.59999 1954.21 6.14999C1956.01 6.14999 1956.46 7.04998 1956.46 8.84998C1956.46 11.1 1955.56 12 1953.76 12C1943.86 12.45 1935.76 15.6 1929.46 21.9C1924.06 27.3 1919.11 39 1912.36 57.9L1823.26 308.1C1821.91 312.6 1820.11 315.75 1819.21 316.65C1818.31 317.55 1816.51 318 1814.26 318H1803.01C1801.66 318 1799.41 318 1798.51 317.1C1797.16 315.75 1796.26 313.05 1794.46 308.55L1701.76 40.8C1698.61 32.25 1695.46 22.8 1691.41 17.85C1687.36 12.45 1678.81 12 1664.41 12C1662.61 12 1661.71 11.55 1661.71 8.84998C1661.71 7.04998 1662.16 6.14999 1663.96 6.14999C1680.61 6.59999 1699.06 6.59999 1710.76 6.59999C1722.91 6.59999 1750.36 6.59999 1766.11 6.14999C1767.91 6.14999 1768.81 7.04998 1768.81 9.29998C1768.81 11.55 1767.46 12 1765.66 12C1752.61 12 1743.61 12.9 1738.21 14.25C1734.16 15.15 1732.81 17.85 1732.81 21C1732.81 23.7 1733.71 29.55 1737.76 40.8C1809.31 248.25 1816.51 268.5 1822.36 289.65ZM2010.55 283.35V41.25C2010.55 25.95 2010.1 21.45 2007.4 17.85C2003.8 13.35 1998.85 12.45 1974.55 12C1973.2 12 1972.3 12 1972.3 9.29998C1972.3 7.49997 1972.75 6.14999 1974.55 6.14999C1985.8 6.14999 2013.7 6.59999 2026.3 6.59999C2051.05 6.59999 2137 6.14999 2174.8 6.14999C2179.75 6.14999 2180.65 7.49997 2180.65 11.1C2180.65 17.85 2180.2 33.15 2180.2 41.7C2180.2 52.95 2180.2 65.55 2180.65 75.45C2180.65 79.05 2180.2 79.5 2177.5 79.5C2174.8 79.5 2174.35 79.05 2173.9 75.9C2171.2 44.85 2163.55 26.85 2144.65 18.3C2137.9 15.15 2119.9 12.9 2104.6 12.9H2065C2057.8 12.9 2050.15 13.8 2047.45 17.85C2044.75 21.9 2044.75 28.2 2044.75 40.8V153.75H2074C2087.95 153.75 2104.6 153.3 2111.35 149.7C2122.6 143.85 2128.45 133.05 2130.25 107.85C2130.7 104.7 2131.15 104.25 2133.85 104.25C2136.55 104.25 2137 104.7 2137 108.3C2137 115.5 2136.55 136.65 2136.55 157.35C2136.55 178.05 2137 197.85 2137 205.95C2137 209.55 2136.55 210 2133.85 210C2131.15 210 2130.7 209.55 2130.25 206.4C2128 182.1 2123.95 171.75 2111.8 164.55C2104.6 160.95 2088.85 160.5 2074 160.5H2044.75V283.35C2044.75 295.5 2044.75 302.25 2047.45 306.3C2050.15 310.35 2057.8 311.25 2065 311.25H2110C2135.2 311.25 2147.35 308.1 2155 304.5C2164 300.45 2171.2 293.25 2175.25 286.05C2179.75 277.95 2185.6 259.5 2186.95 243.75C2187.4 240.6 2188.3 240.6 2190.55 240.6C2193.25 240.6 2193.7 241.05 2193.7 244.65C2193.7 255 2193.25 266.7 2193.25 277.05C2193.25 287.4 2193.7 302.25 2193.7 312.6C2193.7 317.1 2192.35 318 2186.05 318C2148.25 318 2051.05 317.55 2026.3 317.55C2013.7 317.55 1981.75 318 1974.55 318C1972.75 318 1972.3 316.65 1972.3 314.85C1972.3 312.15 1973.2 312.15 1974.55 312.15C1994.8 312.15 2005.6 311.25 2007.85 306.3C2010.55 301.35 2010.55 293.25 2010.55 283.35ZM2303.58 158.25H2335.98C2361.18 158.25 2382.33 157.35 2397.63 149.7C2414.73 141.15 2424.63 117.75 2424.63 82.65C2424.63 36.75 2403.48 12.9 2337.33 12.9C2322.93 12.9 2311.68 12.9 2307.63 15.6C2304.03 17.85 2303.58 23.25 2303.58 39V158.25ZM2383.23 161.85C2408.88 164.1 2426.88 173.1 2435.43 183.45C2449.38 200.55 2454.33 221.7 2461.98 274.35C2466.93 308.1 2474.13 314.4 2484.48 314.4C2493.48 314.4 2498.43 309 2498.43 300C2498.43 295.5 2499.78 293.25 2503.38 293.25C2506.98 293.25 2508.33 295.05 2508.33 297.75C2508.33 308.55 2499.78 320.7 2477.73 320.7C2463.78 320.7 2449.83 318.9 2439.48 308.1C2427.78 295.05 2424.63 271.2 2421.93 247.8C2417.43 209.55 2410.68 190.2 2398.98 178.5C2387.73 167.25 2361.63 165 2335.98 165H2303.58V283.35C2303.58 291.45 2303.58 301.8 2306.28 305.85C2309.43 310.35 2315.28 312.15 2344.98 312.15C2346.78 312.15 2347.23 313.05 2347.23 315.3C2347.23 317.1 2346.78 318 2344.98 318C2338.68 318 2301.33 317.55 2286.93 317.55C2274.33 317.55 2244.63 318 2233.38 318C2231.58 318 2231.58 316.65 2231.58 314.85C2231.58 312.6 2232.48 312.15 2233.83 312.15C2259.03 312.15 2264.88 310.35 2267.13 306.3C2269.83 301.35 2269.83 293.25 2269.83 283.35V41.25C2269.83 27.3 2269.83 22.35 2267.13 18.3C2263.98 13.8 2259.48 12.45 2233.83 12C2232.48 12 2231.58 11.55 2231.58 9.29998C2231.58 7.49997 2232.03 6.14999 2233.83 6.14999C2245.08 6.14999 2272.98 6.59999 2285.58 6.59999C2298.18 6.59999 2322.48 6.14999 2338.23 6.14999C2402.58 6.14999 2461.53 16.05 2461.53 84.45C2461.53 128.1 2433.63 154.2 2383.23 161.85ZM2645.46 183.9L2605.41 170.4C2558.61 154.2 2532.96 128.55 2532.96 85.8C2532.96 34.5 2570.31 0.299986 2629.26 0.299986C2655.81 0.299986 2673.81 7.49997 2686.86 14.7C2691.81 17.4 2696.31 19.2 2698.11 19.2C2702.16 19.2 2706.21 18.3 2707.56 6.59999C2708.01 2.99998 2708.91 2.54998 2711.61 2.54998C2714.31 2.54998 2714.76 3.44997 2714.76 5.7C2714.76 10.65 2714.31 30.9 2714.31 48C2714.31 66.9 2714.76 81.3 2714.76 88.95C2714.76 92.1 2714.31 93 2711.16 93C2708.46 93 2708.01 92.1 2707.56 88.05C2703.96 57.9 2697.66 42.6 2683.26 28.65C2669.76 15.6 2649.06 7.04998 2627.91 7.04998C2582.01 7.04998 2554.11 31.35 2554.11 69.15C2554.11 101.1 2564.01 118.2 2616.21 136.2L2651.31 148.8C2703.51 166.8 2730.96 190.2 2730.96 232.95C2730.96 286.95 2696.76 323.85 2632.41 323.85C2600.46 323.85 2577.06 314.85 2562.21 307.2C2556.81 304.5 2550.06 302.25 2547.81 302.25C2542.86 302.25 2538.81 304.05 2538.36 316.2C2538.36 320.25 2537.01 320.7 2534.76 320.7C2531.61 320.7 2531.16 319.8 2531.16 317.55C2531.16 313.05 2532.06 289.65 2532.06 271.2C2532.06 250.95 2531.16 235.65 2531.16 227.55C2531.16 223.95 2531.61 223.05 2534.76 223.05C2537.46 223.05 2537.91 223.5 2538.36 228C2542.41 260.4 2548.71 276.6 2564.46 292.35C2578.86 306.75 2609.46 317.1 2632.86 317.1C2680.56 317.1 2708.91 289.65 2708.91 252.3C2708.91 219 2695.86 201.45 2645.46 183.9ZM2798.93 283.35V41.25C2798.93 25.95 2798.48 21.45 2795.78 17.85C2792.18 13.35 2787.23 12.45 2762.93 12C2761.58 12 2760.68 12 2760.68 9.29998C2760.68 7.49997 2761.13 6.14999 2762.93 6.14999C2774.18 6.14999 2802.08 6.59999 2814.68 6.59999C2839.43 6.59999 2925.38 6.14999 2963.18 6.14999C2968.13 6.14999 2969.03 7.49997 2969.03 11.1C2969.03 17.85 2968.58 33.15 2968.58 41.7C2968.58 52.95 2968.58 65.55 2969.03 75.45C2969.03 79.05 2968.58 79.5 2965.88 79.5C2963.18 79.5 2962.73 79.05 2962.28 75.9C2959.58 44.85 2951.93 26.85 2933.03 18.3C2926.28 15.15 2908.28 12.9 2892.98 12.9H2853.38C2846.18 12.9 2838.53 13.8 2835.83 17.85C2833.13 21.9 2833.13 28.2 2833.13 40.8V153.75H2862.38C2876.33 153.75 2892.98 153.3 2899.73 149.7C2910.98 143.85 2916.83 133.05 2918.63 107.85C2919.08 104.7 2919.53 104.25 2922.23 104.25C2924.93 104.25 2925.38 104.7 2925.38 108.3C2925.38 115.5 2924.93 136.65 2924.93 157.35C2924.93 178.05 2925.38 197.85 2925.38 205.95C2925.38 209.55 2924.93 210 2922.23 210C2919.53 210 2919.08 209.55 2918.63 206.4C2916.38 182.1 2912.33 171.75 2900.18 164.55C2892.98 160.95 2877.23 160.5 2862.38 160.5H2833.13V283.35C2833.13 295.5 2833.13 302.25 2835.83 306.3C2838.53 310.35 2846.18 311.25 2853.38 311.25H2898.38C2923.58 311.25 2935.73 308.1 2943.38 304.5C2952.38 300.45 2959.58 293.25 2963.63 286.05C2968.13 277.95 2973.98 259.5 2975.33 243.75C2975.78 240.6 2976.68 240.6 2978.93 240.6C2981.63 240.6 2982.08 241.05 2982.08 244.65C2982.08 255 2981.63 266.7 2981.63 277.05C2981.63 287.4 2982.08 302.25 2982.08 312.6C2982.08 317.1 2980.73 318 2974.43 318C2936.63 318 2839.43 317.55 2814.68 317.55C2802.08 317.55 2770.13 318 2762.93 318C2761.13 318 2760.68 316.65 2760.68 314.85C2760.68 312.15 2761.58 312.15 2762.93 312.15C2783.18 312.15 2793.98 311.25 2796.23 306.3C2798.93 301.35 2798.93 293.25 2798.93 283.35Z" fill="#C5B29A"/>
</svg>
