<svg width="2225" height="899" viewBox="0 0 2225 899" fill="none" xmlns="http://www.w3.org/2000/svg">
<path d="M482.085 277.35V35.25C482.085 19.95 481.635 15.45 478.935 11.85C475.335 7.34998 470.385 6.44999 446.085 6C444.735 6 443.835 5.54998 443.835 2.84998C443.835 1.04998 444.285 0.149992 446.085 0.149992C457.335 0.149992 485.235 0.599986 497.835 0.599986C522.585 0.599986 608.535 0.149992 646.335 0.149992C650.835 0.149992 652.185 1.04998 652.185 5.09998C652.185 10.5 651.735 28.05 651.735 37.5C651.735 47.85 652.185 65.85 652.185 69.45C652.185 73.05 651.735 73.5 649.035 73.5C646.335 73.5 645.885 73.05 645.435 69.9C642.735 38.85 635.085 20.85 616.185 12.3C609.435 9.14998 592.335 6.89999 576.135 6.89999H536.535C529.335 6.89999 521.685 7.79997 518.985 11.85C516.285 15.9 516.285 22.65 516.285 34.8V153.6H548.235C562.185 153.6 578.835 153.15 585.585 149.55C596.835 143.7 602.235 132.9 604.035 107.7C604.485 104.55 605.385 104.1 607.635 104.1C610.335 104.1 610.785 104.55 610.785 108.15C610.785 115.35 609.885 136.5 609.885 157.2C609.885 177.9 610.785 198.6 610.785 206.7C610.785 209.85 609.885 209.85 607.185 209.85C604.935 209.85 604.035 208.95 604.035 206.25C602.235 182.4 597.735 171.6 585.585 164.4C578.835 160.8 562.635 160.35 548.235 160.35H516.285V277.35C516.285 285.9 516.285 295.8 518.985 299.85C521.685 304.35 528.885 306.15 560.835 306.15C562.635 306.15 563.085 307.05 563.085 309.3C563.085 311.1 562.635 312 560.835 312C554.535 312 513.135 311.55 498.735 311.55C486.135 311.55 457.335 312 446.085 312C444.285 312 443.835 310.65 443.835 308.85C443.835 306.15 444.735 306.15 446.085 306.15C470.385 306.15 477.135 304.35 479.385 300.3C482.085 295.35 482.085 287.25 482.085 277.35ZM796.758 277.35V173.85L711.258 35.25C705.408 25.8 699.558 16.8 695.058 11.85C691.008 7.34998 683.808 6 670.758 6C668.958 6 668.058 5.54998 668.058 2.84998C668.058 1.04998 668.508 0.149992 670.308 0.149992C681.108 0.149992 707.208 0.599986 720.258 0.599986C734.208 0.599986 765.258 0.149992 776.058 0.149992C777.858 0.149992 778.308 1.04998 778.308 3.29998C778.308 6 777.408 6 775.608 6C763.008 6 750.408 7.34998 746.808 8.24999C742.308 9.59998 741.408 11.4 741.408 15C741.408 18.15 744.558 24.45 750.858 34.8C804.858 122.55 816.558 143.25 827.358 164.4C841.308 139.65 853.908 118.95 884.508 66.75C898.008 43.8 903.858 28.05 903.858 21.3C903.858 14.55 901.158 12.75 895.758 10.5C889.908 7.34998 880.458 6.44999 873.258 6C871.458 6 870.558 5.54998 870.558 3.29998C870.558 1.04998 871.008 0.149992 872.808 0.149992C883.158 0.149992 901.608 0.599986 913.758 0.599986C926.358 0.599986 941.658 0.149992 952.458 0.149992C954.258 0.149992 954.708 1.04998 954.708 2.84998C954.708 5.54998 954.258 6 952.458 6C942.558 6.44999 932.658 10.5 926.808 15.9C921.408 21.3 913.758 33 902.958 51L830.508 172.5V277.35C830.508 286.35 830.508 295.35 832.758 299.85C835.008 303.9 839.958 306.15 866.958 306.15C868.758 306.15 869.208 307.05 869.208 309.3C869.208 311.1 868.758 312 866.958 312C860.658 312 827.808 311.55 813.408 311.55C800.808 311.55 771.558 312 760.308 312C758.508 312 758.058 311.1 758.058 309.3C758.058 306.6 758.958 306.15 760.308 306.15C785.058 306.15 791.808 304.35 794.058 300.3C796.758 295.35 796.758 287.25 796.758 277.35ZM1041.42 152.25H1073.82C1099.02 152.25 1120.17 151.35 1135.47 143.7C1152.57 135.15 1162.47 111.75 1162.47 76.65C1162.47 30.75 1141.32 6.89999 1075.17 6.89999C1060.77 6.89999 1049.52 6.89999 1045.47 9.59998C1041.87 11.85 1041.42 17.25 1041.42 33V152.25ZM1121.07 155.85C1146.72 158.1 1164.72 167.1 1173.27 177.45C1187.22 194.55 1192.17 215.7 1199.82 268.35C1204.77 302.1 1211.97 308.4 1222.32 308.4C1231.32 308.4 1236.27 303 1236.27 294C1236.27 289.5 1237.62 287.25 1241.22 287.25C1244.82 287.25 1246.17 289.05 1246.17 291.75C1246.17 302.55 1237.62 314.7 1215.57 314.7C1201.62 314.7 1187.67 312.9 1177.32 302.1C1165.62 289.05 1162.47 265.2 1159.77 241.8C1155.27 203.55 1148.52 184.2 1136.82 172.5C1125.57 161.25 1099.47 159 1073.82 159H1041.42V277.35C1041.42 285.45 1041.42 295.8 1044.12 299.85C1047.27 304.35 1053.12 306.15 1082.82 306.15C1084.62 306.15 1085.07 307.05 1085.07 309.3C1085.07 311.1 1084.62 312 1082.82 312C1076.52 312 1039.17 311.55 1024.77 311.55C1012.17 311.55 982.471 312 971.221 312C969.421 312 969.421 310.65 969.421 308.85C969.421 306.6 970.321 306.15 971.671 306.15C996.871 306.15 1002.72 304.35 1004.97 300.3C1007.67 295.35 1007.67 287.25 1007.67 277.35V35.25C1007.67 21.3 1007.67 16.35 1004.97 12.3C1001.82 7.79997 997.321 6.44999 971.671 6C970.321 6 969.421 5.54998 969.421 3.29998C969.421 1.49997 969.871 0.149992 971.671 0.149992C982.921 0.149992 1010.82 0.599986 1023.42 0.599986C1036.02 0.599986 1060.32 0.149992 1076.07 0.149992C1140.42 0.149992 1199.37 10.05 1199.37 78.45C1199.37 122.1 1171.47 148.2 1121.07 155.85ZM1334.98 152.25H1367.38C1392.58 152.25 1413.73 151.35 1429.03 143.7C1446.13 135.15 1456.03 111.75 1456.03 76.65C1456.03 30.75 1434.88 6.89999 1368.73 6.89999C1354.33 6.89999 1343.08 6.89999 1339.03 9.59998C1335.43 11.85 1334.98 17.25 1334.98 33V152.25ZM1414.63 155.85C1440.28 158.1 1458.28 167.1 1466.83 177.45C1480.78 194.55 1485.73 215.7 1493.38 268.35C1498.33 302.1 1505.53 308.4 1515.88 308.4C1524.88 308.4 1529.83 303 1529.83 294C1529.83 289.5 1531.18 287.25 1534.78 287.25C1538.38 287.25 1539.73 289.05 1539.73 291.75C1539.73 302.55 1531.18 314.7 1509.13 314.7C1495.18 314.7 1481.23 312.9 1470.88 302.1C1459.18 289.05 1456.03 265.2 1453.33 241.8C1448.83 203.55 1442.08 184.2 1430.38 172.5C1419.13 161.25 1393.03 159 1367.38 159H1334.98V277.35C1334.98 285.45 1334.98 295.8 1337.68 299.85C1340.83 304.35 1346.68 306.15 1376.38 306.15C1378.18 306.15 1378.63 307.05 1378.63 309.3C1378.63 311.1 1378.18 312 1376.38 312C1370.08 312 1332.73 311.55 1318.33 311.55C1305.73 311.55 1276.03 312 1264.78 312C1262.98 312 1262.98 310.65 1262.98 308.85C1262.98 306.6 1263.88 306.15 1265.23 306.15C1290.43 306.15 1296.28 304.35 1298.53 300.3C1301.23 295.35 1301.23 287.25 1301.23 277.35V35.25C1301.23 21.3 1301.23 16.35 1298.53 12.3C1295.38 7.79997 1290.88 6.44999 1265.23 6C1263.88 6 1262.98 5.54998 1262.98 3.29998C1262.98 1.49997 1263.43 0.149992 1265.23 0.149992C1276.48 0.149992 1304.38 0.599986 1316.98 0.599986C1329.58 0.599986 1353.88 0.149992 1369.63 0.149992C1433.98 0.149992 1492.93 10.05 1492.93 78.45C1492.93 122.1 1465.03 148.2 1414.63 155.85ZM1594.78 277.35V35.25C1594.78 19.95 1594.33 15.45 1591.63 11.85C1588.03 7.34998 1583.08 6.44999 1558.78 6C1557.43 6 1556.53 6 1556.53 3.29998C1556.53 1.49997 1556.98 0.149992 1558.78 0.149992C1570.03 0.149992 1597.93 0.599986 1610.53 0.599986C1635.28 0.599986 1721.23 0.149992 1759.03 0.149992C1763.98 0.149992 1764.88 1.49997 1764.88 5.09998C1764.88 11.85 1764.43 27.15 1764.43 35.7C1764.43 46.95 1764.43 59.55 1764.88 69.45C1764.88 73.05 1764.43 73.5 1761.73 73.5C1759.03 73.5 1758.58 73.05 1758.13 69.9C1755.43 38.85 1747.78 20.85 1728.88 12.3C1722.13 9.14998 1704.13 6.89999 1688.83 6.89999H1649.23C1642.03 6.89999 1634.38 7.79997 1631.68 11.85C1628.98 15.9 1628.98 22.2 1628.98 34.8V147.75H1658.23C1672.18 147.75 1688.83 147.3 1695.58 143.7C1706.83 137.85 1712.68 127.05 1714.48 101.85C1714.93 98.7 1715.38 98.25 1718.08 98.25C1720.78 98.25 1721.23 98.7 1721.23 102.3C1721.23 109.5 1720.78 130.65 1720.78 151.35C1720.78 172.05 1721.23 191.85 1721.23 199.95C1721.23 203.55 1720.78 204 1718.08 204C1715.38 204 1714.93 203.55 1714.48 200.4C1712.23 176.1 1708.18 165.75 1696.03 158.55C1688.83 154.95 1673.08 154.5 1658.23 154.5H1628.98V277.35C1628.98 289.5 1628.98 296.25 1631.68 300.3C1634.38 304.35 1642.03 305.25 1649.23 305.25H1694.23C1719.43 305.25 1731.58 302.1 1739.23 298.5C1748.23 294.45 1755.43 287.25 1759.48 280.05C1763.98 271.95 1769.83 253.5 1771.18 237.75C1771.63 234.6 1772.53 234.6 1774.78 234.6C1777.48 234.6 1777.93 235.05 1777.93 238.65C1777.93 249 1777.48 260.7 1777.48 271.05C1777.48 281.4 1777.93 296.25 1777.93 306.6C1777.93 311.1 1776.58 312 1770.28 312C1732.48 312 1635.28 311.55 1610.53 311.55C1597.93 311.55 1565.98 312 1558.78 312C1556.98 312 1556.53 310.65 1556.53 308.85C1556.53 306.15 1557.43 306.15 1558.78 306.15C1579.03 306.15 1589.83 305.25 1592.08 300.3C1594.78 295.35 1594.78 287.25 1594.78 277.35ZM39.2004 830.5V612.25C39.2004 598.3 39.2004 593.35 36.5004 589.3C33.3504 584.8 28.8504 583.45 3.20039 583C1.85039 583 0.950392 582.55 0.950392 580.3C0.950392 578.5 1.40039 577.15 3.20039 577.15C14.4504 577.15 32.0004 577.6 44.6004 577.6C54.5004 577.6 66.2004 577.15 72.0504 577.15C76.1004 577.15 77.0004 578.05 81.5004 590.65C94.1004 626.2 100.4 642.4 171.05 835.9C234.95 667.6 256.55 611.35 266 584.35C268.25 577.15 269.15 577.15 272.75 577.15C274.1 577.15 293.45 577.6 302.9 577.6C317.3 577.6 334.4 577.15 340.7 577.15C342.5 577.15 342.95 578.05 342.95 579.85C342.95 581.65 342.5 583 340.7 583C313.25 583 309.65 585.7 306.95 589.75C304.7 592.9 304.7 601.45 304.7 612.25V854.35C304.7 862.45 304.7 872.35 306.95 876.85C309.2 880.9 313.7 883.15 340.7 883.15C342.5 883.15 342.95 884.05 342.95 886.3C342.95 888.1 342.5 889 340.7 889C334.4 889 301.1 888.55 286.7 888.55C274.1 888.55 245.75 889 234.5 889C232.7 889 232.25 887.65 232.25 885.85C232.25 883.6 233.15 883.15 234.5 883.15C259.7 883.15 265.55 881.35 267.8 877.3C270.5 872.35 270.5 864.25 270.5 854.35V594.25C263.3 614.95 255.2 637 162.5 880.45C161.6 883.15 159.8 884.95 157.55 884.95C155.3 884.95 154.4 883.6 153.05 880.45C65.3004 642.85 55.4004 616.3 47.3004 593.35V830.5C47.3004 858.85 50.9004 867.85 56.7504 874.15C60.8004 878.65 72.5004 882.25 87.3504 883.15C89.1504 883.15 89.6004 884.5 89.6004 886.3C89.6004 888.1 89.1504 889 87.3504 889C81.0504 889 57.6504 888.55 43.2504 888.55C30.6504 888.55 13.5504 889 2.30039 889C0.500391 889 0.050392 887.65 0.050392 885.85C0.050392 884.05 0.950392 883.15 2.30039 883.15C23.0004 880.9 29.7504 876.4 32.9004 871C35.6004 866.95 39.2004 858.4 39.2004 830.5ZM407.188 837.25L494.488 589.3C497.188 582.1 498.538 579.4 499.438 578.5C500.338 577.6 501.688 577.15 504.388 577.15H515.638C517.438 577.15 519.238 577.15 520.138 578.05C521.488 578.95 522.388 582.1 525.088 589.3L617.788 854.35C620.938 862.9 624.088 872.35 628.138 877.3C632.638 882.7 640.738 883.15 653.338 883.15C655.138 883.15 656.038 883.6 656.038 886.3C656.038 888.1 655.588 889 653.788 889C636.688 888.55 620.488 888.55 608.788 888.55C596.188 888.55 568.288 888.55 552.538 889C550.738 889 550.288 888.1 550.288 885.85C550.288 883.15 551.638 883.15 553.438 883.15C566.038 883.15 575.488 882.25 580.438 880.9C584.488 880 585.838 877.3 585.838 874.15C585.838 871.45 584.938 865.6 580.888 854.35L548.488 762.1H442.738L418.888 831.4C413.038 847.6 411.238 856.15 411.238 866.05C411.238 870.55 413.938 875.95 418.438 878.2C425.638 881.8 436.888 882.7 443.638 883.15C445.438 883.15 446.788 883.15 446.788 885.85C446.788 888.1 445.888 889 444.088 889C432.838 888.55 414.838 888.55 402.238 888.55C390.088 888.55 379.288 888.55 364.888 889C363.088 889 362.638 888.1 362.638 886.3C362.638 883.6 363.538 883.15 365.338 883.15C375.238 882.7 383.338 879.55 389.638 873.25C395.038 867.85 400.438 855.7 407.188 837.25ZM444.988 755.35H546.238C507.988 643.3 502.138 624.85 496.288 605.05C489.988 624.85 483.238 644.2 444.988 755.35ZM672.561 734.2C672.561 639.25 725.661 571.3 817.011 571.3C851.661 571.3 874.161 582.1 887.211 589.75C892.161 592.9 896.211 594.25 898.011 594.25C902.511 594.25 906.111 592 907.461 580.3C907.911 576.7 908.811 576.7 911.061 576.7C913.311 576.7 914.211 577.15 914.211 579.4C914.211 584.35 913.761 605.05 913.761 622.15C913.761 641.05 914.211 659.05 914.211 666.7C914.211 669.85 913.311 670.3 911.061 670.3C908.361 670.3 907.911 669.85 907.461 665.8C903.861 634.3 897.561 618.55 882.711 603.7C866.961 587.5 843.111 578.05 817.011 578.05C740.061 578.05 710.811 632.95 710.811 737.8C710.811 800.8 724.311 888.1 811.611 888.1C848.061 888.1 871.461 876.85 881.361 860.2C884.061 855.7 885.861 846.7 885.861 832.75V794.05C885.861 780.1 885.861 774.7 883.161 771.1C880.011 766.6 873.711 765.25 847.611 764.8C846.261 764.8 845.361 764.8 845.361 762.1C845.361 760.3 845.811 758.95 847.611 758.95C853.011 758.95 889.461 759.4 902.061 759.4C916.461 759.4 942.111 758.95 948.411 758.95C950.211 758.95 950.661 759.85 950.661 761.65C950.661 764.35 950.211 764.8 948.411 764.8C930.411 764.8 924.561 767.5 921.861 771.55C919.611 774.7 919.611 783.25 919.611 794.05V836.8C919.611 853.9 920.511 875.5 920.511 880.45C920.511 882.7 919.611 883.6 917.361 883.6C915.111 883.6 914.211 883.15 913.761 879.55C911.961 866.95 908.811 866.05 905.661 866.05C902.511 866.05 899.361 867.85 894.861 871C874.161 885.85 848.061 894.85 810.711 894.85C724.761 894.85 672.561 840.4 672.561 734.2ZM997.373 837.25L1084.67 589.3C1087.37 582.1 1088.72 579.4 1089.62 578.5C1090.52 577.6 1091.87 577.15 1094.57 577.15H1105.82C1107.62 577.15 1109.42 577.15 1110.32 578.05C1111.67 578.95 1112.57 582.1 1115.27 589.3L1207.97 854.35C1211.12 862.9 1214.27 872.35 1218.32 877.3C1222.82 882.7 1230.92 883.15 1243.52 883.15C1245.32 883.15 1246.22 883.6 1246.22 886.3C1246.22 888.1 1245.77 889 1243.97 889C1226.87 888.55 1210.67 888.55 1198.97 888.55C1186.37 888.55 1158.47 888.55 1142.72 889C1140.92 889 1140.47 888.1 1140.47 885.85C1140.47 883.15 1141.82 883.15 1143.62 883.15C1156.22 883.15 1165.67 882.25 1170.62 880.9C1174.67 880 1176.02 877.3 1176.02 874.15C1176.02 871.45 1175.12 865.6 1171.07 854.35L1138.67 762.1H1032.92L1009.07 831.4C1003.22 847.6 1001.42 856.15 1001.42 866.05C1001.42 870.55 1004.12 875.95 1008.62 878.2C1015.82 881.8 1027.07 882.7 1033.82 883.15C1035.62 883.15 1036.97 883.15 1036.97 885.85C1036.97 888.1 1036.07 889 1034.27 889C1023.02 888.55 1005.02 888.55 992.423 888.55C980.273 888.55 969.473 888.55 955.073 889C953.273 889 952.823 888.1 952.823 886.3C952.823 883.6 953.723 883.15 955.523 883.15C965.423 882.7 973.523 879.55 979.823 873.25C985.223 867.85 990.623 855.7 997.373 837.25ZM1035.17 755.35H1136.42C1098.17 643.3 1092.32 624.85 1086.47 605.05C1080.17 624.85 1073.42 644.2 1035.17 755.35ZM1294.89 882.25H1403.34C1451.94 882.25 1464.54 877.75 1471.29 874.15C1490.19 863.8 1496.94 840.85 1500.09 815.65C1500.54 812.5 1500.99 811.6 1503.69 811.6C1506.39 811.6 1507.29 812.05 1507.29 815.2C1507.29 820.6 1506.84 837.25 1506.84 848.05C1506.84 858.85 1507.29 878.65 1507.29 882.25C1507.29 887.2 1505.49 889 1500.09 889C1470.84 889 1439.79 888.55 1410.54 888.55C1381.29 888.55 1262.94 889 1257.99 889C1254.84 889 1253.49 888.55 1253.49 886.3C1253.49 884.5 1255.29 881.35 1257.54 878.2C1415.94 653.65 1453.74 602.35 1466.79 583.9H1384.44C1335.39 583.9 1316.49 586.6 1309.29 590.65C1289.94 600.55 1286.34 621.25 1283.64 646.45C1283.19 649.6 1282.74 650.5 1280.04 650.5C1277.34 650.5 1276.44 649.6 1276.44 646C1276.44 634.75 1276.89 623.05 1276.89 611.35C1276.89 602.8 1276.44 593.35 1276.44 584.35C1276.44 578.95 1277.34 577.15 1283.19 577.15C1290.84 577.15 1340.79 577.6 1366.89 577.6C1392.99 577.6 1500.09 577.15 1503.69 577.15C1505.94 577.15 1506.84 577.6 1506.84 579.85C1506.84 581.65 1505.94 583 1503.24 586.6C1320.54 846.7 1307.49 864.7 1294.89 882.25ZM1577.2 854.35V612.25C1577.2 598.75 1577.2 593.35 1574.5 589.3C1571.35 584.8 1566.85 583.45 1541.2 583C1539.85 583 1538.95 583 1538.95 580.3C1538.95 578.5 1539.4 577.15 1541.2 577.15C1552.45 577.15 1581.25 577.6 1593.85 577.6C1608.25 577.6 1641.1 577.15 1647.4 577.15C1649.2 577.15 1649.65 578.05 1649.65 579.85C1649.65 582.55 1649.2 583 1647.4 583C1620.4 583 1615.9 585.7 1613.65 589.75C1611.4 592.9 1611.4 601 1611.4 612.25V854.35C1611.4 863.35 1611.4 872.35 1613.65 876.85C1615.45 880.9 1620.4 883.15 1647.4 883.15C1649.2 883.15 1649.65 884.05 1649.65 886.3C1649.65 888.1 1649.2 889 1647.4 889C1641.1 889 1608.25 888.55 1593.85 888.55C1581.25 888.55 1552.45 889 1541.2 889C1539.4 889 1538.95 888.1 1538.95 886.3C1538.95 883.6 1539.85 883.15 1541.2 883.15C1565.5 883.15 1572.25 881.35 1574.5 877.3C1577.2 872.35 1577.2 864.25 1577.2 854.35ZM1927.47 837.7C1927.02 812.5 1927.02 761.2 1926.57 634.3C1926.57 605.95 1923.42 596.95 1917.12 591.1C1913.07 587.05 1901.82 583.9 1887.42 583C1885.62 583 1885.17 582.55 1885.17 579.85C1885.17 578.05 1885.62 577.15 1887.42 577.15C1893.72 577.15 1916.22 577.6 1930.62 577.6C1943.22 577.6 1959.87 577.15 1970.67 577.15C1972.47 577.15 1972.92 578.5 1972.92 580.3C1972.92 583 1972.02 583 1970.67 583C1949.52 585.25 1943.67 589.3 1940.52 594.7C1938.27 598.75 1934.67 607.3 1934.67 634.3V893.95C1934.67 897.1 1932.87 898.45 1930.62 898.45C1928.37 898.45 1927.02 897.1 1925.22 893.95C1756.47 639.7 1744.32 621.7 1731.27 602.35C1731.72 624.85 1731.72 673 1731.72 830.95C1731.72 859.75 1734.87 868.75 1741.17 874.6C1745.22 878.65 1756.92 882.25 1771.32 883.15C1773.12 883.15 1774.02 884.05 1774.02 886.3C1774.02 888.1 1773.57 889 1771.77 889C1765.47 889 1742.07 888.55 1727.67 888.55C1715.07 888.55 1698.42 889 1687.17 889C1685.37 889 1684.92 887.65 1684.92 885.85C1684.92 883.6 1685.82 883.15 1687.17 883.15C1708.77 880.9 1714.62 876.4 1717.77 871C1720.02 866.95 1723.62 858.4 1723.62 830.95V612.25C1723.62 598.3 1723.62 593.35 1720.92 589.3C1717.77 584.8 1713.72 583.45 1687.62 583C1686.27 583 1685.37 582.55 1685.37 579.85C1685.37 578.05 1685.82 577.15 1687.62 577.15C1694.37 577.15 1711.92 577.6 1724.07 577.6C1733.97 577.6 1744.77 577.15 1750.62 577.15C1755.12 577.15 1756.92 579.4 1759.17 582.55C1902.72 798.55 1914.42 815.65 1927.47 837.7ZM2041.26 854.35V612.25C2041.26 596.95 2040.81 592.45 2038.11 588.85C2034.51 584.35 2029.56 583.45 2005.26 583C2003.91 583 2003.01 583 2003.01 580.3C2003.01 578.5 2003.46 577.15 2005.26 577.15C2016.51 577.15 2044.41 577.6 2057.01 577.6C2081.76 577.6 2167.71 577.15 2205.51 577.15C2210.46 577.15 2211.36 578.5 2211.36 582.1C2211.36 588.85 2210.91 604.15 2210.91 612.7C2210.91 623.95 2210.91 636.55 2211.36 646.45C2211.36 650.05 2210.91 650.5 2208.21 650.5C2205.51 650.5 2205.06 650.05 2204.61 646.9C2201.91 615.85 2194.26 597.85 2175.36 589.3C2168.61 586.15 2150.61 583.9 2135.31 583.9H2095.71C2088.51 583.9 2080.86 584.8 2078.16 588.85C2075.46 592.9 2075.46 599.2 2075.46 611.8V724.75H2104.71C2118.66 724.75 2135.31 724.3 2142.06 720.7C2153.31 714.85 2159.16 704.05 2160.96 678.85C2161.41 675.7 2161.86 675.25 2164.56 675.25C2167.26 675.25 2167.71 675.7 2167.71 679.3C2167.71 686.5 2167.26 707.65 2167.26 728.35C2167.26 749.05 2167.71 768.85 2167.71 776.95C2167.71 780.55 2167.26 781 2164.56 781C2161.86 781 2161.41 780.55 2160.96 777.4C2158.71 753.1 2154.66 742.75 2142.51 735.55C2135.31 731.95 2119.56 731.5 2104.71 731.5H2075.46V854.35C2075.46 866.5 2075.46 873.25 2078.16 877.3C2080.86 881.35 2088.51 882.25 2095.71 882.25H2140.71C2165.91 882.25 2178.06 879.1 2185.71 875.5C2194.71 871.45 2201.91 864.25 2205.96 857.05C2210.46 848.95 2216.31 830.5 2217.66 814.75C2218.11 811.6 2219.01 811.6 2221.26 811.6C2223.96 811.6 2224.41 812.05 2224.41 815.65C2224.41 826 2223.96 837.7 2223.96 848.05C2223.96 858.4 2224.41 873.25 2224.41 883.6C2224.41 888.1 2223.06 889 2216.76 889C2178.96 889 2081.76 888.55 2057.01 888.55C2044.41 888.55 2012.46 889 2005.26 889C2003.46 889 2003.01 887.65 2003.01 885.85C2003.01 883.15 2003.91 883.15 2005.26 883.15C2025.51 883.15 2036.31 882.25 2038.56 877.3C2041.26 872.35 2041.26 864.25 2041.26 854.35Z" fill="#C5B29A"/>
</svg>
