<svg width="2179" height="328" viewBox="0 0 2179 328" fill="none" xmlns="http://www.w3.org/2000/svg">
<path d="M276.242 155.55C276.242 263.1 223.592 323.85 134.942 323.85C54.8424 323.85 0.392384 265.35 0.392384 164.55C0.392384 62.85 59.7924 0.299986 140.792 0.299986C228.542 0.299986 276.242 66.9 276.242 155.55ZM238.892 160.95C238.892 38.1 195.242 7.04998 139.442 7.04998C88.1424 7.04998 38.6424 39.9 38.6424 160.5C38.6424 283.35 84.5424 317.1 137.192 317.1C197.492 317.1 238.892 281.55 238.892 160.95ZM326.467 163.2C326.467 68.25 379.117 0.299986 470.917 0.299986C506.917 0.299986 526.267 9.29998 540.667 16.95C545.617 19.65 550.117 21 551.917 21C556.867 21 559.567 17.85 560.917 7.95C561.367 4.34999 562.717 4.34999 564.967 4.34999C567.217 4.34999 568.117 4.79998 568.117 7.04998C568.117 12 567.667 34.05 567.667 51.15C567.667 70.05 568.117 88.5 568.117 96.15C568.117 99.3 567.217 99.75 564.517 99.75C561.817 99.75 561.367 99.3 560.917 95.25C557.317 63.75 551.467 47.55 536.617 32.7C520.867 16.5 497.017 7.04998 470.917 7.04998C394.867 7.04998 364.717 60.6 364.717 166.8C364.717 232.95 379.567 317.1 466.867 317.1C522.667 317.1 553.717 286.95 560.467 239.7C561.817 230.25 564.067 228.45 569.467 228.45C574.417 228.45 576.667 229.8 576.667 235.65C576.667 239.7 575.767 248.25 570.817 260.4C555.967 297.3 523.567 323.85 464.617 323.85C378.667 323.85 326.467 269.4 326.467 163.2ZM647.074 283.35V41.25C647.074 25.95 646.624 21.45 643.924 17.85C640.324 13.35 635.374 12.45 611.074 12C609.724 12 608.824 12 608.824 9.29998C608.824 7.49997 609.274 6.14999 611.074 6.14999C622.324 6.14999 650.224 6.59999 662.824 6.59999C687.574 6.59999 773.524 6.14999 811.324 6.14999C816.274 6.14999 817.174 7.49997 817.174 11.1C817.174 17.85 816.724 33.15 816.724 41.7C816.724 52.95 816.724 65.55 817.174 75.45C817.174 79.05 816.724 79.5 814.024 79.5C811.324 79.5 810.874 79.05 810.424 75.9C807.724 44.85 800.074 26.85 781.174 18.3C774.424 15.15 756.424 12.9 741.124 12.9H701.524C694.324 12.9 686.674 13.8 683.974 17.85C681.274 21.9 681.274 28.2 681.274 40.8V153.75H710.524C724.474 153.75 741.124 153.3 747.874 149.7C759.124 143.85 764.974 133.05 766.774 107.85C767.224 104.7 767.674 104.25 770.374 104.25C773.074 104.25 773.524 104.7 773.524 108.3C773.524 115.5 773.074 136.65 773.074 157.35C773.074 178.05 773.524 197.85 773.524 205.95C773.524 209.55 773.074 210 770.374 210C767.674 210 767.224 209.55 766.774 206.4C764.524 182.1 760.474 171.75 748.324 164.55C741.124 160.95 725.374 160.5 710.524 160.5H681.274V283.35C681.274 295.5 681.274 302.25 683.974 306.3C686.674 310.35 694.324 311.25 701.524 311.25H746.524C771.724 311.25 783.874 308.1 791.524 304.5C800.524 300.45 807.724 293.25 811.774 286.05C816.274 277.95 822.124 259.5 823.474 243.75C823.924 240.6 824.824 240.6 827.074 240.6C829.774 240.6 830.224 241.05 830.224 244.65C830.224 255 829.774 266.7 829.774 277.05C829.774 287.4 830.224 302.25 830.224 312.6C830.224 317.1 828.874 318 822.574 318C784.774 318 687.574 317.55 662.824 317.55C650.224 317.55 618.274 318 611.074 318C609.274 318 608.824 316.65 608.824 314.85C608.824 312.15 609.724 312.15 611.074 312.15C631.324 312.15 642.124 311.25 644.374 306.3C647.074 301.35 647.074 293.25 647.074 283.35ZM892.978 266.25L980.278 18.3C982.978 11.1 984.328 8.39999 985.228 7.49997C986.128 6.59999 987.478 6.14999 990.178 6.14999H1001.43C1003.23 6.14999 1005.03 6.14999 1005.93 7.04998C1007.28 7.95 1008.18 11.1 1010.88 18.3L1103.58 283.35C1106.73 291.9 1109.88 301.35 1113.93 306.3C1118.43 311.7 1126.53 312.15 1139.13 312.15C1140.93 312.15 1141.83 312.6 1141.83 315.3C1141.83 317.1 1141.38 318 1139.58 318C1122.48 317.55 1106.28 317.55 1094.58 317.55C1081.98 317.55 1054.08 317.55 1038.33 318C1036.53 318 1036.08 317.1 1036.08 314.85C1036.08 312.15 1037.43 312.15 1039.23 312.15C1051.83 312.15 1061.28 311.25 1066.23 309.9C1070.28 309 1071.63 306.3 1071.63 303.15C1071.63 300.45 1070.73 294.6 1066.68 283.35L1034.28 191.1H928.528L904.678 260.4C898.828 276.6 897.028 285.15 897.028 295.05C897.028 299.55 899.728 304.95 904.228 307.2C911.428 310.8 922.678 311.7 929.428 312.15C931.228 312.15 932.578 312.15 932.578 314.85C932.578 317.1 931.678 318 929.878 318C918.628 317.55 900.628 317.55 888.028 317.55C875.878 317.55 865.078 317.55 850.678 318C848.878 318 848.428 317.1 848.428 315.3C848.428 312.6 849.328 312.15 851.128 312.15C861.028 311.7 869.128 308.55 875.428 302.25C880.828 296.85 886.228 284.7 892.978 266.25ZM930.778 184.35H1032.03C993.778 72.3 987.928 53.85 982.078 34.05C975.778 53.85 969.028 73.2 930.778 184.35ZM1402.52 266.7C1402.07 241.5 1402.07 190.2 1401.62 63.3C1401.62 34.95 1398.47 25.95 1392.17 20.1C1388.12 16.05 1376.87 12.9 1362.47 12C1360.67 12 1360.22 11.55 1360.22 8.84998C1360.22 7.04998 1360.67 6.14999 1362.47 6.14999C1368.77 6.14999 1391.27 6.59999 1405.67 6.59999C1418.27 6.59999 1434.92 6.14999 1445.72 6.14999C1447.52 6.14999 1447.97 7.49997 1447.97 9.29998C1447.97 12 1447.07 12 1445.72 12C1424.57 14.25 1418.72 18.3 1415.57 23.7C1413.32 27.75 1409.72 36.3 1409.72 63.3V322.95C1409.72 326.1 1407.92 327.45 1405.67 327.45C1403.42 327.45 1402.07 326.1 1400.27 322.95C1231.52 68.7 1219.37 50.7 1206.32 31.35C1206.77 53.85 1206.77 102 1206.77 259.95C1206.77 288.75 1209.92 297.75 1216.22 303.6C1220.27 307.65 1231.97 311.25 1246.37 312.15C1248.17 312.15 1249.07 313.05 1249.07 315.3C1249.07 317.1 1248.62 318 1246.82 318C1240.52 318 1217.12 317.55 1202.72 317.55C1190.12 317.55 1173.47 318 1162.22 318C1160.42 318 1159.97 316.65 1159.97 314.85C1159.97 312.6 1160.87 312.15 1162.22 312.15C1183.82 309.9 1189.67 305.4 1192.82 300C1195.07 295.95 1198.67 287.4 1198.67 259.95V41.25C1198.67 27.3 1198.67 22.35 1195.97 18.3C1192.82 13.8 1188.77 12.45 1162.67 12C1161.32 12 1160.42 11.55 1160.42 8.84998C1160.42 7.04998 1160.87 6.14999 1162.67 6.14999C1169.42 6.14999 1186.97 6.59999 1199.12 6.59999C1209.02 6.59999 1219.82 6.14999 1225.67 6.14999C1230.17 6.14999 1231.97 8.39999 1234.22 11.55C1377.77 227.55 1389.47 244.65 1402.52 266.7ZM1516.31 283.35V41.25C1516.31 27.75 1516.31 22.35 1513.61 18.3C1510.46 13.8 1505.96 12.45 1480.31 12C1478.96 12 1478.06 12 1478.06 9.29998C1478.06 7.49997 1478.51 6.14999 1480.31 6.14999C1491.56 6.14999 1520.36 6.59999 1532.96 6.59999C1547.36 6.59999 1580.21 6.14999 1586.51 6.14999C1588.31 6.14999 1588.76 7.04998 1588.76 8.84998C1588.76 11.55 1588.31 12 1586.51 12C1559.51 12 1555.01 14.7 1552.76 18.75C1550.51 21.9 1550.51 30 1550.51 41.25V283.35C1550.51 292.35 1550.51 301.35 1552.76 305.85C1554.56 309.9 1559.51 312.15 1586.51 312.15C1588.31 312.15 1588.76 313.05 1588.76 315.3C1588.76 317.1 1588.31 318 1586.51 318C1580.21 318 1547.36 317.55 1532.96 317.55C1520.36 317.55 1491.56 318 1480.31 318C1478.51 318 1478.06 317.1 1478.06 315.3C1478.06 312.6 1478.96 312.15 1480.31 312.15C1504.61 312.15 1511.36 310.35 1513.61 306.3C1516.31 301.35 1516.31 293.25 1516.31 283.35ZM1629.88 163.2C1629.88 68.25 1682.53 0.299986 1774.33 0.299986C1810.33 0.299986 1829.68 9.29998 1844.08 16.95C1849.03 19.65 1853.53 21 1855.33 21C1860.28 21 1862.98 17.85 1864.33 7.95C1864.78 4.34999 1866.13 4.34999 1868.38 4.34999C1870.63 4.34999 1871.53 4.79998 1871.53 7.04998C1871.53 12 1871.08 34.05 1871.08 51.15C1871.08 70.05 1871.53 88.5 1871.53 96.15C1871.53 99.3 1870.63 99.75 1867.93 99.75C1865.23 99.75 1864.78 99.3 1864.33 95.25C1860.73 63.75 1854.88 47.55 1840.03 32.7C1824.28 16.5 1800.43 7.04998 1774.33 7.04998C1698.28 7.04998 1668.13 60.6 1668.13 166.8C1668.13 232.95 1682.98 317.1 1770.28 317.1C1826.08 317.1 1857.13 286.95 1863.88 239.7C1865.23 230.25 1867.48 228.45 1872.88 228.45C1877.83 228.45 1880.08 229.8 1880.08 235.65C1880.08 239.7 1879.18 248.25 1874.23 260.4C1859.38 297.3 1826.98 323.85 1768.03 323.85C1682.08 323.85 1629.88 269.4 1629.88 163.2ZM1930.09 266.25L2017.39 18.3C2020.09 11.1 2021.44 8.39999 2022.34 7.49997C2023.24 6.59999 2024.59 6.14999 2027.29 6.14999H2038.54C2040.34 6.14999 2042.14 6.14999 2043.04 7.04998C2044.39 7.95 2045.29 11.1 2047.99 18.3L2140.69 283.35C2143.84 291.9 2146.99 301.35 2151.04 306.3C2155.54 311.7 2163.64 312.15 2176.24 312.15C2178.04 312.15 2178.94 312.6 2178.94 315.3C2178.94 317.1 2178.49 318 2176.69 318C2159.59 317.55 2143.39 317.55 2131.69 317.55C2119.09 317.55 2091.19 317.55 2075.44 318C2073.64 318 2073.19 317.1 2073.19 314.85C2073.19 312.15 2074.54 312.15 2076.34 312.15C2088.94 312.15 2098.39 311.25 2103.34 309.9C2107.39 309 2108.74 306.3 2108.74 303.15C2108.74 300.45 2107.84 294.6 2103.79 283.35L2071.39 191.1H1965.64L1941.79 260.4C1935.94 276.6 1934.14 285.15 1934.14 295.05C1934.14 299.55 1936.84 304.95 1941.34 307.2C1948.54 310.8 1959.79 311.7 1966.54 312.15C1968.34 312.15 1969.69 312.15 1969.69 314.85C1969.69 317.1 1968.79 318 1966.99 318C1955.74 317.55 1937.74 317.55 1925.14 317.55C1912.99 317.55 1902.19 317.55 1887.79 318C1885.99 318 1885.54 317.1 1885.54 315.3C1885.54 312.6 1886.44 312.15 1888.24 312.15C1898.14 311.7 1906.24 308.55 1912.54 302.25C1917.94 296.85 1923.34 284.7 1930.09 266.25ZM1967.89 184.35H2069.14C2030.89 72.3 2025.04 53.85 2019.19 34.05C2012.89 53.85 2006.14 73.2 1967.89 184.35Z" fill="#C5B29A"/>
</svg>
