<svg width="397" height="620" viewBox="0 0 397 620" fill="none" xmlns="http://www.w3.org/2000/svg">
<rect width="80" height="80" rx="40" fill="white"/>
<line x1="103" y1="39.5" x2="173" y2="39.5" stroke="#C6C0C4"/>
<path d="M204.94 33L203.617 19.833H204.814L205.99 31.11L208.384 24.327H209.56L212.059 31.131L213.151 19.833H214.348L213.13 33H211.66L208.993 25.797L206.368 33H204.94ZM217.253 33V19.833H218.555V25.797H224.498V19.833H225.821V33H224.498V26.826H218.555V33H217.253ZM228.482 33V31.971H230.456V20.862H228.482V19.833H233.669V20.862H231.779V31.971H233.711V33H228.482ZM238.718 33V20.862H235.19V19.833H243.611V20.862H240.041V33H238.718ZM245.492 33V19.833H252.506L252.275 20.862H246.794V25.587H251.939V26.574H246.794V31.971H252.38L252.548 33H245.492ZM203.827 61.239L203.008 60.861L209.497 44.649L210.316 45.048L203.827 61.239ZM220.6 59.055L221.041 55.401H219.319V54.33H221.167L221.608 50.487H219.676V49.437H221.713L222.112 46.014H223.183L222.805 49.437H225.01L225.409 46.014H226.459L226.081 49.437H227.782V50.487H225.955L225.535 54.33H227.425V55.401H225.409L224.989 59.055H223.897L224.317 55.401H222.112L221.692 59.055H220.6ZM222.196 54.33H224.485L224.926 50.487H222.637L222.196 54.33ZM230.644 60V46.833H237.469L237.28 47.862H231.946V52.86H236.629V53.826H231.946V60H230.644ZM239.381 60V46.833H246.206L246.017 47.862H240.683V52.86H245.366V53.826H240.683V60H239.381ZM248.117 60V46.833H254.942L254.753 47.862H249.419V52.86H254.102V53.826H249.419V60H248.117ZM256.853 60V46.833H263.678L263.489 47.862H258.155V52.86H262.838V53.826H258.155V60H256.853ZM265.59 60V46.833H272.415L272.226 47.862H266.892V52.86H271.575V53.826H266.892V60H265.59ZM274.326 60V46.833H281.151L280.962 47.862H275.628V52.86H280.311V53.826H275.628V60H274.326Z" fill="#C6C0C4"/>
<rect y="90" width="80" height="80" rx="40" fill="#D9D9D9"/>
<line x1="103" y1="129.5" x2="173" y2="129.5" stroke="#C6C0C4"/>
<path d="M203.533 123V109.833H204.835V121.971H209.875L210.064 123H203.533ZM211.604 123V121.971H213.578V110.862H211.604V109.833H216.791V110.862H214.901V121.971H216.833V123H211.604ZM223.94 123.105C222.75 123.105 221.798 122.867 221.084 122.391C220.37 121.901 219.859 121.166 219.551 120.186C219.243 119.206 219.089 117.925 219.089 116.343C219.089 113.977 219.502 112.276 220.328 111.24C221.168 110.19 222.421 109.665 224.087 109.665C225.305 109.665 226.439 109.917 227.489 110.421V112.92H226.355V111.135C226.103 111.023 225.774 110.932 225.368 110.862C224.976 110.792 224.591 110.757 224.213 110.757C223.373 110.757 222.673 110.904 222.113 111.198C221.567 111.492 221.14 112.045 220.832 112.857C220.524 113.655 220.37 114.782 220.37 116.238C220.37 117.638 220.482 118.758 220.706 119.598C220.93 120.424 221.301 121.033 221.819 121.425C222.351 121.817 223.079 122.013 224.003 122.013C224.479 122.013 224.948 121.971 225.41 121.887C225.886 121.803 226.299 121.677 226.649 121.509V117.183H224.234V116.175H227.846V122.055C227.314 122.349 226.747 122.601 226.145 122.811C225.543 123.007 224.808 123.105 223.94 123.105ZM230.706 123V109.833H232.008V115.797H237.951V109.833H239.274V123H237.951V116.826H232.008V123H230.706ZM244.686 123V110.862H241.158V109.833H249.579V110.862H246.009V123H244.686ZM261.668 123.105C260.128 123.105 258.875 122.839 257.909 122.307L258.203 121.236C258.763 121.474 259.295 121.663 259.799 121.803C260.317 121.943 260.94 122.013 261.668 122.013C262.55 122.013 263.236 121.796 263.726 121.362C264.23 120.928 264.482 120.263 264.482 119.367C264.482 118.849 264.391 118.443 264.209 118.149C264.027 117.841 263.768 117.596 263.432 117.414C263.096 117.232 262.606 117.036 261.962 116.826L260.702 116.406C259.778 116.084 259.078 115.671 258.602 115.167C258.14 114.649 257.909 113.949 257.909 113.067C257.909 111.891 258.28 111.03 259.022 110.484C259.764 109.938 260.737 109.665 261.941 109.665C263.285 109.665 264.461 109.875 265.469 110.295L265.238 111.345C264.748 111.163 264.251 111.023 263.747 110.925C263.257 110.813 262.711 110.757 262.109 110.757C260.191 110.757 259.232 111.513 259.232 113.025C259.232 113.599 259.358 114.04 259.61 114.348C259.862 114.642 260.366 114.922 261.122 115.188L262.277 115.608C263.145 115.916 263.782 116.175 264.188 116.385C264.608 116.595 264.979 116.938 265.301 117.414C265.623 117.89 265.784 118.548 265.784 119.388C265.784 120.578 265.413 121.495 264.671 122.139C263.929 122.783 262.928 123.105 261.668 123.105ZM267.672 123V121.971H269.646V110.862H267.672V109.833H272.859V110.862H270.969V121.971H272.901V123H267.672ZM275.556 123V109.833H276.858V121.971H281.898L282.087 123H275.556ZM283.06 109.833H284.425C284.915 111.723 285.559 114.082 286.357 116.91C287.001 119.206 287.435 120.781 287.659 121.635C287.911 120.683 288.282 119.339 288.772 117.603C289.724 114.159 290.424 111.569 290.872 109.833H292.258L288.478 123H286.861L283.06 109.833ZM294.362 123V109.833H301.376L301.145 110.862H295.664V115.587H300.809V116.574H295.664V121.971H301.25L301.418 123H294.362ZM311.208 123.252C310.662 122.37 310.074 121.348 309.444 120.186C308.814 119.024 308.31 118.002 307.932 117.12C307.428 117.162 306.868 117.183 306.252 117.183H305.118V123H303.816V109.833H306.399C307.687 109.833 308.695 109.924 309.423 110.106C310.165 110.288 310.725 110.645 311.103 111.177C311.495 111.709 311.691 112.5 311.691 113.55C311.691 114.544 311.481 115.307 311.061 115.839C310.655 116.371 310.018 116.735 309.15 116.931L312.279 122.559L311.208 123.252ZM306.021 116.217C307.197 116.217 308.086 116.154 308.688 116.028C309.29 115.902 309.717 115.657 309.969 115.293C310.235 114.915 310.368 114.341 310.368 113.571C310.368 112.759 310.221 112.164 309.927 111.786C309.647 111.394 309.234 111.142 308.688 111.03C308.142 110.918 307.358 110.862 306.336 110.862H305.118V116.217H306.021ZM203.827 151.239L203.008 150.861L209.497 134.649L210.316 135.048L203.827 151.239ZM220.6 149.055L221.041 145.401H219.319V144.33H221.167L221.608 140.487H219.676V139.437H221.713L222.112 136.014H223.183L222.805 139.437H225.01L225.409 136.014H226.459L226.081 139.437H227.782V140.487H225.955L225.535 144.33H227.425V145.401H225.409L224.989 149.055H223.897L224.317 145.401H222.112L221.692 149.055H220.6ZM222.196 144.33H224.485L224.926 140.487H222.637L222.196 144.33ZM230.644 136.833H233.437C234.977 136.833 236.16 137.057 236.986 137.505C237.812 137.939 238.379 138.625 238.687 139.563C239.009 140.501 239.17 141.803 239.17 143.469C239.17 145.009 239.03 146.241 238.75 147.165C238.47 148.075 237.924 148.775 237.112 149.265C236.3 149.755 235.11 150 233.542 150H230.644V136.833ZM233.542 148.971C234.83 148.971 235.782 148.782 236.398 148.404C237.014 148.026 237.413 147.466 237.595 146.724C237.777 145.968 237.868 144.883 237.868 143.469C237.868 142.013 237.756 140.9 237.532 140.13C237.322 139.346 236.902 138.772 236.272 138.408C235.642 138.044 234.697 137.862 233.437 137.862H231.946V148.971H233.542ZM242.68 149.013C244.36 148.971 245.613 148.509 246.439 147.627C247.279 146.745 247.699 145.604 247.699 144.204C247.181 144.568 246.698 144.827 246.25 144.981C245.802 145.135 245.319 145.212 244.801 145.212C243.779 145.212 242.953 144.862 242.323 144.162C241.693 143.462 241.378 142.433 241.378 141.075C241.378 139.675 241.707 138.59 242.365 137.82C243.037 137.05 243.968 136.665 245.158 136.665C246.53 136.665 247.524 137.141 248.14 138.093C248.77 139.045 249.085 140.48 249.085 142.398C249.085 144.246 248.847 145.723 248.371 146.829C247.895 147.935 247.202 148.74 246.292 149.244C245.396 149.734 244.269 150.021 242.911 150.105L242.68 149.013ZM244.948 144.078C245.396 144.078 245.823 144.001 246.229 143.847C246.649 143.693 247.167 143.42 247.783 143.028V142.167C247.783 140.669 247.58 139.563 247.174 138.849C246.768 138.121 246.11 137.757 245.2 137.757C244.332 137.757 243.695 138.023 243.289 138.555C242.883 139.087 242.68 139.927 242.68 141.075C242.68 142.111 242.869 142.874 243.247 143.364C243.625 143.84 244.192 144.078 244.948 144.078ZM252.198 136.833H254.991C256.531 136.833 257.714 137.057 258.54 137.505C259.366 137.939 259.933 138.625 260.241 139.563C260.563 140.501 260.724 141.803 260.724 143.469C260.724 145.009 260.584 146.241 260.304 147.165C260.024 148.075 259.478 148.775 258.666 149.265C257.854 149.755 256.664 150 255.096 150H252.198V136.833ZM255.096 148.971C256.384 148.971 257.336 148.782 257.952 148.404C258.568 148.026 258.967 147.466 259.149 146.724C259.331 145.968 259.422 144.883 259.422 143.469C259.422 142.013 259.31 140.9 259.086 140.13C258.876 139.346 258.456 138.772 257.826 138.408C257.196 138.044 256.251 137.862 254.991 137.862H253.5V148.971H255.096ZM264.233 149.013C265.913 148.971 267.166 148.509 267.992 147.627C268.832 146.745 269.252 145.604 269.252 144.204C268.734 144.568 268.251 144.827 267.803 144.981C267.355 145.135 266.872 145.212 266.354 145.212C265.332 145.212 264.506 144.862 263.876 144.162C263.246 143.462 262.931 142.433 262.931 141.075C262.931 139.675 263.26 138.59 263.918 137.82C264.59 137.05 265.521 136.665 266.711 136.665C268.083 136.665 269.077 137.141 269.693 138.093C270.323 139.045 270.638 140.48 270.638 142.398C270.638 144.246 270.4 145.723 269.924 146.829C269.448 147.935 268.755 148.74 267.845 149.244C266.949 149.734 265.822 150.021 264.464 150.105L264.233 149.013ZM266.501 144.078C266.949 144.078 267.376 144.001 267.782 143.847C268.202 143.693 268.72 143.42 269.336 143.028V142.167C269.336 140.669 269.133 139.563 268.727 138.849C268.321 138.121 267.663 137.757 266.753 137.757C265.885 137.757 265.248 138.023 264.842 138.555C264.436 139.087 264.233 139.927 264.233 141.075C264.233 142.111 264.422 142.874 264.8 143.364C265.178 143.84 265.745 144.078 266.501 144.078ZM273.752 136.833H276.545C278.085 136.833 279.268 137.057 280.094 137.505C280.92 137.939 281.487 138.625 281.795 139.563C282.117 140.501 282.278 141.803 282.278 143.469C282.278 145.009 282.138 146.241 281.858 147.165C281.578 148.075 281.032 148.775 280.22 149.265C279.408 149.755 278.218 150 276.65 150H273.752V136.833ZM276.65 148.971C277.938 148.971 278.89 148.782 279.506 148.404C280.122 148.026 280.521 147.466 280.703 146.724C280.885 145.968 280.976 144.883 280.976 143.469C280.976 142.013 280.864 140.9 280.64 140.13C280.43 139.346 280.01 138.772 279.38 138.408C278.75 138.044 277.805 137.862 276.545 137.862H275.054V148.971H276.65ZM285.787 149.013C287.467 148.971 288.72 148.509 289.546 147.627C290.386 146.745 290.806 145.604 290.806 144.204C290.288 144.568 289.805 144.827 289.357 144.981C288.909 145.135 288.426 145.212 287.908 145.212C286.886 145.212 286.06 144.862 285.43 144.162C284.8 143.462 284.485 142.433 284.485 141.075C284.485 139.675 284.814 138.59 285.472 137.82C286.144 137.05 287.075 136.665 288.265 136.665C289.637 136.665 290.631 137.141 291.247 138.093C291.877 139.045 292.192 140.48 292.192 142.398C292.192 144.246 291.954 145.723 291.478 146.829C291.002 147.935 290.309 148.74 289.399 149.244C288.503 149.734 287.376 150.021 286.018 150.105L285.787 149.013ZM288.055 144.078C288.503 144.078 288.93 144.001 289.336 143.847C289.756 143.693 290.274 143.42 290.89 143.028V142.167C290.89 140.669 290.687 139.563 290.281 138.849C289.875 138.121 289.217 137.757 288.307 137.757C287.439 137.757 286.802 138.023 286.396 138.555C285.99 139.087 285.787 139.927 285.787 141.075C285.787 142.111 285.976 142.874 286.354 143.364C286.732 143.84 287.299 144.078 288.055 144.078Z" fill="#C6C0C4"/>
<rect y="180" width="80" height="80" rx="40" fill="#838D9B"/>
<line x1="103" y1="219.5" x2="173" y2="219.5" stroke="#C6C0C4"/>
<path d="M210.925 213.252C210.379 212.37 209.791 211.348 209.161 210.186C208.531 209.024 208.027 208.002 207.649 207.12C207.145 207.162 206.585 207.183 205.969 207.183H204.835V213H203.533V199.833H206.116C207.404 199.833 208.412 199.924 209.14 200.106C209.882 200.288 210.442 200.645 210.82 201.177C211.212 201.709 211.408 202.5 211.408 203.55C211.408 204.544 211.198 205.307 210.778 205.839C210.372 206.371 209.735 206.735 208.867 206.931L211.996 212.559L210.925 213.252ZM205.738 206.217C206.914 206.217 207.803 206.154 208.405 206.028C209.007 205.902 209.434 205.657 209.686 205.293C209.952 204.915 210.085 204.341 210.085 203.571C210.085 202.759 209.938 202.164 209.644 201.786C209.364 201.394 208.951 201.142 208.405 201.03C207.859 200.918 207.075 200.862 206.053 200.862H204.835V206.217H205.738ZM218.562 213.105C217.358 213.105 216.42 212.846 215.748 212.328C215.09 211.81 214.628 211.068 214.362 210.102C214.11 209.122 213.984 207.876 213.984 206.364C213.984 204.866 214.117 203.634 214.383 202.668C214.663 201.688 215.139 200.946 215.811 200.442C216.483 199.924 217.4 199.665 218.562 199.665C219.724 199.665 220.641 199.924 221.313 200.442C221.985 200.946 222.461 201.688 222.741 202.668C223.021 203.634 223.161 204.866 223.161 206.364C223.161 207.89 223.028 209.136 222.762 210.102C222.51 211.068 222.048 211.81 221.376 212.328C220.704 212.846 219.766 213.105 218.562 213.105ZM218.562 212.013C219.416 212.013 220.081 211.817 220.557 211.425C221.033 211.033 221.369 210.438 221.565 209.64C221.761 208.828 221.859 207.743 221.859 206.385C221.859 205.027 221.754 203.942 221.544 203.13C221.348 202.318 221.012 201.723 220.536 201.345C220.06 200.953 219.402 200.757 218.562 200.757C217.722 200.757 217.064 200.953 216.588 201.345C216.126 201.723 215.79 202.318 215.58 203.13C215.384 203.942 215.286 205.027 215.286 206.385C215.286 207.743 215.384 208.828 215.58 209.64C215.776 210.438 216.112 211.033 216.588 211.425C217.064 211.817 217.722 212.013 218.562 212.013ZM225.761 213L226.79 199.833H228.239L231.347 207.036L234.35 199.833H235.799L236.912 213H235.715L234.728 201.723L231.935 208.506H230.759L227.861 201.702L226.979 213H225.761ZM238.865 213L242.981 199.833H244.934L248.84 213H247.517L246.53 209.64H241.322L240.293 213H238.865ZM241.637 208.695H246.194L243.968 200.967L241.637 208.695ZM250.947 213V199.833H252.333L258.927 210.753V199.833H260.124V213H258.822L252.186 201.912V213H250.947ZM273.398 213.105C271.858 213.105 270.605 212.839 269.639 212.307L269.933 211.236C270.493 211.474 271.025 211.663 271.529 211.803C272.047 211.943 272.67 212.013 273.398 212.013C274.28 212.013 274.966 211.796 275.456 211.362C275.96 210.928 276.212 210.263 276.212 209.367C276.212 208.849 276.121 208.443 275.939 208.149C275.757 207.841 275.498 207.596 275.162 207.414C274.826 207.232 274.336 207.036 273.692 206.826L272.432 206.406C271.508 206.084 270.808 205.671 270.332 205.167C269.87 204.649 269.639 203.949 269.639 203.067C269.639 201.891 270.01 201.03 270.752 200.484C271.494 199.938 272.467 199.665 273.671 199.665C275.015 199.665 276.191 199.875 277.199 200.295L276.968 201.345C276.478 201.163 275.981 201.023 275.477 200.925C274.987 200.813 274.441 200.757 273.839 200.757C271.921 200.757 270.962 201.513 270.962 203.025C270.962 203.599 271.088 204.04 271.34 204.348C271.592 204.642 272.096 204.922 272.852 205.188L274.007 205.608C274.875 205.916 275.512 206.175 275.918 206.385C276.338 206.595 276.709 206.938 277.031 207.414C277.353 207.89 277.514 208.548 277.514 209.388C277.514 210.578 277.143 211.495 276.401 212.139C275.659 212.783 274.658 213.105 273.398 213.105ZM279.403 213V211.971H281.377V200.862H279.403V199.833H284.59V200.862H282.7V211.971H284.632V213H279.403ZM287.287 213V199.833H288.589V211.971H293.629L293.818 213H287.287ZM294.791 199.833H296.156C296.646 201.723 297.29 204.082 298.088 206.91C298.732 209.206 299.166 210.781 299.39 211.635C299.642 210.683 300.013 209.339 300.503 207.603C301.455 204.159 302.155 201.569 302.603 199.833H303.989L300.209 213H298.592L294.791 199.833ZM306.093 213V199.833H313.107L312.876 200.862H307.395V205.587H312.54V206.574H307.395V211.971H312.981L313.149 213H306.093ZM322.939 213.252C322.393 212.37 321.805 211.348 321.175 210.186C320.545 209.024 320.041 208.002 319.663 207.12C319.159 207.162 318.599 207.183 317.983 207.183H316.849V213H315.547V199.833H318.13C319.418 199.833 320.426 199.924 321.154 200.106C321.896 200.288 322.456 200.645 322.834 201.177C323.226 201.709 323.422 202.5 323.422 203.55C323.422 204.544 323.212 205.307 322.792 205.839C322.386 206.371 321.749 206.735 320.881 206.931L324.01 212.559L322.939 213.252ZM317.752 206.217C318.928 206.217 319.817 206.154 320.419 206.028C321.021 205.902 321.448 205.657 321.7 205.293C321.966 204.915 322.099 204.341 322.099 203.571C322.099 202.759 321.952 202.164 321.658 201.786C321.378 201.394 320.965 201.142 320.419 201.03C319.873 200.918 319.089 200.862 318.067 200.862H316.849V206.217H317.752ZM203.827 241.239L203.008 240.861L209.497 224.649L210.316 225.048L203.827 241.239ZM220.6 239.055L221.041 235.401H219.319V234.33H221.167L221.608 230.487H219.676V229.437H221.713L222.112 226.014H223.183L222.805 229.437H225.01L225.409 226.014H226.459L226.081 229.437H227.782V230.487H225.955L225.535 234.33H227.425V235.401H225.409L224.989 239.055H223.897L224.317 235.401H222.112L221.692 239.055H220.6ZM222.196 234.33H224.485L224.926 230.487H222.637L222.196 234.33ZM234.361 240.105C233.227 240.105 232.289 239.832 231.547 239.286C230.805 238.726 230.434 237.928 230.434 236.892C230.434 236.122 230.658 235.387 231.106 234.687C231.554 233.987 232.198 233.448 233.038 233.07C232.338 232.72 231.778 232.286 231.358 231.768C230.952 231.25 230.749 230.599 230.749 229.815C230.749 228.765 231.106 227.981 231.82 227.463C232.548 226.931 233.451 226.665 234.529 226.665C235.593 226.665 236.489 226.938 237.217 227.484C237.945 228.03 238.309 228.793 238.309 229.773C238.309 230.473 238.078 231.138 237.616 231.768C237.168 232.398 236.566 232.867 235.81 233.175C236.58 233.581 237.189 234.078 237.637 234.666C238.085 235.24 238.309 235.975 238.309 236.871C238.309 237.921 237.924 238.726 237.154 239.286C236.384 239.832 235.453 240.105 234.361 240.105ZM234.697 232.65C235.369 232.426 235.915 232.055 236.335 231.537C236.769 231.005 236.986 230.452 236.986 229.878C236.986 229.234 236.783 228.723 236.377 228.345C235.971 227.953 235.362 227.757 234.55 227.757C233.808 227.757 233.206 227.918 232.744 228.24C232.296 228.562 232.072 229.101 232.072 229.857C232.072 230.557 232.289 231.103 232.723 231.495C233.171 231.887 233.829 232.272 234.697 232.65ZM234.361 239.013C235.131 239.013 235.761 238.831 236.251 238.467C236.741 238.103 236.986 237.515 236.986 236.703C236.986 235.947 236.727 235.338 236.209 234.876C235.705 234.4 235.019 233.966 234.151 233.574C232.541 234.386 231.736 235.443 231.736 236.745C231.736 237.515 231.974 238.089 232.45 238.467C232.94 238.831 233.577 239.013 234.361 239.013ZM244.229 240.105C243.011 240.105 241.954 239.93 241.058 239.58L241.352 238.509C241.786 238.677 242.269 238.803 242.801 238.887C243.333 238.971 243.83 239.013 244.292 239.013C245.258 239.013 246.028 238.81 246.602 238.404C247.176 237.998 247.463 237.298 247.463 236.304C247.463 235.422 247.162 234.75 246.56 234.288C245.972 233.812 245.265 233.574 244.439 233.574C243.837 233.574 243.235 233.637 242.633 233.763L242.549 232.713C244.033 232.517 245.132 232.23 245.846 231.852C246.574 231.46 246.938 230.823 246.938 229.941C246.938 229.241 246.707 228.702 246.245 228.324C245.797 227.946 245.167 227.757 244.355 227.757C243.361 227.757 242.36 227.925 241.352 228.261L241.058 227.232C242.234 226.854 243.319 226.665 244.313 226.665C245.489 226.665 246.413 226.938 247.085 227.484C247.771 228.016 248.114 228.793 248.114 229.815C248.114 230.669 247.897 231.334 247.463 231.81C247.043 232.286 246.406 232.657 245.552 232.923C246.084 232.965 246.588 233.154 247.064 233.49C247.54 233.812 247.918 234.232 248.198 234.75C248.492 235.268 248.639 235.828 248.639 236.43C248.639 237.704 248.219 238.635 247.379 239.223C246.553 239.811 245.503 240.105 244.229 240.105ZM255.238 240.105C254.104 240.105 253.166 239.832 252.424 239.286C251.682 238.726 251.311 237.928 251.311 236.892C251.311 236.122 251.535 235.387 251.983 234.687C252.431 233.987 253.075 233.448 253.915 233.07C253.215 232.72 252.655 232.286 252.235 231.768C251.829 231.25 251.626 230.599 251.626 229.815C251.626 228.765 251.983 227.981 252.697 227.463C253.425 226.931 254.328 226.665 255.406 226.665C256.47 226.665 257.366 226.938 258.094 227.484C258.822 228.03 259.186 228.793 259.186 229.773C259.186 230.473 258.955 231.138 258.493 231.768C258.045 232.398 257.443 232.867 256.687 233.175C257.457 233.581 258.066 234.078 258.514 234.666C258.962 235.24 259.186 235.975 259.186 236.871C259.186 237.921 258.801 238.726 258.031 239.286C257.261 239.832 256.33 240.105 255.238 240.105ZM255.574 232.65C256.246 232.426 256.792 232.055 257.212 231.537C257.646 231.005 257.863 230.452 257.863 229.878C257.863 229.234 257.66 228.723 257.254 228.345C256.848 227.953 256.239 227.757 255.427 227.757C254.685 227.757 254.083 227.918 253.621 228.24C253.173 228.562 252.949 229.101 252.949 229.857C252.949 230.557 253.166 231.103 253.6 231.495C254.048 231.887 254.706 232.272 255.574 232.65ZM255.238 239.013C256.008 239.013 256.638 238.831 257.128 238.467C257.618 238.103 257.863 237.515 257.863 236.703C257.863 235.947 257.604 235.338 257.086 234.876C256.582 234.4 255.896 233.966 255.028 233.574C253.418 234.386 252.613 235.443 252.613 236.745C252.613 237.515 252.851 238.089 253.327 238.467C253.817 238.831 254.454 239.013 255.238 239.013ZM262.124 226.833H264.917C266.457 226.833 267.64 227.057 268.466 227.505C269.292 227.939 269.859 228.625 270.167 229.563C270.489 230.501 270.65 231.803 270.65 233.469C270.65 235.009 270.51 236.241 270.23 237.165C269.95 238.075 269.404 238.775 268.592 239.265C267.78 239.755 266.59 240 265.022 240H262.124V226.833ZM265.022 238.971C266.31 238.971 267.262 238.782 267.878 238.404C268.494 238.026 268.893 237.466 269.075 236.724C269.257 235.968 269.348 234.883 269.348 233.469C269.348 232.013 269.236 230.9 269.012 230.13C268.802 229.346 268.382 228.772 267.752 228.408C267.122 228.044 266.177 227.862 264.917 227.862H263.426V238.971H265.022ZM274.159 239.013C275.839 238.971 277.092 238.509 277.918 237.627C278.758 236.745 279.178 235.604 279.178 234.204C278.66 234.568 278.177 234.827 277.729 234.981C277.281 235.135 276.798 235.212 276.28 235.212C275.258 235.212 274.432 234.862 273.802 234.162C273.172 233.462 272.857 232.433 272.857 231.075C272.857 229.675 273.186 228.59 273.844 227.82C274.516 227.05 275.447 226.665 276.637 226.665C278.009 226.665 279.003 227.141 279.619 228.093C280.249 229.045 280.564 230.48 280.564 232.398C280.564 234.246 280.326 235.723 279.85 236.829C279.374 237.935 278.681 238.74 277.771 239.244C276.875 239.734 275.748 240.021 274.39 240.105L274.159 239.013ZM276.427 234.078C276.875 234.078 277.302 234.001 277.708 233.847C278.128 233.693 278.646 233.42 279.262 233.028V232.167C279.262 230.669 279.059 229.563 278.653 228.849C278.247 228.121 277.589 227.757 276.679 227.757C275.811 227.757 275.174 228.023 274.768 228.555C274.362 229.087 274.159 229.927 274.159 231.075C274.159 232.111 274.348 232.874 274.726 233.364C275.104 233.84 275.671 234.078 276.427 234.078ZM283.678 226.833H286.954C288.018 226.833 288.865 226.924 289.495 227.106C290.139 227.288 290.615 227.61 290.923 228.072C291.245 228.534 291.406 229.192 291.406 230.046C291.406 230.886 291.252 231.537 290.944 231.999C290.65 232.461 290.139 232.783 289.411 232.965C290.181 233.147 290.783 233.504 291.217 234.036C291.651 234.554 291.868 235.254 291.868 236.136C291.868 237.172 291.686 237.97 291.322 238.53C290.958 239.09 290.419 239.475 289.705 239.685C289.005 239.895 288.081 240 286.933 240H283.678V226.833ZM287.374 232.587C288.382 232.587 289.11 232.405 289.558 232.041C290.02 231.663 290.251 230.998 290.251 230.046C290.251 229.234 290.013 228.667 289.537 228.345C289.075 228.023 288.298 227.862 287.206 227.862H284.98V232.587H287.374ZM286.996 238.971C287.822 238.971 288.487 238.901 288.991 238.761C289.495 238.621 289.88 238.348 290.146 237.942C290.426 237.536 290.566 236.941 290.566 236.157C290.566 235.247 290.3 234.589 289.768 234.183C289.236 233.763 288.445 233.553 287.395 233.553H284.98V238.971H286.996Z" fill="#C6C0C4"/>
<rect y="270" width="80" height="80" rx="40" fill="#68B1C8"/>
<line x1="103" y1="309.5" x2="173" y2="309.5" stroke="#C6C0C4"/>
<path d="M203.407 303L204.436 289.833H205.885L208.993 297.036L211.996 289.833H213.445L214.558 303H213.361L212.374 291.723L209.581 298.506H208.405L205.507 291.702L204.625 303H203.407ZM221.741 303.105C220.537 303.105 219.599 302.846 218.927 302.328C218.269 301.81 217.807 301.068 217.541 300.102C217.289 299.122 217.163 297.876 217.163 296.364C217.163 294.866 217.296 293.634 217.562 292.668C217.842 291.688 218.318 290.946 218.99 290.442C219.662 289.924 220.579 289.665 221.741 289.665C222.903 289.665 223.82 289.924 224.492 290.442C225.164 290.946 225.64 291.688 225.92 292.668C226.2 293.634 226.34 294.866 226.34 296.364C226.34 297.89 226.207 299.136 225.941 300.102C225.689 301.068 225.227 301.81 224.555 302.328C223.883 302.846 222.945 303.105 221.741 303.105ZM221.741 302.013C222.595 302.013 223.26 301.817 223.736 301.425C224.212 301.033 224.548 300.438 224.744 299.64C224.94 298.828 225.038 297.743 225.038 296.385C225.038 295.027 224.933 293.942 224.723 293.13C224.527 292.318 224.191 291.723 223.715 291.345C223.239 290.953 222.581 290.757 221.741 290.757C220.901 290.757 220.243 290.953 219.767 291.345C219.305 291.723 218.969 292.318 218.759 293.13C218.563 293.942 218.465 295.027 218.465 296.385C218.465 297.743 218.563 298.828 218.759 299.64C218.955 300.438 219.291 301.033 219.767 301.425C220.243 301.817 220.901 302.013 221.741 302.013ZM233.307 303.105C232.103 303.105 231.165 302.846 230.493 302.328C229.835 301.81 229.373 301.068 229.107 300.102C228.855 299.122 228.729 297.876 228.729 296.364C228.729 294.866 228.862 293.634 229.128 292.668C229.408 291.688 229.884 290.946 230.556 290.442C231.228 289.924 232.145 289.665 233.307 289.665C234.469 289.665 235.386 289.924 236.058 290.442C236.73 290.946 237.206 291.688 237.486 292.668C237.766 293.634 237.906 294.866 237.906 296.364C237.906 297.89 237.773 299.136 237.507 300.102C237.255 301.068 236.793 301.81 236.121 302.328C235.449 302.846 234.511 303.105 233.307 303.105ZM233.307 302.013C234.161 302.013 234.826 301.817 235.302 301.425C235.778 301.033 236.114 300.438 236.31 299.64C236.506 298.828 236.604 297.743 236.604 296.385C236.604 295.027 236.499 293.942 236.289 293.13C236.093 292.318 235.757 291.723 235.281 291.345C234.805 290.953 234.147 290.757 233.307 290.757C232.467 290.757 231.809 290.953 231.333 291.345C230.871 291.723 230.535 292.318 230.325 293.13C230.129 293.942 230.031 295.027 230.031 296.385C230.031 297.743 230.129 298.828 230.325 299.64C230.521 300.438 230.857 301.033 231.333 301.425C231.809 301.817 232.467 302.013 233.307 302.013ZM240.632 303V289.833H242.018L248.612 300.753V289.833H249.809V303H248.507L241.871 291.912V303H240.632ZM256.172 303.105C254.632 303.105 253.379 302.839 252.413 302.307L252.707 301.236C253.267 301.474 253.799 301.663 254.303 301.803C254.821 301.943 255.444 302.013 256.172 302.013C257.054 302.013 257.74 301.796 258.23 301.362C258.734 300.928 258.986 300.263 258.986 299.367C258.986 298.849 258.895 298.443 258.713 298.149C258.531 297.841 258.272 297.596 257.936 297.414C257.6 297.232 257.11 297.036 256.466 296.826L255.206 296.406C254.282 296.084 253.582 295.671 253.106 295.167C252.644 294.649 252.413 293.949 252.413 293.067C252.413 291.891 252.784 291.03 253.526 290.484C254.268 289.938 255.241 289.665 256.445 289.665C257.789 289.665 258.965 289.875 259.973 290.295L259.742 291.345C259.252 291.163 258.755 291.023 258.251 290.925C257.761 290.813 257.215 290.757 256.613 290.757C254.695 290.757 253.736 291.513 253.736 293.025C253.736 293.599 253.862 294.04 254.114 294.348C254.366 294.642 254.87 294.922 255.626 295.188L256.781 295.608C257.649 295.916 258.286 296.175 258.692 296.385C259.112 296.595 259.483 296.938 259.805 297.414C260.127 297.89 260.288 298.548 260.288 299.388C260.288 300.578 259.917 301.495 259.175 302.139C258.433 302.783 257.432 303.105 256.172 303.105ZM264.927 303V290.862H261.399V289.833H269.82V290.862H266.25V303H264.927ZM275.943 303.105C274.739 303.105 273.801 302.846 273.129 302.328C272.471 301.81 272.009 301.068 271.743 300.102C271.491 299.122 271.365 297.876 271.365 296.364C271.365 294.866 271.498 293.634 271.764 292.668C272.044 291.688 272.52 290.946 273.192 290.442C273.864 289.924 274.781 289.665 275.943 289.665C277.105 289.665 278.022 289.924 278.694 290.442C279.366 290.946 279.842 291.688 280.122 292.668C280.402 293.634 280.542 294.866 280.542 296.364C280.542 297.89 280.409 299.136 280.143 300.102C279.891 301.068 279.429 301.81 278.757 302.328C278.085 302.846 277.147 303.105 275.943 303.105ZM275.943 302.013C276.797 302.013 277.462 301.817 277.938 301.425C278.414 301.033 278.75 300.438 278.946 299.64C279.142 298.828 279.24 297.743 279.24 296.385C279.24 295.027 279.135 293.942 278.925 293.13C278.729 292.318 278.393 291.723 277.917 291.345C277.441 290.953 276.783 290.757 275.943 290.757C275.103 290.757 274.445 290.953 273.969 291.345C273.507 291.723 273.171 292.318 272.961 293.13C272.765 293.942 272.667 295.027 272.667 296.385C272.667 297.743 272.765 298.828 272.961 299.64C273.157 300.438 273.493 301.033 273.969 301.425C274.445 301.817 275.103 302.013 275.943 302.013ZM283.267 303V289.833H284.653L291.247 300.753V289.833H292.444V303H291.142L284.506 291.912V303H283.267ZM295.511 303V289.833H302.525L302.294 290.862H296.813V295.587H301.958V296.574H296.813V301.971H302.399L302.567 303H295.511ZM311.876 289.833H315.152C316.216 289.833 317.063 289.924 317.693 290.106C318.337 290.288 318.813 290.61 319.121 291.072C319.443 291.534 319.604 292.192 319.604 293.046C319.604 293.886 319.45 294.537 319.142 294.999C318.848 295.461 318.337 295.783 317.609 295.965C318.379 296.147 318.981 296.504 319.415 297.036C319.849 297.554 320.066 298.254 320.066 299.136C320.066 300.172 319.884 300.97 319.52 301.53C319.156 302.09 318.617 302.475 317.903 302.685C317.203 302.895 316.279 303 315.131 303H311.876V289.833ZM315.572 295.587C316.58 295.587 317.308 295.405 317.756 295.041C318.218 294.663 318.449 293.998 318.449 293.046C318.449 292.234 318.211 291.667 317.735 291.345C317.273 291.023 316.496 290.862 315.404 290.862H313.178V295.587H315.572ZM315.194 301.971C316.02 301.971 316.685 301.901 317.189 301.761C317.693 301.621 318.078 301.348 318.344 300.942C318.624 300.536 318.764 299.941 318.764 299.157C318.764 298.247 318.498 297.589 317.966 297.183C317.434 296.763 316.643 296.553 315.593 296.553H313.178V301.971H315.194ZM322.54 303V289.833H323.842V301.971H328.882L329.071 303H322.54ZM335.021 303.168C333.747 303.168 332.802 302.916 332.186 302.412C331.584 301.908 331.192 301.208 331.01 300.312C330.842 299.402 330.758 298.128 330.758 296.49V289.833H332.06V297.456C332.06 298.576 332.116 299.444 332.228 300.06C332.34 300.676 332.606 301.159 333.026 301.509C333.46 301.845 334.125 302.013 335.021 302.013C335.917 302.013 336.575 301.845 336.995 301.509C337.415 301.159 337.681 300.676 337.793 300.06C337.905 299.444 337.961 298.576 337.961 297.456V289.833H339.284V296.49C339.284 298.114 339.193 299.381 339.011 300.291C338.843 301.201 338.451 301.908 337.835 302.412C337.219 302.916 336.281 303.168 335.021 303.168ZM342.084 303V289.833H349.098L348.867 290.862H343.386V295.587H348.531V296.574H343.386V301.971H348.972L349.14 303H342.084ZM203.827 331.239L203.008 330.861L209.497 314.649L210.316 315.048L203.827 331.239ZM220.6 329.055L221.041 325.401H219.319V324.33H221.167L221.608 320.487H219.676V319.437H221.713L222.112 316.014H223.183L222.805 319.437H225.01L225.409 316.014H226.459L226.081 319.437H227.782V320.487H225.955L225.535 324.33H227.425V325.401H225.409L224.989 329.055H223.897L224.317 325.401H222.112L221.692 329.055H220.6ZM222.196 324.33H224.485L224.926 320.487H222.637L222.196 324.33ZM234.025 330.105C232.667 330.105 231.673 329.622 231.043 328.656C230.413 327.69 230.098 326.255 230.098 324.351C230.098 322.503 230.329 321.04 230.791 319.962C231.253 318.884 231.925 318.1 232.807 317.61C233.703 317.12 234.858 316.805 236.272 316.665L236.503 317.799C234.823 317.841 233.577 318.282 232.765 319.122C231.967 319.948 231.54 321.089 231.484 322.545C232.002 322.181 232.485 321.922 232.933 321.768C233.381 321.614 233.864 321.537 234.382 321.537C235.404 321.537 236.23 321.887 236.86 322.587C237.49 323.287 237.805 324.316 237.805 325.674C237.805 327.074 237.469 328.166 236.797 328.95C236.139 329.72 235.215 330.105 234.025 330.105ZM233.962 329.013C234.83 329.013 235.467 328.747 235.873 328.215C236.293 327.669 236.503 326.822 236.503 325.674C236.503 324.638 236.307 323.882 235.915 323.406C235.537 322.916 234.977 322.671 234.235 322.671C233.773 322.671 233.332 322.748 232.912 322.902C232.506 323.056 232.002 323.329 231.4 323.721V324.582C231.4 326.08 231.603 327.193 232.009 327.921C232.415 328.649 233.066 329.013 233.962 329.013ZM244.595 330.105C243.461 330.105 242.523 329.832 241.781 329.286C241.039 328.726 240.668 327.928 240.668 326.892C240.668 326.122 240.892 325.387 241.34 324.687C241.788 323.987 242.432 323.448 243.272 323.07C242.572 322.72 242.012 322.286 241.592 321.768C241.186 321.25 240.983 320.599 240.983 319.815C240.983 318.765 241.34 317.981 242.054 317.463C242.782 316.931 243.685 316.665 244.763 316.665C245.827 316.665 246.723 316.938 247.451 317.484C248.179 318.03 248.543 318.793 248.543 319.773C248.543 320.473 248.312 321.138 247.85 321.768C247.402 322.398 246.8 322.867 246.044 323.175C246.814 323.581 247.423 324.078 247.871 324.666C248.319 325.24 248.543 325.975 248.543 326.871C248.543 327.921 248.158 328.726 247.388 329.286C246.618 329.832 245.687 330.105 244.595 330.105ZM244.931 322.65C245.603 322.426 246.149 322.055 246.569 321.537C247.003 321.005 247.22 320.452 247.22 319.878C247.22 319.234 247.017 318.723 246.611 318.345C246.205 317.953 245.596 317.757 244.784 317.757C244.042 317.757 243.44 317.918 242.978 318.24C242.53 318.562 242.306 319.101 242.306 319.857C242.306 320.557 242.523 321.103 242.957 321.495C243.405 321.887 244.063 322.272 244.931 322.65ZM244.595 329.013C245.365 329.013 245.995 328.831 246.485 328.467C246.975 328.103 247.22 327.515 247.22 326.703C247.22 325.947 246.961 325.338 246.443 324.876C245.939 324.4 245.253 323.966 244.385 323.574C242.775 324.386 241.97 325.443 241.97 326.745C241.97 327.515 242.208 328.089 242.684 328.467C243.174 328.831 243.811 329.013 244.595 329.013ZM251.48 316.833H254.756C255.82 316.833 256.667 316.924 257.297 317.106C257.941 317.288 258.417 317.61 258.725 318.072C259.047 318.534 259.208 319.192 259.208 320.046C259.208 320.886 259.054 321.537 258.746 321.999C258.452 322.461 257.941 322.783 257.213 322.965C257.983 323.147 258.585 323.504 259.019 324.036C259.453 324.554 259.67 325.254 259.67 326.136C259.67 327.172 259.488 327.97 259.124 328.53C258.76 329.09 258.221 329.475 257.507 329.685C256.807 329.895 255.883 330 254.735 330H251.48V316.833ZM255.176 322.587C256.184 322.587 256.912 322.405 257.36 322.041C257.822 321.663 258.053 320.998 258.053 320.046C258.053 319.234 257.815 318.667 257.339 318.345C256.877 318.023 256.1 317.862 255.008 317.862H252.782V322.587H255.176ZM254.798 328.971C255.624 328.971 256.289 328.901 256.793 328.761C257.297 328.621 257.682 328.348 257.948 327.942C258.228 327.536 258.368 326.941 258.368 326.157C258.368 325.247 258.102 324.589 257.57 324.183C257.038 323.763 256.247 323.553 255.197 323.553H252.782V328.971H254.798ZM262.249 330V328.971H264.559V318.03L262.228 319.122L261.829 318.177V318.156L264.706 316.833H265.861V328.971H267.835V330H262.249ZM274.926 330.105C273.974 330.105 273.127 329.867 272.385 329.391C271.657 328.901 271.076 328.159 270.642 327.165C270.222 326.171 270.012 324.925 270.012 323.427C270.012 321.033 270.397 319.311 271.167 318.261C271.951 317.197 273.162 316.665 274.8 316.665C275.878 316.665 276.942 316.917 277.992 317.421V319.92H276.858V318.135C276.284 317.883 275.64 317.757 274.926 317.757C274.1 317.757 273.428 317.918 272.91 318.24C272.392 318.548 271.993 319.115 271.713 319.941C271.447 320.767 271.314 321.936 271.314 323.448C271.314 325.338 271.65 326.738 272.322 327.648C272.994 328.558 273.89 329.013 275.01 329.013C275.962 329.013 276.907 328.789 277.845 328.341L278.265 329.349C277.201 329.853 276.088 330.105 274.926 330.105ZM284.441 330.105C283.307 330.105 282.369 329.832 281.627 329.286C280.885 328.726 280.514 327.928 280.514 326.892C280.514 326.122 280.738 325.387 281.186 324.687C281.634 323.987 282.278 323.448 283.118 323.07C282.418 322.72 281.858 322.286 281.438 321.768C281.032 321.25 280.829 320.599 280.829 319.815C280.829 318.765 281.186 317.981 281.9 317.463C282.628 316.931 283.531 316.665 284.609 316.665C285.673 316.665 286.569 316.938 287.297 317.484C288.025 318.03 288.389 318.793 288.389 319.773C288.389 320.473 288.158 321.138 287.696 321.768C287.248 322.398 286.646 322.867 285.89 323.175C286.66 323.581 287.269 324.078 287.717 324.666C288.165 325.24 288.389 325.975 288.389 326.871C288.389 327.921 288.004 328.726 287.234 329.286C286.464 329.832 285.533 330.105 284.441 330.105ZM284.777 322.65C285.449 322.426 285.995 322.055 286.415 321.537C286.849 321.005 287.066 320.452 287.066 319.878C287.066 319.234 286.863 318.723 286.457 318.345C286.051 317.953 285.442 317.757 284.63 317.757C283.888 317.757 283.286 317.918 282.824 318.24C282.376 318.562 282.152 319.101 282.152 319.857C282.152 320.557 282.369 321.103 282.803 321.495C283.251 321.887 283.909 322.272 284.777 322.65ZM284.441 329.013C285.211 329.013 285.841 328.831 286.331 328.467C286.821 328.103 287.066 327.515 287.066 326.703C287.066 325.947 286.807 325.338 286.289 324.876C285.785 324.4 285.099 323.966 284.231 323.574C282.621 324.386 281.816 325.443 281.816 326.745C281.816 327.515 282.054 328.089 282.53 328.467C283.02 328.831 283.657 329.013 284.441 329.013Z" fill="#C6C0C4"/>
<rect y="360" width="80" height="80" rx="40" fill="#262C31"/>
<line x1="103" y1="399.5" x2="173" y2="399.5" stroke="#C6C0C4"/>
<path d="M208.132 393.105C207.18 393.105 206.333 392.867 205.591 392.391C204.863 391.901 204.282 391.159 203.848 390.165C203.428 389.171 203.218 387.925 203.218 386.427C203.218 384.033 203.603 382.311 204.373 381.261C205.157 380.197 206.368 379.665 208.006 379.665C209.084 379.665 210.148 379.917 211.198 380.421V382.92H210.064V381.135C209.49 380.883 208.846 380.757 208.132 380.757C207.306 380.757 206.634 380.918 206.116 381.24C205.598 381.548 205.199 382.115 204.919 382.941C204.653 383.767 204.52 384.936 204.52 386.448C204.52 388.338 204.856 389.738 205.528 390.648C206.2 391.558 207.096 392.013 208.216 392.013C209.168 392.013 210.113 391.789 211.051 391.341L211.471 392.349C210.407 392.853 209.294 393.105 208.132 393.105ZM213.93 393V379.833H215.232V385.797H221.175V379.833H222.498V393H221.175V386.826H215.232V393H213.93ZM224.571 393L228.687 379.833H230.64L234.546 393H233.223L232.236 389.64H227.028L225.999 393H224.571ZM227.343 388.695H231.9L229.674 380.967L227.343 388.695ZM244.045 393.252C243.499 392.37 242.911 391.348 242.281 390.186C241.651 389.024 241.147 388.002 240.769 387.12C240.265 387.162 239.705 387.183 239.089 387.183H237.955V393H236.653V379.833H239.236C240.524 379.833 241.532 379.924 242.26 380.106C243.002 380.288 243.562 380.645 243.94 381.177C244.332 381.709 244.528 382.5 244.528 383.55C244.528 384.544 244.318 385.307 243.898 385.839C243.492 386.371 242.855 386.735 241.987 386.931L245.116 392.559L244.045 393.252ZM238.858 386.217C240.034 386.217 240.923 386.154 241.525 386.028C242.127 385.902 242.554 385.657 242.806 385.293C243.072 384.915 243.205 384.341 243.205 383.571C243.205 382.759 243.058 382.164 242.764 381.786C242.484 381.394 242.071 381.142 241.525 381.03C240.979 380.918 240.195 380.862 239.173 380.862H237.955V386.217H238.858ZM247.44 393V379.833H248.742V391.971H253.782L253.971 393H247.44ZM255.91 393V379.833H262.924L262.693 380.862H257.212V385.587H262.357V386.574H257.212V391.971H262.798L262.966 393H255.91ZM268.661 393.105C267.121 393.105 265.868 392.839 264.902 392.307L265.196 391.236C265.756 391.474 266.288 391.663 266.792 391.803C267.31 391.943 267.933 392.013 268.661 392.013C269.543 392.013 270.229 391.796 270.719 391.362C271.223 390.928 271.475 390.263 271.475 389.367C271.475 388.849 271.384 388.443 271.202 388.149C271.02 387.841 270.761 387.596 270.425 387.414C270.089 387.232 269.599 387.036 268.955 386.826L267.695 386.406C266.771 386.084 266.071 385.671 265.595 385.167C265.133 384.649 264.902 383.949 264.902 383.067C264.902 381.891 265.273 381.03 266.015 380.484C266.757 379.938 267.73 379.665 268.934 379.665C270.278 379.665 271.454 379.875 272.462 380.295L272.231 381.345C271.741 381.163 271.244 381.023 270.74 380.925C270.25 380.813 269.704 380.757 269.102 380.757C267.184 380.757 266.225 381.513 266.225 383.025C266.225 383.599 266.351 384.04 266.603 384.348C266.855 384.642 267.359 384.922 268.115 385.188L269.27 385.608C270.138 385.916 270.775 386.175 271.181 386.385C271.601 386.595 271.972 386.938 272.294 387.414C272.616 387.89 272.777 388.548 272.777 389.388C272.777 390.578 272.406 391.495 271.664 392.139C270.922 392.783 269.921 393.105 268.661 393.105ZM277.416 393V380.862H273.888V379.833H282.309V380.862H278.739V393H277.416ZM288.432 393.105C287.228 393.105 286.29 392.846 285.618 392.328C284.96 391.81 284.498 391.068 284.232 390.102C283.98 389.122 283.854 387.876 283.854 386.364C283.854 384.866 283.987 383.634 284.253 382.668C284.533 381.688 285.009 380.946 285.681 380.442C286.353 379.924 287.27 379.665 288.432 379.665C289.594 379.665 290.511 379.924 291.183 380.442C291.855 380.946 292.331 381.688 292.611 382.668C292.891 383.634 293.031 384.866 293.031 386.364C293.031 387.89 292.898 389.136 292.632 390.102C292.38 391.068 291.918 391.81 291.246 392.328C290.574 392.846 289.636 393.105 288.432 393.105ZM288.432 392.013C289.286 392.013 289.951 391.817 290.427 391.425C290.903 391.033 291.239 390.438 291.435 389.64C291.631 388.828 291.729 387.743 291.729 386.385C291.729 385.027 291.624 383.942 291.414 383.13C291.218 382.318 290.882 381.723 290.406 381.345C289.93 380.953 289.272 380.757 288.432 380.757C287.592 380.757 286.934 380.953 286.458 381.345C285.996 381.723 285.66 382.318 285.45 383.13C285.254 383.942 285.156 385.027 285.156 386.385C285.156 387.743 285.254 388.828 285.45 389.64C285.646 390.438 285.982 391.033 286.458 391.425C286.934 391.817 287.592 392.013 288.432 392.013ZM295.757 393V379.833H297.143L303.737 390.753V379.833H304.934V393H303.632L296.996 381.912V393H295.757ZM319.363 393.105C318.173 393.105 317.221 392.867 316.507 392.391C315.793 391.901 315.282 391.166 314.974 390.186C314.666 389.206 314.512 387.925 314.512 386.343C314.512 383.977 314.925 382.276 315.751 381.24C316.591 380.19 317.844 379.665 319.51 379.665C320.728 379.665 321.862 379.917 322.912 380.421V382.92H321.778V381.135C321.526 381.023 321.197 380.932 320.791 380.862C320.399 380.792 320.014 380.757 319.636 380.757C318.796 380.757 318.096 380.904 317.536 381.198C316.99 381.492 316.563 382.045 316.255 382.857C315.947 383.655 315.793 384.782 315.793 386.238C315.793 387.638 315.905 388.758 316.129 389.598C316.353 390.424 316.724 391.033 317.242 391.425C317.774 391.817 318.502 392.013 319.426 392.013C319.902 392.013 320.371 391.971 320.833 391.887C321.309 391.803 321.722 391.677 322.072 391.509V387.183H319.657V386.175H323.269V392.055C322.737 392.349 322.17 392.601 321.568 392.811C320.966 393.007 320.231 393.105 319.363 393.105ZM333.521 393.252C332.975 392.37 332.387 391.348 331.757 390.186C331.127 389.024 330.623 388.002 330.245 387.12C329.741 387.162 329.181 387.183 328.565 387.183H327.431V393H326.129V379.833H328.712C330 379.833 331.008 379.924 331.736 380.106C332.478 380.288 333.038 380.645 333.416 381.177C333.808 381.709 334.004 382.5 334.004 383.55C334.004 384.544 333.794 385.307 333.374 385.839C332.968 386.371 332.331 386.735 331.463 386.931L334.592 392.559L333.521 393.252ZM328.334 386.217C329.51 386.217 330.399 386.154 331.001 386.028C331.603 385.902 332.03 385.657 332.282 385.293C332.548 384.915 332.681 384.341 332.681 383.571C332.681 382.759 332.534 382.164 332.24 381.786C331.96 381.394 331.547 381.142 331.001 381.03C330.455 380.918 329.671 380.862 328.649 380.862H327.431V386.217H328.334ZM336.916 393V379.833H343.93L343.699 380.862H338.218V385.587H343.363V386.574H338.218V391.971H343.804L343.972 393H336.916ZM346.37 393V379.833H353.384L353.153 380.862H347.672V385.587H352.817V386.574H347.672V391.971H353.258L353.426 393H346.37ZM355.824 393V379.833H357.21L363.804 390.753V379.833H365.001V393H363.699L357.063 381.912V393H355.824ZM203.827 421.239L203.008 420.861L209.497 404.649L210.316 405.048L203.827 421.239ZM220.6 419.055L221.041 415.401H219.319V414.33H221.167L221.608 410.487H219.676V409.437H221.713L222.112 406.014H223.183L222.805 409.437H225.01L225.409 406.014H226.459L226.081 409.437H227.782V410.487H225.955L225.535 414.33H227.425V415.401H225.409L224.989 419.055H223.897L224.317 415.401H222.112L221.692 419.055H220.6ZM222.196 414.33H224.485L224.926 410.487H222.637L222.196 414.33ZM230.455 420C230.455 419.202 230.609 418.474 230.917 417.816C231.225 417.144 231.596 416.563 232.03 416.073C232.464 415.583 233.031 415.002 233.731 414.33L234.046 414.015C234.816 413.287 235.39 412.643 235.768 412.083C236.16 411.523 236.356 410.907 236.356 410.235C236.356 408.583 235.46 407.757 233.668 407.757C233.08 407.757 232.513 407.841 231.967 408.009C231.421 408.177 231.022 408.331 230.77 408.471L230.371 407.421C230.931 407.155 231.456 406.966 231.946 406.854C232.436 406.728 233.038 406.665 233.752 406.665C234.998 406.665 235.943 406.994 236.587 407.652C237.231 408.31 237.553 409.157 237.553 410.193C237.553 410.809 237.434 411.376 237.196 411.894C236.958 412.412 236.657 412.881 236.293 413.301C235.943 413.707 235.446 414.232 234.802 414.876L234.382 415.296C234.284 415.394 233.997 415.688 233.521 416.178C233.045 416.654 232.66 417.13 232.366 417.606C232.072 418.082 231.89 418.537 231.82 418.971H237.301L237.448 420H230.455ZM243.869 420.105C242.511 420.105 241.517 419.622 240.887 418.656C240.257 417.69 239.942 416.255 239.942 414.351C239.942 412.503 240.173 411.04 240.635 409.962C241.097 408.884 241.769 408.1 242.651 407.61C243.547 407.12 244.702 406.805 246.116 406.665L246.347 407.799C244.667 407.841 243.421 408.282 242.609 409.122C241.811 409.948 241.384 411.089 241.328 412.545C241.846 412.181 242.329 411.922 242.777 411.768C243.225 411.614 243.708 411.537 244.226 411.537C245.248 411.537 246.074 411.887 246.704 412.587C247.334 413.287 247.649 414.316 247.649 415.674C247.649 417.074 247.313 418.166 246.641 418.95C245.983 419.72 245.059 420.105 243.869 420.105ZM243.806 419.013C244.674 419.013 245.311 418.747 245.717 418.215C246.137 417.669 246.347 416.822 246.347 415.674C246.347 414.638 246.151 413.882 245.759 413.406C245.381 412.916 244.821 412.671 244.079 412.671C243.617 412.671 243.176 412.748 242.756 412.902C242.35 413.056 241.846 413.329 241.244 413.721V414.582C241.244 416.08 241.447 417.193 241.853 417.921C242.259 418.649 242.91 419.013 243.806 419.013ZM250.532 420C250.532 419.202 250.686 418.474 250.994 417.816C251.302 417.144 251.673 416.563 252.107 416.073C252.541 415.583 253.108 415.002 253.808 414.33L254.123 414.015C254.893 413.287 255.467 412.643 255.845 412.083C256.237 411.523 256.433 410.907 256.433 410.235C256.433 408.583 255.537 407.757 253.745 407.757C253.157 407.757 252.59 407.841 252.044 408.009C251.498 408.177 251.099 408.331 250.847 408.471L250.448 407.421C251.008 407.155 251.533 406.966 252.023 406.854C252.513 406.728 253.115 406.665 253.829 406.665C255.075 406.665 256.02 406.994 256.664 407.652C257.308 408.31 257.63 409.157 257.63 410.193C257.63 410.809 257.511 411.376 257.273 411.894C257.035 412.412 256.734 412.881 256.37 413.301C256.02 413.707 255.523 414.232 254.879 414.876L254.459 415.296C254.361 415.394 254.074 415.688 253.598 416.178C253.122 416.654 252.737 417.13 252.443 417.606C252.149 418.082 251.967 418.537 251.897 418.971H257.378L257.525 420H250.532ZM265.164 420.105C264.212 420.105 263.365 419.867 262.623 419.391C261.895 418.901 261.314 418.159 260.88 417.165C260.46 416.171 260.25 414.925 260.25 413.427C260.25 411.033 260.635 409.311 261.405 408.261C262.189 407.197 263.4 406.665 265.038 406.665C266.116 406.665 267.18 406.917 268.23 407.421V409.92H267.096V408.135C266.522 407.883 265.878 407.757 265.164 407.757C264.338 407.757 263.666 407.918 263.148 408.24C262.63 408.548 262.231 409.115 261.951 409.941C261.685 410.767 261.552 411.936 261.552 413.448C261.552 415.338 261.888 416.738 262.56 417.648C263.232 418.558 264.128 419.013 265.248 419.013C266.2 419.013 267.145 418.789 268.083 418.341L268.503 419.349C267.439 419.853 266.326 420.105 265.164 420.105ZM273.945 420.105C272.727 420.105 271.67 419.93 270.774 419.58L271.068 418.509C271.502 418.677 271.985 418.803 272.517 418.887C273.049 418.971 273.546 419.013 274.008 419.013C274.974 419.013 275.744 418.81 276.318 418.404C276.892 417.998 277.179 417.298 277.179 416.304C277.179 415.422 276.878 414.75 276.276 414.288C275.688 413.812 274.981 413.574 274.155 413.574C273.553 413.574 272.951 413.637 272.349 413.763L272.265 412.713C273.749 412.517 274.848 412.23 275.562 411.852C276.29 411.46 276.654 410.823 276.654 409.941C276.654 409.241 276.423 408.702 275.961 408.324C275.513 407.946 274.883 407.757 274.071 407.757C273.077 407.757 272.076 407.925 271.068 408.261L270.774 407.232C271.95 406.854 273.035 406.665 274.029 406.665C275.205 406.665 276.129 406.938 276.801 407.484C277.487 408.016 277.83 408.793 277.83 409.815C277.83 410.669 277.613 411.334 277.179 411.81C276.759 412.286 276.122 412.657 275.268 412.923C275.8 412.965 276.304 413.154 276.78 413.49C277.256 413.812 277.634 414.232 277.914 414.75C278.208 415.268 278.355 415.828 278.355 416.43C278.355 417.704 277.935 418.635 277.095 419.223C276.269 419.811 275.219 420.105 273.945 420.105ZM281.342 420V418.971H283.652V408.03L281.321 409.122L280.922 408.177V408.156L283.799 406.833H284.954V418.971H286.928V420H281.342Z" fill="#C6C0C4"/>
<rect y="450" width="80" height="80" rx="40" fill="#000408"/>
<line x1="103" y1="489.5" x2="173" y2="489.5" stroke="#C6C0C4"/>
<path d="M210.925 483.252C210.379 482.37 209.791 481.348 209.161 480.186C208.531 479.024 208.027 478.002 207.649 477.12C207.145 477.162 206.585 477.183 205.969 477.183H204.835V483H203.533V469.833H206.116C207.404 469.833 208.412 469.924 209.14 470.106C209.882 470.288 210.442 470.645 210.82 471.177C211.212 471.709 211.408 472.5 211.408 473.55C211.408 474.544 211.198 475.307 210.778 475.839C210.372 476.371 209.735 476.735 208.867 476.931L211.996 482.559L210.925 483.252ZM205.738 476.217C206.914 476.217 207.803 476.154 208.405 476.028C209.007 475.902 209.434 475.657 209.686 475.293C209.952 474.915 210.085 474.341 210.085 473.571C210.085 472.759 209.938 472.164 209.644 471.786C209.364 471.394 208.951 471.142 208.405 471.03C207.859 470.918 207.075 470.862 206.053 470.862H204.835V476.217H205.738ZM213.921 483V481.971H215.895V470.862H213.921V469.833H219.108V470.862H217.218V481.971H219.15V483H213.921ZM226.404 483.105C225.452 483.105 224.605 482.867 223.863 482.391C223.135 481.901 222.554 481.159 222.12 480.165C221.7 479.171 221.49 477.925 221.49 476.427C221.49 474.033 221.875 472.311 222.645 471.261C223.429 470.197 224.64 469.665 226.278 469.665C227.356 469.665 228.42 469.917 229.47 470.421V472.92H228.336V471.135C227.762 470.883 227.118 470.757 226.404 470.757C225.578 470.757 224.906 470.918 224.388 471.24C223.87 471.548 223.471 472.115 223.191 472.941C222.925 473.767 222.792 474.936 222.792 476.448C222.792 478.338 223.128 479.738 223.8 480.648C224.472 481.558 225.368 482.013 226.488 482.013C227.44 482.013 228.385 481.789 229.323 481.341L229.743 482.349C228.679 482.853 227.566 483.105 226.404 483.105ZM232.203 483V469.833H233.505V475.797H239.448V469.833H240.771V483H239.448V476.826H233.505V483H232.203ZM250.742 469.833H254.018C255.082 469.833 255.929 469.924 256.559 470.106C257.203 470.288 257.679 470.61 257.987 471.072C258.309 471.534 258.47 472.192 258.47 473.046C258.47 473.886 258.316 474.537 258.008 474.999C257.714 475.461 257.203 475.783 256.475 475.965C257.245 476.147 257.847 476.504 258.281 477.036C258.715 477.554 258.932 478.254 258.932 479.136C258.932 480.172 258.75 480.97 258.386 481.53C258.022 482.09 257.483 482.475 256.769 482.685C256.069 482.895 255.145 483 253.997 483H250.742V469.833ZM254.438 475.587C255.446 475.587 256.174 475.405 256.622 475.041C257.084 474.663 257.315 473.998 257.315 473.046C257.315 472.234 257.077 471.667 256.601 471.345C256.139 471.023 255.362 470.862 254.27 470.862H252.044V475.587H254.438ZM254.06 481.971C254.886 481.971 255.551 481.901 256.055 481.761C256.559 481.621 256.944 481.348 257.21 480.942C257.49 480.536 257.63 479.941 257.63 479.157C257.63 478.247 257.364 477.589 256.832 477.183C256.3 476.763 255.509 476.553 254.459 476.553H252.044V481.971H254.06ZM261.406 483V469.833H262.708V481.971H267.748L267.937 483H261.406ZM268.889 483L273.005 469.833H274.958L278.864 483H277.541L276.554 479.64H271.346L270.317 483H268.889ZM271.661 478.695H276.218L273.992 470.967L271.661 478.695ZM285.57 483.105C284.618 483.105 283.771 482.867 283.029 482.391C282.301 481.901 281.72 481.159 281.286 480.165C280.866 479.171 280.656 477.925 280.656 476.427C280.656 474.033 281.041 472.311 281.811 471.261C282.595 470.197 283.806 469.665 285.444 469.665C286.522 469.665 287.586 469.917 288.636 470.421V472.92H287.502V471.135C286.928 470.883 286.284 470.757 285.57 470.757C284.744 470.757 284.072 470.918 283.554 471.24C283.036 471.548 282.637 472.115 282.357 472.941C282.091 473.767 281.958 474.936 281.958 476.448C281.958 478.338 282.294 479.738 282.966 480.648C283.638 481.558 284.534 482.013 285.654 482.013C286.606 482.013 287.551 481.789 288.489 481.341L288.909 482.349C287.845 482.853 286.732 483.105 285.57 483.105ZM291.368 483V469.833H292.67V476.763L294.266 475.02L298.298 469.833H299.831L295.484 475.608L300.104 483H298.655L294.476 476.322L292.67 478.086V483H291.368ZM203.827 511.239L203.008 510.861L209.497 494.649L210.316 495.048L203.827 511.239ZM220.6 509.055L221.041 505.401H219.319V504.33H221.167L221.608 500.487H219.676V499.437H221.713L222.112 496.014H223.183L222.805 499.437H225.01L225.409 496.014H226.459L226.081 499.437H227.782V500.487H225.955L225.535 504.33H227.425V505.401H225.409L224.989 509.055H223.897L224.317 505.401H222.112L221.692 509.055H220.6ZM222.196 504.33H224.485L224.926 500.487H222.637L222.196 504.33ZM234.319 510.105C233.255 510.105 232.443 509.811 231.883 509.223C231.323 508.635 230.945 507.865 230.749 506.913C230.567 505.947 230.476 504.771 230.476 503.385C230.476 501.929 230.574 500.718 230.77 499.752C230.98 498.786 231.365 498.03 231.925 497.484C232.485 496.938 233.283 496.665 234.319 496.665C235.355 496.665 236.153 496.959 236.713 497.547C237.273 498.121 237.644 498.891 237.826 499.857C238.022 500.809 238.12 501.985 238.12 503.385C238.12 504.771 238.022 505.947 237.826 506.913C237.63 507.879 237.252 508.656 236.692 509.244C236.146 509.818 235.355 510.105 234.319 510.105ZM234.319 509.013C235.131 509.013 235.726 508.74 236.104 508.194C236.482 507.648 236.713 507.004 236.797 506.262C236.895 505.506 236.944 504.547 236.944 503.385C236.944 502.083 236.881 501.04 236.755 500.256C236.643 499.472 236.391 498.863 235.999 498.429C235.621 497.981 235.061 497.757 234.319 497.757C233.535 497.757 232.947 498.002 232.555 498.492C232.177 498.982 231.932 499.612 231.82 500.382C231.722 501.152 231.673 502.153 231.673 503.385C231.673 504.687 231.729 505.73 231.841 506.514C231.967 507.298 232.219 507.914 232.597 508.362C232.989 508.796 233.563 509.013 234.319 509.013ZM244.696 510.105C243.632 510.105 242.82 509.811 242.26 509.223C241.7 508.635 241.322 507.865 241.126 506.913C240.944 505.947 240.853 504.771 240.853 503.385C240.853 501.929 240.951 500.718 241.147 499.752C241.357 498.786 241.742 498.03 242.302 497.484C242.862 496.938 243.66 496.665 244.696 496.665C245.732 496.665 246.53 496.959 247.09 497.547C247.65 498.121 248.021 498.891 248.203 499.857C248.399 500.809 248.497 501.985 248.497 503.385C248.497 504.771 248.399 505.947 248.203 506.913C248.007 507.879 247.629 508.656 247.069 509.244C246.523 509.818 245.732 510.105 244.696 510.105ZM244.696 509.013C245.508 509.013 246.103 508.74 246.481 508.194C246.859 507.648 247.09 507.004 247.174 506.262C247.272 505.506 247.321 504.547 247.321 503.385C247.321 502.083 247.258 501.04 247.132 500.256C247.02 499.472 246.768 498.863 246.376 498.429C245.998 497.981 245.438 497.757 244.696 497.757C243.912 497.757 243.324 498.002 242.932 498.492C242.554 498.982 242.309 499.612 242.197 500.382C242.099 501.152 242.05 502.153 242.05 503.385C242.05 504.687 242.106 505.73 242.218 506.514C242.344 507.298 242.596 507.914 242.974 508.362C243.366 508.796 243.94 509.013 244.696 509.013ZM255.073 510.105C254.009 510.105 253.197 509.811 252.637 509.223C252.077 508.635 251.699 507.865 251.503 506.913C251.321 505.947 251.23 504.771 251.23 503.385C251.23 501.929 251.328 500.718 251.524 499.752C251.734 498.786 252.119 498.03 252.679 497.484C253.239 496.938 254.037 496.665 255.073 496.665C256.109 496.665 256.907 496.959 257.467 497.547C258.027 498.121 258.398 498.891 258.58 499.857C258.776 500.809 258.874 501.985 258.874 503.385C258.874 504.771 258.776 505.947 258.58 506.913C258.384 507.879 258.006 508.656 257.446 509.244C256.9 509.818 256.109 510.105 255.073 510.105ZM255.073 509.013C255.885 509.013 256.48 508.74 256.858 508.194C257.236 507.648 257.467 507.004 257.551 506.262C257.649 505.506 257.698 504.547 257.698 503.385C257.698 502.083 257.635 501.04 257.509 500.256C257.397 499.472 257.145 498.863 256.753 498.429C256.375 497.981 255.815 497.757 255.073 497.757C254.289 497.757 253.701 498.002 253.309 498.492C252.931 498.982 252.686 499.612 252.574 500.382C252.476 501.152 252.427 502.153 252.427 503.385C252.427 504.687 252.483 505.73 252.595 506.514C252.721 507.298 252.973 507.914 253.351 508.362C253.743 508.796 254.317 509.013 255.073 509.013ZM266.479 510V507.333H260.893V506.346L264.463 496.833H265.744L262.3 506.304H266.479V501.831H267.781V506.304H269.44V507.333H267.781V510H266.479ZM275.725 510.105C274.661 510.105 273.849 509.811 273.289 509.223C272.729 508.635 272.351 507.865 272.155 506.913C271.973 505.947 271.882 504.771 271.882 503.385C271.882 501.929 271.98 500.718 272.176 499.752C272.386 498.786 272.771 498.03 273.331 497.484C273.891 496.938 274.689 496.665 275.725 496.665C276.761 496.665 277.559 496.959 278.119 497.547C278.679 498.121 279.05 498.891 279.232 499.857C279.428 500.809 279.526 501.985 279.526 503.385C279.526 504.771 279.428 505.947 279.232 506.913C279.036 507.879 278.658 508.656 278.098 509.244C277.552 509.818 276.761 510.105 275.725 510.105ZM275.725 509.013C276.537 509.013 277.132 508.74 277.51 508.194C277.888 507.648 278.119 507.004 278.203 506.262C278.301 505.506 278.35 504.547 278.35 503.385C278.35 502.083 278.287 501.04 278.161 500.256C278.049 499.472 277.797 498.863 277.405 498.429C277.027 497.981 276.467 497.757 275.725 497.757C274.941 497.757 274.353 498.002 273.961 498.492C273.583 498.982 273.338 499.612 273.226 500.382C273.128 501.152 273.079 502.153 273.079 503.385C273.079 504.687 273.135 505.73 273.247 506.514C273.373 507.298 273.625 507.914 274.003 508.362C274.395 508.796 274.969 509.013 275.725 509.013ZM286.144 510.105C285.01 510.105 284.072 509.832 283.33 509.286C282.588 508.726 282.217 507.928 282.217 506.892C282.217 506.122 282.441 505.387 282.889 504.687C283.337 503.987 283.981 503.448 284.821 503.07C284.121 502.72 283.561 502.286 283.141 501.768C282.735 501.25 282.532 500.599 282.532 499.815C282.532 498.765 282.889 497.981 283.603 497.463C284.331 496.931 285.234 496.665 286.312 496.665C287.376 496.665 288.272 496.938 289 497.484C289.728 498.03 290.092 498.793 290.092 499.773C290.092 500.473 289.861 501.138 289.399 501.768C288.951 502.398 288.349 502.867 287.593 503.175C288.363 503.581 288.972 504.078 289.42 504.666C289.868 505.24 290.092 505.975 290.092 506.871C290.092 507.921 289.707 508.726 288.937 509.286C288.167 509.832 287.236 510.105 286.144 510.105ZM286.48 502.65C287.152 502.426 287.698 502.055 288.118 501.537C288.552 501.005 288.769 500.452 288.769 499.878C288.769 499.234 288.566 498.723 288.16 498.345C287.754 497.953 287.145 497.757 286.333 497.757C285.591 497.757 284.989 497.918 284.527 498.24C284.079 498.562 283.855 499.101 283.855 499.857C283.855 500.557 284.072 501.103 284.506 501.495C284.954 501.887 285.612 502.272 286.48 502.65ZM286.144 509.013C286.914 509.013 287.544 508.831 288.034 508.467C288.524 508.103 288.769 507.515 288.769 506.703C288.769 505.947 288.51 505.338 287.992 504.876C287.488 504.4 286.802 503.966 285.934 503.574C284.324 504.386 283.519 505.443 283.519 506.745C283.519 507.515 283.757 508.089 284.233 508.467C284.723 508.831 285.36 509.013 286.144 509.013Z" fill="#C6C0C4"/>
<rect y="540" width="80" height="80" rx="40" fill="black"/>
<line x1="103" y1="579.5" x2="173" y2="579.5" stroke="#C6C0C4"/>
<path d="M203.533 559.833H206.809C207.873 559.833 208.72 559.924 209.35 560.106C209.994 560.288 210.47 560.61 210.778 561.072C211.1 561.534 211.261 562.192 211.261 563.046C211.261 563.886 211.107 564.537 210.799 564.999C210.505 565.461 209.994 565.783 209.266 565.965C210.036 566.147 210.638 566.504 211.072 567.036C211.506 567.554 211.723 568.254 211.723 569.136C211.723 570.172 211.541 570.97 211.177 571.53C210.813 572.09 210.274 572.475 209.56 572.685C208.86 572.895 207.936 573 206.788 573H203.533V559.833ZM207.229 565.587C208.237 565.587 208.965 565.405 209.413 565.041C209.875 564.663 210.106 563.998 210.106 563.046C210.106 562.234 209.868 561.667 209.392 561.345C208.93 561.023 208.153 560.862 207.061 560.862H204.835V565.587H207.229ZM206.851 571.971C207.677 571.971 208.342 571.901 208.846 571.761C209.35 571.621 209.735 571.348 210.001 570.942C210.281 570.536 210.421 569.941 210.421 569.157C210.421 568.247 210.155 567.589 209.623 567.183C209.091 566.763 208.3 566.553 207.25 566.553H204.835V571.971H206.851ZM214.197 573V559.833H215.499V571.971H220.539L220.728 573H214.197ZM221.68 573L225.796 559.833H227.749L231.655 573H230.332L229.345 569.64H224.137L223.108 573H221.68ZM224.452 568.695H229.009L226.783 560.967L224.452 568.695ZM238.361 573.105C237.409 573.105 236.562 572.867 235.82 572.391C235.092 571.901 234.511 571.159 234.077 570.165C233.657 569.171 233.447 567.925 233.447 566.427C233.447 564.033 233.832 562.311 234.602 561.261C235.386 560.197 236.597 559.665 238.235 559.665C239.313 559.665 240.377 559.917 241.427 560.421V562.92H240.293V561.135C239.719 560.883 239.075 560.757 238.361 560.757C237.535 560.757 236.863 560.918 236.345 561.24C235.827 561.548 235.428 562.115 235.148 562.941C234.882 563.767 234.749 564.936 234.749 566.448C234.749 568.338 235.085 569.738 235.757 570.648C236.429 571.558 237.325 572.013 238.445 572.013C239.397 572.013 240.342 571.789 241.28 571.341L241.7 572.349C240.636 572.853 239.523 573.105 238.361 573.105ZM244.159 573V559.833H245.461V566.763L247.057 565.02L251.089 559.833H252.622L248.275 565.608L252.895 573H251.446L247.267 566.322L245.461 568.086V573H244.159ZM203.827 601.239L203.008 600.861L209.497 584.649L210.316 585.048L203.827 601.239ZM220.6 599.055L221.041 595.401H219.319V594.33H221.167L221.608 590.487H219.676V589.437H221.713L222.112 586.014H223.183L222.805 589.437H225.01L225.409 586.014H226.459L226.081 589.437H227.782V590.487H225.955L225.535 594.33H227.425V595.401H225.409L224.989 599.055H223.897L224.317 595.401H222.112L221.692 599.055H220.6ZM222.196 594.33H224.485L224.926 590.487H222.637L222.196 594.33ZM234.319 600.105C233.255 600.105 232.443 599.811 231.883 599.223C231.323 598.635 230.945 597.865 230.749 596.913C230.567 595.947 230.476 594.771 230.476 593.385C230.476 591.929 230.574 590.718 230.77 589.752C230.98 588.786 231.365 588.03 231.925 587.484C232.485 586.938 233.283 586.665 234.319 586.665C235.355 586.665 236.153 586.959 236.713 587.547C237.273 588.121 237.644 588.891 237.826 589.857C238.022 590.809 238.12 591.985 238.12 593.385C238.12 594.771 238.022 595.947 237.826 596.913C237.63 597.879 237.252 598.656 236.692 599.244C236.146 599.818 235.355 600.105 234.319 600.105ZM234.319 599.013C235.131 599.013 235.726 598.74 236.104 598.194C236.482 597.648 236.713 597.004 236.797 596.262C236.895 595.506 236.944 594.547 236.944 593.385C236.944 592.083 236.881 591.04 236.755 590.256C236.643 589.472 236.391 588.863 235.999 588.429C235.621 587.981 235.061 587.757 234.319 587.757C233.535 587.757 232.947 588.002 232.555 588.492C232.177 588.982 231.932 589.612 231.82 590.382C231.722 591.152 231.673 592.153 231.673 593.385C231.673 594.687 231.729 595.73 231.841 596.514C231.967 597.298 232.219 597.914 232.597 598.362C232.989 598.796 233.563 599.013 234.319 599.013ZM244.696 600.105C243.632 600.105 242.82 599.811 242.26 599.223C241.7 598.635 241.322 597.865 241.126 596.913C240.944 595.947 240.853 594.771 240.853 593.385C240.853 591.929 240.951 590.718 241.147 589.752C241.357 588.786 241.742 588.03 242.302 587.484C242.862 586.938 243.66 586.665 244.696 586.665C245.732 586.665 246.53 586.959 247.09 587.547C247.65 588.121 248.021 588.891 248.203 589.857C248.399 590.809 248.497 591.985 248.497 593.385C248.497 594.771 248.399 595.947 248.203 596.913C248.007 597.879 247.629 598.656 247.069 599.244C246.523 599.818 245.732 600.105 244.696 600.105ZM244.696 599.013C245.508 599.013 246.103 598.74 246.481 598.194C246.859 597.648 247.09 597.004 247.174 596.262C247.272 595.506 247.321 594.547 247.321 593.385C247.321 592.083 247.258 591.04 247.132 590.256C247.02 589.472 246.768 588.863 246.376 588.429C245.998 587.981 245.438 587.757 244.696 587.757C243.912 587.757 243.324 588.002 242.932 588.492C242.554 588.982 242.309 589.612 242.197 590.382C242.099 591.152 242.05 592.153 242.05 593.385C242.05 594.687 242.106 595.73 242.218 596.514C242.344 597.298 242.596 597.914 242.974 598.362C243.366 598.796 243.94 599.013 244.696 599.013ZM255.073 600.105C254.009 600.105 253.197 599.811 252.637 599.223C252.077 598.635 251.699 597.865 251.503 596.913C251.321 595.947 251.23 594.771 251.23 593.385C251.23 591.929 251.328 590.718 251.524 589.752C251.734 588.786 252.119 588.03 252.679 587.484C253.239 586.938 254.037 586.665 255.073 586.665C256.109 586.665 256.907 586.959 257.467 587.547C258.027 588.121 258.398 588.891 258.58 589.857C258.776 590.809 258.874 591.985 258.874 593.385C258.874 594.771 258.776 595.947 258.58 596.913C258.384 597.879 258.006 598.656 257.446 599.244C256.9 599.818 256.109 600.105 255.073 600.105ZM255.073 599.013C255.885 599.013 256.48 598.74 256.858 598.194C257.236 597.648 257.467 597.004 257.551 596.262C257.649 595.506 257.698 594.547 257.698 593.385C257.698 592.083 257.635 591.04 257.509 590.256C257.397 589.472 257.145 588.863 256.753 588.429C256.375 587.981 255.815 587.757 255.073 587.757C254.289 587.757 253.701 588.002 253.309 588.492C252.931 588.982 252.686 589.612 252.574 590.382C252.476 591.152 252.427 592.153 252.427 593.385C252.427 594.687 252.483 595.73 252.595 596.514C252.721 597.298 252.973 597.914 253.351 598.362C253.743 598.796 254.317 599.013 255.073 599.013ZM265.45 600.105C264.386 600.105 263.574 599.811 263.014 599.223C262.454 598.635 262.076 597.865 261.88 596.913C261.698 595.947 261.607 594.771 261.607 593.385C261.607 591.929 261.705 590.718 261.901 589.752C262.111 588.786 262.496 588.03 263.056 587.484C263.616 586.938 264.414 586.665 265.45 586.665C266.486 586.665 267.284 586.959 267.844 587.547C268.404 588.121 268.775 588.891 268.957 589.857C269.153 590.809 269.251 591.985 269.251 593.385C269.251 594.771 269.153 595.947 268.957 596.913C268.761 597.879 268.383 598.656 267.823 599.244C267.277 599.818 266.486 600.105 265.45 600.105ZM265.45 599.013C266.262 599.013 266.857 598.74 267.235 598.194C267.613 597.648 267.844 597.004 267.928 596.262C268.026 595.506 268.075 594.547 268.075 593.385C268.075 592.083 268.012 591.04 267.886 590.256C267.774 589.472 267.522 588.863 267.13 588.429C266.752 587.981 266.192 587.757 265.45 587.757C264.666 587.757 264.078 588.002 263.686 588.492C263.308 588.982 263.063 589.612 262.951 590.382C262.853 591.152 262.804 592.153 262.804 593.385C262.804 594.687 262.86 595.73 262.972 596.514C263.098 597.298 263.35 597.914 263.728 598.362C264.12 598.796 264.694 599.013 265.45 599.013ZM275.827 600.105C274.763 600.105 273.951 599.811 273.391 599.223C272.831 598.635 272.453 597.865 272.257 596.913C272.075 595.947 271.984 594.771 271.984 593.385C271.984 591.929 272.082 590.718 272.278 589.752C272.488 588.786 272.873 588.03 273.433 587.484C273.993 586.938 274.791 586.665 275.827 586.665C276.863 586.665 277.661 586.959 278.221 587.547C278.781 588.121 279.152 588.891 279.334 589.857C279.53 590.809 279.628 591.985 279.628 593.385C279.628 594.771 279.53 595.947 279.334 596.913C279.138 597.879 278.76 598.656 278.2 599.244C277.654 599.818 276.863 600.105 275.827 600.105ZM275.827 599.013C276.639 599.013 277.234 598.74 277.612 598.194C277.99 597.648 278.221 597.004 278.305 596.262C278.403 595.506 278.452 594.547 278.452 593.385C278.452 592.083 278.389 591.04 278.263 590.256C278.151 589.472 277.899 588.863 277.507 588.429C277.129 587.981 276.569 587.757 275.827 587.757C275.043 587.757 274.455 588.002 274.063 588.492C273.685 588.982 273.44 589.612 273.328 590.382C273.23 591.152 273.181 592.153 273.181 593.385C273.181 594.687 273.237 595.73 273.349 596.514C273.475 597.298 273.727 597.914 274.105 598.362C274.497 598.796 275.071 599.013 275.827 599.013ZM286.204 600.105C285.14 600.105 284.328 599.811 283.768 599.223C283.208 598.635 282.83 597.865 282.634 596.913C282.452 595.947 282.361 594.771 282.361 593.385C282.361 591.929 282.459 590.718 282.655 589.752C282.865 588.786 283.25 588.03 283.81 587.484C284.37 586.938 285.168 586.665 286.204 586.665C287.24 586.665 288.038 586.959 288.598 587.547C289.158 588.121 289.529 588.891 289.711 589.857C289.907 590.809 290.005 591.985 290.005 593.385C290.005 594.771 289.907 595.947 289.711 596.913C289.515 597.879 289.137 598.656 288.577 599.244C288.031 599.818 287.24 600.105 286.204 600.105ZM286.204 599.013C287.016 599.013 287.611 598.74 287.989 598.194C288.367 597.648 288.598 597.004 288.682 596.262C288.78 595.506 288.829 594.547 288.829 593.385C288.829 592.083 288.766 591.04 288.64 590.256C288.528 589.472 288.276 588.863 287.884 588.429C287.506 587.981 286.946 587.757 286.204 587.757C285.42 587.757 284.832 588.002 284.44 588.492C284.062 588.982 283.817 589.612 283.705 590.382C283.607 591.152 283.558 592.153 283.558 593.385C283.558 594.687 283.614 595.73 283.726 596.514C283.852 597.298 284.104 597.914 284.482 598.362C284.874 598.796 285.448 599.013 286.204 599.013Z" fill="#C6C0C4"/>
</svg>
