<svg width="101" height="27" viewBox="0 0 101 27" fill="none" xmlns="http://www.w3.org/2000/svg">
<path d="M1.15562 22V4.07034H8.92981C10.2955 4.07034 11.4424 4.25418 12.3704 4.62188C13.3043 4.98958 14.0076 5.50903 14.4803 6.18022C14.9589 6.85142 15.1982 7.64226 15.1982 8.55275C15.1982 9.21227 15.0523 9.81343 14.7605 10.3562C14.4745 10.899 14.0718 11.3543 13.5523 11.722C13.0329 12.0838 12.4259 12.3348 11.7313 12.4749V12.65C12.5017 12.6791 13.2021 12.8747 13.8325 13.2365C14.4628 13.5926 14.9647 14.0857 15.3383 14.7161C15.7118 15.3406 15.8986 16.076 15.8986 16.9223C15.8986 17.9028 15.6418 18.7753 15.1282 19.5399C14.6204 20.3045 13.8967 20.9057 12.957 21.3434C12.0173 21.7811 10.8967 22 9.59517 22H1.15562ZM6.02325 18.1129H8.29947C9.11658 18.1129 9.72941 17.9612 10.138 17.6577C10.5465 17.3483 10.7508 16.8931 10.7508 16.2919C10.7508 15.8717 10.6545 15.5157 10.4619 15.2238C10.2693 14.932 9.99497 14.7102 9.63895 14.5585C9.28876 14.4067 8.86561 14.3309 8.36951 14.3309H6.02325V18.1129ZM6.02325 11.3192H8.01932C8.44539 11.3192 8.82184 11.2521 9.14868 11.1179C9.47552 10.9836 9.72941 10.791 9.91034 10.5401C10.0971 10.2833 10.1905 9.97102 10.1905 9.60332C10.1905 9.04885 9.99205 8.62571 9.59517 8.33388C9.19829 8.03622 8.69635 7.88739 8.08936 7.88739H6.02325V11.3192ZM17.183 22V4.07034H24.9222C26.2529 4.07034 27.4173 4.31255 28.4153 4.79698C29.4134 5.28141 30.1896 5.97886 30.7441 6.88936C31.2985 7.79985 31.5758 8.89127 31.5758 10.1636C31.5758 11.4476 31.2898 12.5303 30.7178 13.4116C30.1517 14.2929 29.355 14.9583 28.3278 15.4077C27.3064 15.8571 26.1128 16.0818 24.7471 16.0818H20.1246V12.2998H23.7666C24.3385 12.2998 24.8259 12.2297 25.2286 12.0897C25.6372 11.9437 25.9494 11.7132 26.1654 11.398C26.3871 11.0829 26.498 10.6714 26.498 10.1636C26.498 9.65001 26.3871 9.2327 26.1654 8.9117C25.9494 8.58485 25.6372 8.34556 25.2286 8.19381C24.8259 8.03622 24.3385 7.95743 23.7666 7.95743H22.0506V22H17.183ZM27.6887 13.7706L32.1711 22H26.8832L22.5059 13.7706H27.6887ZM37.8679 22H32.6151L38.5333 4.07034H45.1869L51.105 22H45.8522L41.9301 9.008H41.79L37.8679 22ZM36.8874 14.9262H46.7627V18.5682H36.8874V14.9262ZM67.905 4.07034V22H63.8428L57.3644 12.5799H57.2593V22H52.3917V4.07034H56.5239L62.8973 13.4554H63.0374V4.07034H67.905ZM76.666 22H69.7673V4.07034H76.596C78.4403 4.07034 80.0337 4.42928 81.3761 5.14717C82.7243 5.85922 83.7632 6.88644 84.4927 8.22883C85.2281 9.56538 85.5958 11.1675 85.5958 13.0352C85.5958 14.9028 85.231 16.5079 84.5015 17.8503C83.7719 19.1868 82.7389 20.214 81.4023 20.9319C80.0658 21.644 78.487 22 76.666 22ZM74.6349 17.8678H76.4909C77.3781 17.8678 78.1339 17.7248 78.7584 17.4388C79.3887 17.1528 79.8673 16.6596 80.1942 15.9592C80.5268 15.2589 80.6932 14.2842 80.6932 13.0352C80.6932 11.7862 80.5239 10.8115 80.1854 10.1111C79.8527 9.41071 79.3625 8.91753 78.7146 8.63154C78.0726 8.34556 77.2847 8.20256 76.3508 8.20256H74.6349V17.8678Z" fill="white"/>
<path d="M87.2218 2.33082V1.02344H92.4163V2.33082H90.6186V7H89.0194V2.33082H87.2218ZM92.8801 1.02344H94.8996L96.2887 4.4086H96.3587L97.7478 1.02344H99.7672V7H98.1797V3.5448H98.133L96.8023 6.95331H95.8451L94.5144 3.52146H94.4677V7H92.8801V1.02344Z" fill="white"/>
</svg>
