<svg width="200" height="200" viewBox="0 0 200 200" fill="none" xmlns="http://www.w3.org/2000/svg">
<rect width="200" height="200" fill="#F3F3F3"/>
<path d="M14.32 20.165C16.63 20.165 18.01 18.41 18.01 15.185C18.01 12.05 16.66 10.19 14.32 10.19C12.01 10.19 10.615 11.96 10.615 15.185C10.615 18.305 11.965 20.165 14.32 20.165ZM14.32 19.325C12.595 19.325 11.605 17.78 11.605 15.185C11.605 12.5 12.565 11.03 14.32 11.03C16.03 11.03 17.02 12.56 17.02 15.185C17.02 17.84 16.06 19.325 14.32 19.325ZM19.6776 20H26.3076V19.22H20.6676C21.0576 15.98 26.1576 16.25 26.1576 13.055C26.1576 11.39 25.1226 10.19 23.0976 10.19C21.0726 10.19 19.9176 11.27 19.6626 13.04H20.6676C20.8776 11.795 21.5976 11.03 23.0826 11.03C24.4476 11.03 25.1676 11.795 25.1676 13.07C25.1676 15.845 19.6776 15.365 19.6776 19.7V20Z" fill="black"/>
<path d="M113.284 20H114.349L110.254 9.8H109.069L104.989 20H105.994L107.059 17.33H112.219L113.284 20ZM109.369 11.585L109.639 10.805L109.924 11.585L111.889 16.505H107.389L109.369 11.585ZM115.982 20H116.987V11.24L117.542 12.2L122.747 20H123.812V9.8H122.792V18.545L122.267 17.645L117.047 9.8H115.982V20ZM129.188 20H130.208V10.67H133.808V9.8H125.573V10.67H129.188V20ZM135.567 20H136.572V9.8H135.567V20ZM138.977 16.325H142.892V15.485H138.977V16.325ZM145.294 20H146.299V15.38H151.519V14.555H146.299V10.625H152.059V9.8H145.294V20ZM153.921 20H160.296V19.175H154.926V9.8H153.921V20ZM169.461 20H170.526L166.431 9.8H165.246L161.166 20H162.171L163.236 17.33H168.396L169.461 20ZM165.546 11.585L165.816 10.805L166.101 11.585L168.066 16.505H163.566L165.546 11.585ZM172.658 12.26C172.658 11.21 173.483 10.505 174.968 10.505C176.393 10.505 177.368 11.15 177.668 12.62H178.733C178.403 10.55 176.903 9.635 174.983 9.635C172.778 9.635 171.623 10.88 171.623 12.32C171.623 16.535 177.968 13.82 177.968 17.33C177.968 18.5 177.068 19.295 175.373 19.295C173.768 19.295 172.718 18.56 172.403 17.225H171.353C171.758 19.19 173.213 20.165 175.358 20.165C177.458 20.165 179.003 19.115 179.003 17.21C179.003 12.905 172.658 15.545 172.658 12.26ZM180.889 20H181.894V15.14H187.699V20H188.719V9.8H187.699V14.315H181.894V9.8H180.889V20ZM152.972 40H154.157L157.442 29.8H156.392L153.782 38.23L153.602 38.95L153.392 38.23L150.737 29.8H149.642L146.957 38.23L146.762 38.95L146.552 38.23L143.942 29.8H142.847L146.132 40H147.332L149.942 31.885L150.152 31.18L150.362 31.885L152.972 40ZM159.356 40H160.361V35.14H166.166V40H167.186V29.8H166.166V34.315H160.361V29.8H159.356V40ZM169.742 40H170.747V29.8H169.742V40ZM176.121 40H177.141V30.67H180.741V29.8H172.506V30.67H176.121V40ZM182.501 40H189.266V39.175H183.506V35.125H188.726V34.285H183.506V30.625H189.266V29.8H182.501V40Z" fill="black"/>
<path d="M11.155 165H12.13V160.26C12.13 159.06 12.985 157.725 14.455 157.725C15.79 157.725 16.39 158.61 16.39 159.9V165H17.35V159.69C17.35 157.905 16.39 156.9 14.71 156.9C13.585 156.9 12.67 157.425 12.13 158.4V154.2H11.155V165ZM26.2807 162.42H25.2757C24.9607 163.68 24.0607 164.325 22.8157 164.325C21.2107 164.325 20.2657 163.185 20.2207 161.19H26.2357V160.92C26.2357 158.415 24.9307 156.9 22.7407 156.9C20.5807 156.9 19.2307 158.355 19.2307 161.04C19.2307 163.62 20.5657 165.165 22.8157 165.165C24.5557 165.165 25.8457 164.28 26.2807 162.42ZM22.7407 157.74C24.1957 157.74 25.0807 158.73 25.2307 160.44H20.2507C20.4007 158.685 21.2707 157.74 22.7407 157.74ZM33.1164 165H34.3464L31.2564 160.875L34.0914 157.065H32.9814L31.1214 159.63L30.7314 160.245L30.3264 159.63L28.4514 157.065H27.2364L30.0564 160.875L26.9814 165H28.0914L30.1914 162.105L30.5964 161.505L30.9864 162.105L33.1164 165ZM35.5118 159.105H36.7718V157.83H35.5118V159.105ZM35.5118 165H36.7718V163.74H35.5118V165ZM42.5439 165H43.4589L43.9839 162.465H46.9689L46.4439 165H47.3589L47.8839 162.465H49.3089V161.7H48.0339L48.7839 158.115H50.3139V157.335H48.9339L49.4589 154.8H48.5439L48.0189 157.335H45.0339L45.5589 154.8H44.6439L44.1189 157.335H42.6939V158.115H43.9689L43.2189 161.7H41.6889V162.465H43.0689L42.5439 165ZM44.1339 161.7L44.8839 158.115H47.8689L47.1189 161.7H44.1339ZM51.1932 157.845H52.3932V165H53.3682V157.845H55.0182V157.065H53.3682V156.375C53.3682 155.325 53.6832 154.86 54.8682 154.86H55.0182V154.155C54.8982 154.11 54.6882 154.08 54.4482 154.08C53.0082 154.08 52.3932 154.785 52.3932 156.375V157.065H51.1932V157.845ZM62.9486 162.345C62.9486 161.295 62.5136 160.38 61.0736 159.93C62.2586 159.54 62.6486 158.775 62.6486 157.875C62.6486 156.3 61.5836 155.19 59.4686 155.19C57.4136 155.19 56.2436 156.27 55.9886 158.04H56.9636C57.1586 156.795 57.9386 156.03 59.4536 156.03C60.9086 156.03 61.6586 156.72 61.6586 157.875C61.6586 158.625 61.2986 159.6 58.9286 159.6H58.6886V160.38H58.9736C61.5086 160.38 61.9586 161.4 61.9586 162.315C61.9586 163.575 61.0886 164.325 59.4086 164.325C57.7886 164.325 56.9636 163.53 56.7686 162.3H55.7786C56.0336 164.085 57.2936 165.165 59.4236 165.165C61.7636 165.165 62.9486 163.98 62.9486 162.345ZM63.7762 157.845H64.9762V165H65.9512V157.845H67.6012V157.065H65.9512V156.375C65.9512 155.325 66.2662 154.86 67.4512 154.86H67.6012V154.155C67.4812 154.11 67.2712 154.08 67.0312 154.08C65.5912 154.08 64.9762 154.785 64.9762 156.375V157.065H63.7762V157.845ZM75.5316 162.345C75.5316 161.295 75.0966 160.38 73.6566 159.93C74.8416 159.54 75.2316 158.775 75.2316 157.875C75.2316 156.3 74.1666 155.19 72.0516 155.19C69.9966 155.19 68.8266 156.27 68.5716 158.04H69.5466C69.7416 156.795 70.5216 156.03 72.0366 156.03C73.4916 156.03 74.2416 156.72 74.2416 157.875C74.2416 158.625 73.8816 159.6 71.5116 159.6H71.2716V160.38H71.5566C74.0916 160.38 74.5416 161.4 74.5416 162.315C74.5416 163.575 73.6716 164.325 71.9916 164.325C70.3716 164.325 69.5466 163.53 69.3516 162.3H68.3616C68.6166 164.085 69.8766 165.165 72.0066 165.165C74.3466 165.165 75.5316 163.98 75.5316 162.345ZM76.3592 157.845H77.5592V165H78.5342V157.845H80.1842V157.065H78.5342V156.375C78.5342 155.325 78.8492 154.86 80.0342 154.86H80.1842V154.155C80.0642 154.11 79.8542 154.08 79.6142 154.08C78.1742 154.08 77.5592 154.785 77.5592 156.375V157.065H76.3592V157.845ZM88.1146 162.345C88.1146 161.295 87.6796 160.38 86.2396 159.93C87.4246 159.54 87.8146 158.775 87.8146 157.875C87.8146 156.3 86.7496 155.19 84.6346 155.19C82.5796 155.19 81.4096 156.27 81.1546 158.04H82.1296C82.3246 156.795 83.1046 156.03 84.6196 156.03C86.0746 156.03 86.8246 156.72 86.8246 157.875C86.8246 158.625 86.4646 159.6 84.0946 159.6H83.8546V160.38H84.1396C86.6746 160.38 87.1246 161.4 87.1246 162.315C87.1246 163.575 86.2546 164.325 84.5746 164.325C82.9546 164.325 82.1296 163.53 81.9346 162.3H80.9446C81.1996 164.085 82.4596 165.165 84.5896 165.165C86.9296 165.165 88.1146 163.98 88.1146 162.345Z" fill="black"/>
<path d="M11.155 190H12.13V185.44C12.13 184.03 12.895 182.83 14.515 182.83C14.8 182.83 15.085 182.875 15.295 182.95V182.065C15.145 181.96 14.875 181.9 14.575 181.9C13.54 181.9 12.655 182.44 12.13 183.52V182.065H11.155V190ZM19.232 190.075C20.342 190.075 21.212 189.595 21.752 188.68V190.315C21.752 191.935 20.927 192.67 19.607 192.67C18.317 192.67 17.417 192.025 17.237 190.825H16.262C16.547 192.58 17.792 193.48 19.607 193.48C21.377 193.48 22.727 192.505 22.727 190.285V182.065H21.752V183.25C21.242 182.365 20.402 181.9 19.232 181.9C17.267 181.9 16.052 183.34 16.052 185.995C16.052 188.545 17.237 190.075 19.232 190.075ZM19.397 189.235C17.897 189.235 17.042 188.05 17.042 185.995C17.042 183.895 17.882 182.74 19.397 182.74C20.897 182.74 21.752 183.94 21.752 185.98C21.752 188.08 20.927 189.235 19.397 189.235ZM26.0314 190V188.77C26.5564 189.685 27.3814 190.165 28.4464 190.165C30.4714 190.165 31.7314 188.71 31.7314 186.01C31.7314 183.445 30.5164 181.9 28.4464 181.9C27.3814 181.9 26.5564 182.41 26.0314 183.34V179.2H25.0564V190H26.0314ZM28.3864 182.74C29.8714 182.74 30.7414 183.94 30.7414 186.01C30.7414 188.14 29.9014 189.325 28.3864 189.325C26.8864 189.325 26.0314 188.11 26.0314 186.025C26.0314 183.91 26.8564 182.74 28.3864 182.74ZM33.4611 184.105H34.7211V182.83H33.4611V184.105ZM33.4611 190H34.7211V188.74H33.4611V190ZM39.8631 190H46.4931V189.22H40.8531C41.2431 185.98 46.3431 186.25 46.3431 183.055C46.3431 181.39 45.3081 180.19 43.2831 180.19C41.2581 180.19 40.1031 181.27 39.8481 183.04H40.8531C41.0631 181.795 41.7831 181.03 43.2681 181.03C44.6331 181.03 45.3531 181.795 45.3531 183.07C45.3531 185.845 39.8631 185.365 39.8631 189.7V190ZM54.0707 190V187.6H55.5107V186.82H54.0707V180.355H53.1707L48.1607 186.715V187.6H53.0657V190H54.0707ZM49.0907 186.82L53.0657 181.675V186.82H49.0907ZM64.0033 187.345C64.0033 186.295 63.5683 185.38 62.1283 184.93C63.3133 184.54 63.7033 183.775 63.7033 182.875C63.7033 181.3 62.6383 180.19 60.5233 180.19C58.4683 180.19 57.2983 181.27 57.0433 183.04H58.0183C58.2133 181.795 58.9933 181.03 60.5083 181.03C61.9633 181.03 62.7133 181.72 62.7133 182.875C62.7133 183.625 62.3533 184.6 59.9833 184.6H59.7433V185.38H60.0283C62.5633 185.38 63.0133 186.4 63.0133 187.315C63.0133 188.575 62.1433 189.325 60.4633 189.325C58.8433 189.325 58.0183 188.53 57.8233 187.3H56.8333C57.0883 189.085 58.3483 190.165 60.4783 190.165C62.8183 190.165 64.0033 188.98 64.0033 187.345ZM65.7609 190H66.3009C66.3009 190.885 66.1509 191.44 65.8509 192.31H66.4059C66.8409 191.455 67.0209 190.69 67.0209 189.415V188.74H65.7609V190ZM72.1629 190H78.7929V189.22H73.1529C73.5429 185.98 78.6429 186.25 78.6429 183.055C78.6429 181.39 77.6079 180.19 75.5829 180.19C73.5579 180.19 72.4029 181.27 72.1479 183.04H73.1529C73.3629 181.795 74.0829 181.03 75.5679 181.03C76.9329 181.03 77.6529 181.795 77.6529 183.07C77.6529 185.845 72.1629 185.365 72.1629 189.7V190ZM86.3705 190V187.6H87.8105V186.82H86.3705V180.355H85.4705L80.4605 186.715V187.6H85.3655V190H86.3705ZM81.3905 186.82L85.3655 181.675V186.82H81.3905ZM96.3031 187.345C96.3031 186.295 95.8681 185.38 94.4281 184.93C95.6131 184.54 96.0031 183.775 96.0031 182.875C96.0031 181.3 94.9381 180.19 92.8231 180.19C90.7681 180.19 89.5981 181.27 89.3431 183.04H90.3181C90.5131 181.795 91.2931 181.03 92.8081 181.03C94.2631 181.03 95.0131 181.72 95.0131 182.875C95.0131 183.625 94.6531 184.6 92.2831 184.6H92.0431V185.38H92.3281C94.8631 185.38 95.3131 186.4 95.3131 187.315C95.3131 188.575 94.4431 189.325 92.7631 189.325C91.1431 189.325 90.3181 188.53 90.1231 187.3H89.1331C89.3881 189.085 90.6481 190.165 92.7781 190.165C95.1181 190.165 96.3031 188.98 96.3031 187.345ZM98.0607 190H98.6007C98.6007 190.885 98.4507 191.44 98.1507 192.31H98.7057C99.1407 191.455 99.3207 190.69 99.3207 189.415V188.74H98.0607V190ZM104.463 190H111.093V189.22H105.453C105.843 185.98 110.943 186.25 110.943 183.055C110.943 181.39 109.908 180.19 107.883 180.19C105.858 180.19 104.703 181.27 104.448 183.04H105.453C105.663 181.795 106.383 181.03 107.868 181.03C109.233 181.03 109.953 181.795 109.953 183.07C109.953 185.845 104.463 185.365 104.463 189.7V190ZM118.67 190V187.6H120.11V186.82H118.67V180.355H117.77L112.76 186.715V187.6H117.665V190H118.67ZM113.69 186.82L117.665 181.675V186.82H113.69ZM128.603 187.345C128.603 186.295 128.168 185.38 126.728 184.93C127.913 184.54 128.303 183.775 128.303 182.875C128.303 181.3 127.238 180.19 125.123 180.19C123.068 180.19 121.898 181.27 121.643 183.04H122.618C122.813 181.795 123.593 181.03 125.108 181.03C126.563 181.03 127.313 181.72 127.313 182.875C127.313 183.625 126.953 184.6 124.583 184.6H124.343V185.38H124.628C127.163 185.38 127.613 186.4 127.613 187.315C127.613 188.575 126.743 189.325 125.063 189.325C123.443 189.325 122.618 188.53 122.423 187.3H121.433C121.688 189.085 122.948 190.165 125.078 190.165C127.418 190.165 128.603 188.98 128.603 187.345Z" fill="black"/>
</svg>
