<svg width="77" height="16" viewBox="0 0 77 16" fill="none" xmlns="http://www.w3.org/2000/svg">
<path d="M8.94 15L2.84 7.66L8.78 0.94H12.18L5.56 8.24L5.58 6.98L12.4 15H8.94ZM0.44 15V0.94H3.16V15H0.44ZM15.858 9.12V7H19.118C19.7846 7 20.298 6.83333 20.658 6.5C21.0313 6.15333 21.218 5.68 21.218 5.08C21.218 4.53333 21.0313 4.08 20.658 3.72C20.298 3.34667 19.7846 3.16 19.118 3.16H15.858V0.94H19.358C20.2646 0.94 21.058 1.12 21.738 1.48C22.4313 1.82667 22.9646 2.30667 23.338 2.92C23.7246 3.53333 23.918 4.24 23.918 5.04C23.918 5.86667 23.7246 6.58667 23.338 7.2C22.9646 7.8 22.4313 8.27333 21.738 8.62C21.0446 8.95333 20.238 9.12 19.318 9.12H15.858ZM13.858 15V0.94H16.578V15H13.858ZM21.538 15L16.898 8.92L19.398 8.14L24.838 15H21.538ZM29.9953 9.58L24.5553 0.94H27.6953L31.9153 7.86H30.1153L34.3353 0.94H37.4353L31.9353 9.58H29.9953ZM29.6353 15V8.12H32.3753V15H29.6353ZM40.7213 9.78V7.56H43.9813C44.4079 7.56 44.7946 7.47333 45.1413 7.3C45.4879 7.12667 45.7613 6.88 45.9613 6.56C46.1613 6.22667 46.2613 5.82667 46.2613 5.36C46.2613 4.90667 46.1613 4.51333 45.9613 4.18C45.7613 3.84667 45.4879 3.59333 45.1413 3.42C44.7946 3.24667 44.4079 3.16 43.9813 3.16H40.7213V0.94H44.2613C45.1546 0.94 45.9546 1.12 46.6613 1.48C47.3813 1.84 47.9479 2.35333 48.3613 3.02C48.7746 3.67333 48.9813 4.45333 48.9813 5.36C48.9813 6.26667 48.7746 7.05333 48.3613 7.72C47.9479 8.37333 47.3813 8.88 46.6613 9.24C45.9546 9.6 45.1546 9.78 44.2613 9.78H40.7213ZM38.7213 15V0.94H41.4413V15H38.7213ZM54.213 15V1.24H56.953V15H54.213ZM49.733 3.36V0.94H61.433V3.36H49.733ZM69.0513 15.22C68.0246 15.22 67.0646 15.0333 66.1712 14.66C65.2913 14.2867 64.5179 13.7733 63.8513 13.12C63.1979 12.4533 62.6846 11.68 62.3113 10.8C61.9379 9.90667 61.7513 8.95333 61.7513 7.94C61.7513 6.92667 61.9313 5.98667 62.2913 5.12C62.6646 4.24 63.1779 3.47333 63.8313 2.82C64.4979 2.15333 65.2713 1.64 66.1513 1.28C67.0313 0.906666 67.9846 0.719999 69.0113 0.719999C70.0513 0.719999 71.0113 0.906666 71.8913 1.28C72.7713 1.64 73.5379 2.15333 74.1913 2.82C74.8579 3.47333 75.3779 4.24 75.7513 5.12C76.1246 6 76.3113 6.94667 76.3113 7.96C76.3113 8.97333 76.1246 9.92 75.7513 10.8C75.3779 11.68 74.8579 12.4533 74.1913 13.12C73.5379 13.7733 72.7713 14.2867 71.8913 14.66C71.0246 15.0333 70.0779 15.22 69.0513 15.22ZM69.0113 12.68C69.9179 12.68 70.7046 12.48 71.3713 12.08C72.0379 11.68 72.5579 11.1267 72.9313 10.42C73.3179 9.71333 73.5113 8.88667 73.5113 7.94C73.5113 7.24667 73.4046 6.61333 73.1913 6.04C72.9779 5.46667 72.6713 4.97333 72.2713 4.56C71.8713 4.13333 71.3979 3.80667 70.8513 3.58C70.3046 3.35333 69.6913 3.24 69.0113 3.24C68.1313 3.24 67.3513 3.44 66.6713 3.84C66.0046 4.22667 65.4779 4.77333 65.0913 5.48C64.7179 6.18667 64.5313 7.00667 64.5313 7.94C64.5313 8.64667 64.6379 9.29333 64.8513 9.88C65.0779 10.4667 65.3846 10.9667 65.7713 11.38C66.1713 11.7933 66.6446 12.1133 67.1913 12.34C67.7513 12.5667 68.3579 12.68 69.0113 12.68Z" fill="#EBEBEB"/>
</svg>
