<svg width="200" height="200" viewBox="0 0 200 200" fill="none" xmlns="http://www.w3.org/2000/svg">
<rect width="200" height="200" fill="white"/>
<path d="M14.32 20.165C16.63 20.165 18.01 18.41 18.01 15.185C18.01 12.05 16.66 10.19 14.32 10.19C12.01 10.19 10.615 11.96 10.615 15.185C10.615 18.305 11.965 20.165 14.32 20.165ZM14.32 19.325C12.595 19.325 11.605 17.78 11.605 15.185C11.605 12.5 12.565 11.03 14.32 11.03C16.03 11.03 17.02 12.56 17.02 15.185C17.02 17.84 16.06 19.325 14.32 19.325ZM20.8926 20H25.6326V19.22H23.7726V10.355H22.9176V10.55C22.9176 10.955 22.7676 11.09 22.1076 11.09H20.8926V11.87H22.3176C22.5426 11.87 22.6626 11.87 22.7526 11.855V19.22H20.8926V20Z" fill="black"/>
<path d="M152.972 20H154.157L157.442 9.8H156.392L153.782 18.23L153.602 18.95L153.392 18.23L150.737 9.8H149.642L146.957 18.23L146.762 18.95L146.552 18.23L143.942 9.8H142.847L146.132 20H147.332L149.942 11.885L150.152 11.18L150.362 11.885L152.972 20ZM159.356 20H160.361V15.14H166.166V20H167.186V9.8H166.166V14.315H160.361V9.8H159.356V20ZM169.742 20H170.747V9.8H169.742V20ZM176.121 20H177.141V10.67H180.741V9.8H172.506V10.67H176.121V20ZM182.501 20H189.266V19.175H183.506V15.125H188.726V14.285H183.506V10.625H189.266V9.8H182.501V20Z" fill="black"/>
<path d="M11.155 165H12.13V160.26C12.13 159.06 12.985 157.725 14.455 157.725C15.79 157.725 16.39 158.61 16.39 159.9V165H17.35V159.69C17.35 157.905 16.39 156.9 14.71 156.9C13.585 156.9 12.67 157.425 12.13 158.4V154.2H11.155V165ZM26.2807 162.42H25.2757C24.9607 163.68 24.0607 164.325 22.8157 164.325C21.2107 164.325 20.2657 163.185 20.2207 161.19H26.2357V160.92C26.2357 158.415 24.9307 156.9 22.7407 156.9C20.5807 156.9 19.2307 158.355 19.2307 161.04C19.2307 163.62 20.5657 165.165 22.8157 165.165C24.5557 165.165 25.8457 164.28 26.2807 162.42ZM22.7407 157.74C24.1957 157.74 25.0807 158.73 25.2307 160.44H20.2507C20.4007 158.685 21.2707 157.74 22.7407 157.74ZM33.1164 165H34.3464L31.2564 160.875L34.0914 157.065H32.9814L31.1214 159.63L30.7314 160.245L30.3264 159.63L28.4514 157.065H27.2364L30.0564 160.875L26.9814 165H28.0914L30.1914 162.105L30.5964 161.505L30.9864 162.105L33.1164 165ZM35.5118 159.105H36.7718V157.83H35.5118V159.105ZM35.5118 165H36.7718V163.74H35.5118V165ZM42.5439 165H43.4589L43.9839 162.465H46.9689L46.4439 165H47.3589L47.8839 162.465H49.3089V161.7H48.0339L48.7839 158.115H50.3139V157.335H48.9339L49.4589 154.8H48.5439L48.0189 157.335H45.0339L45.5589 154.8H44.6439L44.1189 157.335H42.6939V158.115H43.9689L43.2189 161.7H41.6889V162.465H43.0689L42.5439 165ZM44.1339 161.7L44.8839 158.115H47.8689L47.1189 161.7H44.1339ZM51.1932 157.845H52.3932V165H53.3682V157.845H55.0182V157.065H53.3682V156.375C53.3682 155.325 53.6832 154.86 54.8682 154.86H55.0182V154.155C54.8982 154.11 54.6882 154.08 54.4482 154.08C53.0082 154.08 52.3932 154.785 52.3932 156.375V157.065H51.1932V157.845ZM55.1336 157.845H56.3336V165H57.3086V157.845H58.9586V157.065H57.3086V156.375C57.3086 155.325 57.6236 154.86 58.8086 154.86H58.9586V154.155C58.8386 154.11 58.6286 154.08 58.3886 154.08C56.9486 154.08 56.3336 154.785 56.3336 156.375V157.065H55.1336V157.845ZM59.074 157.845H60.274V165H61.249V157.845H62.899V157.065H61.249V156.375C61.249 155.325 61.564 154.86 62.749 154.86H62.899V154.155C62.779 154.11 62.569 154.08 62.329 154.08C60.889 154.08 60.274 154.785 60.274 156.375V157.065H59.074V157.845ZM63.0145 157.845H64.2145V165H65.1895V157.845H66.8395V157.065H65.1895V156.375C65.1895 155.325 65.5045 154.86 66.6895 154.86H66.8395V154.155C66.7195 154.11 66.5095 154.08 66.2695 154.08C64.8295 154.08 64.2145 154.785 64.2145 156.375V157.065H63.0145V157.845ZM66.9549 157.845H68.1549V165H69.1299V157.845H70.7799V157.065H69.1299V156.375C69.1299 155.325 69.4449 154.86 70.6299 154.86H70.7799V154.155C70.6599 154.11 70.4499 154.08 70.2099 154.08C68.7699 154.08 68.1549 154.785 68.1549 156.375V157.065H66.9549V157.845ZM70.8953 157.845H72.0953V165H73.0703V157.845H74.7203V157.065H73.0703V156.375C73.0703 155.325 73.3853 154.86 74.5703 154.86H74.7203V154.155C74.6003 154.11 74.3903 154.08 74.1503 154.08C72.7103 154.08 72.0953 154.785 72.0953 156.375V157.065H70.8953V157.845Z" fill="black"/>
<path d="M11.155 190H12.13V185.44C12.13 184.03 12.895 182.83 14.515 182.83C14.8 182.83 15.085 182.875 15.295 182.95V182.065C15.145 181.96 14.875 181.9 14.575 181.9C13.54 181.9 12.655 182.44 12.13 183.52V182.065H11.155V190ZM19.232 190.075C20.342 190.075 21.212 189.595 21.752 188.68V190.315C21.752 191.935 20.927 192.67 19.607 192.67C18.317 192.67 17.417 192.025 17.237 190.825H16.262C16.547 192.58 17.792 193.48 19.607 193.48C21.377 193.48 22.727 192.505 22.727 190.285V182.065H21.752V183.25C21.242 182.365 20.402 181.9 19.232 181.9C17.267 181.9 16.052 183.34 16.052 185.995C16.052 188.545 17.237 190.075 19.232 190.075ZM19.397 189.235C17.897 189.235 17.042 188.05 17.042 185.995C17.042 183.895 17.882 182.74 19.397 182.74C20.897 182.74 21.752 183.94 21.752 185.98C21.752 188.08 20.927 189.235 19.397 189.235ZM26.0314 190V188.77C26.5564 189.685 27.3814 190.165 28.4464 190.165C30.4714 190.165 31.7314 188.71 31.7314 186.01C31.7314 183.445 30.5164 181.9 28.4464 181.9C27.3814 181.9 26.5564 182.41 26.0314 183.34V179.2H25.0564V190H26.0314ZM28.3864 182.74C29.8714 182.74 30.7414 183.94 30.7414 186.01C30.7414 188.14 29.9014 189.325 28.3864 189.325C26.8864 189.325 26.0314 188.11 26.0314 186.025C26.0314 183.91 26.8564 182.74 28.3864 182.74ZM33.4611 184.105H34.7211V182.83H33.4611V184.105ZM33.4611 190H34.7211V188.74H33.4611V190ZM39.8631 190H46.4931V189.22H40.8531C41.2431 185.98 46.3431 186.25 46.3431 183.055C46.3431 181.39 45.3081 180.19 43.2831 180.19C41.2581 180.19 40.1031 181.27 39.8481 183.04H40.8531C41.0631 181.795 41.7831 181.03 43.2681 181.03C44.6331 181.03 45.3531 181.795 45.3531 183.07C45.3531 185.845 39.8631 185.365 39.8631 189.7V190ZM55.4507 186.805C55.4507 185.05 54.5657 183.415 52.0007 183.415C50.8907 183.415 50.1557 183.775 49.5707 184.3L49.7657 181.135H55.0307V180.355H48.9857L48.6857 185.305L49.5557 185.395C49.9607 184.81 50.6357 184.255 51.9257 184.255C53.9057 184.255 54.4757 185.59 54.4757 186.805C54.4757 188.38 53.6207 189.325 51.9107 189.325C50.3207 189.325 49.4807 188.56 49.2857 187.345H48.3107C48.5657 189.115 49.7807 190.165 51.9257 190.165C54.2657 190.165 55.4507 188.785 55.4507 186.805ZM64.0933 186.805C64.0933 185.05 63.2083 183.415 60.6433 183.415C59.5333 183.415 58.7983 183.775 58.2133 184.3L58.4083 181.135H63.6733V180.355H57.6283L57.3283 185.305L58.1983 185.395C58.6033 184.81 59.2783 184.255 60.5683 184.255C62.5483 184.255 63.1183 185.59 63.1183 186.805C63.1183 188.38 62.2633 189.325 60.5533 189.325C58.9633 189.325 58.1233 188.56 57.9283 187.345H56.9533C57.2083 189.115 58.4233 190.165 60.5683 190.165C62.9083 190.165 64.0933 188.785 64.0933 186.805ZM65.7609 190H66.3009C66.3009 190.885 66.1509 191.44 65.8509 192.31H66.4059C66.8409 191.455 67.0209 190.69 67.0209 189.415V188.74H65.7609V190ZM72.1629 190H78.7929V189.22H73.1529C73.5429 185.98 78.6429 186.25 78.6429 183.055C78.6429 181.39 77.6079 180.19 75.5829 180.19C73.5579 180.19 72.4029 181.27 72.1479 183.04H73.1529C73.3629 181.795 74.0829 181.03 75.5679 181.03C76.9329 181.03 77.6529 181.795 77.6529 183.07C77.6529 185.845 72.1629 185.365 72.1629 189.7V190ZM87.7505 186.805C87.7505 185.05 86.8655 183.415 84.3005 183.415C83.1905 183.415 82.4555 183.775 81.8705 184.3L82.0655 181.135H87.3305V180.355H81.2855L80.9855 185.305L81.8555 185.395C82.2605 184.81 82.9355 184.255 84.2255 184.255C86.2055 184.255 86.7755 185.59 86.7755 186.805C86.7755 188.38 85.9205 189.325 84.2105 189.325C82.6205 189.325 81.7805 188.56 81.5855 187.345H80.6105C80.8655 189.115 82.0805 190.165 84.2255 190.165C86.5655 190.165 87.7505 188.785 87.7505 186.805ZM96.3931 186.805C96.3931 185.05 95.5081 183.415 92.9431 183.415C91.8331 183.415 91.0981 183.775 90.5131 184.3L90.7081 181.135H95.9731V180.355H89.9281L89.6281 185.305L90.4981 185.395C90.9031 184.81 91.5781 184.255 92.8681 184.255C94.8481 184.255 95.4181 185.59 95.4181 186.805C95.4181 188.38 94.5631 189.325 92.8531 189.325C91.2631 189.325 90.4231 188.56 90.2281 187.345H89.2531C89.5081 189.115 90.7231 190.165 92.8681 190.165C95.2081 190.165 96.3931 188.785 96.3931 186.805ZM98.0607 190H98.6007C98.6007 190.885 98.4507 191.44 98.1507 192.31H98.7057C99.1407 191.455 99.3207 190.69 99.3207 189.415V188.74H98.0607V190ZM104.463 190H111.093V189.22H105.453C105.843 185.98 110.943 186.25 110.943 183.055C110.943 181.39 109.908 180.19 107.883 180.19C105.858 180.19 104.703 181.27 104.448 183.04H105.453C105.663 181.795 106.383 181.03 107.868 181.03C109.233 181.03 109.953 181.795 109.953 183.07C109.953 185.845 104.463 185.365 104.463 189.7V190ZM120.05 186.805C120.05 185.05 119.165 183.415 116.6 183.415C115.49 183.415 114.755 183.775 114.17 184.3L114.365 181.135H119.63V180.355H113.585L113.285 185.305L114.155 185.395C114.56 184.81 115.235 184.255 116.525 184.255C118.505 184.255 119.075 185.59 119.075 186.805C119.075 188.38 118.22 189.325 116.51 189.325C114.92 189.325 114.08 188.56 113.885 187.345H112.91C113.165 189.115 114.38 190.165 116.525 190.165C118.865 190.165 120.05 188.785 120.05 186.805ZM128.693 186.805C128.693 185.05 127.808 183.415 125.243 183.415C124.133 183.415 123.398 183.775 122.813 184.3L123.008 181.135H128.273V180.355H122.228L121.928 185.305L122.798 185.395C123.203 184.81 123.878 184.255 125.168 184.255C127.148 184.255 127.718 185.59 127.718 186.805C127.718 188.38 126.863 189.325 125.153 189.325C123.563 189.325 122.723 188.56 122.528 187.345H121.553C121.808 189.115 123.023 190.165 125.168 190.165C127.508 190.165 128.693 188.785 128.693 186.805Z" fill="black"/>
</svg>
