<svg width="358" height="260" viewBox="0 0 358 260" fill="none" xmlns="http://www.w3.org/2000/svg">
<rect width="80" height="80" rx="40" fill="white"/>
<line x1="103" y1="39.5" x2="173" y2="39.5" stroke="#C6C0C4"/>
<path d="M204.94 33L203.617 19.833H204.814L205.99 31.11L208.384 24.327H209.56L212.059 31.131L213.151 19.833H214.348L213.13 33H211.66L208.993 25.797L206.368 33H204.94ZM217.253 33V19.833H218.555V25.797H224.498V19.833H225.821V33H224.498V26.826H218.555V33H217.253ZM228.482 33V31.971H230.456V20.862H228.482V19.833H233.669V20.862H231.779V31.971H233.711V33H228.482ZM238.718 33V20.862H235.19V19.833H243.611V20.862H240.041V33H238.718ZM245.492 33V19.833H252.506L252.275 20.862H246.794V25.587H251.939V26.574H246.794V31.971H252.38L252.548 33H245.492ZM203.827 61.239L203.008 60.861L209.497 44.649L210.316 45.048L203.827 61.239ZM220.6 59.055L221.041 55.401H219.319V54.33H221.167L221.608 50.487H219.676V49.437H221.713L222.112 46.014H223.183L222.805 49.437H225.01L225.409 46.014H226.459L226.081 49.437H227.782V50.487H225.955L225.535 54.33H227.425V55.401H225.409L224.989 59.055H223.897L224.317 55.401H222.112L221.692 59.055H220.6ZM222.196 54.33H224.485L224.926 50.487H222.637L222.196 54.33ZM230.644 60V46.833H237.469L237.28 47.862H231.946V52.86H236.629V53.826H231.946V60H230.644ZM239.381 60V46.833H246.206L246.017 47.862H240.683V52.86H245.366V53.826H240.683V60H239.381ZM248.117 60V46.833H254.942L254.753 47.862H249.419V52.86H254.102V53.826H249.419V60H248.117ZM256.853 60V46.833H263.678L263.489 47.862H258.155V52.86H262.838V53.826H258.155V60H256.853ZM265.59 60V46.833H272.415L272.226 47.862H266.892V52.86H271.575V53.826H266.892V60H265.59ZM274.326 60V46.833H281.151L280.962 47.862H275.628V52.86H280.311V53.826H275.628V60H274.326Z" fill="#C6C0C4"/>
<rect y="90" width="80" height="80" rx="40" fill="#F3F3F3"/>
<line x1="103" y1="129.5" x2="173" y2="129.5" stroke="#C6C0C4"/>
<path d="M202.546 123L206.662 109.833H208.615L212.521 123H211.198L210.211 119.64H205.003L203.974 123H202.546ZM205.318 118.695H209.875L207.649 110.967L205.318 118.695ZM214.628 123V109.833H216.014L222.608 120.753V109.833H223.805V123H222.503L215.867 111.912V123H214.628ZM229.223 123V110.862H225.695V109.833H234.116V110.862H230.546V123H229.223ZM235.598 123V121.971H237.572V110.862H235.598V109.833H240.785V110.862H238.895V121.971H240.827V123H235.598ZM243.125 118.401V117.204H248.438V118.401H243.125ZM251.173 123V109.833H257.998L257.809 110.862H252.475V115.86H257.158V116.826H252.475V123H251.173ZM259.909 123V109.833H261.211V121.971H266.251L266.44 123H259.909ZM267.392 123L271.508 109.833H273.461L277.367 123H276.044L275.057 119.64H269.849L268.82 123H267.392ZM270.164 118.695H274.721L272.495 110.967L270.164 118.695ZM282.77 123.105C281.23 123.105 279.977 122.839 279.011 122.307L279.305 121.236C279.865 121.474 280.397 121.663 280.901 121.803C281.419 121.943 282.042 122.013 282.77 122.013C283.652 122.013 284.338 121.796 284.828 121.362C285.332 120.928 285.584 120.263 285.584 119.367C285.584 118.849 285.493 118.443 285.311 118.149C285.129 117.841 284.87 117.596 284.534 117.414C284.198 117.232 283.708 117.036 283.064 116.826L281.804 116.406C280.88 116.084 280.18 115.671 279.704 115.167C279.242 114.649 279.011 113.949 279.011 113.067C279.011 111.891 279.382 111.03 280.124 110.484C280.866 109.938 281.839 109.665 283.043 109.665C284.387 109.665 285.563 109.875 286.571 110.295L286.34 111.345C285.85 111.163 285.353 111.023 284.849 110.925C284.359 110.813 283.813 110.757 283.211 110.757C281.293 110.757 280.334 111.513 280.334 113.025C280.334 113.599 280.46 114.04 280.712 114.348C280.964 114.642 281.468 114.922 282.224 115.188L283.379 115.608C284.247 115.916 284.884 116.175 285.29 116.385C285.71 116.595 286.081 116.938 286.403 117.414C286.725 117.89 286.886 118.548 286.886 119.388C286.886 120.578 286.515 121.495 285.773 122.139C285.031 122.783 284.03 123.105 282.77 123.105ZM289.174 123V109.833H290.476V115.797H296.419V109.833H297.742V123H296.419V116.826H290.476V123H289.174ZM309.12 123L307.797 109.833H308.994L310.17 121.11L312.564 114.327H313.74L316.239 121.131L317.331 109.833H318.528L317.31 123H315.84L313.173 115.797L310.548 123H309.12ZM321.432 123V109.833H322.734V115.797H328.677V109.833H330V123H328.677V116.826H322.734V123H321.432ZM332.661 123V121.971H334.635V110.862H332.661V109.833H337.848V110.862H335.958V121.971H337.89V123H332.661ZM342.898 123V110.862H339.37V109.833H347.791V110.862H344.221V123H342.898ZM349.672 123V109.833H356.686L356.455 110.862H350.974V115.587H356.119V116.574H350.974V121.971H356.56L356.728 123H349.672ZM203.827 151.239L203.008 150.861L209.497 134.649L210.316 135.048L203.827 151.239ZM220.6 149.055L221.041 145.401H219.319V144.33H221.167L221.608 140.487H219.676V139.437H221.713L222.112 136.014H223.183L222.805 139.437H225.01L225.409 136.014H226.459L226.081 139.437H227.782V140.487H225.955L225.535 144.33H227.425V145.401H225.409L224.989 149.055H223.897L224.317 145.401H222.112L221.692 149.055H220.6ZM222.196 144.33H224.485L224.926 140.487H222.637L222.196 144.33ZM230.644 150V136.833H237.469L237.28 137.862H231.946V142.86H236.629V143.826H231.946V150H230.644ZM242.363 150.105C241.145 150.105 240.088 149.93 239.192 149.58L239.486 148.509C239.92 148.677 240.403 148.803 240.935 148.887C241.467 148.971 241.964 149.013 242.426 149.013C243.392 149.013 244.162 148.81 244.736 148.404C245.31 147.998 245.597 147.298 245.597 146.304C245.597 145.422 245.296 144.75 244.694 144.288C244.106 143.812 243.399 143.574 242.573 143.574C241.971 143.574 241.369 143.637 240.767 143.763L240.683 142.713C242.167 142.517 243.266 142.23 243.98 141.852C244.708 141.46 245.072 140.823 245.072 139.941C245.072 139.241 244.841 138.702 244.379 138.324C243.931 137.946 243.301 137.757 242.489 137.757C241.495 137.757 240.494 137.925 239.486 138.261L239.192 137.232C240.368 136.854 241.453 136.665 242.447 136.665C243.623 136.665 244.547 136.938 245.219 137.484C245.905 138.016 246.248 138.793 246.248 139.815C246.248 140.669 246.031 141.334 245.597 141.81C245.177 142.286 244.54 142.657 243.686 142.923C244.218 142.965 244.722 143.154 245.198 143.49C245.674 143.812 246.052 144.232 246.332 144.75C246.626 145.268 246.773 145.828 246.773 146.43C246.773 147.704 246.353 148.635 245.513 149.223C244.687 149.811 243.637 150.105 242.363 150.105ZM249.655 150V136.833H256.48L256.291 137.862H250.957V142.86H255.64V143.826H250.957V150H249.655ZM261.373 150.105C260.155 150.105 259.098 149.93 258.202 149.58L258.496 148.509C258.93 148.677 259.413 148.803 259.945 148.887C260.477 148.971 260.974 149.013 261.436 149.013C262.402 149.013 263.172 148.81 263.746 148.404C264.32 147.998 264.607 147.298 264.607 146.304C264.607 145.422 264.306 144.75 263.704 144.288C263.116 143.812 262.409 143.574 261.583 143.574C260.981 143.574 260.379 143.637 259.777 143.763L259.693 142.713C261.177 142.517 262.276 142.23 262.99 141.852C263.718 141.46 264.082 140.823 264.082 139.941C264.082 139.241 263.851 138.702 263.389 138.324C262.941 137.946 262.311 137.757 261.499 137.757C260.505 137.757 259.504 137.925 258.496 138.261L258.202 137.232C259.378 136.854 260.463 136.665 261.457 136.665C262.633 136.665 263.557 136.938 264.229 137.484C264.915 138.016 265.258 138.793 265.258 139.815C265.258 140.669 265.041 141.334 264.607 141.81C264.187 142.286 263.55 142.657 262.696 142.923C263.228 142.965 263.732 143.154 264.208 143.49C264.684 143.812 265.062 144.232 265.342 144.75C265.636 145.268 265.783 145.828 265.783 146.43C265.783 147.704 265.363 148.635 264.523 149.223C263.697 149.811 262.647 150.105 261.373 150.105ZM268.666 150V136.833H275.491L275.302 137.862H269.968V142.86H274.651V143.826H269.968V150H268.666ZM280.384 150.105C279.166 150.105 278.109 149.93 277.213 149.58L277.507 148.509C277.941 148.677 278.424 148.803 278.956 148.887C279.488 148.971 279.985 149.013 280.447 149.013C281.413 149.013 282.183 148.81 282.757 148.404C283.331 147.998 283.618 147.298 283.618 146.304C283.618 145.422 283.317 144.75 282.715 144.288C282.127 143.812 281.42 143.574 280.594 143.574C279.992 143.574 279.39 143.637 278.788 143.763L278.704 142.713C280.188 142.517 281.287 142.23 282.001 141.852C282.729 141.46 283.093 140.823 283.093 139.941C283.093 139.241 282.862 138.702 282.4 138.324C281.952 137.946 281.322 137.757 280.51 137.757C279.516 137.757 278.515 137.925 277.507 138.261L277.213 137.232C278.389 136.854 279.474 136.665 280.468 136.665C281.644 136.665 282.568 136.938 283.24 137.484C283.926 138.016 284.269 138.793 284.269 139.815C284.269 140.669 284.052 141.334 283.618 141.81C283.198 142.286 282.561 142.657 281.707 142.923C282.239 142.965 282.743 143.154 283.219 143.49C283.695 143.812 284.073 144.232 284.353 144.75C284.647 145.268 284.794 145.828 284.794 146.43C284.794 147.704 284.374 148.635 283.534 149.223C282.708 149.811 281.658 150.105 280.384 150.105Z" fill="#C6C0C4"/>
<rect y="180" width="80" height="80" rx="40" fill="black"/>
<line x1="103" y1="219.5" x2="173" y2="219.5" stroke="#C6C0C4"/>
<path d="M203.533 199.833H206.809C207.873 199.833 208.72 199.924 209.35 200.106C209.994 200.288 210.47 200.61 210.778 201.072C211.1 201.534 211.261 202.192 211.261 203.046C211.261 203.886 211.107 204.537 210.799 204.999C210.505 205.461 209.994 205.783 209.266 205.965C210.036 206.147 210.638 206.504 211.072 207.036C211.506 207.554 211.723 208.254 211.723 209.136C211.723 210.172 211.541 210.97 211.177 211.53C210.813 212.09 210.274 212.475 209.56 212.685C208.86 212.895 207.936 213 206.788 213H203.533V199.833ZM207.229 205.587C208.237 205.587 208.965 205.405 209.413 205.041C209.875 204.663 210.106 203.998 210.106 203.046C210.106 202.234 209.868 201.667 209.392 201.345C208.93 201.023 208.153 200.862 207.061 200.862H204.835V205.587H207.229ZM206.851 211.971C207.677 211.971 208.342 211.901 208.846 211.761C209.35 211.621 209.735 211.348 210.001 210.942C210.281 210.536 210.421 209.941 210.421 209.157C210.421 208.247 210.155 207.589 209.623 207.183C209.091 206.763 208.3 206.553 207.25 206.553H204.835V211.971H206.851ZM214.197 213V199.833H215.499V211.971H220.539L220.728 213H214.197ZM221.68 213L225.796 199.833H227.749L231.655 213H230.332L229.345 209.64H224.137L223.108 213H221.68ZM224.452 208.695H229.009L226.783 200.967L224.452 208.695ZM238.361 213.105C237.409 213.105 236.562 212.867 235.82 212.391C235.092 211.901 234.511 211.159 234.077 210.165C233.657 209.171 233.447 207.925 233.447 206.427C233.447 204.033 233.832 202.311 234.602 201.261C235.386 200.197 236.597 199.665 238.235 199.665C239.313 199.665 240.377 199.917 241.427 200.421V202.92H240.293V201.135C239.719 200.883 239.075 200.757 238.361 200.757C237.535 200.757 236.863 200.918 236.345 201.24C235.827 201.548 235.428 202.115 235.148 202.941C234.882 203.767 234.749 204.936 234.749 206.448C234.749 208.338 235.085 209.738 235.757 210.648C236.429 211.558 237.325 212.013 238.445 212.013C239.397 212.013 240.342 211.789 241.28 211.341L241.7 212.349C240.636 212.853 239.523 213.105 238.361 213.105ZM244.159 213V199.833H245.461V206.763L247.057 205.02L251.089 199.833H252.622L248.275 205.608L252.895 213H251.446L247.267 206.322L245.461 208.086V213H244.159ZM203.827 241.239L203.008 240.861L209.497 224.649L210.316 225.048L203.827 241.239ZM220.6 239.055L221.041 235.401H219.319V234.33H221.167L221.608 230.487H219.676V229.437H221.713L222.112 226.014H223.183L222.805 229.437H225.01L225.409 226.014H226.459L226.081 229.437H227.782V230.487H225.955L225.535 234.33H227.425V235.401H225.409L224.989 239.055H223.897L224.317 235.401H222.112L221.692 239.055H220.6ZM222.196 234.33H224.485L224.926 230.487H222.637L222.196 234.33ZM234.319 240.105C233.255 240.105 232.443 239.811 231.883 239.223C231.323 238.635 230.945 237.865 230.749 236.913C230.567 235.947 230.476 234.771 230.476 233.385C230.476 231.929 230.574 230.718 230.77 229.752C230.98 228.786 231.365 228.03 231.925 227.484C232.485 226.938 233.283 226.665 234.319 226.665C235.355 226.665 236.153 226.959 236.713 227.547C237.273 228.121 237.644 228.891 237.826 229.857C238.022 230.809 238.12 231.985 238.12 233.385C238.12 234.771 238.022 235.947 237.826 236.913C237.63 237.879 237.252 238.656 236.692 239.244C236.146 239.818 235.355 240.105 234.319 240.105ZM234.319 239.013C235.131 239.013 235.726 238.74 236.104 238.194C236.482 237.648 236.713 237.004 236.797 236.262C236.895 235.506 236.944 234.547 236.944 233.385C236.944 232.083 236.881 231.04 236.755 230.256C236.643 229.472 236.391 228.863 235.999 228.429C235.621 227.981 235.061 227.757 234.319 227.757C233.535 227.757 232.947 228.002 232.555 228.492C232.177 228.982 231.932 229.612 231.82 230.382C231.722 231.152 231.673 232.153 231.673 233.385C231.673 234.687 231.729 235.73 231.841 236.514C231.967 237.298 232.219 237.914 232.597 238.362C232.989 238.796 233.563 239.013 234.319 239.013ZM244.696 240.105C243.632 240.105 242.82 239.811 242.26 239.223C241.7 238.635 241.322 237.865 241.126 236.913C240.944 235.947 240.853 234.771 240.853 233.385C240.853 231.929 240.951 230.718 241.147 229.752C241.357 228.786 241.742 228.03 242.302 227.484C242.862 226.938 243.66 226.665 244.696 226.665C245.732 226.665 246.53 226.959 247.09 227.547C247.65 228.121 248.021 228.891 248.203 229.857C248.399 230.809 248.497 231.985 248.497 233.385C248.497 234.771 248.399 235.947 248.203 236.913C248.007 237.879 247.629 238.656 247.069 239.244C246.523 239.818 245.732 240.105 244.696 240.105ZM244.696 239.013C245.508 239.013 246.103 238.74 246.481 238.194C246.859 237.648 247.09 237.004 247.174 236.262C247.272 235.506 247.321 234.547 247.321 233.385C247.321 232.083 247.258 231.04 247.132 230.256C247.02 229.472 246.768 228.863 246.376 228.429C245.998 227.981 245.438 227.757 244.696 227.757C243.912 227.757 243.324 228.002 242.932 228.492C242.554 228.982 242.309 229.612 242.197 230.382C242.099 231.152 242.05 232.153 242.05 233.385C242.05 234.687 242.106 235.73 242.218 236.514C242.344 237.298 242.596 237.914 242.974 238.362C243.366 238.796 243.94 239.013 244.696 239.013ZM255.073 240.105C254.009 240.105 253.197 239.811 252.637 239.223C252.077 238.635 251.699 237.865 251.503 236.913C251.321 235.947 251.23 234.771 251.23 233.385C251.23 231.929 251.328 230.718 251.524 229.752C251.734 228.786 252.119 228.03 252.679 227.484C253.239 226.938 254.037 226.665 255.073 226.665C256.109 226.665 256.907 226.959 257.467 227.547C258.027 228.121 258.398 228.891 258.58 229.857C258.776 230.809 258.874 231.985 258.874 233.385C258.874 234.771 258.776 235.947 258.58 236.913C258.384 237.879 258.006 238.656 257.446 239.244C256.9 239.818 256.109 240.105 255.073 240.105ZM255.073 239.013C255.885 239.013 256.48 238.74 256.858 238.194C257.236 237.648 257.467 237.004 257.551 236.262C257.649 235.506 257.698 234.547 257.698 233.385C257.698 232.083 257.635 231.04 257.509 230.256C257.397 229.472 257.145 228.863 256.753 228.429C256.375 227.981 255.815 227.757 255.073 227.757C254.289 227.757 253.701 228.002 253.309 228.492C252.931 228.982 252.686 229.612 252.574 230.382C252.476 231.152 252.427 232.153 252.427 233.385C252.427 234.687 252.483 235.73 252.595 236.514C252.721 237.298 252.973 237.914 253.351 238.362C253.743 238.796 254.317 239.013 255.073 239.013ZM265.45 240.105C264.386 240.105 263.574 239.811 263.014 239.223C262.454 238.635 262.076 237.865 261.88 236.913C261.698 235.947 261.607 234.771 261.607 233.385C261.607 231.929 261.705 230.718 261.901 229.752C262.111 228.786 262.496 228.03 263.056 227.484C263.616 226.938 264.414 226.665 265.45 226.665C266.486 226.665 267.284 226.959 267.844 227.547C268.404 228.121 268.775 228.891 268.957 229.857C269.153 230.809 269.251 231.985 269.251 233.385C269.251 234.771 269.153 235.947 268.957 236.913C268.761 237.879 268.383 238.656 267.823 239.244C267.277 239.818 266.486 240.105 265.45 240.105ZM265.45 239.013C266.262 239.013 266.857 238.74 267.235 238.194C267.613 237.648 267.844 237.004 267.928 236.262C268.026 235.506 268.075 234.547 268.075 233.385C268.075 232.083 268.012 231.04 267.886 230.256C267.774 229.472 267.522 228.863 267.13 228.429C266.752 227.981 266.192 227.757 265.45 227.757C264.666 227.757 264.078 228.002 263.686 228.492C263.308 228.982 263.063 229.612 262.951 230.382C262.853 231.152 262.804 232.153 262.804 233.385C262.804 234.687 262.86 235.73 262.972 236.514C263.098 237.298 263.35 237.914 263.728 238.362C264.12 238.796 264.694 239.013 265.45 239.013ZM275.827 240.105C274.763 240.105 273.951 239.811 273.391 239.223C272.831 238.635 272.453 237.865 272.257 236.913C272.075 235.947 271.984 234.771 271.984 233.385C271.984 231.929 272.082 230.718 272.278 229.752C272.488 228.786 272.873 228.03 273.433 227.484C273.993 226.938 274.791 226.665 275.827 226.665C276.863 226.665 277.661 226.959 278.221 227.547C278.781 228.121 279.152 228.891 279.334 229.857C279.53 230.809 279.628 231.985 279.628 233.385C279.628 234.771 279.53 235.947 279.334 236.913C279.138 237.879 278.76 238.656 278.2 239.244C277.654 239.818 276.863 240.105 275.827 240.105ZM275.827 239.013C276.639 239.013 277.234 238.74 277.612 238.194C277.99 237.648 278.221 237.004 278.305 236.262C278.403 235.506 278.452 234.547 278.452 233.385C278.452 232.083 278.389 231.04 278.263 230.256C278.151 229.472 277.899 228.863 277.507 228.429C277.129 227.981 276.569 227.757 275.827 227.757C275.043 227.757 274.455 228.002 274.063 228.492C273.685 228.982 273.44 229.612 273.328 230.382C273.23 231.152 273.181 232.153 273.181 233.385C273.181 234.687 273.237 235.73 273.349 236.514C273.475 237.298 273.727 237.914 274.105 238.362C274.497 238.796 275.071 239.013 275.827 239.013ZM286.204 240.105C285.14 240.105 284.328 239.811 283.768 239.223C283.208 238.635 282.83 237.865 282.634 236.913C282.452 235.947 282.361 234.771 282.361 233.385C282.361 231.929 282.459 230.718 282.655 229.752C282.865 228.786 283.25 228.03 283.81 227.484C284.37 226.938 285.168 226.665 286.204 226.665C287.24 226.665 288.038 226.959 288.598 227.547C289.158 228.121 289.529 228.891 289.711 229.857C289.907 230.809 290.005 231.985 290.005 233.385C290.005 234.771 289.907 235.947 289.711 236.913C289.515 237.879 289.137 238.656 288.577 239.244C288.031 239.818 287.24 240.105 286.204 240.105ZM286.204 239.013C287.016 239.013 287.611 238.74 287.989 238.194C288.367 237.648 288.598 237.004 288.682 236.262C288.78 235.506 288.829 234.547 288.829 233.385C288.829 232.083 288.766 231.04 288.64 230.256C288.528 229.472 288.276 228.863 287.884 228.429C287.506 227.981 286.946 227.757 286.204 227.757C285.42 227.757 284.832 228.002 284.44 228.492C284.062 228.982 283.817 229.612 283.705 230.382C283.607 231.152 283.558 232.153 283.558 233.385C283.558 234.687 283.614 235.73 283.726 236.514C283.852 237.298 284.104 237.914 284.482 238.362C284.874 238.796 285.448 239.013 286.204 239.013Z" fill="#C6C0C4"/>
</svg>
