<svg width="16" height="22" viewBox="0 0 16 22" fill="none" xmlns="http://www.w3.org/2000/svg">
<path d="M13.494 7.8125C14.167 7.32443 14.6682 6.63587 14.9259 5.84546C15.1836 5.05506 15.1845 4.20337 14.9285 3.41243C14.6725 2.62148 14.1727 1.93187 13.5007 1.44238C12.8287 0.952884 12.0191 0.68864 11.1877 0.6875H4.81275C3.9814 0.68864 3.17175 0.952884 2.49978 1.44238C1.82782 1.93187 1.32802 2.62148 1.07201 3.41243C0.815989 4.20337 0.816887 5.05506 1.07457 5.84546C1.33226 6.63587 1.8335 7.32443 2.5065 7.8125C2.00124 8.17639 1.58972 8.65518 1.30588 9.20939C1.02205 9.7636 0.874023 10.3773 0.874023 11C0.874023 11.6227 1.02205 12.2364 1.30588 12.7906C1.58972 13.3448 2.00124 13.8236 2.5065 14.1875C1.95997 14.5824 1.52402 15.1111 1.24043 15.7229C0.956834 16.3346 0.835096 17.009 0.886878 17.6813C0.938661 18.3536 1.16223 19.0013 1.53616 19.5625C1.91009 20.1236 2.42186 20.5793 3.02242 20.8859C3.62298 21.1924 4.29222 21.3397 4.96601 21.3134C5.63979 21.2872 6.29555 21.0883 6.87044 20.736C7.44534 20.3836 7.92011 19.8895 8.24926 19.301C8.57841 18.7125 8.75092 18.0493 8.75025 17.375V14.0844C9.15895 14.4292 9.63361 14.6872 10.1453 14.8426C10.657 14.998 11.1949 15.0475 11.7264 14.9882C12.2578 14.9288 12.7716 14.7619 13.2364 14.4975C13.7012 14.233 14.1073 13.8767 14.4298 13.4502C14.7524 13.0237 14.9847 12.536 15.1126 12.0168C15.2406 11.4976 15.2614 10.9577 15.1738 10.4302C15.0862 9.90268 14.8921 9.39851 14.6033 8.94846C14.3145 8.49841 13.9371 8.1119 13.494 7.8125ZM13.6252 4.625C13.6228 5.27071 13.3652 5.88926 12.9086 6.34584C12.452 6.80243 11.8335 7.06003 11.1877 7.0625H8.75025V2.1875H11.1877C11.8335 2.18997 12.452 2.44757 12.9086 2.90416C13.3652 3.36074 13.6228 3.9793 13.6252 4.625ZM2.37525 4.625C2.37772 3.9793 2.63532 3.36074 3.0919 2.90416C3.54849 2.44757 4.16704 2.18997 4.81275 2.1875H7.25025V7.0625H4.81275C4.16704 7.06003 3.54849 6.80243 3.0919 6.34584C2.63532 5.88926 2.37772 5.27071 2.37525 4.625ZM2.37525 11C2.37772 10.3543 2.63532 9.73574 3.0919 9.27916C3.54849 8.82257 4.16704 8.56497 4.81275 8.5625H7.25025V13.4375H4.81275C4.16704 13.435 3.54849 13.1774 3.0919 12.7208C2.63532 12.2643 2.37772 11.6457 2.37525 11ZM4.81275 19.8125C4.16628 19.8125 3.5463 19.5557 3.08918 19.0986C2.63206 18.6415 2.37525 18.0215 2.37525 17.375C2.37525 16.7285 2.63206 16.1085 3.08918 15.6514C3.5463 15.1943 4.16628 14.9375 4.81275 14.9375H7.25025V17.375C7.24778 18.0207 6.99018 18.6393 6.53359 19.0958C6.07701 19.5524 5.45845 19.81 4.81275 19.8125ZM11.1877 13.4375C10.5413 13.4375 9.9213 13.1807 9.46417 12.7236C9.00706 12.2665 8.75025 11.6465 8.75025 11C8.75025 10.3535 9.00706 9.73355 9.46417 9.27643C9.9213 8.81931 10.5413 8.5625 11.1877 8.5625C11.8342 8.5625 12.4542 8.81931 12.9113 9.27643C13.3684 9.73355 13.6252 10.3535 13.6252 11C13.6252 11.6465 13.3684 12.2665 12.9113 12.7236C12.4542 13.1807 11.8342 13.4375 11.1877 13.4375Z" fill="white"/>
</svg>
