<svg width="159" height="20" viewBox="0 0 159 20" fill="none" xmlns="http://www.w3.org/2000/svg">
<path d="M0.584 1.12H4.184L10.016 8.872L15.704 1.12H19.304V19H15.584V7.48L10.184 14.44H9.704L4.304 7.216V19H0.584V1.12ZM22.4746 1.12H34.4986V4.36H26.1946V8.416H34.0186V11.656H26.1946V15.76H34.4986V19H22.4746V1.12ZM39.8234 4.36H35.2874V1.12H48.0074V4.36H43.5434V19H39.8234V4.36ZM53.3823 1.12H58.3263L64.3743 19H60.3183L59.1183 15.352H52.5663L51.3663 19H47.3343L53.3823 1.12ZM58.0863 12.112L55.8543 5.224L53.5983 12.112H58.0863ZM63.9515 1.12H68.0315L72.2315 14.2L76.4315 1.12H80.5115L74.3915 19H70.0715L63.9515 1.12ZM82.3574 1.12H94.3814V4.36H86.0774V8.416H93.9014V11.656H86.0774V15.76H94.3814V19H82.3574V1.12ZM96.4902 1.12H103.33C105.234 1.12 106.762 1.616 107.914 2.608C109.082 3.6 109.666 5.008 109.666 6.832C109.666 8.032 109.394 9.064 108.85 9.928C108.306 10.776 107.546 11.424 106.57 11.872L110.65 19H106.474L102.85 12.52H100.21V19H96.4902V1.12ZM103.354 9.28C104.138 9.28 104.762 9.056 105.226 8.608C105.706 8.16 105.946 7.568 105.946 6.832C105.946 6.096 105.706 5.504 105.226 5.056C104.762 4.592 104.138 4.36 103.354 4.36H100.21V9.28H103.354ZM119.002 19.288C117.498 19.288 116.218 19.008 115.162 18.448C114.106 17.888 113.298 17.192 112.738 16.36C112.178 15.512 111.834 14.656 111.706 13.792L115.234 12.904C115.65 14.84 116.93 15.808 119.074 15.808C119.826 15.808 120.418 15.64 120.85 15.304C121.298 14.968 121.522 14.528 121.522 13.984C121.522 13.52 121.354 13.128 121.018 12.808C120.698 12.488 120.25 12.272 119.674 12.16L117.178 11.704C115.674 11.432 114.49 10.816 113.626 9.856C112.778 8.896 112.354 7.688 112.354 6.232C112.354 5.256 112.642 4.352 113.218 3.52C113.81 2.688 114.578 2.032 115.522 1.552C116.482 1.072 117.49 0.831999 118.546 0.831999C119.97 0.831999 121.154 1.072 122.098 1.552C123.058 2.016 123.786 2.6 124.282 3.304C124.778 3.992 125.098 4.704 125.242 5.44L121.738 6.496C121.402 5.664 121.002 5.096 120.538 4.792C120.074 4.472 119.41 4.312 118.546 4.312C118.098 4.312 117.698 4.408 117.346 4.6C117.01 4.776 116.746 5.008 116.554 5.296C116.362 5.568 116.266 5.848 116.266 6.136C116.266 6.6 116.41 6.984 116.698 7.288C116.986 7.592 117.41 7.8 117.97 7.912L120.442 8.416C122.058 8.752 123.306 9.4 124.186 10.36C125.066 11.32 125.506 12.464 125.506 13.792C125.506 14.704 125.242 15.584 124.714 16.432C124.202 17.28 123.45 17.968 122.458 18.496C121.482 19.024 120.33 19.288 119.002 19.288ZM135.141 19.288C133.749 19.288 132.493 18.992 131.373 18.4C130.269 17.808 129.397 16.992 128.757 15.952C128.133 14.912 127.821 13.744 127.821 12.448V1.12H131.541V12.208C131.541 13.28 131.877 14.168 132.549 14.872C133.237 15.576 134.101 15.928 135.141 15.928C136.181 15.928 137.037 15.576 137.709 14.872C138.397 14.168 138.741 13.28 138.741 12.208V1.12H142.461V12.448C142.461 13.744 142.141 14.912 141.501 15.952C140.877 16.992 140.005 17.808 138.885 18.4C137.781 18.992 136.533 19.288 135.141 19.288ZM151.908 19.288C150.404 19.288 149.124 19.008 148.068 18.448C147.012 17.888 146.204 17.192 145.644 16.36C145.084 15.512 144.74 14.656 144.612 13.792L148.14 12.904C148.556 14.84 149.836 15.808 151.98 15.808C152.732 15.808 153.324 15.64 153.756 15.304C154.204 14.968 154.428 14.528 154.428 13.984C154.428 13.52 154.26 13.128 153.924 12.808C153.604 12.488 153.156 12.272 152.58 12.16L150.084 11.704C148.58 11.432 147.396 10.816 146.532 9.856C145.684 8.896 145.26 7.688 145.26 6.232C145.26 5.256 145.548 4.352 146.124 3.52C146.716 2.688 147.484 2.032 148.428 1.552C149.388 1.072 150.396 0.831999 151.452 0.831999C152.876 0.831999 154.06 1.072 155.004 1.552C155.964 2.016 156.692 2.6 157.188 3.304C157.684 3.992 158.004 4.704 158.148 5.44L154.644 6.496C154.308 5.664 153.908 5.096 153.444 4.792C152.98 4.472 152.316 4.312 151.452 4.312C151.004 4.312 150.604 4.408 150.252 4.6C149.916 4.776 149.652 5.008 149.46 5.296C149.268 5.568 149.172 5.848 149.172 6.136C149.172 6.6 149.316 6.984 149.604 7.288C149.892 7.592 150.316 7.8 150.876 7.912L153.348 8.416C154.964 8.752 156.212 9.4 157.092 10.36C157.972 11.32 158.412 12.464 158.412 13.792C158.412 14.704 158.148 15.584 157.62 16.432C157.108 17.28 156.356 17.968 155.364 18.496C154.388 19.024 153.236 19.288 151.908 19.288Z" fill="white"/>
</svg>
