<svg width="1440" height="399" viewBox="0 0 1440 399" fill="none" xmlns="http://www.w3.org/2000/svg">
<path d="M16.4766 320.095V65.0195H127.316C146.788 65.0195 163.14 67.6349 176.37 72.866C189.685 78.097 199.713 85.487 206.452 95.0356C213.276 104.584 216.688 115.835 216.688 128.788C216.688 138.171 214.607 146.723 210.447 154.445C206.37 162.167 200.628 168.644 193.221 173.875C185.816 179.023 177.162 182.593 167.259 184.586V187.078C178.242 187.492 188.228 190.274 197.216 195.421C206.203 200.487 213.358 207.502 218.685 216.471C224.01 225.355 226.673 235.817 226.673 247.857C226.673 261.806 223.012 274.219 215.69 285.096C208.45 295.974 198.132 304.527 184.734 310.754C171.336 316.981 155.359 320.095 136.803 320.095H16.4766ZM85.8764 264.795H118.329C129.979 264.795 138.717 262.637 144.542 258.319C150.366 253.918 153.279 247.442 153.279 238.889C153.279 232.911 151.906 227.846 149.16 223.694C146.414 219.542 142.503 216.387 137.427 214.229C132.434 212.069 126.401 210.991 119.328 210.991H85.8764V264.795ZM85.8764 168.145H114.335C120.41 168.145 125.777 167.19 130.437 165.281C135.097 163.371 138.717 160.631 141.296 157.061C143.959 153.408 145.291 148.965 145.291 143.734C145.291 135.846 142.461 129.826 136.803 125.675C131.144 121.44 123.988 119.323 115.334 119.323H85.8764V168.145ZM244.986 320.095V65.0195H355.327C374.299 65.0195 390.901 68.4653 405.129 75.357C419.36 82.2487 430.426 92.171 438.332 105.124C446.236 118.077 450.19 133.604 450.19 151.705C450.19 169.972 446.112 185.375 437.957 197.912C429.886 210.45 418.527 219.916 403.882 226.31C389.319 232.703 372.302 235.9 352.83 235.9H286.925V182.095H338.851C347.005 182.095 353.954 181.098 359.695 179.106C365.521 177.029 369.972 173.75 373.052 169.266C376.212 164.783 377.794 158.929 377.794 151.705C377.794 144.398 376.212 138.462 373.052 133.895C369.972 129.245 365.521 125.841 359.695 123.682C353.954 121.44 347.005 120.319 338.851 120.319H314.385V320.095H244.986ZM394.77 203.02L458.677 320.095H383.286L320.877 203.02H394.77ZM539.899 320.095H465.008L549.386 65.0195H644.249L728.626 320.095H653.735L597.816 135.265H595.818L539.899 320.095ZM525.92 219.46H666.716V271.272H525.92V219.46ZM968.151 65.0195V320.095H910.234L817.869 186.08H816.371V320.095H746.971V65.0195H805.886L896.754 198.535H898.751V65.0195H968.151ZM1093.06 320.095H994.703V65.0195H1092.06C1118.36 65.0195 1141.07 70.126 1160.21 80.339C1179.44 90.4689 1194.25 105.083 1204.65 124.18C1215.13 143.195 1220.38 165.987 1220.38 192.558C1220.38 219.127 1215.18 241.962 1204.77 261.059C1194.37 280.073 1179.64 294.686 1160.59 304.899C1141.53 315.03 1119.02 320.095 1093.06 320.095ZM1064.1 261.308H1090.56C1103.21 261.308 1113.99 259.274 1122.89 255.205C1131.88 251.136 1138.7 244.12 1143.36 234.156C1148.11 224.193 1150.48 210.326 1150.48 192.558C1150.48 174.789 1148.06 160.922 1143.24 150.958C1138.49 140.994 1131.51 133.978 1122.27 129.909C1113.11 125.841 1101.88 123.806 1088.57 123.806H1064.1V261.308Z" fill="black" fill-opacity="0.1"/>
<path d="M1243.56 40.2712V21.6719H1317.62V40.2712H1291.99V106.697H1269.19V40.2712H1243.56ZM1324.23 21.6719H1353.02L1372.83 69.8306H1373.83L1393.63 21.6719H1422.42V106.697H1399.79V57.5418H1399.12L1380.15 106.033H1366.5L1347.53 57.2098H1346.87V106.697H1324.23V21.6719Z" fill="black" fill-opacity="0.1"/>
</svg>
