<svg width="256" height="256" viewBox="0 0 256 256" fill="none" xmlns="http://www.w3.org/2000/svg">
<path d="M189.803 111.351C188.979 112.57 188.491 113.986 188.389 115.455C188.286 116.923 188.572 118.393 189.218 119.716C191.291 124.561 192.749 129.648 193.56 134.856C195.71 148.325 193.7 162.13 187.799 174.422C187.082 175.77 186.011 176.896 184.701 177.678C183.39 178.46 181.892 178.867 180.367 178.856H74.7365C73.2032 178.859 71.6986 178.439 70.3877 177.642C69.0768 176.845 68.0102 175.702 67.3048 174.339C61.9597 163.476 59.6572 151.364 60.6429 139.294C61.6285 127.224 65.8654 115.648 72.9018 105.801C79.9382 95.953 89.5104 88.2027 100.598 83.376C111.685 78.5493 123.873 76.8271 135.86 78.3931C141.926 79.1072 147.858 80.6846 153.479 83.0774C154.799 83.7246 156.267 84.0113 157.733 83.9085C159.199 83.8057 160.612 83.317 161.829 82.4919C163.098 81.6549 164.114 80.4873 164.769 79.1148C165.424 77.7422 165.693 76.2167 165.547 74.7023C165.401 73.188 164.846 71.7423 163.94 70.5207C163.035 69.2991 161.815 68.348 160.41 67.7696C144.279 60.8406 126.379 59.1796 109.251 63.0225C92.1244 66.8655 76.6416 76.0169 65.0023 89.177C53.363 102.337 46.1591 118.836 44.4139 136.332C42.6687 153.827 46.4709 171.428 55.2805 186.635C56.7377 189.163 58.8301 191.266 61.3497 192.733C63.8693 194.201 66.7284 194.982 69.6429 195H185.294C188.236 195.012 191.13 194.244 193.682 192.775C196.233 191.306 198.352 189.188 199.823 186.635C206.273 175.438 210.044 162.896 210.841 149.993C211.637 137.091 209.438 124.179 204.416 112.271C203.78 110.914 202.791 109.753 201.553 108.91C200.316 108.067 198.875 107.572 197.381 107.478C195.887 107.384 194.396 107.694 193.063 108.375C191.729 109.056 190.604 110.084 189.803 111.351Z" fill="#C6C0C4"/>
<path d="M115.908 133.395C112.765 136.537 111 140.799 111 145.243C111 147.444 111.433 149.623 112.276 151.656C113.118 153.689 114.352 155.536 115.908 157.092C117.464 158.648 119.311 159.882 121.344 160.724C123.377 161.567 125.556 162 127.757 162C132.201 162 136.463 160.235 139.605 157.092L187 86L115.908 133.395Z" fill="#C6C0C4"/>
<rect x="3" y="3" width="250" height="250" rx="125" stroke="#C6C0C4" stroke-width="6"/>
</svg>
