<svg width="397" height="440" viewBox="0 0 397 440" fill="none" xmlns="http://www.w3.org/2000/svg">
<rect width="80" height="80" rx="40" fill="white"/>
<line x1="103" y1="39.5" x2="173" y2="39.5" stroke="#C6C0C4"/>
<path d="M204.94 33L203.617 19.833H204.814L205.99 31.11L208.384 24.327H209.56L212.059 31.131L213.151 19.833H214.348L213.13 33H211.66L208.993 25.797L206.368 33H204.94ZM217.253 33V19.833H218.555V25.797H224.498V19.833H225.821V33H224.498V26.826H218.555V33H217.253ZM228.482 33V31.971H230.456V20.862H228.482V19.833H233.669V20.862H231.779V31.971H233.711V33H228.482ZM238.718 33V20.862H235.19V19.833H243.611V20.862H240.041V33H238.718ZM245.492 33V19.833H252.506L252.275 20.862H246.794V25.587H251.939V26.574H246.794V31.971H252.38L252.548 33H245.492ZM203.827 61.239L203.008 60.861L209.497 44.649L210.316 45.048L203.827 61.239ZM220.6 59.055L221.041 55.401H219.319V54.33H221.167L221.608 50.487H219.676V49.437H221.713L222.112 46.014H223.183L222.805 49.437H225.01L225.409 46.014H226.459L226.081 49.437H227.782V50.487H225.955L225.535 54.33H227.425V55.401H225.409L224.989 59.055H223.897L224.317 55.401H222.112L221.692 59.055H220.6ZM222.196 54.33H224.485L224.926 50.487H222.637L222.196 54.33ZM230.644 60V46.833H237.469L237.28 47.862H231.946V52.86H236.629V53.826H231.946V60H230.644ZM239.381 60V46.833H246.206L246.017 47.862H240.683V52.86H245.366V53.826H240.683V60H239.381ZM248.117 60V46.833H254.942L254.753 47.862H249.419V52.86H254.102V53.826H249.419V60H248.117ZM256.853 60V46.833H263.678L263.489 47.862H258.155V52.86H262.838V53.826H258.155V60H256.853ZM265.59 60V46.833H272.415L272.226 47.862H266.892V52.86H271.575V53.826H266.892V60H265.59ZM274.326 60V46.833H281.151L280.962 47.862H275.628V52.86H280.311V53.826H275.628V60H274.326Z" fill="#C6C0C4"/>
<rect y="90" width="80" height="80" rx="40" fill="#FAFAFA"/>
<line x1="103" y1="129.5" x2="173" y2="129.5" stroke="#C6C0C4"/>
<path d="M203.533 123V109.833H204.835V121.971H209.875L210.064 123H203.533ZM216.245 123.105C215.041 123.105 214.103 122.846 213.431 122.328C212.773 121.81 212.311 121.068 212.045 120.102C211.793 119.122 211.667 117.876 211.667 116.364C211.667 114.866 211.8 113.634 212.066 112.668C212.346 111.688 212.822 110.946 213.494 110.442C214.166 109.924 215.083 109.665 216.245 109.665C217.407 109.665 218.324 109.924 218.996 110.442C219.668 110.946 220.144 111.688 220.424 112.668C220.704 113.634 220.844 114.866 220.844 116.364C220.844 117.89 220.711 119.136 220.445 120.102C220.193 121.068 219.731 121.81 219.059 122.328C218.387 122.846 217.449 123.105 216.245 123.105ZM216.245 122.013C217.099 122.013 217.764 121.817 218.24 121.425C218.716 121.033 219.052 120.438 219.248 119.64C219.444 118.828 219.542 117.743 219.542 116.385C219.542 115.027 219.437 113.942 219.227 113.13C219.031 112.318 218.695 111.723 218.219 111.345C217.743 110.953 217.085 110.757 216.245 110.757C215.405 110.757 214.747 110.953 214.271 111.345C213.809 111.723 213.473 112.318 213.263 113.13C213.067 113.942 212.969 115.027 212.969 116.385C212.969 117.743 213.067 118.828 213.263 119.64C213.459 120.438 213.795 121.033 214.271 121.425C214.747 121.817 215.405 122.013 216.245 122.013ZM225.921 123V110.862H222.393V109.833H230.814V110.862H227.244V123H225.921ZM232.296 123V121.971H234.27V110.862H232.296V109.833H237.483V110.862H235.593V121.971H237.525V123H232.296ZM244.422 123.105C243.218 123.105 242.28 122.846 241.608 122.328C240.95 121.81 240.488 121.068 240.222 120.102C239.97 119.122 239.844 117.876 239.844 116.364C239.844 114.866 239.977 113.634 240.243 112.668C240.523 111.688 240.999 110.946 241.671 110.442C242.343 109.924 243.26 109.665 244.422 109.665C245.584 109.665 246.501 109.924 247.173 110.442C247.845 110.946 248.321 111.688 248.601 112.668C248.881 113.634 249.021 114.866 249.021 116.364C249.021 117.89 248.888 119.136 248.622 120.102C248.37 121.068 247.908 121.81 247.236 122.328C246.564 122.846 245.626 123.105 244.422 123.105ZM244.422 122.013C245.276 122.013 245.941 121.817 246.417 121.425C246.893 121.033 247.229 120.438 247.425 119.64C247.621 118.828 247.719 117.743 247.719 116.385C247.719 115.027 247.614 113.942 247.404 113.13C247.208 112.318 246.872 111.723 246.396 111.345C245.92 110.953 245.262 110.757 244.422 110.757C243.582 110.757 242.924 110.953 242.448 111.345C241.986 111.723 241.65 112.318 241.44 113.13C241.244 113.942 241.146 115.027 241.146 116.385C241.146 117.743 241.244 118.828 241.44 119.64C241.636 120.438 241.972 121.033 242.448 121.425C242.924 121.817 243.582 122.013 244.422 122.013ZM251.747 123V109.833H253.133L259.727 120.753V109.833H260.924V123H259.622L252.986 111.912V123H251.747ZM203.827 151.239L203.008 150.861L209.497 134.649L210.316 135.048L203.827 151.239ZM220.6 149.055L221.041 145.401H219.319V144.33H221.167L221.608 140.487H219.676V139.437H221.713L222.112 136.014H223.183L222.805 139.437H225.01L225.409 136.014H226.459L226.081 139.437H227.782V140.487H225.955L225.535 144.33H227.425V145.401H225.409L224.989 149.055H223.897L224.317 145.401H222.112L221.692 149.055H220.6ZM222.196 144.33H224.485L224.926 140.487H222.637L222.196 144.33ZM230.644 150V136.833H237.469L237.28 137.862H231.946V142.86H236.629V143.826H231.946V150H230.644ZM238.394 150L242.51 136.833H244.463L248.369 150H247.046L246.059 146.64H240.851L239.822 150H238.394ZM241.166 145.695H245.723L243.497 137.967L241.166 145.695ZM250.475 150V136.833H257.3L257.111 137.862H251.777V142.86H256.46V143.826H251.777V150H250.475ZM258.225 150L262.341 136.833H264.294L268.2 150H266.877L265.89 146.64H260.682L259.653 150H258.225ZM260.997 145.695H265.554L263.328 137.967L260.997 145.695ZM270.306 150V136.833H277.131L276.942 137.862H271.608V142.86H276.291V143.826H271.608V150H270.306ZM278.056 150L282.172 136.833H284.125L288.031 150H286.708L285.721 146.64H280.513L279.484 150H278.056ZM280.828 145.695H285.385L283.159 137.967L280.828 145.695Z" fill="#C6C0C4"/>
<rect y="180" width="80" height="80" rx="40" fill="#E0E0E0"/>
<line x1="103" y1="219.5" x2="173" y2="219.5" stroke="#C6C0C4"/>
<path d="M208.132 213.105C207.18 213.105 206.333 212.867 205.591 212.391C204.863 211.901 204.282 211.159 203.848 210.165C203.428 209.171 203.218 207.925 203.218 206.427C203.218 204.033 203.603 202.311 204.373 201.261C205.157 200.197 206.368 199.665 208.006 199.665C209.084 199.665 210.148 199.917 211.198 200.421V202.92H210.064V201.135C209.49 200.883 208.846 200.757 208.132 200.757C207.306 200.757 206.634 200.918 206.116 201.24C205.598 201.548 205.199 202.115 204.919 202.941C204.653 203.767 204.52 204.936 204.52 206.448C204.52 208.338 204.856 209.738 205.528 210.648C206.2 211.558 207.096 212.013 208.216 212.013C209.168 212.013 210.113 211.789 211.051 211.341L211.471 212.349C210.407 212.853 209.294 213.105 208.132 213.105ZM213.93 213V199.833H215.232V205.797H221.175V199.833H222.498V213H221.175V206.826H215.232V213H213.93ZM225.159 213V211.971H227.133V200.862H225.159V199.833H230.346V200.862H228.456V211.971H230.388V213H225.159ZM233.044 213V199.833H234.43L241.024 210.753V199.833H242.221V213H240.919L234.283 201.912V213H233.044ZM245.287 213V199.833H252.301L252.07 200.862H246.589V205.587H251.734V206.574H246.589V211.971H252.175L252.343 213H245.287ZM258.038 213.105C256.498 213.105 255.245 212.839 254.279 212.307L254.573 211.236C255.133 211.474 255.665 211.663 256.169 211.803C256.687 211.943 257.31 212.013 258.038 212.013C258.92 212.013 259.606 211.796 260.096 211.362C260.6 210.928 260.852 210.263 260.852 209.367C260.852 208.849 260.761 208.443 260.579 208.149C260.397 207.841 260.138 207.596 259.802 207.414C259.466 207.232 258.976 207.036 258.332 206.826L257.072 206.406C256.148 206.084 255.448 205.671 254.972 205.167C254.51 204.649 254.279 203.949 254.279 203.067C254.279 201.891 254.65 201.03 255.392 200.484C256.134 199.938 257.107 199.665 258.311 199.665C259.655 199.665 260.831 199.875 261.839 200.295L261.608 201.345C261.118 201.163 260.621 201.023 260.117 200.925C259.627 200.813 259.081 200.757 258.479 200.757C256.561 200.757 255.602 201.513 255.602 203.025C255.602 203.599 255.728 204.04 255.98 204.348C256.232 204.642 256.736 204.922 257.492 205.188L258.647 205.608C259.515 205.916 260.152 206.175 260.558 206.385C260.978 206.595 261.349 206.938 261.671 207.414C261.993 207.89 262.154 208.548 262.154 209.388C262.154 210.578 261.783 211.495 261.041 212.139C260.299 212.783 259.298 213.105 258.038 213.105ZM264.441 213V199.833H271.455L271.224 200.862H265.743V205.587H270.888V206.574H265.743V211.971H271.329L271.497 213H264.441ZM282.213 213L280.89 199.833H282.087L283.263 211.11L285.657 204.327H286.833L289.332 211.131L290.424 199.833H291.621L290.403 213H288.933L286.266 205.797L283.641 213H282.213ZM294.526 213V199.833H295.828V205.797H301.771V199.833H303.094V213H301.771V206.826H295.828V213H294.526ZM305.755 213V211.971H307.729V200.862H305.755V199.833H310.942V200.862H309.052V211.971H310.984V213H305.755ZM315.991 213V200.862H312.463V199.833H320.884V200.862H317.314V213H315.991ZM322.765 213V199.833H329.779L329.548 200.862H324.067V205.587H329.212V206.574H324.067V211.971H329.653L329.821 213H322.765ZM203.827 241.239L203.008 240.861L209.497 224.649L210.316 225.048L203.827 241.239ZM220.6 239.055L221.041 235.401H219.319V234.33H221.167L221.608 230.487H219.676V229.437H221.713L222.112 226.014H223.183L222.805 229.437H225.01L225.409 226.014H226.459L226.081 229.437H227.782V230.487H225.955L225.535 234.33H227.425V235.401H225.409L224.989 239.055H223.897L224.317 235.401H222.112L221.692 239.055H220.6ZM222.196 234.33H224.485L224.926 230.487H222.637L222.196 234.33ZM230.644 240V226.833H237.658L237.427 227.862H231.946V232.587H237.091V233.574H231.946V238.971H237.532L237.7 240H230.644ZM243.773 240.105C242.709 240.105 241.897 239.811 241.337 239.223C240.777 238.635 240.399 237.865 240.203 236.913C240.021 235.947 239.93 234.771 239.93 233.385C239.93 231.929 240.028 230.718 240.224 229.752C240.434 228.786 240.819 228.03 241.379 227.484C241.939 226.938 242.737 226.665 243.773 226.665C244.809 226.665 245.607 226.959 246.167 227.547C246.727 228.121 247.098 228.891 247.28 229.857C247.476 230.809 247.574 231.985 247.574 233.385C247.574 234.771 247.476 235.947 247.28 236.913C247.084 237.879 246.706 238.656 246.146 239.244C245.6 239.818 244.809 240.105 243.773 240.105ZM243.773 239.013C244.585 239.013 245.18 238.74 245.558 238.194C245.936 237.648 246.167 237.004 246.251 236.262C246.349 235.506 246.398 234.547 246.398 233.385C246.398 232.083 246.335 231.04 246.209 230.256C246.097 229.472 245.845 228.863 245.453 228.429C245.075 227.981 244.515 227.757 243.773 227.757C242.989 227.757 242.401 228.002 242.009 228.492C241.631 228.982 241.386 229.612 241.274 230.382C241.176 231.152 241.127 232.153 241.127 233.385C241.127 234.687 241.183 235.73 241.295 236.514C241.421 237.298 241.673 237.914 242.051 238.362C242.443 238.796 243.017 239.013 243.773 239.013ZM250.475 240V226.833H257.489L257.258 227.862H251.777V232.587H256.922V233.574H251.777V238.971H257.363L257.531 240H250.475ZM263.604 240.105C262.54 240.105 261.728 239.811 261.168 239.223C260.608 238.635 260.23 237.865 260.034 236.913C259.852 235.947 259.761 234.771 259.761 233.385C259.761 231.929 259.859 230.718 260.055 229.752C260.265 228.786 260.65 228.03 261.21 227.484C261.77 226.938 262.568 226.665 263.604 226.665C264.64 226.665 265.438 226.959 265.998 227.547C266.558 228.121 266.929 228.891 267.111 229.857C267.307 230.809 267.405 231.985 267.405 233.385C267.405 234.771 267.307 235.947 267.111 236.913C266.915 237.879 266.537 238.656 265.977 239.244C265.431 239.818 264.64 240.105 263.604 240.105ZM263.604 239.013C264.416 239.013 265.011 238.74 265.389 238.194C265.767 237.648 265.998 237.004 266.082 236.262C266.18 235.506 266.229 234.547 266.229 233.385C266.229 232.083 266.166 231.04 266.04 230.256C265.928 229.472 265.676 228.863 265.284 228.429C264.906 227.981 264.346 227.757 263.604 227.757C262.82 227.757 262.232 228.002 261.84 228.492C261.462 228.982 261.217 229.612 261.105 230.382C261.007 231.152 260.958 232.153 260.958 233.385C260.958 234.687 261.014 235.73 261.126 236.514C261.252 237.298 261.504 237.914 261.882 238.362C262.274 238.796 262.848 239.013 263.604 239.013ZM270.306 240V226.833H277.32L277.089 227.862H271.608V232.587H276.753V233.574H271.608V238.971H277.194L277.362 240H270.306ZM283.436 240.105C282.372 240.105 281.56 239.811 281 239.223C280.44 238.635 280.062 237.865 279.866 236.913C279.684 235.947 279.593 234.771 279.593 233.385C279.593 231.929 279.691 230.718 279.887 229.752C280.097 228.786 280.482 228.03 281.042 227.484C281.602 226.938 282.4 226.665 283.436 226.665C284.472 226.665 285.27 226.959 285.83 227.547C286.39 228.121 286.761 228.891 286.943 229.857C287.139 230.809 287.237 231.985 287.237 233.385C287.237 234.771 287.139 235.947 286.943 236.913C286.747 237.879 286.369 238.656 285.809 239.244C285.263 239.818 284.472 240.105 283.436 240.105ZM283.436 239.013C284.248 239.013 284.843 238.74 285.221 238.194C285.599 237.648 285.83 237.004 285.914 236.262C286.012 235.506 286.061 234.547 286.061 233.385C286.061 232.083 285.998 231.04 285.872 230.256C285.76 229.472 285.508 228.863 285.116 228.429C284.738 227.981 284.178 227.757 283.436 227.757C282.652 227.757 282.064 228.002 281.672 228.492C281.294 228.982 281.049 229.612 280.937 230.382C280.839 231.152 280.79 232.153 280.79 233.385C280.79 234.687 280.846 235.73 280.958 236.514C281.084 237.298 281.336 237.914 281.714 238.362C282.106 238.796 282.68 239.013 283.436 239.013Z" fill="#C6C0C4"/>
<rect y="270" width="80" height="80" rx="40" fill="#757575"/>
<line x1="103" y1="309.5" x2="173" y2="309.5" stroke="#C6C0C4"/>
<path d="M206.83 303.105C205.29 303.105 204.037 302.839 203.071 302.307L203.365 301.236C203.925 301.474 204.457 301.663 204.961 301.803C205.479 301.943 206.102 302.013 206.83 302.013C207.712 302.013 208.398 301.796 208.888 301.362C209.392 300.928 209.644 300.263 209.644 299.367C209.644 298.849 209.553 298.443 209.371 298.149C209.189 297.841 208.93 297.596 208.594 297.414C208.258 297.232 207.768 297.036 207.124 296.826L205.864 296.406C204.94 296.084 204.24 295.671 203.764 295.167C203.302 294.649 203.071 293.949 203.071 293.067C203.071 291.891 203.442 291.03 204.184 290.484C204.926 289.938 205.899 289.665 207.103 289.665C208.447 289.665 209.623 289.875 210.631 290.295L210.4 291.345C209.91 291.163 209.413 291.023 208.909 290.925C208.419 290.813 207.873 290.757 207.271 290.757C205.353 290.757 204.394 291.513 204.394 293.025C204.394 293.599 204.52 294.04 204.772 294.348C205.024 294.642 205.528 294.922 206.284 295.188L207.439 295.608C208.307 295.916 208.944 296.175 209.35 296.385C209.77 296.595 210.141 296.938 210.463 297.414C210.785 297.89 210.946 298.548 210.946 299.388C210.946 300.578 210.575 301.495 209.833 302.139C209.091 302.783 208.09 303.105 206.83 303.105ZM217.475 303.105C216.271 303.105 215.333 302.846 214.661 302.328C214.003 301.81 213.541 301.068 213.275 300.102C213.023 299.122 212.897 297.876 212.897 296.364C212.897 294.866 213.03 293.634 213.296 292.668C213.576 291.688 214.052 290.946 214.724 290.442C215.396 289.924 216.313 289.665 217.475 289.665C218.637 289.665 219.554 289.924 220.226 290.442C220.898 290.946 221.374 291.688 221.654 292.668C221.934 293.634 222.074 294.866 222.074 296.364C222.074 297.89 221.941 299.136 221.675 300.102C221.423 301.068 220.961 301.81 220.289 302.328C219.617 302.846 218.679 303.105 217.475 303.105ZM217.475 302.013C218.329 302.013 218.994 301.817 219.47 301.425C219.946 301.033 220.282 300.438 220.478 299.64C220.674 298.828 220.772 297.743 220.772 296.385C220.772 295.027 220.667 293.942 220.457 293.13C220.261 292.318 219.925 291.723 219.449 291.345C218.973 290.953 218.315 290.757 217.475 290.757C216.635 290.757 215.977 290.953 215.501 291.345C215.039 291.723 214.703 292.318 214.493 293.13C214.297 293.942 214.199 295.027 214.199 296.385C214.199 297.743 214.297 298.828 214.493 299.64C214.689 300.438 215.025 301.033 215.501 301.425C215.977 301.817 216.635 302.013 217.475 302.013ZM224.8 303V289.833H226.186L232.78 300.753V289.833H233.977V303H232.675L226.039 291.912V303H224.8ZM236.644 303V301.971H238.618V290.862H236.644V289.833H241.831V290.862H239.941V301.971H241.873V303H236.644ZM249.127 303.105C248.175 303.105 247.328 302.867 246.586 302.391C245.858 301.901 245.277 301.159 244.843 300.165C244.423 299.171 244.213 297.925 244.213 296.427C244.213 294.033 244.598 292.311 245.368 291.261C246.152 290.197 247.363 289.665 249.001 289.665C250.079 289.665 251.143 289.917 252.193 290.421V292.92H251.059V291.135C250.485 290.883 249.841 290.757 249.127 290.757C248.301 290.757 247.629 290.918 247.111 291.24C246.593 291.548 246.194 292.115 245.914 292.941C245.648 293.767 245.515 294.936 245.515 296.448C245.515 298.338 245.851 299.738 246.523 300.648C247.195 301.558 248.091 302.013 249.211 302.013C250.163 302.013 251.108 301.789 252.046 301.341L252.466 302.349C251.402 302.853 250.289 303.105 249.127 303.105ZM265.134 303.105C263.594 303.105 262.341 302.839 261.375 302.307L261.669 301.236C262.229 301.474 262.761 301.663 263.265 301.803C263.783 301.943 264.406 302.013 265.134 302.013C266.016 302.013 266.702 301.796 267.192 301.362C267.696 300.928 267.948 300.263 267.948 299.367C267.948 298.849 267.857 298.443 267.675 298.149C267.493 297.841 267.234 297.596 266.898 297.414C266.562 297.232 266.072 297.036 265.428 296.826L264.168 296.406C263.244 296.084 262.544 295.671 262.068 295.167C261.606 294.649 261.375 293.949 261.375 293.067C261.375 291.891 261.746 291.03 262.488 290.484C263.23 289.938 264.203 289.665 265.407 289.665C266.751 289.665 267.927 289.875 268.935 290.295L268.704 291.345C268.214 291.163 267.717 291.023 267.213 290.925C266.723 290.813 266.177 290.757 265.575 290.757C263.657 290.757 262.698 291.513 262.698 293.025C262.698 293.599 262.824 294.04 263.076 294.348C263.328 294.642 263.832 294.922 264.588 295.188L265.743 295.608C266.611 295.916 267.248 296.175 267.654 296.385C268.074 296.595 268.445 296.938 268.767 297.414C269.089 297.89 269.25 298.548 269.25 299.388C269.25 300.578 268.879 301.495 268.137 302.139C267.395 302.783 266.394 303.105 265.134 303.105ZM271.138 303V301.971H273.112V290.862H271.138V289.833H276.325V290.862H274.435V301.971H276.367V303H271.138ZM279.022 303V289.833H280.324V301.971H285.364L285.553 303H279.022ZM286.526 289.833H287.891C288.381 291.723 289.025 294.082 289.823 296.91C290.467 299.206 290.901 300.781 291.125 301.635C291.377 300.683 291.748 299.339 292.238 297.603C293.19 294.159 293.89 291.569 294.338 289.833H295.724L291.944 303H290.327L286.526 289.833ZM297.828 303V289.833H304.842L304.611 290.862H299.13V295.587H304.275V296.574H299.13V301.971H304.716L304.884 303H297.828ZM314.674 303.252C314.128 302.37 313.54 301.348 312.91 300.186C312.28 299.024 311.776 298.002 311.398 297.12C310.894 297.162 310.334 297.183 309.718 297.183H308.584V303H307.282V289.833H309.865C311.153 289.833 312.161 289.924 312.889 290.106C313.631 290.288 314.191 290.645 314.569 291.177C314.961 291.709 315.157 292.5 315.157 293.55C315.157 294.544 314.947 295.307 314.527 295.839C314.121 296.371 313.484 296.735 312.616 296.931L315.745 302.559L314.674 303.252ZM309.487 296.217C310.663 296.217 311.552 296.154 312.154 296.028C312.756 295.902 313.183 295.657 313.435 295.293C313.701 294.915 313.834 294.341 313.834 293.571C313.834 292.759 313.687 292.164 313.393 291.786C313.113 291.394 312.7 291.142 312.154 291.03C311.608 290.918 310.824 290.862 309.802 290.862H308.584V296.217H309.487ZM203.827 331.239L203.008 330.861L209.497 314.649L210.316 315.048L203.827 331.239ZM220.6 329.055L221.041 325.401H219.319V324.33H221.167L221.608 320.487H219.676V319.437H221.713L222.112 316.014H223.183L222.805 319.437H225.01L225.409 316.014H226.459L226.081 319.437H227.782V320.487H225.955L225.535 324.33H227.425V325.401H225.409L224.989 329.055H223.897L224.317 325.401H222.112L221.692 329.055H220.6ZM222.196 324.33H224.485L224.926 320.487H222.637L222.196 324.33ZM231.61 330C231.652 328.236 232.016 326.388 232.702 324.456C233.402 322.524 234.389 320.291 235.663 317.757H230.203V316.665H236.986L237.091 317.715C236.741 318.275 236.237 319.29 235.579 320.76C234.921 322.216 234.326 323.798 233.794 325.506C233.262 327.214 232.996 328.712 232.996 330H231.61ZM242.609 330.105C242.105 330.105 241.531 330.049 240.887 329.937C240.243 329.811 239.753 329.664 239.417 329.496L239.69 328.362C240.054 328.53 240.53 328.684 241.118 328.824C241.72 328.95 242.245 329.013 242.693 329.013C243.631 329.013 244.352 328.768 244.856 328.278C245.36 327.788 245.612 327.095 245.612 326.199C245.612 325.149 245.395 324.358 244.961 323.826C244.527 323.28 243.932 323.007 243.176 323.007C242.686 323.007 242.231 323.063 241.811 323.175C241.405 323.287 241.013 323.483 240.635 323.763L239.9 323.469V316.833H246.242V317.862H241.076L240.908 322.566C241.524 322.146 242.28 321.936 243.176 321.936C244.31 321.936 245.22 322.321 245.906 323.091C246.592 323.861 246.935 324.904 246.935 326.22C246.935 327.466 246.543 328.425 245.759 329.097C244.975 329.769 243.925 330.105 242.609 330.105ZM250.826 330C250.868 328.236 251.232 326.388 251.918 324.456C252.618 322.524 253.605 320.291 254.879 317.757H249.419V316.665H256.202L256.307 317.715C255.957 318.275 255.453 319.29 254.795 320.76C254.137 322.216 253.542 323.798 253.01 325.506C252.478 327.214 252.212 328.712 252.212 330H250.826ZM261.825 330.105C261.321 330.105 260.747 330.049 260.103 329.937C259.459 329.811 258.969 329.664 258.633 329.496L258.906 328.362C259.27 328.53 259.746 328.684 260.334 328.824C260.936 328.95 261.461 329.013 261.909 329.013C262.847 329.013 263.568 328.768 264.072 328.278C264.576 327.788 264.828 327.095 264.828 326.199C264.828 325.149 264.611 324.358 264.177 323.826C263.743 323.28 263.148 323.007 262.392 323.007C261.902 323.007 261.447 323.063 261.027 323.175C260.621 323.287 260.229 323.483 259.851 323.763L259.116 323.469V316.833H265.458V317.862H260.292L260.124 322.566C260.74 322.146 261.496 321.936 262.392 321.936C263.526 321.936 264.436 322.321 265.122 323.091C265.808 323.861 266.151 324.904 266.151 326.22C266.151 327.466 265.759 328.425 264.975 329.097C264.191 329.769 263.141 330.105 261.825 330.105ZM270.042 330C270.084 328.236 270.448 326.388 271.134 324.456C271.834 322.524 272.821 320.291 274.095 317.757H268.635V316.665H275.418L275.523 317.715C275.173 318.275 274.669 319.29 274.011 320.76C273.353 322.216 272.758 323.798 272.226 325.506C271.694 327.214 271.428 328.712 271.428 330H270.042ZM281.041 330.105C280.537 330.105 279.963 330.049 279.319 329.937C278.675 329.811 278.185 329.664 277.849 329.496L278.122 328.362C278.486 328.53 278.962 328.684 279.55 328.824C280.152 328.95 280.677 329.013 281.125 329.013C282.063 329.013 282.784 328.768 283.288 328.278C283.792 327.788 284.044 327.095 284.044 326.199C284.044 325.149 283.827 324.358 283.393 323.826C282.959 323.28 282.364 323.007 281.608 323.007C281.118 323.007 280.663 323.063 280.243 323.175C279.837 323.287 279.445 323.483 279.067 323.763L278.332 323.469V316.833H284.674V317.862H279.508L279.34 322.566C279.956 322.146 280.712 321.936 281.608 321.936C282.742 321.936 283.652 322.321 284.338 323.091C285.024 323.861 285.367 324.904 285.367 326.22C285.367 327.466 284.975 328.425 284.191 329.097C283.407 329.769 282.357 330.105 281.041 330.105Z" fill="#C6C0C4"/>
<rect y="360" width="80" height="80" rx="40" fill="black"/>
<line x1="103" y1="399.5" x2="173" y2="399.5" stroke="#C6C0C4"/>
<path d="M203.533 379.833H206.809C207.873 379.833 208.72 379.924 209.35 380.106C209.994 380.288 210.47 380.61 210.778 381.072C211.1 381.534 211.261 382.192 211.261 383.046C211.261 383.886 211.107 384.537 210.799 384.999C210.505 385.461 209.994 385.783 209.266 385.965C210.036 386.147 210.638 386.504 211.072 387.036C211.506 387.554 211.723 388.254 211.723 389.136C211.723 390.172 211.541 390.97 211.177 391.53C210.813 392.09 210.274 392.475 209.56 392.685C208.86 392.895 207.936 393 206.788 393H203.533V379.833ZM207.229 385.587C208.237 385.587 208.965 385.405 209.413 385.041C209.875 384.663 210.106 383.998 210.106 383.046C210.106 382.234 209.868 381.667 209.392 381.345C208.93 381.023 208.153 380.862 207.061 380.862H204.835V385.587H207.229ZM206.851 391.971C207.677 391.971 208.342 391.901 208.846 391.761C209.35 391.621 209.735 391.348 210.001 390.942C210.281 390.536 210.421 389.941 210.421 389.157C210.421 388.247 210.155 387.589 209.623 387.183C209.091 386.763 208.3 386.553 207.25 386.553H204.835V391.971H206.851ZM214.197 393V379.833H215.499V391.971H220.539L220.728 393H214.197ZM221.68 393L225.796 379.833H227.749L231.655 393H230.332L229.345 389.64H224.137L223.108 393H221.68ZM224.452 388.695H229.009L226.783 380.967L224.452 388.695ZM238.361 393.105C237.409 393.105 236.562 392.867 235.82 392.391C235.092 391.901 234.511 391.159 234.077 390.165C233.657 389.171 233.447 387.925 233.447 386.427C233.447 384.033 233.832 382.311 234.602 381.261C235.386 380.197 236.597 379.665 238.235 379.665C239.313 379.665 240.377 379.917 241.427 380.421V382.92H240.293V381.135C239.719 380.883 239.075 380.757 238.361 380.757C237.535 380.757 236.863 380.918 236.345 381.24C235.827 381.548 235.428 382.115 235.148 382.941C234.882 383.767 234.749 384.936 234.749 386.448C234.749 388.338 235.085 389.738 235.757 390.648C236.429 391.558 237.325 392.013 238.445 392.013C239.397 392.013 240.342 391.789 241.28 391.341L241.7 392.349C240.636 392.853 239.523 393.105 238.361 393.105ZM244.159 393V379.833H245.461V386.763L247.057 385.02L251.089 379.833H252.622L248.275 385.608L252.895 393H251.446L247.267 386.322L245.461 388.086V393H244.159ZM203.827 421.239L203.008 420.861L209.497 404.649L210.316 405.048L203.827 421.239ZM220.6 419.055L221.041 415.401H219.319V414.33H221.167L221.608 410.487H219.676V409.437H221.713L222.112 406.014H223.183L222.805 409.437H225.01L225.409 406.014H226.459L226.081 409.437H227.782V410.487H225.955L225.535 414.33H227.425V415.401H225.409L224.989 419.055H223.897L224.317 415.401H222.112L221.692 419.055H220.6ZM222.196 414.33H224.485L224.926 410.487H222.637L222.196 414.33ZM234.319 420.105C233.255 420.105 232.443 419.811 231.883 419.223C231.323 418.635 230.945 417.865 230.749 416.913C230.567 415.947 230.476 414.771 230.476 413.385C230.476 411.929 230.574 410.718 230.77 409.752C230.98 408.786 231.365 408.03 231.925 407.484C232.485 406.938 233.283 406.665 234.319 406.665C235.355 406.665 236.153 406.959 236.713 407.547C237.273 408.121 237.644 408.891 237.826 409.857C238.022 410.809 238.12 411.985 238.12 413.385C238.12 414.771 238.022 415.947 237.826 416.913C237.63 417.879 237.252 418.656 236.692 419.244C236.146 419.818 235.355 420.105 234.319 420.105ZM234.319 419.013C235.131 419.013 235.726 418.74 236.104 418.194C236.482 417.648 236.713 417.004 236.797 416.262C236.895 415.506 236.944 414.547 236.944 413.385C236.944 412.083 236.881 411.04 236.755 410.256C236.643 409.472 236.391 408.863 235.999 408.429C235.621 407.981 235.061 407.757 234.319 407.757C233.535 407.757 232.947 408.002 232.555 408.492C232.177 408.982 231.932 409.612 231.82 410.382C231.722 411.152 231.673 412.153 231.673 413.385C231.673 414.687 231.729 415.73 231.841 416.514C231.967 417.298 232.219 417.914 232.597 418.362C232.989 418.796 233.563 419.013 234.319 419.013ZM244.696 420.105C243.632 420.105 242.82 419.811 242.26 419.223C241.7 418.635 241.322 417.865 241.126 416.913C240.944 415.947 240.853 414.771 240.853 413.385C240.853 411.929 240.951 410.718 241.147 409.752C241.357 408.786 241.742 408.03 242.302 407.484C242.862 406.938 243.66 406.665 244.696 406.665C245.732 406.665 246.53 406.959 247.09 407.547C247.65 408.121 248.021 408.891 248.203 409.857C248.399 410.809 248.497 411.985 248.497 413.385C248.497 414.771 248.399 415.947 248.203 416.913C248.007 417.879 247.629 418.656 247.069 419.244C246.523 419.818 245.732 420.105 244.696 420.105ZM244.696 419.013C245.508 419.013 246.103 418.74 246.481 418.194C246.859 417.648 247.09 417.004 247.174 416.262C247.272 415.506 247.321 414.547 247.321 413.385C247.321 412.083 247.258 411.04 247.132 410.256C247.02 409.472 246.768 408.863 246.376 408.429C245.998 407.981 245.438 407.757 244.696 407.757C243.912 407.757 243.324 408.002 242.932 408.492C242.554 408.982 242.309 409.612 242.197 410.382C242.099 411.152 242.05 412.153 242.05 413.385C242.05 414.687 242.106 415.73 242.218 416.514C242.344 417.298 242.596 417.914 242.974 418.362C243.366 418.796 243.94 419.013 244.696 419.013ZM255.073 420.105C254.009 420.105 253.197 419.811 252.637 419.223C252.077 418.635 251.699 417.865 251.503 416.913C251.321 415.947 251.23 414.771 251.23 413.385C251.23 411.929 251.328 410.718 251.524 409.752C251.734 408.786 252.119 408.03 252.679 407.484C253.239 406.938 254.037 406.665 255.073 406.665C256.109 406.665 256.907 406.959 257.467 407.547C258.027 408.121 258.398 408.891 258.58 409.857C258.776 410.809 258.874 411.985 258.874 413.385C258.874 414.771 258.776 415.947 258.58 416.913C258.384 417.879 258.006 418.656 257.446 419.244C256.9 419.818 256.109 420.105 255.073 420.105ZM255.073 419.013C255.885 419.013 256.48 418.74 256.858 418.194C257.236 417.648 257.467 417.004 257.551 416.262C257.649 415.506 257.698 414.547 257.698 413.385C257.698 412.083 257.635 411.04 257.509 410.256C257.397 409.472 257.145 408.863 256.753 408.429C256.375 407.981 255.815 407.757 255.073 407.757C254.289 407.757 253.701 408.002 253.309 408.492C252.931 408.982 252.686 409.612 252.574 410.382C252.476 411.152 252.427 412.153 252.427 413.385C252.427 414.687 252.483 415.73 252.595 416.514C252.721 417.298 252.973 417.914 253.351 418.362C253.743 418.796 254.317 419.013 255.073 419.013ZM265.45 420.105C264.386 420.105 263.574 419.811 263.014 419.223C262.454 418.635 262.076 417.865 261.88 416.913C261.698 415.947 261.607 414.771 261.607 413.385C261.607 411.929 261.705 410.718 261.901 409.752C262.111 408.786 262.496 408.03 263.056 407.484C263.616 406.938 264.414 406.665 265.45 406.665C266.486 406.665 267.284 406.959 267.844 407.547C268.404 408.121 268.775 408.891 268.957 409.857C269.153 410.809 269.251 411.985 269.251 413.385C269.251 414.771 269.153 415.947 268.957 416.913C268.761 417.879 268.383 418.656 267.823 419.244C267.277 419.818 266.486 420.105 265.45 420.105ZM265.45 419.013C266.262 419.013 266.857 418.74 267.235 418.194C267.613 417.648 267.844 417.004 267.928 416.262C268.026 415.506 268.075 414.547 268.075 413.385C268.075 412.083 268.012 411.04 267.886 410.256C267.774 409.472 267.522 408.863 267.13 408.429C266.752 407.981 266.192 407.757 265.45 407.757C264.666 407.757 264.078 408.002 263.686 408.492C263.308 408.982 263.063 409.612 262.951 410.382C262.853 411.152 262.804 412.153 262.804 413.385C262.804 414.687 262.86 415.73 262.972 416.514C263.098 417.298 263.35 417.914 263.728 418.362C264.12 418.796 264.694 419.013 265.45 419.013ZM275.827 420.105C274.763 420.105 273.951 419.811 273.391 419.223C272.831 418.635 272.453 417.865 272.257 416.913C272.075 415.947 271.984 414.771 271.984 413.385C271.984 411.929 272.082 410.718 272.278 409.752C272.488 408.786 272.873 408.03 273.433 407.484C273.993 406.938 274.791 406.665 275.827 406.665C276.863 406.665 277.661 406.959 278.221 407.547C278.781 408.121 279.152 408.891 279.334 409.857C279.53 410.809 279.628 411.985 279.628 413.385C279.628 414.771 279.53 415.947 279.334 416.913C279.138 417.879 278.76 418.656 278.2 419.244C277.654 419.818 276.863 420.105 275.827 420.105ZM275.827 419.013C276.639 419.013 277.234 418.74 277.612 418.194C277.99 417.648 278.221 417.004 278.305 416.262C278.403 415.506 278.452 414.547 278.452 413.385C278.452 412.083 278.389 411.04 278.263 410.256C278.151 409.472 277.899 408.863 277.507 408.429C277.129 407.981 276.569 407.757 275.827 407.757C275.043 407.757 274.455 408.002 274.063 408.492C273.685 408.982 273.44 409.612 273.328 410.382C273.23 411.152 273.181 412.153 273.181 413.385C273.181 414.687 273.237 415.73 273.349 416.514C273.475 417.298 273.727 417.914 274.105 418.362C274.497 418.796 275.071 419.013 275.827 419.013ZM286.204 420.105C285.14 420.105 284.328 419.811 283.768 419.223C283.208 418.635 282.83 417.865 282.634 416.913C282.452 415.947 282.361 414.771 282.361 413.385C282.361 411.929 282.459 410.718 282.655 409.752C282.865 408.786 283.25 408.03 283.81 407.484C284.37 406.938 285.168 406.665 286.204 406.665C287.24 406.665 288.038 406.959 288.598 407.547C289.158 408.121 289.529 408.891 289.711 409.857C289.907 410.809 290.005 411.985 290.005 413.385C290.005 414.771 289.907 415.947 289.711 416.913C289.515 417.879 289.137 418.656 288.577 419.244C288.031 419.818 287.24 420.105 286.204 420.105ZM286.204 419.013C287.016 419.013 287.611 418.74 287.989 418.194C288.367 417.648 288.598 417.004 288.682 416.262C288.78 415.506 288.829 414.547 288.829 413.385C288.829 412.083 288.766 411.04 288.64 410.256C288.528 409.472 288.276 408.863 287.884 408.429C287.506 407.981 286.946 407.757 286.204 407.757C285.42 407.757 284.832 408.002 284.44 408.492C284.062 408.982 283.817 409.612 283.705 410.382C283.607 411.152 283.558 412.153 283.558 413.385C283.558 414.687 283.614 415.73 283.726 416.514C283.852 417.298 284.104 417.914 284.482 418.362C284.874 418.796 285.448 419.013 286.204 419.013Z" fill="#C6C0C4"/>
</svg>
