<svg width="100" height="100" viewBox="0 0 100 100" fill="none" xmlns="http://www.w3.org/2000/svg">
<g clip-path="url(#clip0_32_9)">
<path d="M74.3319 72.7051V72.5628C82.2333 70.5737 85.7929 66.1686 85.7929 61.3387C85.7929 55.2292 80.6679 50.0435 69.0643 50.0435H55.0167L48.9824 35.2737C53.1146 36.9573 55.3655 40.3652 55.3655 44.374V48.7233H56.513V44.2218C56.513 40.941 57.9653 33.5397 57.9653 33.5397H56.9715C56.2069 35.6765 55.5948 36.8205 53.5303 36.8971C52.4992 35.8681 50.8636 34.6387 48.3966 33.8418L36.2072 4H35.1399L19.0508 45.9843C17.8409 49.1097 16.6309 50.176 14.4238 50.176H13V51.2411H26.169V50.176H24.0332C20.7588 50.176 19.1923 48.5416 20.1895 45.9843L24.7451 34.1209H35.809C29.8953 36.2994 26.9226 41.4675 26.9226 47.8825C26.9226 66.8057 55.9009 60.8538 55.9009 73.9016C55.9009 79.9291 50.5488 83.3632 43.5908 83.3632C34.4927 83.3632 28.376 77.8699 28.376 71.7647V67.7975H27.2286V73.9782C27.2286 78.7085 26.6933 83.974 26.6933 83.974H27.6871C27.9932 82.3714 28.8346 79.9302 30.4394 79.6248C32.6564 81.8372 36.7853 84.5083 43.5908 84.5083C49.533 84.5083 53.7168 82.4688 56.3221 79.4376V95.9359H49.9861V97.0011H69.8465C82.66 97.0011 87.9989 91.1761 87.9989 84.3561C87.9989 78.3888 83.5145 74.4107 74.3308 72.7051H74.3319ZM63.2976 51.1087H68.8504C74.5458 51.1087 78.4609 54.0217 78.4609 62.2616C78.4609 70.5015 74.4745 72.4205 69.1356 72.4205H63.2987V51.1087H63.2976ZM32.6476 13.4484L40.6916 33.0558H25.1016L32.6476 13.4484ZM30.6698 44.3729C30.6698 38.6082 34.3303 34.7033 41.1523 34.2041L47.6671 50.176H42.6836V51.2411H56.321V60.9479C48.7081 52.8241 30.6687 54.6074 30.6687 44.3718L30.6698 44.3729ZM69.7763 95.9348H63.2987V73.4856H69.6348C76.7529 73.4856 80.669 76.3987 80.669 83.9992C80.669 91.5998 76.9668 95.9338 69.7774 95.9338L69.7763 95.9348Z" fill="white"/>
</g>
<defs>
<clipPath id="clip0_32_9">
<rect width="75" height="93" fill="white" transform="translate(13 4)"/>
</clipPath>
</defs>
</svg>
