<svg width="127" height="123" viewBox="0 0 127 123" fill="none" xmlns="http://www.w3.org/2000/svg">
<g clip-path="url(#clip0_1193_1141)">
<path d="M116.372 50.0835C123.457 54.7045 127 60.458 127 67.3442C127 71.4669 125.872 75.2498 123.615 78.6929C121.359 82.0907 118.335 84.4238 114.544 85.6924C114.905 86.9609 115.085 88.4558 115.085 90.1774C115.085 97.1089 112.919 102.681 108.586 106.895C104.299 111.153 98.6574 113.282 91.662 113.282C88.2772 113.282 85.3211 112.58 82.7937 111.176C80.9884 114.755 78.258 117.609 74.6023 119.738C70.9467 121.913 67.1557 123 63.2292 123C56.8657 123 51.653 121.46 47.5911 118.379C43.5293 115.298 40.8892 111.04 39.6705 105.603C37.0078 106.011 34.7513 106.215 32.9008 106.215C25.8152 106.215 20.0835 104.086 15.7058 99.8272C11.3731 95.5686 9.20683 90.3134 9.20683 84.0614C9.20683 77.9001 11.0346 72.9393 14.6904 69.179C10.2223 67.6388 6.65689 64.9658 3.99414 61.1603C1.33138 57.3095 0 53.0282 0 48.3166C0 42.11 2.7079 36.0393 8.12367 30.1044C13.5394 24.1243 20.1737 20.3415 28.0266 18.7558C31.1858 12.8663 36.3083 8.26797 43.394 4.96078C50.5246 1.65358 57.7456 0 65.0571 0C74.5798 0 83.3353 1.97073 91.3235 5.91215C99.357 9.8536 105.675 15.1541 110.279 21.8139C114.882 28.4735 117.184 35.2917 117.184 42.2686C117.184 45.1227 116.913 47.7277 116.372 50.0835ZM55.6471 19.9111C55.6471 19.3221 55.2635 18.801 54.4962 18.3481C54.2255 18.7558 54.0901 19.1862 54.0901 19.6393C54.0901 20.3641 54.3609 20.7266 54.9024 20.7266C55.3988 20.7266 55.6471 20.4547 55.6471 19.9111ZM73.113 29.7647C70.8113 29.9459 69.006 30.8746 67.6973 32.5508C66.3884 34.1818 65.734 36.0845 65.734 38.2591C65.734 41.3851 66.7494 44.126 68.7804 46.4818C69.683 45.3039 70.3374 43.7183 70.7435 41.725L71.0144 42.2686C71.0144 43.6276 70.4051 45.1681 69.1865 46.8895C70.1343 48.0675 71.4431 49.0414 73.113 49.8117L73.9254 50.2193C76.2722 51.2614 78.8672 51.9183 81.7105 52.1901C84.3282 52.4619 86.0206 52.5525 86.7878 52.4619C90.263 52.1447 92.9709 50.899 94.9115 48.7244C96.8972 46.5498 97.8901 43.8088 97.8901 40.5017C97.8901 39.505 97.7999 38.2139 97.6193 36.6282C97.168 32.5962 95.7916 28.8813 93.4898 25.4834C90.6918 21.3608 85.9077 18.0989 79.1381 15.6978L78.3933 15.4259L77.3779 15.5619C76.8363 15.5619 76.4753 15.2901 76.2948 14.7465L75.8886 14.6105C75.5276 14.7917 75.2341 14.8823 75.0085 14.8823C74.6475 14.7465 74.3315 14.5652 74.0607 14.3386L73.5191 14.2028C73.2483 15.1089 72.6842 15.5619 71.8267 15.5619C71.0595 15.5619 70.563 15.1089 70.3374 14.2028L69.9313 14.0668C69.7508 14.3386 69.367 14.4746 68.7804 14.4746C68.4644 14.4746 68.0131 14.248 67.4265 13.795C67.291 14.248 66.9299 14.4746 66.3433 14.4746C66.0273 14.4746 65.6437 14.248 65.1924 13.795L63.5677 14.2707C58.8288 15.4033 55.9404 16.6266 54.9024 17.9403C55.7599 18.484 56.1886 19.1409 56.1886 19.9111C56.1886 21.089 55.7599 21.6779 54.9024 21.6779C53.9998 21.6779 53.5485 20.9078 53.5485 19.3675C53.5485 18.9144 53.684 18.484 53.9546 18.0762C52.8715 17.7138 51.9463 17.5325 51.1791 17.5325C48.5163 17.5325 46.0115 18.3481 43.6646 19.9791C41.3178 21.61 39.9413 23.6712 39.5352 26.163C39.129 28.7001 39.4449 31.3049 40.4829 33.9779C41.7015 37.1038 43.9581 39.2558 47.2526 40.4337L47.7266 40.6377L47.3204 40.9093C46.4177 40.9093 45.1766 40.3431 43.597 39.2106C42.0174 38.0327 40.7537 36.2431 39.806 33.8419C38.8582 31.4409 38.5874 28.8813 38.9936 26.163C39.3997 23.3994 40.7537 21.1796 43.0555 19.5033C45.4023 17.8271 47.9747 16.9889 50.7729 16.9889C52.2623 16.9889 53.4582 17.2155 54.3609 17.6685C55.444 16.4906 57.1365 15.4713 59.4381 14.6105C61.7399 13.7498 63.4549 13.3193 64.5831 13.3193L65.0571 13.3873C65.5987 12.7983 66.0498 12.5039 66.4109 12.5039L67.1557 13.0475H67.6973C67.7875 12.5945 68.2388 12.368 69.0512 12.368C69.2768 12.368 69.525 12.5945 69.7958 13.0475H70.3374C70.563 12.1414 71.0595 11.6884 71.8267 11.6884C72.6842 11.6884 73.2936 12.1867 73.6546 13.1834L74.0607 13.3873C74.4218 12.9796 74.7378 12.7757 75.0085 12.7757C75.5952 12.7757 76.024 13.1155 76.2948 13.795L76.8363 14.0668L77.3779 13.795C77.784 13.795 78.2128 14.1122 78.6641 14.7465C85.6144 17.1475 90.6918 20.432 93.896 24.5999C95.9721 27.9072 97.484 32.0525 98.4317 37.036C98.5672 37.5342 98.6349 38.3723 98.6349 39.5504C98.6349 43.4011 97.5518 46.5724 95.3854 49.064C93.2642 51.5106 90.3983 52.8243 86.7878 53.0056C85.1631 53.0962 83.4255 53.0056 81.5751 52.7337C78.416 52.2807 75.866 51.6238 73.9254 50.763L73.113 50.3553C71.5334 49.5851 70.0891 48.6112 68.7804 47.4331C67.0654 49.1548 65.1699 50.4685 63.0938 51.3746C61.8302 51.9183 59.9346 52.3713 57.4073 52.7337C55.4665 53.0056 53.3454 53.1415 51.0437 53.1415C45.312 53.1415 40.0768 51.5785 35.3379 48.4526C30.5992 45.2813 27.5077 41.0001 26.0635 35.6089C25.612 33.9327 25.3865 31.9393 25.3865 29.6287C25.3865 25.9592 26.1763 22.6293 27.7558 19.6393C20.58 21.1342 14.4646 24.6679 9.40991 30.2404C4.35519 35.8127 1.82782 41.6796 1.82782 47.8409C1.82782 52.5071 3.04637 56.7431 5.48347 60.5486C7.92057 64.3089 11.2829 66.8912 15.5703 68.2957C18.5942 65.7133 21.9114 64.4221 25.5219 64.4221C28.9519 64.4221 30.6668 65.215 30.6668 66.8006C30.6668 67.8426 29.8093 68.6581 28.0943 69.247C26.3793 69.836 24.1002 70.1304 21.2569 70.1304C19.2711 70.1304 17.3756 69.8586 15.5703 69.315C12.2306 72.7128 10.5608 77.0166 10.5608 82.2265C10.5608 89.7471 12.9076 95.4326 17.6013 99.2835C22.34 103.134 27.7108 105.06 33.7132 105.06C35.8344 105.06 37.7299 104.924 39.3997 104.652L39.2644 102.545L39.332 101.526L39.9413 104.516C45.6731 103.383 50.0057 101.254 52.9392 98.1282C55.9179 95.0023 57.4073 92.4426 57.4073 90.4492C57.4073 89.5431 57.5426 89.0901 57.8134 89.0901L58.0842 89.9055C58.0842 92.3973 56.5272 95.2968 53.413 98.6039C50.299 101.911 45.8536 104.199 40.0768 105.467C41.1599 110.587 43.6646 114.574 47.5911 117.428C51.5627 120.327 56.7302 121.777 63.0938 121.777C66.8397 121.777 70.5179 120.758 74.1284 118.719C77.739 116.725 80.4469 114.12 82.2521 110.904C78.4611 108.729 76.5655 105.626 76.5655 101.594C76.5655 98.8305 77.4907 97.4486 79.3412 97.4486C80.7402 97.4486 81.9361 98.1735 82.9292 99.6232C83.9671 101.118 84.4862 102.749 84.4862 104.516C84.4862 106.283 84.1024 108.14 83.3353 110.088C85.5918 111.176 88.4577 111.719 91.9328 111.719C98.2512 111.719 103.554 109.59 107.842 105.332C112.129 101.118 114.273 95.8857 114.273 89.6337C114.273 88.3652 114.137 87.1193 113.867 85.8962C112.648 86.2586 111.294 86.4398 109.805 86.4398C108.496 86.4398 106.962 86.1906 105.201 85.6924C103.486 85.1939 102.629 84.8315 102.629 84.6051L103.035 84.3332L103.847 84.6051C105.562 85.3299 107.593 85.6924 109.94 85.6924C111.339 85.6924 112.603 85.5111 113.731 85.1487C112.558 81.2072 110.301 78.0813 106.962 75.7707C103.667 73.4149 99.9662 72.237 95.8593 72.237C93.4222 72.237 91.0076 72.5542 88.6156 73.1885C86.4042 73.7774 84.283 74.842 82.2521 76.3824C78.9124 78.9194 76.4302 82.6569 74.8055 87.5951L74.467 88.3426L74.0607 88.0708C74.0607 87.1193 74.6926 85.3525 75.9562 82.7701C77.2199 80.1879 79.2282 77.8321 81.9813 75.7027C83.9219 74.2078 86.0882 73.1431 88.4803 72.5088C90.9174 71.8746 93.4222 71.5575 95.9946 71.5575C100.282 71.5575 104.118 72.7581 107.503 75.1591C110.933 77.5603 113.235 80.8448 114.408 85.0127C117.793 83.8348 120.411 81.6829 122.261 78.557C124.157 75.4311 125.104 71.5575 125.104 66.9365C125.104 60.6392 122.148 55.2934 116.236 50.899C113.122 63.3575 103.644 69.768 87.8034 70.1304C85.276 70.1758 82.8614 69.9492 80.5596 69.4509C78.5288 68.9978 76.3173 68.2503 73.9254 67.2084L73.113 66.8006C71.037 65.6227 69.367 64.4901 68.1034 63.4028C66.8849 62.2702 66.2756 61.5453 66.2756 61.2283L66.5464 61.0923C68.126 63.0404 70.3149 64.762 73.113 66.2569L73.9254 66.6647C76.3173 67.7066 78.5288 68.4541 80.5596 68.9073C82.6357 69.3602 85.0051 69.5414 87.6679 69.4509C102.787 68.9073 112.016 62.542 115.356 50.3553C113.551 49.1774 111.61 48.294 109.534 47.7051C108.586 47.4331 107.706 47.2973 106.894 47.2973H105.811C104.412 47.2973 103.238 47.5465 102.29 48.0447C101.388 48.5432 100.937 49.2226 100.937 50.0835C100.937 51.3972 101.681 52.0542 103.171 52.0542C103.893 52.0542 104.254 52.1675 104.254 52.3939C104.254 52.6205 103.893 52.7337 103.171 52.7337C101.14 52.7337 100.124 51.9863 100.124 50.4912C100.124 49.3586 100.621 48.4299 101.613 47.7051C102.606 46.9802 103.915 46.6178 105.54 46.6178H106.894C107.571 46.6178 108.541 46.799 109.805 47.1614C111.881 47.7503 113.776 48.5432 115.491 49.5398C115.988 47.0934 116.236 44.6696 116.236 42.2686C116.236 35.2464 114.025 28.6094 109.602 22.3575C105.179 16.0602 99.1313 11.0995 91.4589 7.47514C83.7866 3.80553 75.4824 1.97073 66.5464 1.97073C58.874 1.97073 51.5852 3.46574 44.6802 6.4558C37.8202 9.40055 32.788 13.4553 29.5836 18.6198C31.0278 18.4386 32.2239 18.3481 33.1716 18.3481C34.2097 18.3481 35.3379 18.4614 36.5565 18.6878C37.8202 18.9144 38.4521 19.1409 38.4521 19.3675C38.4521 19.6393 38.2489 19.7751 37.8427 19.7751L37.3689 19.6393C36.4211 19.2315 34.7513 19.0276 32.3592 19.0276C31.6371 19.0276 30.554 19.1409 29.1098 19.3675C27.3948 22.4481 26.5373 25.642 26.5373 28.9491C26.5373 31.1237 26.7629 33.1625 27.2142 35.0652C28.5231 40.6377 31.4341 44.9641 35.9472 48.0447C40.4604 51.0802 45.7182 52.5979 51.7207 52.5979C53.7516 52.5979 55.602 52.4619 57.2718 52.1901C59.032 51.9183 60.9726 51.3972 63.0938 50.6271C65.3955 49.8117 67.1557 48.6112 68.3741 47.0254C65.9822 44.3072 64.7862 41.0227 64.7862 37.1718C64.7862 34.7708 65.5309 32.7546 67.0202 31.1237C68.5096 29.4475 70.5405 28.5415 73.113 28.4055H73.9254C76.8138 28.4055 79.4088 29.2889 81.7105 31.0559C84.0123 32.8226 85.1631 34.9066 85.1631 37.3078C85.1631 38.8934 84.7117 40.2072 83.8091 41.2492C82.9517 42.2458 81.7783 42.7443 80.2889 42.7443C79.5668 42.7443 78.8672 42.563 78.1903 42.2006C77.5584 41.7928 76.8814 40.8189 76.1593 39.2784C75.4372 37.7382 74.6926 36.9906 73.9254 37.036L73.113 39.0746L72.7068 39.2106C71.7591 39.2106 71.2851 38.8028 71.2851 37.9873C71.2851 36.9906 71.8944 36.4243 73.113 36.2885C73.3386 36.2431 73.6094 36.2431 73.9254 36.2885C74.9183 36.379 75.7757 37.2172 76.4978 38.8028C77.2199 40.3431 77.8518 41.2945 78.3933 41.657C78.9801 41.974 79.612 42.1326 80.2889 42.1326C82.9967 42.1326 84.3507 40.5697 84.3507 37.4436C84.3507 35.4503 83.2902 33.6835 81.169 32.1432C79.0477 30.5574 76.6333 29.7647 73.9254 29.7647H73.113ZM63.0938 51.3746C63.2744 52.6431 63.3646 53.7078 63.3646 54.5685C63.3646 61.1829 61.8977 67.0272 58.9643 72.1012C64.5155 74.2758 67.291 77.9453 67.291 83.11C67.291 85.5564 66.6366 87.5951 65.3277 89.2261C64.0641 90.9022 63.1841 91.7405 62.6876 91.7405L62.5523 91.4006L62.8231 90.9928C63.4549 90.2227 63.7707 88.9315 63.7707 87.1193C63.7707 85.5338 63.2518 84.1066 62.2137 82.8381C61.2208 81.5244 58.6483 79.9841 54.4962 78.2171C51.3822 81.479 47.7717 83.9934 43.6646 85.7603C39.5577 87.4818 35.4508 88.3426 31.3438 88.3426C27.8236 88.3426 25.1157 87.5045 23.2201 85.8282C21.3246 84.1066 20.3768 82.068 20.3768 79.7122C20.3768 77.9453 20.8733 76.4956 21.8662 75.3631C22.9042 74.1852 24.3033 73.5961 26.0635 73.5961C29.5836 73.5961 31.3438 75.3631 31.3438 78.8968C31.3438 80.0747 30.9377 81.0034 30.1252 81.6829C29.358 82.3173 28.3426 82.6343 27.0789 82.6343C26.2666 82.6343 25.4315 82.3625 24.5741 81.8188C23.7617 81.2752 23.2427 80.6863 23.0171 80.0519C23.0171 81.9094 23.2201 83.3138 23.6263 84.2652C24.0777 85.2167 24.9803 86.032 26.3341 86.7117C27.7333 87.3459 29.4483 87.663 31.4793 87.663C35.0898 87.663 38.8808 86.7569 42.8524 84.9447C46.869 83.1326 50.254 80.6183 53.0069 77.4017C48.2682 74.91 45.8987 71.3763 45.8987 66.8006C45.8987 64.3089 46.7336 62.0437 48.4035 60.005C50.1185 57.9664 51.2242 56.9471 51.7207 56.9471L52.4653 57.2187L51.9238 57.6946C50.1185 58.9177 49.2159 60.7072 49.2159 63.063C49.2159 64.8752 49.7349 66.4155 50.7729 67.684C51.811 68.9073 53.7968 70.0851 56.7302 71.2177C57.8586 68.1824 58.4227 64.7166 58.4227 60.8204C58.4227 57.8758 58.0842 55.1801 57.4073 52.7337L57.2718 52.1901C54.4737 42.3591 48.8774 36.2885 40.4829 33.9779L39.806 33.8419C37.8653 33.4343 36.3083 33.2304 35.1349 33.2304C32.2464 33.2304 29.6063 33.8419 27.2142 35.0652L26.0635 35.6089C23.8068 37.0586 22.0693 38.9614 20.8508 41.3172C19.6322 43.673 19.023 46.142 19.023 48.7244C19.023 52.1675 20.0835 54.9537 22.2047 57.0829C24.371 59.2121 27.1917 60.2768 30.6668 60.2768C34.3677 60.2768 37.3914 59.3707 39.7383 57.5586L40.0768 57.3547L40.4829 57.6266C40.4829 57.989 39.49 58.6685 37.5042 59.6653C35.5636 60.6166 33.2393 61.0923 30.5314 61.0923C26.3341 61.0923 22.7688 59.5293 19.8352 56.4034C16.9017 53.2774 15.435 49.4492 15.435 44.9188C15.435 42.0646 16.3151 39.2558 18.0752 36.4923C19.8352 33.7287 22.2725 31.4409 25.3865 29.6287L26.5373 28.9491C29.9221 27.0917 33.6906 26.163 37.8427 26.163H39.5352C45.8084 26.6613 51.0889 29.1531 55.3763 33.6381C59.7089 38.0779 62.2815 43.741 63.0938 50.6271V51.3746ZM97.6193 36.6282C94.3699 34.6348 92.7451 32.0752 92.7451 28.9491C92.7451 27.726 92.9934 26.5707 93.4898 25.4834L93.896 24.5999C94.7987 23.1502 95.9496 21.9951 97.3486 21.1342C98.7928 20.2282 100.034 19.7751 101.072 19.7751L101.681 20.0469L100.733 20.5227C98.3866 21.2928 97.2132 22.6519 97.2132 24.5999C97.2132 25.5968 97.5291 26.5933 98.1609 27.5901C98.7928 28.5415 100.621 29.9459 103.644 31.8033C106.668 33.6155 108.631 35.3597 109.534 37.036C110.482 38.6669 110.956 40.3657 110.956 42.1326C110.956 43.99 110.572 45.6663 109.805 47.1614L109.534 47.7051C108.722 49.2453 107.684 50.4685 106.42 51.3746C105.201 52.2807 104.118 52.7337 103.171 52.7337C102.448 52.7337 102.087 52.6205 102.087 52.3939C102.087 52.1675 102.448 52.0542 103.171 52.0542C103.938 52.0542 104.705 51.6238 105.472 50.763C106.285 49.8569 106.759 48.7016 106.894 47.2973V46.6178C106.894 45.0773 106.488 43.6276 105.675 42.2686C104.863 40.9093 102.832 39.3692 99.5826 37.6475L98.4317 37.036L97.6193 36.6282ZM73.9254 55.7918H80.8304C80.9207 55.0215 81.169 54.0022 81.5751 52.7337L81.7105 52.1901C83.3803 46.6178 85.5918 42.4951 88.3449 39.8221C91.1429 37.1038 92.9482 35.7448 93.7607 35.7448L94.0314 35.8807L93.2191 36.7641C89.5182 39.7994 87.3746 45.0321 86.7878 52.4619V53.0056C86.6975 53.7757 86.6525 55.0895 86.6525 56.9471C86.6525 62.0663 86.9908 66.2343 87.6679 69.4509L87.8034 70.1304C88.074 71.2631 88.2997 72.0558 88.4803 72.5088L88.6156 73.1885C90.4208 78.489 93.4222 81.1392 97.6193 81.1392C99.7406 81.1392 101.613 80.0973 103.238 78.0133L103.983 77.2658L104.118 77.5377C104.118 78.9874 101.252 81.8188 95.5208 86.032C93.6252 87.4365 91.6845 89.6111 89.6987 92.5558L89.4281 92.1481C89.4281 91.6497 90.4435 90.0188 92.4744 87.2553L91.7297 86.8476C87.1714 85.0355 84.0123 81.547 82.2521 76.3824L81.9813 75.7027C81.3495 74.2078 80.8756 72.1238 80.5596 69.4509V68.9073C80.3791 66.6873 80.2889 64.7846 80.2889 63.1989V60.9564H73.9254V83.11C73.9254 83.7896 73.7899 84.1294 73.5191 84.1294C73.2483 84.1294 73.113 83.7896 73.113 83.11V23.241C73.113 22.5613 73.2483 22.2215 73.5191 22.2215C73.7899 22.2215 73.9254 22.5613 73.9254 23.241V55.7918ZM16.3827 68.6353C18.1879 69.179 20.1287 69.4509 22.2047 69.4509C24.1002 69.4509 25.8152 69.2017 27.3497 68.7033C28.9292 68.205 29.7191 67.6614 29.7191 67.0724C29.7191 66.5287 29.358 66.0757 28.6359 65.7133C27.9138 65.3056 27.0112 65.1018 25.928 65.1018C22.182 65.1018 19.0003 66.2795 16.3827 68.6353ZM82.7937 109.817C83.4255 108.186 83.7414 106.736 83.7414 105.467C83.7414 103.746 83.2902 102.138 82.3876 100.643C81.53 99.1475 80.5146 98.4001 79.3412 98.4001C78.7093 98.4001 78.1903 98.7399 77.784 99.4194C77.423 100.099 77.2424 100.824 77.2424 101.594C77.2424 105.173 79.0929 107.914 82.7937 109.817Z" fill="#0D0C0B"/>
</g>
<defs>
<clipPath id="clip0_1193_1141">
<rect width="127" height="123" rx="50" fill="white"/>
</clipPath>
</defs>
</svg>
