<svg width="88" height="85" viewBox="0 0 88 85" fill="none" xmlns="http://www.w3.org/2000/svg">
<g clip-path="url(#clip0_924_275)">
<rect width="87.9375" height="84.8437" rx="42.4218" fill="#0D0C0B"/>
<path d="M80.5781 34.5469C85.4843 37.7344 87.9375 41.7031 87.9375 46.4531C87.9375 49.2969 87.1562 51.9063 85.5937 54.2813C84.0312 56.625 81.9375 58.2344 79.3125 59.1094C79.5625 59.9844 79.6875 61.0156 79.6875 62.2031C79.6875 66.9844 78.1875 70.8281 75.1875 73.7344C72.2187 76.6719 68.3125 78.1406 63.4687 78.1406C61.125 78.1406 59.0781 77.6563 57.3281 76.6875C56.0781 79.1563 54.1875 81.125 51.6562 82.5937C49.125 84.0937 46.5 84.8437 43.7812 84.8437C39.375 84.8437 35.7656 83.7813 32.9531 81.6563C30.1406 79.5313 28.3125 76.5937 27.4687 72.8437C25.625 73.125 24.0625 73.2656 22.7812 73.2656C17.875 73.2656 13.9062 71.7969 10.875 68.8594C7.875 65.9219 6.375 62.2969 6.375 57.9844C6.375 53.7344 7.64062 50.3125 10.1719 47.7187C7.07812 46.6563 4.60938 44.8125 2.76562 42.1875C0.921875 39.5313 0 36.5781 0 33.3281C0 29.0469 1.875 24.8594 5.625 20.7656C9.375 16.6406 13.9687 14.0313 19.4062 12.9375C21.5937 8.875 25.1406 5.70313 30.0469 3.42188C34.9843 1.14062 39.9843 0 45.0469 0C51.6406 0 57.7031 1.35938 63.2343 4.07812C68.7969 6.79688 73.1719 10.4531 76.3593 15.0469C79.5469 19.6406 81.1406 24.3437 81.1406 29.1563C81.1406 31.125 80.9531 32.9219 80.5781 34.5469ZM38.5312 13.7344C38.5312 13.3281 38.2656 12.9687 37.7343 12.6563C37.5469 12.9375 37.4531 13.2344 37.4531 13.5469C37.4531 14.0469 37.6406 14.2969 38.0156 14.2969C38.3593 14.2969 38.5312 14.1094 38.5312 13.7344ZM50.625 20.5313C49.0312 20.6563 47.7812 21.2969 46.875 22.4531C45.9687 23.5781 45.5156 24.8906 45.5156 26.3906C45.5156 28.5469 46.2187 30.4375 47.625 32.0625C48.25 31.25 48.7031 30.1563 48.9843 28.7813L49.1719 29.1563C49.1719 30.0937 48.75 31.1563 47.9062 32.3437C48.5625 33.1563 49.4687 33.8281 50.625 34.3594L51.1875 34.6406C52.8125 35.3594 54.6093 35.8125 56.5781 36C58.3906 36.1875 59.5625 36.25 60.0937 36.1875C62.5 35.9687 64.375 35.1094 65.7187 33.6094C67.0937 32.1094 67.7812 30.2187 67.7812 27.9375C67.7812 27.25 67.7187 26.3594 67.5937 25.2656C67.2812 22.4844 66.3281 19.9219 64.7343 17.5781C62.7969 14.7344 59.4843 12.4844 54.7969 10.8281L54.2812 10.6406L53.5781 10.7344C53.2031 10.7344 52.9531 10.5469 52.8281 10.1719L52.5469 10.0781C52.2969 10.2031 52.0937 10.2656 51.9375 10.2656C51.6875 10.1719 51.4687 10.0469 51.2812 9.8906L50.9062 9.7969C50.7187 10.4219 50.3281 10.7344 49.7343 10.7344C49.2031 10.7344 48.8593 10.4219 48.7031 9.7969L48.4219 9.7031C48.2969 9.8906 48.0312 9.9844 47.625 9.9844C47.4062 9.9844 47.0937 9.8281 46.6875 9.5156C46.5937 9.8281 46.3437 9.9844 45.9375 9.9844C45.7187 9.9844 45.4531 9.8281 45.1406 9.5156L44.0156 9.8437C40.7343 10.625 38.7343 11.4688 38.0156 12.375C38.6093 12.75 38.9062 13.2031 38.9062 13.7344C38.9062 14.5469 38.6093 14.9531 38.0156 14.9531C37.3906 14.9531 37.0781 14.4219 37.0781 13.3594C37.0781 13.0469 37.1719 12.75 37.3593 12.4687C36.6093 12.2187 35.9687 12.0937 35.4375 12.0937C33.5937 12.0937 31.8593 12.6563 30.2343 13.7813C28.6093 14.9063 27.6562 16.3281 27.375 18.0469C27.0937 19.7969 27.3125 21.5937 28.0312 23.4375C28.875 25.5937 30.4375 27.0781 32.7187 27.8906L33.0469 28.0313L32.7656 28.2187C32.1406 28.2187 31.2812 27.8281 30.1875 27.0469C29.0937 26.2344 28.2187 25 27.5625 23.3437C26.9062 21.6875 26.7187 19.9219 27 18.0469C27.2812 16.1406 28.2187 14.6094 29.8125 13.4531C31.4375 12.2969 33.2187 11.7187 35.1562 11.7187C36.1875 11.7187 37.0156 11.875 37.6406 12.1875C38.3906 11.375 39.5625 10.6719 41.1562 10.0781C42.75 9.4844 43.9375 9.1875 44.7187 9.1875L45.0469 9.2344C45.4219 8.82812 45.7343 8.625 45.9843 8.625L46.5 9H46.875C46.9375 8.6875 47.25 8.53125 47.8125 8.53125C47.9687 8.53125 48.1406 8.6875 48.3281 9H48.7031C48.8593 8.375 49.2031 8.0625 49.7343 8.0625C50.3281 8.0625 50.75 8.40625 51 9.09375L51.2812 9.2344C51.5312 8.95312 51.75 8.8125 51.9375 8.8125C52.3437 8.8125 52.6406 9.04688 52.8281 9.5156L53.2031 9.7031L53.5781 9.5156C53.8593 9.5156 54.1562 9.7344 54.4687 10.1719C59.2812 11.8281 62.7969 14.0937 65.0156 16.9687C66.4531 19.25 67.5 22.1094 68.1562 25.5469C68.25 25.8906 68.2969 26.4687 68.2969 27.2813C68.2969 29.9375 67.5469 32.125 66.0469 33.8437C64.5781 35.5313 62.5937 36.4375 60.0937 36.5625C58.9687 36.625 57.7656 36.5625 56.4843 36.375C54.2969 36.0625 52.5312 35.6094 51.1875 35.0156L50.625 34.7344C49.5312 34.2031 48.5312 33.5313 47.625 32.7187C46.4375 33.9063 45.125 34.8125 43.6875 35.4375C42.8125 35.8125 41.5 36.125 39.75 36.375C38.4062 36.5625 36.9375 36.6563 35.3437 36.6563C31.375 36.6563 27.75 35.5781 24.4687 33.4219C21.1875 31.2344 19.0469 28.2813 18.0469 24.5625C17.7343 23.4063 17.5781 22.0313 17.5781 20.4375C17.5781 17.9063 18.125 15.6094 19.2187 13.5469C14.25 14.5781 10.0156 17.0156 6.51562 20.8594C3.01562 24.7031 1.26562 28.75 1.26562 33C1.26562 36.2187 2.10938 39.1406 3.79688 41.7656C5.48438 44.3594 7.81251 46.1406 10.7812 47.1094C12.875 45.3281 15.1719 44.4375 17.6719 44.4375C20.0469 44.4375 21.2343 44.9844 21.2343 46.0781C21.2343 46.7969 20.6406 47.3594 19.4531 47.7656C18.2656 48.1719 16.6875 48.375 14.7187 48.375C13.3437 48.375 12.0312 48.1875 10.7812 47.8125C8.46875 50.1563 7.3125 53.125 7.3125 56.7187C7.3125 61.9063 8.9375 65.8281 12.1875 68.4844C15.4687 71.1406 19.1875 72.4687 23.3437 72.4687C24.8125 72.4687 26.125 72.375 27.2812 72.1875L27.1875 70.7344L27.2343 70.0313L27.6562 72.0937C31.625 71.3125 34.625 69.8437 36.6562 67.6875C38.7187 65.5313 39.75 63.7656 39.75 62.3906C39.75 61.7656 39.8437 61.4531 40.0312 61.4531L40.2187 62.0156C40.2187 63.7344 39.1406 65.7344 36.9843 68.0156C34.8281 70.2969 31.75 71.875 27.75 72.75C28.5 76.2813 30.2343 79.0313 32.9531 81C35.7031 83 39.2812 84 43.6875 84C46.2812 84 48.8281 83.2969 51.3281 81.8906C53.8281 80.5156 55.7031 78.7187 56.9531 76.5C54.3281 75 53.0156 72.8594 53.0156 70.0781C53.0156 68.1719 53.6562 67.2187 54.9375 67.2187C55.9062 67.2187 56.7343 67.7187 57.4219 68.7187C58.1406 69.75 58.5 70.875 58.5 72.0937C58.5 73.3125 58.2343 74.5937 57.7031 75.9375C59.2656 76.6875 61.25 77.0625 63.6562 77.0625C68.0312 77.0625 71.7031 75.5937 74.6719 72.6563C77.6406 69.75 79.125 66.1406 79.125 61.8281C79.125 60.9531 79.0312 60.0937 78.8437 59.25C78 59.5 77.0625 59.625 76.0312 59.625C75.125 59.625 74.0625 59.4531 72.8437 59.1094C71.6562 58.7656 71.0625 58.5156 71.0625 58.3594L71.3437 58.1719L71.9062 58.3594C73.0937 58.8594 74.5 59.1094 76.125 59.1094C77.0937 59.1094 77.9687 58.9844 78.75 58.7344C77.9375 56.0156 76.375 53.8594 74.0625 52.2656C71.7812 50.6406 69.2187 49.8281 66.375 49.8281C64.6875 49.8281 63.0156 50.0469 61.3593 50.4844C59.8281 50.8906 58.3593 51.625 56.9531 52.6875C54.6406 54.4375 52.9219 57.0156 51.7969 60.4219L51.5625 60.9375L51.2812 60.75C51.2812 60.0937 51.7187 58.875 52.5937 57.0937C53.4687 55.3125 54.8593 53.6875 56.7656 52.2187C58.1093 51.1875 59.6093 50.4531 61.2656 50.0156C62.9531 49.5781 64.6875 49.3594 66.4687 49.3594C69.4375 49.3594 72.0937 50.1875 74.4375 51.8437C76.8125 53.5 78.4062 55.7656 79.2187 58.6406C81.5625 57.8281 83.375 56.3437 84.6562 54.1875C85.9687 52.0313 86.625 49.3594 86.625 46.1719C86.625 41.8281 84.5781 38.1406 80.4843 35.1094C78.3281 43.7031 71.7656 48.125 60.7969 48.375C59.0469 48.4063 57.375 48.25 55.7812 47.9063C54.375 47.5937 52.8437 47.0781 51.1875 46.3594L50.625 46.0781C49.1875 45.2656 48.0312 44.4844 47.1562 43.7344C46.3125 42.9531 45.8906 42.4531 45.8906 42.2344L46.0781 42.1406C47.1719 43.4844 48.6875 44.6719 50.625 45.7031L51.1875 45.9844C52.8437 46.7031 54.375 47.2187 55.7812 47.5313C57.2187 47.8437 58.8593 47.9687 60.7031 47.9063C71.1719 47.5313 77.5625 43.1406 79.875 34.7344C78.625 33.9219 77.2812 33.3125 75.8437 32.9063C75.1875 32.7187 74.5781 32.625 74.0156 32.625H73.2656C72.2969 32.625 71.4843 32.7969 70.8281 33.1406C70.2031 33.4844 69.8906 33.9531 69.8906 34.5469C69.8906 35.4531 70.4062 35.9063 71.4375 35.9063C71.9375 35.9063 72.1875 35.9844 72.1875 36.1406C72.1875 36.2969 71.9375 36.375 71.4375 36.375C70.0312 36.375 69.3281 35.8594 69.3281 34.8281C69.3281 34.0469 69.6719 33.4063 70.3593 32.9063C71.0469 32.4063 71.9531 32.1563 73.0781 32.1563H74.0156C74.4843 32.1563 75.1562 32.2813 76.0312 32.5313C77.4687 32.9375 78.7812 33.4844 79.9687 34.1719C80.3125 32.4844 80.4843 30.8125 80.4843 29.1563C80.4843 24.3125 78.9531 19.7344 75.8906 15.4219C72.8281 11.0781 68.6406 7.65625 63.3281 5.15625C58.0156 2.625 52.2656 1.35938 46.0781 1.35938C40.7656 1.35938 35.7187 2.39062 30.9375 4.45312C26.1875 6.48437 22.7031 9.2813 20.4843 12.8437C21.4843 12.7187 22.3125 12.6563 22.9687 12.6563C23.6875 12.6563 24.4687 12.7344 25.3125 12.8906C26.1875 13.0469 26.625 13.2031 26.625 13.3594C26.625 13.5469 26.4843 13.6406 26.2031 13.6406L25.875 13.5469C25.2187 13.2656 24.0625 13.125 22.4062 13.125C21.9062 13.125 21.1562 13.2031 20.1562 13.3594C18.9687 15.4844 18.375 17.6875 18.375 19.9687C18.375 21.4687 18.5312 22.875 18.8437 24.1875C19.75 28.0313 21.7656 31.0156 24.8906 33.1406C28.0156 35.2344 31.6562 36.2813 35.8125 36.2813C37.2187 36.2813 38.5 36.1875 39.6562 36C40.875 35.8125 42.2187 35.4531 43.6875 34.9219C45.2812 34.3594 46.5 33.5313 47.3437 32.4375C45.6875 30.5625 44.8593 28.2969 44.8593 25.6406C44.8593 23.9844 45.375 22.5937 46.4062 21.4687C47.4375 20.3125 48.8437 19.6875 50.625 19.5937H51.1875C53.1875 19.5937 54.9843 20.2031 56.5781 21.4219C58.1719 22.6406 58.9687 24.0781 58.9687 25.7344C58.9687 26.8281 58.6562 27.7344 58.0312 28.4531C57.4375 29.1406 56.625 29.4844 55.5937 29.4844C55.0937 29.4844 54.6093 29.3594 54.1406 29.1094C53.7031 28.8281 53.2343 28.1563 52.7343 27.0937C52.2343 26.0313 51.7187 25.5156 51.1875 25.5469L50.625 26.9531L50.3437 27.0469C49.6875 27.0469 49.3593 26.7656 49.3593 26.2031C49.3593 25.5156 49.7812 25.125 50.625 25.0313C50.7812 25 50.9687 25 51.1875 25.0313C51.875 25.0937 52.4687 25.6719 52.9687 26.7656C53.4687 27.8281 53.9062 28.4844 54.2812 28.7344C54.6875 28.9531 55.125 29.0625 55.5937 29.0625C57.4687 29.0625 58.4062 27.9844 58.4062 25.8281C58.4062 24.4531 57.6719 23.2344 56.2031 22.1719C54.7343 21.0781 53.0625 20.5313 51.1875 20.5313H50.625ZM43.6875 35.4375C43.8125 36.3125 43.875 37.0469 43.875 37.6406C43.875 42.2031 42.8593 46.2344 40.8281 49.7344C44.6719 51.2344 46.5937 53.7656 46.5937 57.3281C46.5937 59.0156 46.1406 60.4219 45.2343 61.5469C44.3593 62.7031 43.75 63.2813 43.4062 63.2813L43.3125 63.0469L43.5 62.7656C43.9375 62.2344 44.1562 61.3437 44.1562 60.0937C44.1562 59 43.7969 58.0156 43.0781 57.1406C42.3906 56.2344 40.6093 55.1719 37.7343 53.9531C35.5781 56.2031 33.0781 57.9375 30.2343 59.1563C27.3906 60.3437 24.5469 60.9375 21.7031 60.9375C19.2656 60.9375 17.3906 60.3594 16.0781 59.2031C14.7656 58.0156 14.1093 56.6094 14.1093 54.9844C14.1093 53.7656 14.4531 52.7656 15.1406 51.9844C15.8593 51.1719 16.8281 50.7656 18.0469 50.7656C20.4843 50.7656 21.7031 51.9844 21.7031 54.4219C21.7031 55.2344 21.4219 55.875 20.8593 56.3437C20.3281 56.7813 19.625 57 18.75 57C18.1875 57 17.6093 56.8125 17.0156 56.4375C16.4531 56.0625 16.0937 55.6563 15.9375 55.2187C15.9375 56.5 16.0781 57.4687 16.3593 58.125C16.6719 58.7813 17.2969 59.3437 18.2343 59.8125C19.2031 60.25 20.3906 60.4687 21.7969 60.4687C24.2969 60.4687 26.9219 59.8437 29.6719 58.5937C32.4531 57.3437 34.7969 55.6094 36.7031 53.3906C33.4219 51.6719 31.7812 49.2344 31.7812 46.0781C31.7812 44.3594 32.3593 42.7969 33.5156 41.3906C34.7031 39.9844 35.4687 39.2813 35.8125 39.2813L36.3281 39.4687L35.9531 39.7969C34.7031 40.6406 34.0781 41.875 34.0781 43.5C34.0781 44.75 34.4375 45.8125 35.1562 46.6875C35.875 47.5313 37.25 48.3437 39.2812 49.125C40.0625 47.0313 40.4531 44.6406 40.4531 41.9531C40.4531 39.9219 40.2187 38.0625 39.75 36.375L39.6562 36C37.7187 29.2187 33.8437 25.0313 28.0312 23.4375L27.5625 23.3437C26.2187 23.0625 25.1406 22.9219 24.3281 22.9219C22.3281 22.9219 20.5 23.3437 18.8437 24.1875L18.0469 24.5625C16.4843 25.5625 15.2812 26.875 14.4375 28.5C13.5937 30.125 13.1719 31.8281 13.1719 33.6094C13.1719 35.9844 13.9062 37.9063 15.375 39.375C16.875 40.8437 18.8281 41.5781 21.2343 41.5781C23.7969 41.5781 25.8906 40.9531 27.5156 39.7031L27.75 39.5625L28.0312 39.75C28.0312 40 27.3437 40.4687 25.9687 41.1563C24.625 41.8125 23.0156 42.1406 21.1406 42.1406C18.2343 42.1406 15.7656 41.0625 13.7343 38.9063C11.7031 36.75 10.6875 34.1094 10.6875 30.9844C10.6875 29.0156 11.2969 27.0781 12.5156 25.1719C13.7343 23.2656 15.4219 21.6875 17.5781 20.4375L18.375 19.9687C20.7187 18.6875 23.3281 18.0469 26.2031 18.0469H27.375C31.7187 18.3906 35.375 20.1094 38.3437 23.2031C41.3437 26.2656 43.125 30.1719 43.6875 34.9219V35.4375ZM67.5937 25.2656C65.3437 23.8906 64.2187 22.125 64.2187 19.9687C64.2187 19.125 64.3906 18.3281 64.7343 17.5781L65.0156 16.9687C65.6406 15.9687 66.4375 15.1719 67.4062 14.5781C68.4062 13.9531 69.2656 13.6406 69.9843 13.6406L70.4062 13.8281L69.75 14.1563C68.125 14.6875 67.3125 15.625 67.3125 16.9687C67.3125 17.6563 67.5312 18.3437 67.9687 19.0313C68.4062 19.6875 69.6719 20.6563 71.7656 21.9375C73.8593 23.1875 75.2187 24.3906 75.8437 25.5469C76.5 26.6719 76.8281 27.8437 76.8281 29.0625C76.8281 30.3437 76.5625 31.5 76.0312 32.5313L75.8437 32.9063C75.2812 33.9687 74.5625 34.8125 73.6875 35.4375C72.8437 36.0625 72.0937 36.375 71.4375 36.375C70.9375 36.375 70.6875 36.2969 70.6875 36.1406C70.6875 35.9844 70.9375 35.9063 71.4375 35.9063C71.9687 35.9063 72.5 35.6094 73.0312 35.0156C73.5937 34.3906 73.9219 33.5937 74.0156 32.625V32.1563C74.0156 31.0937 73.7343 30.0937 73.1719 29.1563C72.6093 28.2187 71.2031 27.1563 68.9531 25.9687L68.1562 25.5469L67.5937 25.2656ZM51.1875 38.4844H55.9687C56.0312 37.9531 56.2031 37.25 56.4843 36.375L56.5781 36C57.7343 32.1563 59.2656 29.3125 61.1719 27.4687C63.1093 25.5937 64.3593 24.6563 64.9219 24.6563L65.1093 24.75L64.5469 25.3594C61.9843 27.4531 60.5 31.0625 60.0937 36.1875V36.5625C60.0312 37.0937 60 38 60 39.2813C60 42.8125 60.2343 45.6875 60.7031 47.9063L60.7969 48.375C60.9843 49.1563 61.1406 49.7031 61.2656 50.0156L61.3593 50.4844C62.6093 54.1406 64.6875 55.9687 67.5937 55.9687C69.0625 55.9687 70.3593 55.25 71.4843 53.8125L72 53.2969L72.0937 53.4844C72.0937 54.4844 70.1093 56.4375 66.1406 59.3437C64.8281 60.3125 63.4843 61.8125 62.1093 63.8437L61.9219 63.5625C61.9219 63.2187 62.625 62.0937 64.0312 60.1875L63.5156 59.9063C60.3593 58.6563 58.1719 56.25 56.9531 52.6875L56.7656 52.2187C56.3281 51.1875 56 49.75 55.7812 47.9063V47.5313C55.6562 46 55.5937 44.6875 55.5937 43.5937V42.0469H51.1875V57.3281C51.1875 57.7969 51.0937 58.0313 50.9062 58.0313C50.7187 58.0313 50.625 57.7969 50.625 57.3281V16.0313C50.625 15.5625 50.7187 15.3281 50.9062 15.3281C51.0937 15.3281 51.1875 15.5625 51.1875 16.0313V38.4844ZM11.3437 47.3437C12.5937 47.7187 13.9375 47.9063 15.375 47.9063C16.6875 47.9063 17.875 47.7344 18.9375 47.3906C20.0312 47.0469 20.5781 46.6719 20.5781 46.2656C20.5781 45.8906 20.3281 45.5781 19.8281 45.3281C19.3281 45.0469 18.7031 44.9063 17.9531 44.9063C15.3593 44.9063 13.1562 45.7187 11.3437 47.3437ZM57.3281 75.75C57.7656 74.625 57.9843 73.625 57.9843 72.75C57.9843 71.5625 57.6719 70.4531 57.0469 69.4219C56.4531 68.3906 55.75 67.875 54.9375 67.875C54.5 67.875 54.1406 68.1094 53.8593 68.5781C53.6093 69.0469 53.4843 69.5469 53.4843 70.0781C53.4843 72.5469 54.7656 74.4375 57.3281 75.75Z" fill="#C5B29A"/>
</g>
<rect x="0.5" y="0.5" width="86.9375" height="83.8437" rx="41.9218" stroke="#C5B29A"/>
<defs>
<clipPath id="clip0_924_275">
<rect width="87.9375" height="84.8437" rx="42.4218" fill="white"/>
</clipPath>
</defs>
</svg>
