<svg width="101" height="28" viewBox="0 0 101 28" fill="none" xmlns="http://www.w3.org/2000/svg">
<path d="M1.15562 22.5V4.57034H8.92981C10.2955 4.57034 11.4424 4.75418 12.3704 5.12188C13.3043 5.48958 14.0076 6.00903 14.4803 6.68022C14.9589 7.35142 15.1982 8.14226 15.1982 9.05275C15.1982 9.71227 15.0523 10.3134 14.7605 10.8562C14.4745 11.399 14.0718 11.8543 13.5523 12.222C13.0329 12.5838 12.4259 12.8348 11.7313 12.9749V13.15C12.5017 13.1791 13.2021 13.3747 13.8325 13.7365C14.4628 14.0926 14.9647 14.5857 15.3383 15.2161C15.7118 15.8406 15.8986 16.576 15.8986 17.4223C15.8986 18.4028 15.6418 19.2753 15.1282 20.0399C14.6204 20.8045 13.8967 21.4057 12.957 21.8434C12.0173 22.2811 10.8967 22.5 9.59517 22.5H1.15562ZM6.02325 18.6129H8.29947C9.11658 18.6129 9.72941 18.4612 10.138 18.1577C10.5465 17.8483 10.7508 17.3931 10.7508 16.7919C10.7508 16.3717 10.6545 16.0157 10.4619 15.7238C10.2693 15.432 9.99497 15.2102 9.63895 15.0585C9.28876 14.9067 8.86561 14.8309 8.36951 14.8309H6.02325V18.6129ZM6.02325 11.8192H8.01932C8.44539 11.8192 8.82184 11.7521 9.14868 11.6179C9.47552 11.4836 9.72941 11.291 9.91034 11.0401C10.0971 10.7833 10.1905 10.471 10.1905 10.1033C10.1905 9.54885 9.99205 9.12571 9.59517 8.83388C9.19829 8.53622 8.69635 8.38739 8.08936 8.38739H6.02325V11.8192ZM17.183 22.5V4.57034H24.9222C26.2529 4.57034 27.4173 4.81255 28.4153 5.29698C29.4134 5.78141 30.1896 6.47886 30.7441 7.38936C31.2985 8.29985 31.5758 9.39127 31.5758 10.6636C31.5758 11.9476 31.2898 13.0303 30.7178 13.9116C30.1517 14.7929 29.355 15.4583 28.3278 15.9077C27.3064 16.3571 26.1128 16.5818 24.7471 16.5818H20.1246V12.7998H23.7666C24.3385 12.7998 24.8259 12.7297 25.2286 12.5897C25.6372 12.4437 25.9494 12.2132 26.1654 11.898C26.3871 11.5829 26.498 11.1714 26.498 10.6636C26.498 10.15 26.3871 9.7327 26.1654 9.4117C25.9494 9.08485 25.6372 8.84556 25.2286 8.69381C24.8259 8.53622 24.3385 8.45743 23.7666 8.45743H22.0506V22.5H17.183ZM27.6887 14.2706L32.1711 22.5H26.8832L22.5059 14.2706H27.6887ZM37.8679 22.5H32.6151L38.5333 4.57034H45.1869L51.105 22.5H45.8522L41.9301 9.508H41.79L37.8679 22.5ZM36.8874 15.4262H46.7627V19.0682H36.8874V15.4262ZM67.905 4.57034V22.5H63.8428L57.3644 13.0799H57.2593V22.5H52.3917V4.57034H56.5239L62.8973 13.9554H63.0374V4.57034H67.905ZM76.666 22.5H69.7673V4.57034H76.596C78.4403 4.57034 80.0337 4.92928 81.3761 5.64717C82.7243 6.35922 83.7632 7.38644 84.4927 8.72883C85.2281 10.0654 85.5958 11.6675 85.5958 13.5352C85.5958 15.4028 85.231 17.0079 84.5015 18.3503C83.7719 19.6868 82.7389 20.714 81.4023 21.4319C80.0658 22.144 78.487 22.5 76.666 22.5ZM74.6349 18.3678H76.4909C77.3781 18.3678 78.1339 18.2248 78.7584 17.9388C79.3887 17.6528 79.8673 17.1596 80.1942 16.4592C80.5268 15.7589 80.6932 14.7842 80.6932 13.5352C80.6932 12.2862 80.5239 11.3115 80.1854 10.6111C79.8527 9.91071 79.3625 9.41753 78.7146 9.13154C78.0726 8.84556 77.2847 8.70256 76.3508 8.70256H74.6349V18.3678Z" fill="black"/>
<path d="M87.2218 2.83082V1.52344H92.4163V2.83082H90.6186V7.5H89.0194V2.83082H87.2218ZM92.8801 1.52344H94.8996L96.2887 4.9086H96.3587L97.7478 1.52344H99.7672V7.5H98.1797V4.0448H98.133L96.8023 7.45331H95.8451L94.5144 4.02146H94.4677V7.5H92.8801V1.52344Z" fill="black"/>
</svg>
