<svg width="2916" height="328" viewBox="0 0 2916 328" fill="none" xmlns="http://www.w3.org/2000/svg">
<path d="M38.5086 283.35V41.25C38.5086 27.75 38.5086 22.35 35.8086 18.3C32.6586 13.8 28.1586 12.45 2.50859 12C1.15859 12 0.258595 11.55 0.258595 9.29998C0.258595 7.49997 0.708594 6.14999 2.50859 6.14999C13.7586 6.14999 42.5586 6.59999 55.1586 6.59999C69.5586 6.59999 102.409 6.14999 108.709 6.14999C110.509 6.14999 110.959 7.04998 110.959 8.84998C110.959 11.1 110.059 12 108.259 12C81.2586 12 77.6586 14.7 74.9586 18.75C72.7086 21.9 72.7086 30 72.7086 41.25V283.35C72.7086 295.5 72.7086 302.25 75.4086 306.3C78.1086 310.35 85.7586 311.25 92.9586 311.25H137.959C160.459 311.25 175.309 308.1 182.959 304.5C191.959 300.45 199.159 293.25 203.209 286.05C207.709 277.95 213.109 259.5 214.909 244.2C215.359 241.05 216.259 240.6 218.509 240.6C221.209 240.6 222.109 240.6 222.109 244.2C222.109 248.7 221.659 266.25 221.659 276.6C221.659 286.95 222.109 306.3 222.109 311.25C222.109 316.2 221.209 318 214.459 318C176.659 318 79.0086 317.55 54.2586 317.55C41.6586 317.55 13.7586 318 2.50859 318C0.708594 318 0.258595 317.1 0.258595 315.3C0.258595 312.6 1.15859 312.15 2.50859 312.15C22.7586 312.15 33.5586 311.25 35.8086 306.3C38.5086 301.35 38.5086 293.25 38.5086 283.35ZM287.679 283.35V41.25C287.679 25.95 287.229 21.45 284.529 17.85C280.929 13.35 275.979 12.45 251.679 12C250.329 12 249.429 12 249.429 9.29998C249.429 7.49997 249.879 6.14999 251.679 6.14999C262.929 6.14999 290.829 6.59999 303.429 6.59999C328.179 6.59999 414.129 6.14999 451.929 6.14999C456.879 6.14999 457.779 7.49997 457.779 11.1C457.779 17.85 457.329 33.15 457.329 41.7C457.329 52.95 457.329 65.55 457.779 75.45C457.779 79.05 457.329 79.5 454.629 79.5C451.929 79.5 451.479 79.05 451.029 75.9C448.329 44.85 440.679 26.85 421.779 18.3C415.029 15.15 397.029 12.9 381.729 12.9H342.129C334.929 12.9 327.279 13.8 324.579 17.85C321.879 21.9 321.879 28.2 321.879 40.8V153.75H351.129C365.079 153.75 381.729 153.3 388.479 149.7C399.729 143.85 405.579 133.05 407.379 107.85C407.829 104.7 408.279 104.25 410.979 104.25C413.679 104.25 414.129 104.7 414.129 108.3C414.129 115.5 413.679 136.65 413.679 157.35C413.679 178.05 414.129 197.85 414.129 205.95C414.129 209.55 413.679 210 410.979 210C408.279 210 407.829 209.55 407.379 206.4C405.129 182.1 401.079 171.75 388.929 164.55C381.729 160.95 365.979 160.5 351.129 160.5H321.879V283.35C321.879 295.5 321.879 302.25 324.579 306.3C327.279 310.35 334.929 311.25 342.129 311.25H387.129C412.329 311.25 424.479 308.1 432.129 304.5C441.129 300.45 448.329 293.25 452.379 286.05C456.879 277.95 462.729 259.5 464.079 243.75C464.529 240.6 465.429 240.6 467.679 240.6C470.379 240.6 470.829 241.05 470.829 244.65C470.829 255 470.379 266.7 470.379 277.05C470.379 287.4 470.829 302.25 470.829 312.6C470.829 317.1 469.479 318 463.179 318C425.379 318 328.179 317.55 303.429 317.55C290.829 317.55 258.879 318 251.679 318C249.879 318 249.429 316.65 249.429 314.85C249.429 312.15 250.329 312.15 251.679 312.15C271.929 312.15 282.729 311.25 284.979 306.3C287.679 301.35 287.679 293.25 287.679 283.35ZM653.304 283.35V41.25C653.304 30.9 652.854 23.25 650.604 18.3C647.904 12.9 637.554 12 617.304 12C615.954 12 615.054 12 615.054 9.29998C615.054 7.49997 615.504 6.14999 617.304 6.14999C628.554 6.14999 657.354 6.59999 669.954 6.59999C687.504 6.59999 707.754 6.14999 721.704 6.14999C835.554 6.14999 892.254 43.95 892.254 158.7C892.254 268.5 833.754 318 720.354 318C704.604 318 685.704 317.55 669.954 317.55C657.354 317.55 628.554 318 617.304 318C615.504 318 615.054 317.1 615.054 315.3C615.054 312.6 615.954 312.15 617.304 312.15C638.004 312.15 648.354 311.25 650.604 306.3C653.304 301.35 653.304 293.25 653.304 283.35ZM687.504 281.55C687.504 295.5 687.954 302.25 692.454 305.4C697.854 309 708.654 310.35 721.704 310.35C821.154 310.35 854.454 252.3 854.454 160.5C854.454 75 830.154 12.9 728.454 12.9C702.804 12.9 696.504 13.8 691.554 17.85C687.504 21.45 687.504 30.9 687.504 41.7V281.55ZM971.468 283.35V41.25C971.468 27.75 971.468 22.35 968.768 18.3C965.618 13.8 961.118 12.45 935.468 12C934.118 12 933.218 12 933.218 9.29998C933.218 7.49997 933.668 6.14999 935.468 6.14999C946.718 6.14999 975.518 6.59999 988.118 6.59999C1002.52 6.59999 1035.37 6.14999 1041.67 6.14999C1043.47 6.14999 1043.92 7.04998 1043.92 8.84998C1043.92 11.55 1043.47 12 1041.67 12C1014.67 12 1010.17 14.7 1007.92 18.75C1005.67 21.9 1005.67 30 1005.67 41.25V283.35C1005.67 292.35 1005.67 301.35 1007.92 305.85C1009.72 309.9 1014.67 312.15 1041.67 312.15C1043.47 312.15 1043.92 313.05 1043.92 315.3C1043.92 317.1 1043.47 318 1041.67 318C1035.37 318 1002.52 317.55 988.118 317.55C975.518 317.55 946.718 318 935.468 318C933.668 318 933.218 317.1 933.218 315.3C933.218 312.6 934.118 312.15 935.468 312.15C959.768 312.15 966.518 310.35 968.768 306.3C971.468 301.35 971.468 293.25 971.468 283.35ZM1117.89 259.5V41.25C1117.89 27.3 1117.89 22.35 1115.19 18.3C1112.04 13.8 1107.54 12.45 1081.89 12C1080.54 12 1079.64 11.55 1079.64 9.29998C1079.64 7.49997 1080.09 6.14999 1081.89 6.14999C1093.14 6.14999 1110.69 6.59999 1123.29 6.59999C1133.19 6.59999 1144.89 6.14999 1150.74 6.14999C1154.79 6.14999 1155.69 7.04998 1160.19 19.65C1172.79 55.2 1179.09 71.4 1249.74 264.9C1313.64 96.6 1335.24 40.35 1344.69 13.35C1346.94 6.14999 1347.84 6.14999 1351.44 6.14999C1352.79 6.14999 1372.14 6.59999 1381.59 6.59999C1395.99 6.59999 1413.09 6.14999 1419.39 6.14999C1421.19 6.14999 1421.64 7.04998 1421.64 8.84998C1421.64 10.65 1421.19 12 1419.39 12C1391.94 12 1388.34 14.7 1385.64 18.75C1383.39 21.9 1383.39 30.45 1383.39 41.25V283.35C1383.39 291.45 1383.39 301.35 1385.64 305.85C1387.89 309.9 1392.39 312.15 1419.39 312.15C1421.19 312.15 1421.64 313.05 1421.64 315.3C1421.64 317.1 1421.19 318 1419.39 318C1413.09 318 1379.79 317.55 1365.39 317.55C1352.79 317.55 1324.44 318 1313.19 318C1311.39 318 1310.94 316.65 1310.94 314.85C1310.94 312.6 1311.84 312.15 1313.19 312.15C1338.39 312.15 1344.24 310.35 1346.49 306.3C1349.19 301.35 1349.19 293.25 1349.19 283.35V23.25C1341.99 43.95 1333.89 66 1241.19 309.45C1240.29 312.15 1238.49 313.95 1236.24 313.95C1233.99 313.95 1233.09 312.6 1231.74 309.45C1143.99 71.85 1134.09 45.3 1125.99 22.35V259.5C1125.99 287.85 1129.59 296.85 1135.44 303.15C1139.49 307.65 1151.19 311.25 1166.04 312.15C1167.84 312.15 1168.29 313.5 1168.29 315.3C1168.29 317.1 1167.84 318 1166.04 318C1159.74 318 1136.34 317.55 1121.94 317.55C1109.34 317.55 1092.24 318 1080.99 318C1079.19 318 1078.74 316.65 1078.74 314.85C1078.74 313.05 1079.64 312.15 1080.99 312.15C1101.69 309.9 1108.44 305.4 1111.59 300C1114.29 295.95 1117.89 287.4 1117.89 259.5ZM1485.88 266.25L1573.18 18.3C1575.88 11.1 1577.23 8.39999 1578.13 7.49997C1579.03 6.59999 1580.38 6.14999 1583.08 6.14999H1594.33C1596.13 6.14999 1597.93 6.14999 1598.83 7.04998C1600.18 7.95 1601.08 11.1 1603.78 18.3L1696.48 283.35C1699.63 291.9 1702.78 301.35 1706.83 306.3C1711.33 311.7 1719.43 312.15 1732.03 312.15C1733.83 312.15 1734.73 312.6 1734.73 315.3C1734.73 317.1 1734.28 318 1732.48 318C1715.38 317.55 1699.18 317.55 1687.48 317.55C1674.88 317.55 1646.98 317.55 1631.23 318C1629.43 318 1628.98 317.1 1628.98 314.85C1628.98 312.15 1630.33 312.15 1632.13 312.15C1644.73 312.15 1654.18 311.25 1659.13 309.9C1663.18 309 1664.53 306.3 1664.53 303.15C1664.53 300.45 1663.63 294.6 1659.58 283.35L1627.18 191.1H1521.43L1497.58 260.4C1491.73 276.6 1489.93 285.15 1489.93 295.05C1489.93 299.55 1492.63 304.95 1497.13 307.2C1504.33 310.8 1515.58 311.7 1522.33 312.15C1524.13 312.15 1525.48 312.15 1525.48 314.85C1525.48 317.1 1524.58 318 1522.78 318C1511.53 317.55 1493.53 317.55 1480.93 317.55C1468.78 317.55 1457.98 317.55 1443.58 318C1441.78 318 1441.33 317.1 1441.33 315.3C1441.33 312.6 1442.23 312.15 1444.03 312.15C1453.93 311.7 1462.03 308.55 1468.33 302.25C1473.73 296.85 1479.13 284.7 1485.88 266.25ZM1523.68 184.35H1624.93C1586.68 72.3 1580.83 53.85 1574.98 34.05C1568.68 53.85 1561.93 73.2 1523.68 184.35ZM1995.42 266.7C1994.97 241.5 1994.97 190.2 1994.52 63.3C1994.52 34.95 1991.37 25.95 1985.07 20.1C1981.02 16.05 1969.77 12.9 1955.37 12C1953.57 12 1953.12 11.55 1953.12 8.84998C1953.12 7.04998 1953.57 6.14999 1955.37 6.14999C1961.67 6.14999 1984.17 6.59999 1998.57 6.59999C2011.17 6.59999 2027.82 6.14999 2038.62 6.14999C2040.42 6.14999 2040.87 7.49997 2040.87 9.29998C2040.87 12 2039.97 12 2038.62 12C2017.47 14.25 2011.62 18.3 2008.47 23.7C2006.22 27.75 2002.62 36.3 2002.62 63.3V322.95C2002.62 326.1 2000.82 327.45 1998.57 327.45C1996.32 327.45 1994.97 326.1 1993.17 322.95C1824.42 68.7 1812.27 50.7 1799.22 31.35C1799.67 53.85 1799.67 102 1799.67 259.95C1799.67 288.75 1802.82 297.75 1809.12 303.6C1813.17 307.65 1824.87 311.25 1839.27 312.15C1841.07 312.15 1841.97 313.05 1841.97 315.3C1841.97 317.1 1841.52 318 1839.72 318C1833.42 318 1810.02 317.55 1795.62 317.55C1783.02 317.55 1766.37 318 1755.12 318C1753.32 318 1752.87 316.65 1752.87 314.85C1752.87 312.6 1753.77 312.15 1755.12 312.15C1776.72 309.9 1782.57 305.4 1785.72 300C1787.97 295.95 1791.57 287.4 1791.57 259.95V41.25C1791.57 27.3 1791.57 22.35 1788.87 18.3C1785.72 13.8 1781.67 12.45 1755.57 12C1754.22 12 1753.32 11.55 1753.32 8.84998C1753.32 7.04998 1753.77 6.14999 1755.57 6.14999C1762.32 6.14999 1779.87 6.59999 1792.02 6.59999C1801.92 6.59999 1812.72 6.14999 1818.57 6.14999C1823.07 6.14999 1824.87 8.39999 1827.12 11.55C1970.67 227.55 1982.37 244.65 1995.42 266.7ZM2079.96 163.2C2079.96 68.25 2132.61 0.299986 2224.41 0.299986C2260.41 0.299986 2279.76 9.29998 2294.16 16.95C2299.11 19.65 2303.61 21 2305.41 21C2310.36 21 2313.06 17.85 2314.41 7.95C2314.86 4.34999 2316.21 4.34999 2318.46 4.34999C2320.71 4.34999 2321.61 4.79998 2321.61 7.04998C2321.61 12 2321.16 34.05 2321.16 51.15C2321.16 70.05 2321.61 88.5 2321.61 96.15C2321.61 99.3 2320.71 99.75 2318.01 99.75C2315.31 99.75 2314.86 99.3 2314.41 95.25C2310.81 63.75 2304.96 47.55 2290.11 32.7C2274.36 16.5 2250.51 7.04998 2224.41 7.04998C2148.36 7.04998 2118.21 60.6 2118.21 166.8C2118.21 232.95 2133.06 317.1 2220.36 317.1C2276.16 317.1 2307.21 286.95 2313.96 239.7C2315.31 230.25 2317.56 228.45 2322.96 228.45C2327.91 228.45 2330.16 229.8 2330.16 235.65C2330.16 239.7 2329.26 248.25 2324.31 260.4C2309.46 297.3 2277.06 323.85 2218.11 323.85C2132.16 323.85 2079.96 269.4 2079.96 163.2ZM2589.57 283.35V160.5H2434.77V283.35C2434.77 292.35 2434.77 301.35 2437.02 305.85C2438.82 309.9 2443.77 312.15 2470.77 312.15C2472.57 312.15 2473.02 312.6 2473.02 315.3C2473.02 317.1 2472.57 318 2470.77 318C2464.47 318 2431.62 317.55 2417.22 317.55C2404.62 317.55 2375.82 318 2364.57 318C2362.77 318 2362.32 317.1 2362.32 315.3C2362.32 312.6 2363.22 312.15 2365.02 312.15C2389.32 312.15 2395.62 310.35 2397.87 306.3C2400.57 301.35 2400.57 293.25 2400.57 283.35V41.25C2400.57 27.75 2400.57 22.35 2397.87 18.3C2394.72 13.8 2390.22 12.45 2364.57 12C2363.22 12 2362.32 12 2362.32 9.29998C2362.32 7.49997 2362.77 6.14999 2364.57 6.14999C2375.82 6.14999 2404.62 6.59999 2417.22 6.59999C2431.62 6.59999 2464.47 6.14999 2470.77 6.14999C2472.57 6.14999 2473.02 7.04998 2473.02 8.84998C2473.02 11.55 2472.57 12 2470.77 12C2443.77 12 2439.27 14.7 2437.02 18.75C2434.77 21.9 2434.77 30 2434.77 41.25V153.75H2589.57V41.25C2589.57 27.75 2589.57 22.35 2586.87 18.3C2583.72 13.8 2578.77 12.45 2553.12 12C2551.77 12 2550.87 11.55 2550.87 9.29998C2550.87 7.04998 2551.32 6.14999 2553.12 6.14999C2564.37 6.14999 2593.62 6.59999 2606.22 6.59999C2620.62 6.59999 2653.47 6.14999 2659.77 6.14999C2661.57 6.14999 2662.02 7.04998 2662.02 8.84998C2662.02 11.1 2661.57 12 2659.77 12C2632.77 12 2628.27 14.7 2625.57 18.75C2623.32 21.9 2623.32 30 2623.32 41.25V283.35C2623.32 292.35 2623.32 301.35 2625.57 305.85C2627.82 309.9 2632.77 312.15 2659.77 312.15C2661.57 312.15 2662.02 312.6 2662.02 315.3C2662.02 317.1 2661.57 318 2659.77 318C2653.47 318 2620.62 317.55 2606.22 317.55C2593.62 317.55 2564.82 318 2553.57 318C2551.77 318 2550.87 316.65 2550.87 314.85C2550.87 312.6 2552.22 312.15 2553.57 312.15C2577.87 312.15 2584.62 310.35 2586.87 306.3C2589.57 301.35 2589.57 293.25 2589.57 283.35ZM2732.36 283.35V41.25C2732.36 25.95 2731.91 21.45 2729.21 17.85C2725.61 13.35 2720.66 12.45 2696.36 12C2695.01 12 2694.11 12 2694.11 9.29998C2694.11 7.49997 2694.56 6.14999 2696.36 6.14999C2707.61 6.14999 2735.51 6.59999 2748.11 6.59999C2772.86 6.59999 2858.81 6.14999 2896.61 6.14999C2901.56 6.14999 2902.46 7.49997 2902.46 11.1C2902.46 17.85 2902.01 33.15 2902.01 41.7C2902.01 52.95 2902.01 65.55 2902.46 75.45C2902.46 79.05 2902.01 79.5 2899.31 79.5C2896.61 79.5 2896.16 79.05 2895.71 75.9C2893.01 44.85 2885.36 26.85 2866.46 18.3C2859.71 15.15 2841.71 12.9 2826.41 12.9H2786.81C2779.61 12.9 2771.96 13.8 2769.26 17.85C2766.56 21.9 2766.56 28.2 2766.56 40.8V153.75H2795.81C2809.76 153.75 2826.41 153.3 2833.16 149.7C2844.41 143.85 2850.26 133.05 2852.06 107.85C2852.51 104.7 2852.96 104.25 2855.66 104.25C2858.36 104.25 2858.81 104.7 2858.81 108.3C2858.81 115.5 2858.36 136.65 2858.36 157.35C2858.36 178.05 2858.81 197.85 2858.81 205.95C2858.81 209.55 2858.36 210 2855.66 210C2852.96 210 2852.51 209.55 2852.06 206.4C2849.81 182.1 2845.76 171.75 2833.61 164.55C2826.41 160.95 2810.66 160.5 2795.81 160.5H2766.56V283.35C2766.56 295.5 2766.56 302.25 2769.26 306.3C2771.96 310.35 2779.61 311.25 2786.81 311.25H2831.81C2857.01 311.25 2869.16 308.1 2876.81 304.5C2885.81 300.45 2893.01 293.25 2897.06 286.05C2901.56 277.95 2907.41 259.5 2908.76 243.75C2909.21 240.6 2910.11 240.6 2912.36 240.6C2915.06 240.6 2915.51 241.05 2915.51 244.65C2915.51 255 2915.06 266.7 2915.06 277.05C2915.06 287.4 2915.51 302.25 2915.51 312.6C2915.51 317.1 2914.16 318 2907.86 318C2870.06 318 2772.86 317.55 2748.11 317.55C2735.51 317.55 2703.56 318 2696.36 318C2694.56 318 2694.11 316.65 2694.11 314.85C2694.11 312.15 2695.01 312.15 2696.36 312.15C2716.61 312.15 2727.41 311.25 2729.66 306.3C2732.36 301.35 2732.36 293.25 2732.36 283.35Z" fill="#C5B29A"/>
</svg>
