<svg width="1894" height="312" viewBox="0 0 1894 312" fill="none" xmlns="http://www.w3.org/2000/svg">
<path d="M38.8123 277.35V35.25C38.8123 21.75 38.8123 16.35 36.1123 12.3C32.9623 7.79997 28.4623 6.44999 2.81231 6C1.46231 6 0.562306 5.54998 0.562306 3.29998C0.562306 1.49997 1.0123 0.149992 2.81231 0.149992C14.0623 0.149992 42.8623 0.599986 55.4623 0.599986C69.8623 0.599986 102.712 0.149992 109.012 0.149992C110.812 0.149992 111.262 1.04998 111.262 2.84998C111.262 5.09998 110.362 6 108.562 6C81.5623 6 77.9623 8.69999 75.2623 12.75C73.0123 15.9 73.0123 24 73.0123 35.25V277.35C73.0123 289.5 73.0123 296.25 75.7123 300.3C78.4123 304.35 86.0623 305.25 93.2623 305.25H138.262C160.762 305.25 175.612 302.1 183.262 298.5C192.262 294.45 199.462 287.25 203.512 280.05C208.012 271.95 213.412 253.5 215.212 238.2C215.662 235.05 216.562 234.6 218.812 234.6C221.512 234.6 222.412 234.6 222.412 238.2C222.412 242.7 221.962 260.25 221.962 270.6C221.962 280.95 222.412 300.3 222.412 305.25C222.412 310.2 221.512 312 214.762 312C176.962 312 79.3123 311.55 54.5623 311.55C41.9623 311.55 14.0623 312 2.81231 312C1.0123 312 0.562306 311.1 0.562306 309.3C0.562306 306.6 1.46231 306.15 2.81231 306.15C23.0623 306.15 33.8623 305.25 36.1123 300.3C38.8123 295.35 38.8123 287.25 38.8123 277.35ZM287.982 277.35V35.25C287.982 21.75 287.982 16.35 285.282 12.3C282.132 7.79997 277.632 6.44999 251.982 6C250.632 6 249.732 6 249.732 3.29998C249.732 1.49997 250.182 0.149992 251.982 0.149992C263.232 0.149992 292.032 0.599986 304.632 0.599986C319.032 0.599986 351.882 0.149992 358.182 0.149992C359.982 0.149992 360.432 1.04998 360.432 2.84998C360.432 5.54998 359.982 6 358.182 6C331.182 6 326.682 8.69999 324.432 12.75C322.182 15.9 322.182 24 322.182 35.25V277.35C322.182 286.35 322.182 295.35 324.432 299.85C326.232 303.9 331.182 306.15 358.182 306.15C359.982 306.15 360.432 307.05 360.432 309.3C360.432 311.1 359.982 312 358.182 312C351.882 312 319.032 311.55 304.632 311.55C292.032 311.55 263.232 312 251.982 312C250.182 312 249.732 311.1 249.732 309.3C249.732 306.6 250.632 306.15 251.982 306.15C276.282 306.15 283.032 304.35 285.282 300.3C287.982 295.35 287.982 287.25 287.982 277.35ZM499.792 277.35V35.25C499.792 23.1 499.792 15.9 497.092 11.85C494.392 7.79997 486.742 6.89999 479.542 6.89999C447.592 6.89999 431.842 8.24999 425.092 11.4C406.192 20.4 399.892 38.4 396.292 69.9C395.842 73.05 395.392 73.5 392.692 73.5C389.992 73.5 389.542 73.05 389.542 69.45C389.542 63.6 389.992 49.65 389.992 37.95C389.992 28.5 389.542 13.2 389.542 7.34998C389.542 1.49997 390.442 0.149992 395.392 0.149992C433.192 0.149992 492.142 0.599986 516.892 0.599986C541.642 0.599986 600.592 0.149992 638.392 0.149992C643.342 0.149992 644.242 1.04998 644.242 7.79997C644.242 13.65 643.792 29.4 643.792 39.3C643.792 49.2 644.242 65.4 644.242 69.9C644.242 73.05 643.342 73.5 641.092 73.5C638.392 73.5 637.942 73.05 637.492 70.35C634.342 39.75 627.142 19.95 608.242 11.4C601.492 8.24999 586.642 6.89999 554.242 6.89999C547.042 6.89999 539.392 7.79997 536.692 11.85C533.992 15.9 533.992 23.1 533.992 35.25V277.35C533.992 285.45 533.992 295.35 536.242 299.85C538.492 303.9 542.992 306.15 570.892 306.15C572.692 306.15 573.142 306.6 573.142 309.3C573.142 311.1 572.692 312 570.892 312C564.592 312 530.842 311.55 516.442 311.55C503.842 311.55 474.592 312 463.342 312C461.542 312 461.092 311.1 461.092 308.85C461.092 306.6 461.992 306.15 463.342 306.15C488.992 306.15 494.842 304.35 497.092 300.3C499.792 295.35 499.792 287.25 499.792 277.35ZM712.054 277.35V35.25C712.054 19.95 711.604 15.45 708.904 11.85C705.304 7.34998 700.354 6.44999 676.054 6C674.704 6 673.804 6 673.804 3.29998C673.804 1.49997 674.254 0.149992 676.054 0.149992C687.304 0.149992 715.204 0.599986 727.804 0.599986C752.554 0.599986 838.504 0.149992 876.305 0.149992C881.254 0.149992 882.154 1.49997 882.154 5.09998C882.154 11.85 881.705 27.15 881.705 35.7C881.705 46.95 881.705 59.55 882.154 69.45C882.154 73.05 881.705 73.5 879.004 73.5C876.305 73.5 875.854 73.05 875.405 69.9C872.704 38.85 865.055 20.85 846.155 12.3C839.404 9.14998 821.405 6.89999 806.104 6.89999H766.504C759.304 6.89999 751.654 7.79997 748.954 11.85C746.254 15.9 746.254 22.2 746.254 34.8V147.75H775.505C789.454 147.75 806.104 147.3 812.855 143.7C824.104 137.85 829.954 127.05 831.755 101.85C832.204 98.7 832.655 98.25 835.354 98.25C838.055 98.25 838.504 98.7 838.504 102.3C838.504 109.5 838.055 130.65 838.055 151.35C838.055 172.05 838.504 191.85 838.504 199.95C838.504 203.55 838.055 204 835.354 204C832.655 204 832.204 203.55 831.755 200.4C829.505 176.1 825.455 165.75 813.304 158.55C806.104 154.95 790.354 154.5 775.505 154.5H746.254V277.35C746.254 289.5 746.254 296.25 748.954 300.3C751.654 304.35 759.304 305.25 766.504 305.25H811.504C836.705 305.25 848.854 302.1 856.505 298.5C865.504 294.45 872.704 287.25 876.755 280.05C881.254 271.95 887.105 253.5 888.454 237.75C888.904 234.6 889.805 234.6 892.055 234.6C894.754 234.6 895.204 235.05 895.204 238.65C895.204 249 894.754 260.7 894.754 271.05C894.754 281.4 895.204 296.25 895.204 306.6C895.204 311.1 893.855 312 887.555 312C849.754 312 752.554 311.55 727.804 311.55C715.204 311.55 683.254 312 676.054 312C674.254 312 673.804 310.65 673.804 308.85C673.804 306.15 674.704 306.15 676.054 306.15C696.304 306.15 707.104 305.25 709.354 300.3C712.054 295.35 712.054 287.25 712.054 277.35ZM1077.68 277.35V35.25C1077.68 21.75 1077.68 16.35 1074.98 12.3C1071.83 7.79997 1067.33 6.44999 1041.68 6C1040.33 6 1039.43 5.54998 1039.43 3.29998C1039.43 1.49997 1039.88 0.149992 1041.68 0.149992C1052.93 0.149992 1081.73 0.599986 1094.33 0.599986C1108.73 0.599986 1141.58 0.149992 1147.88 0.149992C1149.68 0.149992 1150.13 1.04998 1150.13 2.84998C1150.13 5.09998 1149.23 6 1147.43 6C1120.43 6 1116.83 8.69999 1114.13 12.75C1111.88 15.9 1111.88 24 1111.88 35.25V277.35C1111.88 289.5 1111.88 296.25 1114.58 300.3C1117.28 304.35 1124.93 305.25 1132.13 305.25H1177.13C1199.63 305.25 1214.48 302.1 1222.13 298.5C1231.13 294.45 1238.33 287.25 1242.38 280.05C1246.88 271.95 1252.28 253.5 1254.08 238.2C1254.53 235.05 1255.43 234.6 1257.68 234.6C1260.38 234.6 1261.28 234.6 1261.28 238.2C1261.28 242.7 1260.83 260.25 1260.83 270.6C1260.83 280.95 1261.28 300.3 1261.28 305.25C1261.28 310.2 1260.38 312 1253.63 312C1215.83 312 1118.18 311.55 1093.43 311.55C1080.83 311.55 1052.93 312 1041.68 312C1039.88 312 1039.43 311.1 1039.43 309.3C1039.43 306.6 1040.33 306.15 1041.68 306.15C1061.93 306.15 1072.73 305.25 1074.98 300.3C1077.68 295.35 1077.68 287.25 1077.68 277.35ZM1326.85 277.35V35.25C1326.85 21.75 1326.85 16.35 1324.15 12.3C1321 7.79997 1316.5 6.44999 1290.85 6C1289.5 6 1288.6 6 1288.6 3.29998C1288.6 1.49997 1289.05 0.149992 1290.85 0.149992C1302.1 0.149992 1330.9 0.599986 1343.5 0.599986C1357.9 0.599986 1390.75 0.149992 1397.05 0.149992C1398.85 0.149992 1399.3 1.04998 1399.3 2.84998C1399.3 5.54998 1398.85 6 1397.05 6C1370.05 6 1365.55 8.69999 1363.3 12.75C1361.05 15.9 1361.05 24 1361.05 35.25V277.35C1361.05 286.35 1361.05 295.35 1363.3 299.85C1365.1 303.9 1370.05 306.15 1397.05 306.15C1398.85 306.15 1399.3 307.05 1399.3 309.3C1399.3 311.1 1398.85 312 1397.05 312C1390.75 312 1357.9 311.55 1343.5 311.55C1330.9 311.55 1302.1 312 1290.85 312C1289.05 312 1288.6 311.1 1288.6 309.3C1288.6 306.6 1289.5 306.15 1290.85 306.15C1315.15 306.15 1321.9 304.35 1324.15 300.3C1326.85 295.35 1326.85 287.25 1326.85 277.35ZM1469.67 277.35V35.25C1469.67 19.95 1469.22 15.45 1466.52 11.85C1462.92 7.34998 1457.97 6.44999 1433.67 6C1432.32 6 1431.42 5.54998 1431.42 2.84998C1431.42 1.04998 1431.87 0.149992 1433.67 0.149992C1444.92 0.149992 1472.82 0.599986 1485.42 0.599986C1510.17 0.599986 1596.12 0.149992 1633.92 0.149992C1638.42 0.149992 1639.77 1.04998 1639.77 5.09998C1639.77 10.5 1639.32 28.05 1639.32 37.5C1639.32 47.85 1639.77 65.85 1639.77 69.45C1639.77 73.05 1639.32 73.5 1636.62 73.5C1633.92 73.5 1633.47 73.05 1633.02 69.9C1630.32 38.85 1622.67 20.85 1603.77 12.3C1597.02 9.14998 1579.92 6.89999 1563.72 6.89999H1524.12C1516.92 6.89999 1509.27 7.79997 1506.57 11.85C1503.87 15.9 1503.87 22.65 1503.87 34.8V153.6H1535.82C1549.77 153.6 1566.42 153.15 1573.17 149.55C1584.42 143.7 1589.82 132.9 1591.62 107.7C1592.07 104.55 1592.97 104.1 1595.22 104.1C1597.92 104.1 1598.37 104.55 1598.37 108.15C1598.37 115.35 1597.47 136.5 1597.47 157.2C1597.47 177.9 1598.37 198.6 1598.37 206.7C1598.37 209.85 1597.47 209.85 1594.77 209.85C1592.52 209.85 1591.62 208.95 1591.62 206.25C1589.82 182.4 1585.32 171.6 1573.17 164.4C1566.42 160.8 1550.22 160.35 1535.82 160.35H1503.87V277.35C1503.87 285.9 1503.87 295.8 1506.57 299.85C1509.27 304.35 1516.47 306.15 1548.42 306.15C1550.22 306.15 1550.67 307.05 1550.67 309.3C1550.67 311.1 1550.22 312 1548.42 312C1542.12 312 1500.72 311.55 1486.32 311.55C1473.72 311.55 1444.92 312 1433.67 312C1431.87 312 1431.42 310.65 1431.42 308.85C1431.42 306.15 1432.32 306.15 1433.67 306.15C1457.97 306.15 1464.72 304.35 1466.97 300.3C1469.67 295.35 1469.67 287.25 1469.67 277.35ZM1710.05 277.35V35.25C1710.05 19.95 1709.6 15.45 1706.9 11.85C1703.3 7.34998 1698.35 6.44999 1674.05 6C1672.7 6 1671.8 6 1671.8 3.29998C1671.8 1.49997 1672.25 0.149992 1674.05 0.149992C1685.3 0.149992 1713.2 0.599986 1725.8 0.599986C1750.55 0.599986 1836.5 0.149992 1874.3 0.149992C1879.25 0.149992 1880.15 1.49997 1880.15 5.09998C1880.15 11.85 1879.7 27.15 1879.7 35.7C1879.7 46.95 1879.7 59.55 1880.15 69.45C1880.15 73.05 1879.7 73.5 1877 73.5C1874.3 73.5 1873.85 73.05 1873.4 69.9C1870.7 38.85 1863.05 20.85 1844.15 12.3C1837.4 9.14998 1819.4 6.89999 1804.1 6.89999H1764.5C1757.3 6.89999 1749.65 7.79997 1746.95 11.85C1744.25 15.9 1744.25 22.2 1744.25 34.8V147.75H1773.5C1787.45 147.75 1804.1 147.3 1810.85 143.7C1822.1 137.85 1827.95 127.05 1829.75 101.85C1830.2 98.7 1830.65 98.25 1833.35 98.25C1836.05 98.25 1836.5 98.7 1836.5 102.3C1836.5 109.5 1836.05 130.65 1836.05 151.35C1836.05 172.05 1836.5 191.85 1836.5 199.95C1836.5 203.55 1836.05 204 1833.35 204C1830.65 204 1830.2 203.55 1829.75 200.4C1827.5 176.1 1823.45 165.75 1811.3 158.55C1804.1 154.95 1788.35 154.5 1773.5 154.5H1744.25V277.35C1744.25 289.5 1744.25 296.25 1746.95 300.3C1749.65 304.35 1757.3 305.25 1764.5 305.25H1809.5C1834.7 305.25 1846.85 302.1 1854.5 298.5C1863.5 294.45 1870.7 287.25 1874.75 280.05C1879.25 271.95 1885.1 253.5 1886.45 237.75C1886.9 234.6 1887.8 234.6 1890.05 234.6C1892.75 234.6 1893.2 235.05 1893.2 238.65C1893.2 249 1892.75 260.7 1892.75 271.05C1892.75 281.4 1893.2 296.25 1893.2 306.6C1893.2 311.1 1891.85 312 1885.55 312C1847.75 312 1750.55 311.55 1725.8 311.55C1713.2 311.55 1681.25 312 1674.05 312C1672.25 312 1671.8 310.65 1671.8 308.85C1671.8 306.15 1672.7 306.15 1674.05 306.15C1694.3 306.15 1705.1 305.25 1707.35 300.3C1710.05 295.35 1710.05 287.25 1710.05 277.35Z" fill="#C5B29A"/>
</svg>
