<svg width="20" height="20" viewBox="0 0 20 20" fill="none" xmlns="http://www.w3.org/2000/svg">
<path d="M10 20C8.63333 20 7.34167 19.7373 6.125 19.212C4.90833 18.6873 3.846 17.9707 2.938 17.062C2.02933 16.154 1.31267 15.0917 0.788 13.875C0.262667 12.6583 0 11.3667 0 10C0 8.61667 0.262667 7.321 0.788 6.113C1.31267 4.90433 2.02933 3.846 2.938 2.938C3.846 2.02933 4.90833 1.31233 6.125 0.787C7.34167 0.262333 8.63333 0 10 0C11.3833 0 12.679 0.262333 13.887 0.787C15.0957 1.31233 16.154 2.02933 17.062 2.938C17.9707 3.846 18.6873 4.90433 19.212 6.113C19.7373 7.321 20 8.61667 20 10V11.45C20 12.4333 19.6627 13.2707 18.988 13.962C18.3127 14.654 17.4833 15 16.5 15C15.9 15 15.3417 14.8667 14.825 14.6C14.3083 14.3333 13.8833 13.9833 13.55 13.55C13.1 14 12.571 14.3543 11.963 14.613C11.3543 14.871 10.7 15 10 15C8.61667 15 7.43767 14.5123 6.463 13.537C5.48767 12.5623 5 11.3833 5 10C5 8.61667 5.48767 7.43733 6.463 6.462C7.43767 5.48733 8.61667 5 10 5C11.3833 5 12.5627 5.48733 13.538 6.462C14.5127 7.43733 15 8.61667 15 10V11.45C15 11.9333 15.15 12.3123 15.45 12.587C15.75 12.8623 16.1 13 16.5 13C16.9 13 17.25 12.8623 17.55 12.587C17.85 12.3123 18 11.9333 18 11.45V10C18 7.81667 17.2123 5.93733 15.637 4.362C14.0623 2.78733 12.1833 2 10 2C7.81667 2 5.93733 2.78733 4.362 4.362C2.78733 5.93733 2 7.81667 2 10C2 12.1833 2.78733 14.0623 4.362 15.637C5.93733 17.2123 7.81667 18 10 18H15V20H10ZM10 13C10.8333 13 11.5417 12.7083 12.125 12.125C12.7083 11.5417 13 10.8333 13 10C13 9.16667 12.7083 8.45833 12.125 7.875C11.5417 7.29167 10.8333 7 10 7C9.16667 7 8.45833 7.29167 7.875 7.875C7.29167 8.45833 7 9.16667 7 10C7 10.8333 7.29167 11.5417 7.875 12.125C8.45833 12.7083 9.16667 13 10 13Z" fill="white"/>
</svg>
