<svg width="200" height="200" viewBox="0 0 200 200" fill="none" xmlns="http://www.w3.org/2000/svg">
<rect width="200" height="200" fill="black"/>
<path d="M14.32 20.165C16.63 20.165 18.01 18.41 18.01 15.185C18.01 12.05 16.66 10.19 14.32 10.19C12.01 10.19 10.615 11.96 10.615 15.185C10.615 18.305 11.965 20.165 14.32 20.165ZM14.32 19.325C12.595 19.325 11.605 17.78 11.605 15.185C11.605 12.5 12.565 11.03 14.32 11.03C16.03 11.03 17.02 12.56 17.02 15.185C17.02 17.84 16.06 19.325 14.32 19.325ZM26.5326 17.345C26.5326 16.295 26.0976 15.38 24.6576 14.93C25.8426 14.54 26.2326 13.775 26.2326 12.875C26.2326 11.3 25.1676 10.19 23.0526 10.19C20.9976 10.19 19.8276 11.27 19.5726 13.04H20.5476C20.7426 11.795 21.5226 11.03 23.0376 11.03C24.4926 11.03 25.2426 11.72 25.2426 12.875C25.2426 13.625 24.8826 14.6 22.5126 14.6H22.2726V15.38H22.5576C25.0926 15.38 25.5426 16.4 25.5426 17.315C25.5426 18.575 24.6726 19.325 22.9926 19.325C21.3726 19.325 20.5476 18.53 20.3526 17.3H19.3626C19.6176 19.085 20.8776 20.165 23.0076 20.165C25.3476 20.165 26.5326 18.98 26.5326 17.345Z" fill="white"/>
<path d="M145.206 20H149.091C151.176 20 152.481 18.965 152.481 17.18C152.481 15.935 151.716 14.975 150.261 14.645C151.356 14.285 151.926 13.46 151.926 12.44C151.926 10.82 150.606 9.8 148.581 9.8H145.206V20ZM148.566 10.625C149.991 10.625 150.891 11.345 150.891 12.5C150.891 13.61 150.006 14.345 148.536 14.345H146.211V10.625H148.566ZM148.821 15.155C150.426 15.155 151.446 15.935 151.446 17.165C151.446 18.38 150.531 19.175 149.076 19.175H146.211V15.155H148.821ZM154.478 20H160.853V19.175H155.483V9.8H154.478V20ZM170.017 20H171.082L166.987 9.8H165.802L161.722 20H162.727L163.792 17.33H168.952L170.017 20ZM166.102 11.585L166.372 10.805L166.657 11.585L168.622 16.505H164.122L166.102 11.585ZM180.26 12.62C179.735 10.685 178.115 9.635 176.24 9.635C173.42 9.635 171.71 11.675 171.71 14.915C171.71 18.17 173.405 20.165 176.195 20.165C178.055 20.165 179.645 19.1 180.23 17.225H179.165C178.67 18.575 177.56 19.295 176.21 19.295C174.035 19.295 172.745 17.63 172.745 14.915C172.745 12.2 174.035 10.505 176.21 10.505C177.605 10.505 178.775 11.27 179.195 12.62H180.26ZM182.252 20H183.257V15.02L188.327 20H189.707L184.442 14.81L189.617 9.8H188.327L183.257 14.75V9.8H182.252V20Z" fill="white"/>
<path d="M11.155 165H12.13V160.26C12.13 159.06 12.985 157.725 14.455 157.725C15.79 157.725 16.39 158.61 16.39 159.9V165H17.35V159.69C17.35 157.905 16.39 156.9 14.71 156.9C13.585 156.9 12.67 157.425 12.13 158.4V154.2H11.155V165ZM26.2807 162.42H25.2757C24.9607 163.68 24.0607 164.325 22.8157 164.325C21.2107 164.325 20.2657 163.185 20.2207 161.19H26.2357V160.92C26.2357 158.415 24.9307 156.9 22.7407 156.9C20.5807 156.9 19.2307 158.355 19.2307 161.04C19.2307 163.62 20.5657 165.165 22.8157 165.165C24.5557 165.165 25.8457 164.28 26.2807 162.42ZM22.7407 157.74C24.1957 157.74 25.0807 158.73 25.2307 160.44H20.2507C20.4007 158.685 21.2707 157.74 22.7407 157.74ZM33.1164 165H34.3464L31.2564 160.875L34.0914 157.065H32.9814L31.1214 159.63L30.7314 160.245L30.3264 159.63L28.4514 157.065H27.2364L30.0564 160.875L26.9814 165H28.0914L30.1914 162.105L30.5964 161.505L30.9864 162.105L33.1164 165ZM35.5118 159.105H36.7718V157.83H35.5118V159.105ZM35.5118 165H36.7718V163.74H35.5118V165ZM42.5439 165H43.4589L43.9839 162.465H46.9689L46.4439 165H47.3589L47.8839 162.465H49.3089V161.7H48.0339L48.7839 158.115H50.3139V157.335H48.9339L49.4589 154.8H48.5439L48.0189 157.335H45.0339L45.5589 154.8H44.6439L44.1189 157.335H42.6939V158.115H43.9689L43.2189 161.7H41.6889V162.465H43.0689L42.5439 165ZM44.1339 161.7L44.8839 158.115H47.8689L47.1189 161.7H44.1339ZM55.4382 165.165C57.7482 165.165 59.1282 163.41 59.1282 160.185C59.1282 157.05 57.7782 155.19 55.4382 155.19C53.1282 155.19 51.7332 156.96 51.7332 160.185C51.7332 163.305 53.0832 165.165 55.4382 165.165ZM55.4382 164.325C53.7132 164.325 52.7232 162.78 52.7232 160.185C52.7232 157.5 53.6832 156.03 55.4382 156.03C57.1482 156.03 58.1382 157.56 58.1382 160.185C58.1382 162.84 57.1782 164.325 55.4382 164.325ZM64.0807 165.165C66.3907 165.165 67.7707 163.41 67.7707 160.185C67.7707 157.05 66.4207 155.19 64.0807 155.19C61.7707 155.19 60.3757 156.96 60.3757 160.185C60.3757 163.305 61.7257 165.165 64.0807 165.165ZM64.0807 164.325C62.3557 164.325 61.3657 162.78 61.3657 160.185C61.3657 157.5 62.3257 156.03 64.0807 156.03C65.7907 156.03 66.7807 157.56 66.7807 160.185C66.7807 162.84 65.8207 164.325 64.0807 164.325ZM72.7233 165.165C75.0333 165.165 76.4133 163.41 76.4133 160.185C76.4133 157.05 75.0633 155.19 72.7233 155.19C70.4133 155.19 69.0183 156.96 69.0183 160.185C69.0183 163.305 70.3683 165.165 72.7233 165.165ZM72.7233 164.325C70.9983 164.325 70.0083 162.78 70.0083 160.185C70.0083 157.5 70.9683 156.03 72.7233 156.03C74.4333 156.03 75.4233 157.56 75.4233 160.185C75.4233 162.84 74.4633 164.325 72.7233 164.325ZM81.3659 165.165C83.6759 165.165 85.0559 163.41 85.0559 160.185C85.0559 157.05 83.7059 155.19 81.3659 155.19C79.0559 155.19 77.6609 156.96 77.6609 160.185C77.6609 163.305 79.0109 165.165 81.3659 165.165ZM81.3659 164.325C79.6409 164.325 78.6509 162.78 78.6509 160.185C78.6509 157.5 79.6109 156.03 81.3659 156.03C83.0759 156.03 84.0659 157.56 84.0659 160.185C84.0659 162.84 83.1059 164.325 81.3659 164.325ZM90.0085 165.165C92.3185 165.165 93.6985 163.41 93.6985 160.185C93.6985 157.05 92.3485 155.19 90.0085 155.19C87.6985 155.19 86.3035 156.96 86.3035 160.185C86.3035 163.305 87.6535 165.165 90.0085 165.165ZM90.0085 164.325C88.2835 164.325 87.2935 162.78 87.2935 160.185C87.2935 157.5 88.2535 156.03 90.0085 156.03C91.7185 156.03 92.7085 157.56 92.7085 160.185C92.7085 162.84 91.7485 164.325 90.0085 164.325ZM98.6511 165.165C100.961 165.165 102.341 163.41 102.341 160.185C102.341 157.05 100.991 155.19 98.6511 155.19C96.3411 155.19 94.9461 156.96 94.9461 160.185C94.9461 163.305 96.2961 165.165 98.6511 165.165ZM98.6511 164.325C96.9261 164.325 95.9361 162.78 95.9361 160.185C95.9361 157.5 96.8961 156.03 98.6511 156.03C100.361 156.03 101.351 157.56 101.351 160.185C101.351 162.84 100.391 164.325 98.6511 164.325Z" fill="white"/>
<path d="M11.155 190H12.13V185.44C12.13 184.03 12.895 182.83 14.515 182.83C14.8 182.83 15.085 182.875 15.295 182.95V182.065C15.145 181.96 14.875 181.9 14.575 181.9C13.54 181.9 12.655 182.44 12.13 183.52V182.065H11.155V190ZM19.232 190.075C20.342 190.075 21.212 189.595 21.752 188.68V190.315C21.752 191.935 20.927 192.67 19.607 192.67C18.317 192.67 17.417 192.025 17.237 190.825H16.262C16.547 192.58 17.792 193.48 19.607 193.48C21.377 193.48 22.727 192.505 22.727 190.285V182.065H21.752V183.25C21.242 182.365 20.402 181.9 19.232 181.9C17.267 181.9 16.052 183.34 16.052 185.995C16.052 188.545 17.237 190.075 19.232 190.075ZM19.397 189.235C17.897 189.235 17.042 188.05 17.042 185.995C17.042 183.895 17.882 182.74 19.397 182.74C20.897 182.74 21.752 183.94 21.752 185.98C21.752 188.08 20.927 189.235 19.397 189.235ZM26.0314 190V188.77C26.5564 189.685 27.3814 190.165 28.4464 190.165C30.4714 190.165 31.7314 188.71 31.7314 186.01C31.7314 183.445 30.5164 181.9 28.4464 181.9C27.3814 181.9 26.5564 182.41 26.0314 183.34V179.2H25.0564V190H26.0314ZM28.3864 182.74C29.8714 182.74 30.7414 183.94 30.7414 186.01C30.7414 188.14 29.9014 189.325 28.3864 189.325C26.8864 189.325 26.0314 188.11 26.0314 186.025C26.0314 183.91 26.8564 182.74 28.3864 182.74ZM33.4611 184.105H34.7211V182.83H33.4611V184.105ZM33.4611 190H34.7211V188.74H33.4611V190ZM43.1481 190.165C45.4581 190.165 46.8381 188.41 46.8381 185.185C46.8381 182.05 45.4881 180.19 43.1481 180.19C40.8381 180.19 39.4431 181.96 39.4431 185.185C39.4431 188.305 40.7931 190.165 43.1481 190.165ZM43.1481 189.325C41.4231 189.325 40.4331 187.78 40.4331 185.185C40.4331 182.5 41.3931 181.03 43.1481 181.03C44.8581 181.03 45.8481 182.56 45.8481 185.185C45.8481 187.84 44.8881 189.325 43.1481 189.325ZM48.4757 190H49.0157C49.0157 190.885 48.8657 191.44 48.5657 192.31H49.1207C49.5557 191.455 49.7357 190.69 49.7357 189.415V188.74H48.4757V190ZM58.1628 190.165C60.4728 190.165 61.8528 188.41 61.8528 185.185C61.8528 182.05 60.5028 180.19 58.1628 180.19C55.8528 180.19 54.4578 181.96 54.4578 185.185C54.4578 188.305 55.8078 190.165 58.1628 190.165ZM58.1628 189.325C56.4378 189.325 55.4478 187.78 55.4478 185.185C55.4478 182.5 56.4078 181.03 58.1628 181.03C59.8728 181.03 60.8628 182.56 60.8628 185.185C60.8628 187.84 59.9028 189.325 58.1628 189.325ZM63.4904 190H64.0304C64.0304 190.885 63.8804 191.44 63.5804 192.31H64.1354C64.5704 191.455 64.7504 190.69 64.7504 189.415V188.74H63.4904V190ZM73.1774 190.165C75.4874 190.165 76.8674 188.41 76.8674 185.185C76.8674 182.05 75.5174 180.19 73.1774 180.19C70.8674 180.19 69.4724 181.96 69.4724 185.185C69.4724 188.305 70.8224 190.165 73.1774 190.165ZM73.1774 189.325C71.4524 189.325 70.4624 187.78 70.4624 185.185C70.4624 182.5 71.4224 181.03 73.1774 181.03C74.8874 181.03 75.8774 182.56 75.8774 185.185C75.8774 187.84 74.9174 189.325 73.1774 189.325Z" fill="white"/>
</svg>
