<svg width="282" height="270" viewBox="0 0 282 270" fill="none" xmlns="http://www.w3.org/2000/svg">
<rect width="282" height="90" fill="white"/>
<path d="M14.32 20.165C16.63 20.165 18.01 18.41 18.01 15.185C18.01 12.05 16.66 10.19 14.32 10.19C12.01 10.19 10.615 11.96 10.615 15.185C10.615 18.305 11.965 20.165 14.32 20.165ZM14.32 19.325C12.595 19.325 11.605 17.78 11.605 15.185C11.605 12.5 12.565 11.03 14.32 11.03C16.03 11.03 17.02 12.56 17.02 15.185C17.02 17.84 16.06 19.325 14.32 19.325ZM20.8926 20H25.6326V19.22H23.7726V10.355H22.9176V10.55C22.9176 10.955 22.7676 11.09 22.1076 11.09H20.8926V11.87H22.3176C22.5426 11.87 22.6626 11.87 22.7526 11.855V19.22H20.8926V20Z" fill="black"/>
<path d="M234.972 20H236.157L239.442 9.8H238.392L235.782 18.23L235.602 18.95L235.392 18.23L232.737 9.8H231.642L228.957 18.23L228.762 18.95L228.552 18.23L225.942 9.8H224.847L228.132 20H229.332L231.942 11.885L232.152 11.18L232.362 11.885L234.972 20ZM241.356 20H242.361V15.14H248.166V20H249.186V9.8H248.166V14.315H242.361V9.8H241.356V20ZM251.742 20H252.747V9.8H251.742V20ZM258.121 20H259.141V10.67H262.741V9.8H254.506V10.67H258.121V20ZM264.501 20H271.266V19.175H265.506V15.125H270.726V14.285H265.506V10.625H271.266V9.8H264.501V20Z" fill="black"/>
<path d="M11.155 55H12.13V50.26C12.13 49.06 12.985 47.725 14.455 47.725C15.79 47.725 16.39 48.61 16.39 49.9V55H17.35V49.69C17.35 47.905 16.39 46.9 14.71 46.9C13.585 46.9 12.67 47.425 12.13 48.4V44.2H11.155V55ZM26.2807 52.42H25.2757C24.9607 53.68 24.0607 54.325 22.8157 54.325C21.2107 54.325 20.2657 53.185 20.2207 51.19H26.2357V50.92C26.2357 48.415 24.9307 46.9 22.7407 46.9C20.5807 46.9 19.2307 48.355 19.2307 51.04C19.2307 53.62 20.5657 55.165 22.8157 55.165C24.5557 55.165 25.8457 54.28 26.2807 52.42ZM22.7407 47.74C24.1957 47.74 25.0807 48.73 25.2307 50.44H20.2507C20.4007 48.685 21.2707 47.74 22.7407 47.74ZM33.1164 55H34.3464L31.2564 50.875L34.0914 47.065H32.9814L31.1214 49.63L30.7314 50.245L30.3264 49.63L28.4514 47.065H27.2364L30.0564 50.875L26.9814 55H28.0914L30.1914 52.105L30.5964 51.505L30.9864 52.105L33.1164 55ZM35.5118 49.105H36.7718V47.83H35.5118V49.105ZM35.5118 55H36.7718V53.74H35.5118V55ZM42.5439 55H43.4589L43.9839 52.465H46.9689L46.4439 55H47.3589L47.8839 52.465H49.3089V51.7H48.0339L48.7839 48.115H50.3139V47.335H48.9339L49.4589 44.8H48.5439L48.0189 47.335H45.0339L45.5589 44.8H44.6439L44.1189 47.335H42.6939V48.115H43.9689L43.2189 51.7H41.6889V52.465H43.0689L42.5439 55ZM44.1339 51.7L44.8839 48.115H47.8689L47.1189 51.7H44.1339ZM51.1932 47.845H52.3932V55H53.3682V47.845H55.0182V47.065H53.3682V46.375C53.3682 45.325 53.6832 44.86 54.8682 44.86H55.0182V44.155C54.8982 44.11 54.6882 44.08 54.4482 44.08C53.0082 44.08 52.3932 44.785 52.3932 46.375V47.065H51.1932V47.845ZM55.1336 47.845H56.3336V55H57.3086V47.845H58.9586V47.065H57.3086V46.375C57.3086 45.325 57.6236 44.86 58.8086 44.86H58.9586V44.155C58.8386 44.11 58.6286 44.08 58.3886 44.08C56.9486 44.08 56.3336 44.785 56.3336 46.375V47.065H55.1336V47.845ZM59.074 47.845H60.274V55H61.249V47.845H62.899V47.065H61.249V46.375C61.249 45.325 61.564 44.86 62.749 44.86H62.899V44.155C62.779 44.11 62.569 44.08 62.329 44.08C60.889 44.08 60.274 44.785 60.274 46.375V47.065H59.074V47.845ZM63.0145 47.845H64.2145V55H65.1895V47.845H66.8395V47.065H65.1895V46.375C65.1895 45.325 65.5045 44.86 66.6895 44.86H66.8395V44.155C66.7195 44.11 66.5095 44.08 66.2695 44.08C64.8295 44.08 64.2145 44.785 64.2145 46.375V47.065H63.0145V47.845ZM66.9549 47.845H68.1549V55H69.1299V47.845H70.7799V47.065H69.1299V46.375C69.1299 45.325 69.4449 44.86 70.6299 44.86H70.7799V44.155C70.6599 44.11 70.4499 44.08 70.2099 44.08C68.7699 44.08 68.1549 44.785 68.1549 46.375V47.065H66.9549V47.845ZM70.8953 47.845H72.0953V55H73.0703V47.845H74.7203V47.065H73.0703V46.375C73.0703 45.325 73.3853 44.86 74.5703 44.86H74.7203V44.155C74.6003 44.11 74.3903 44.08 74.1503 44.08C72.7103 44.08 72.0953 44.785 72.0953 46.375V47.065H70.8953V47.845Z" fill="black"/>
<path d="M11.155 80H12.13V75.44C12.13 74.03 12.895 72.83 14.515 72.83C14.8 72.83 15.085 72.875 15.295 72.95V72.065C15.145 71.96 14.875 71.9 14.575 71.9C13.54 71.9 12.655 72.44 12.13 73.52V72.065H11.155V80ZM19.232 80.075C20.342 80.075 21.212 79.595 21.752 78.68V80.315C21.752 81.935 20.927 82.67 19.607 82.67C18.317 82.67 17.417 82.025 17.237 80.825H16.262C16.547 82.58 17.792 83.48 19.607 83.48C21.377 83.48 22.727 82.505 22.727 80.285V72.065H21.752V73.25C21.242 72.365 20.402 71.9 19.232 71.9C17.267 71.9 16.052 73.34 16.052 75.995C16.052 78.545 17.237 80.075 19.232 80.075ZM19.397 79.235C17.897 79.235 17.042 78.05 17.042 75.995C17.042 73.895 17.882 72.74 19.397 72.74C20.897 72.74 21.752 73.94 21.752 75.98C21.752 78.08 20.927 79.235 19.397 79.235ZM26.0314 80V78.77C26.5564 79.685 27.3814 80.165 28.4464 80.165C30.4714 80.165 31.7314 78.71 31.7314 76.01C31.7314 73.445 30.5164 71.9 28.4464 71.9C27.3814 71.9 26.5564 72.41 26.0314 73.34V69.2H25.0564V80H26.0314ZM28.3864 72.74C29.8714 72.74 30.7414 73.94 30.7414 76.01C30.7414 78.14 29.9014 79.325 28.3864 79.325C26.8864 79.325 26.0314 78.11 26.0314 76.025C26.0314 73.91 26.8564 72.74 28.3864 72.74ZM33.4611 74.105H34.7211V72.83H33.4611V74.105ZM33.4611 80H34.7211V78.74H33.4611V80ZM39.8631 80H46.4931V79.22H40.8531C41.2431 75.98 46.3431 76.25 46.3431 73.055C46.3431 71.39 45.3081 70.19 43.2831 70.19C41.2581 70.19 40.1031 71.27 39.8481 73.04H40.8531C41.0631 71.795 41.7831 71.03 43.2681 71.03C44.6331 71.03 45.3531 71.795 45.3531 73.07C45.3531 75.845 39.8631 75.365 39.8631 79.7V80ZM55.4507 76.805C55.4507 75.05 54.5657 73.415 52.0007 73.415C50.8907 73.415 50.1557 73.775 49.5707 74.3L49.7657 71.135H55.0307V70.355H48.9857L48.6857 75.305L49.5557 75.395C49.9607 74.81 50.6357 74.255 51.9257 74.255C53.9057 74.255 54.4757 75.59 54.4757 76.805C54.4757 78.38 53.6207 79.325 51.9107 79.325C50.3207 79.325 49.4807 78.56 49.2857 77.345H48.3107C48.5657 79.115 49.7807 80.165 51.9257 80.165C54.2657 80.165 55.4507 78.785 55.4507 76.805ZM64.0933 76.805C64.0933 75.05 63.2083 73.415 60.6433 73.415C59.5333 73.415 58.7983 73.775 58.2133 74.3L58.4083 71.135H63.6733V70.355H57.6283L57.3283 75.305L58.1983 75.395C58.6033 74.81 59.2783 74.255 60.5683 74.255C62.5483 74.255 63.1183 75.59 63.1183 76.805C63.1183 78.38 62.2633 79.325 60.5533 79.325C58.9633 79.325 58.1233 78.56 57.9283 77.345H56.9533C57.2083 79.115 58.4233 80.165 60.5683 80.165C62.9083 80.165 64.0933 78.785 64.0933 76.805ZM65.7609 80H66.3009C66.3009 80.885 66.1509 81.44 65.8509 82.31H66.4059C66.8409 81.455 67.0209 80.69 67.0209 79.415V78.74H65.7609V80ZM72.1629 80H78.7929V79.22H73.1529C73.5429 75.98 78.6429 76.25 78.6429 73.055C78.6429 71.39 77.6079 70.19 75.5829 70.19C73.5579 70.19 72.4029 71.27 72.1479 73.04H73.1529C73.3629 71.795 74.0829 71.03 75.5679 71.03C76.9329 71.03 77.6529 71.795 77.6529 73.07C77.6529 75.845 72.1629 75.365 72.1629 79.7V80ZM87.7505 76.805C87.7505 75.05 86.8655 73.415 84.3005 73.415C83.1905 73.415 82.4555 73.775 81.8705 74.3L82.0655 71.135H87.3305V70.355H81.2855L80.9855 75.305L81.8555 75.395C82.2605 74.81 82.9355 74.255 84.2255 74.255C86.2055 74.255 86.7755 75.59 86.7755 76.805C86.7755 78.38 85.9205 79.325 84.2105 79.325C82.6205 79.325 81.7805 78.56 81.5855 77.345H80.6105C80.8655 79.115 82.0805 80.165 84.2255 80.165C86.5655 80.165 87.7505 78.785 87.7505 76.805ZM96.3931 76.805C96.3931 75.05 95.5081 73.415 92.9431 73.415C91.8331 73.415 91.0981 73.775 90.5131 74.3L90.7081 71.135H95.9731V70.355H89.9281L89.6281 75.305L90.4981 75.395C90.9031 74.81 91.5781 74.255 92.8681 74.255C94.8481 74.255 95.4181 75.59 95.4181 76.805C95.4181 78.38 94.5631 79.325 92.8531 79.325C91.2631 79.325 90.4231 78.56 90.2281 77.345H89.2531C89.5081 79.115 90.7231 80.165 92.8681 80.165C95.2081 80.165 96.3931 78.785 96.3931 76.805ZM98.0607 80H98.6007C98.6007 80.885 98.4507 81.44 98.1507 82.31H98.7057C99.1407 81.455 99.3207 80.69 99.3207 79.415V78.74H98.0607V80ZM104.463 80H111.093V79.22H105.453C105.843 75.98 110.943 76.25 110.943 73.055C110.943 71.39 109.908 70.19 107.883 70.19C105.858 70.19 104.703 71.27 104.448 73.04H105.453C105.663 71.795 106.383 71.03 107.868 71.03C109.233 71.03 109.953 71.795 109.953 73.07C109.953 75.845 104.463 75.365 104.463 79.7V80ZM120.05 76.805C120.05 75.05 119.165 73.415 116.6 73.415C115.49 73.415 114.755 73.775 114.17 74.3L114.365 71.135H119.63V70.355H113.585L113.285 75.305L114.155 75.395C114.56 74.81 115.235 74.255 116.525 74.255C118.505 74.255 119.075 75.59 119.075 76.805C119.075 78.38 118.22 79.325 116.51 79.325C114.92 79.325 114.08 78.56 113.885 77.345H112.91C113.165 79.115 114.38 80.165 116.525 80.165C118.865 80.165 120.05 78.785 120.05 76.805ZM128.693 76.805C128.693 75.05 127.808 73.415 125.243 73.415C124.133 73.415 123.398 73.775 122.813 74.3L123.008 71.135H128.273V70.355H122.228L121.928 75.305L122.798 75.395C123.203 74.81 123.878 74.255 125.168 74.255C127.148 74.255 127.718 75.59 127.718 76.805C127.718 78.38 126.863 79.325 125.153 79.325C123.563 79.325 122.723 78.56 122.528 77.345H121.553C121.808 79.115 123.023 80.165 125.168 80.165C127.508 80.165 128.693 78.785 128.693 76.805Z" fill="black"/>
<rect width="282" height="90" transform="translate(0 90)" fill="#F3F3F3"/>
<path d="M14.32 110.165C16.63 110.165 18.01 108.41 18.01 105.185C18.01 102.05 16.66 100.19 14.32 100.19C12.01 100.19 10.615 101.96 10.615 105.185C10.615 108.305 11.965 110.165 14.32 110.165ZM14.32 109.325C12.595 109.325 11.605 107.78 11.605 105.185C11.605 102.5 12.565 101.03 14.32 101.03C16.03 101.03 17.02 102.56 17.02 105.185C17.02 107.84 16.06 109.325 14.32 109.325ZM19.6776 110H26.3076V109.22H20.6676C21.0576 105.98 26.1576 106.25 26.1576 103.055C26.1576 101.39 25.1226 100.19 23.0976 100.19C21.0726 100.19 19.9176 101.27 19.6626 103.04H20.6676C20.8776 101.795 21.5976 101.03 23.0826 101.03C24.4476 101.03 25.1676 101.795 25.1676 103.07C25.1676 105.845 19.6776 105.365 19.6776 109.7V110Z" fill="black"/>
<path d="M195.284 110H196.349L192.254 99.8H191.069L186.989 110H187.994L189.059 107.33H194.219L195.284 110ZM191.369 101.585L191.639 100.805L191.924 101.585L193.889 106.505H189.389L191.369 101.585ZM197.982 110H198.987V101.24L199.542 102.2L204.747 110H205.812V99.8H204.792V108.545L204.267 107.645L199.047 99.8H197.982V110ZM211.188 110H212.208V100.67H215.808V99.8H207.573V100.67H211.188V110ZM217.567 110H218.572V99.8H217.567V110ZM220.977 106.325H224.892V105.485H220.977V106.325ZM227.294 110H228.299V105.38H233.519V104.555H228.299V100.625H234.059V99.8H227.294V110ZM235.921 110H242.296V109.175H236.926V99.8H235.921V110ZM251.461 110H252.526L248.431 99.8H247.246L243.166 110H244.171L245.236 107.33H250.396L251.461 110ZM247.546 101.585L247.816 100.805L248.101 101.585L250.066 106.505H245.566L247.546 101.585ZM254.658 102.26C254.658 101.21 255.483 100.505 256.968 100.505C258.393 100.505 259.368 101.15 259.668 102.62H260.733C260.403 100.55 258.903 99.635 256.983 99.635C254.778 99.635 253.623 100.88 253.623 102.32C253.623 106.535 259.968 103.82 259.968 107.33C259.968 108.5 259.068 109.295 257.373 109.295C255.768 109.295 254.718 108.56 254.403 107.225H253.353C253.758 109.19 255.213 110.165 257.358 110.165C259.458 110.165 261.003 109.115 261.003 107.21C261.003 102.905 254.658 105.545 254.658 102.26ZM262.889 110H263.894V105.14H269.699V110H270.719V99.8H269.699V104.315H263.894V99.8H262.889V110ZM234.972 130H236.157L239.442 119.8H238.392L235.782 128.23L235.602 128.95L235.392 128.23L232.737 119.8H231.642L228.957 128.23L228.762 128.95L228.552 128.23L225.942 119.8H224.847L228.132 130H229.332L231.942 121.885L232.152 121.18L232.362 121.885L234.972 130ZM241.356 130H242.361V125.14H248.166V130H249.186V119.8H248.166V124.315H242.361V119.8H241.356V130ZM251.742 130H252.747V119.8H251.742V130ZM258.121 130H259.141V120.67H262.741V119.8H254.506V120.67H258.121V130ZM264.501 130H271.266V129.175H265.506V125.125H270.726V124.285H265.506V120.625H271.266V119.8H264.501V130Z" fill="black"/>
<path d="M11.155 145H12.13V140.26C12.13 139.06 12.985 137.725 14.455 137.725C15.79 137.725 16.39 138.61 16.39 139.9V145H17.35V139.69C17.35 137.905 16.39 136.9 14.71 136.9C13.585 136.9 12.67 137.425 12.13 138.4V134.2H11.155V145ZM26.2807 142.42H25.2757C24.9607 143.68 24.0607 144.325 22.8157 144.325C21.2107 144.325 20.2657 143.185 20.2207 141.19H26.2357V140.92C26.2357 138.415 24.9307 136.9 22.7407 136.9C20.5807 136.9 19.2307 138.355 19.2307 141.04C19.2307 143.62 20.5657 145.165 22.8157 145.165C24.5557 145.165 25.8457 144.28 26.2807 142.42ZM22.7407 137.74C24.1957 137.74 25.0807 138.73 25.2307 140.44H20.2507C20.4007 138.685 21.2707 137.74 22.7407 137.74ZM33.1164 145H34.3464L31.2564 140.875L34.0914 137.065H32.9814L31.1214 139.63L30.7314 140.245L30.3264 139.63L28.4514 137.065H27.2364L30.0564 140.875L26.9814 145H28.0914L30.1914 142.105L30.5964 141.505L30.9864 142.105L33.1164 145ZM35.5118 139.105H36.7718V137.83H35.5118V139.105ZM35.5118 145H36.7718V143.74H35.5118V145ZM42.5439 145H43.4589L43.9839 142.465H46.9689L46.4439 145H47.3589L47.8839 142.465H49.3089V141.7H48.0339L48.7839 138.115H50.3139V137.335H48.9339L49.4589 134.8H48.5439L48.0189 137.335H45.0339L45.5589 134.8H44.6439L44.1189 137.335H42.6939V138.115H43.9689L43.2189 141.7H41.6889V142.465H43.0689L42.5439 145ZM44.1339 141.7L44.8839 138.115H47.8689L47.1189 141.7H44.1339ZM51.1932 137.845H52.3932V145H53.3682V137.845H55.0182V137.065H53.3682V136.375C53.3682 135.325 53.6832 134.86 54.8682 134.86H55.0182V134.155C54.8982 134.11 54.6882 134.08 54.4482 134.08C53.0082 134.08 52.3932 134.785 52.3932 136.375V137.065H51.1932V137.845ZM62.9486 142.345C62.9486 141.295 62.5136 140.38 61.0736 139.93C62.2586 139.54 62.6486 138.775 62.6486 137.875C62.6486 136.3 61.5836 135.19 59.4686 135.19C57.4136 135.19 56.2436 136.27 55.9886 138.04H56.9636C57.1586 136.795 57.9386 136.03 59.4536 136.03C60.9086 136.03 61.6586 136.72 61.6586 137.875C61.6586 138.625 61.2986 139.6 58.9286 139.6H58.6886V140.38H58.9736C61.5086 140.38 61.9586 141.4 61.9586 142.315C61.9586 143.575 61.0886 144.325 59.4086 144.325C57.7886 144.325 56.9636 143.53 56.7686 142.3H55.7786C56.0336 144.085 57.2936 145.165 59.4236 145.165C61.7636 145.165 62.9486 143.98 62.9486 142.345ZM63.7762 137.845H64.9762V145H65.9512V137.845H67.6012V137.065H65.9512V136.375C65.9512 135.325 66.2662 134.86 67.4512 134.86H67.6012V134.155C67.4812 134.11 67.2712 134.08 67.0312 134.08C65.5912 134.08 64.9762 134.785 64.9762 136.375V137.065H63.7762V137.845ZM75.5316 142.345C75.5316 141.295 75.0966 140.38 73.6566 139.93C74.8416 139.54 75.2316 138.775 75.2316 137.875C75.2316 136.3 74.1666 135.19 72.0516 135.19C69.9966 135.19 68.8266 136.27 68.5716 138.04H69.5466C69.7416 136.795 70.5216 136.03 72.0366 136.03C73.4916 136.03 74.2416 136.72 74.2416 137.875C74.2416 138.625 73.8816 139.6 71.5116 139.6H71.2716V140.38H71.5566C74.0916 140.38 74.5416 141.4 74.5416 142.315C74.5416 143.575 73.6716 144.325 71.9916 144.325C70.3716 144.325 69.5466 143.53 69.3516 142.3H68.3616C68.6166 144.085 69.8766 145.165 72.0066 145.165C74.3466 145.165 75.5316 143.98 75.5316 142.345ZM76.3592 137.845H77.5592V145H78.5342V137.845H80.1842V137.065H78.5342V136.375C78.5342 135.325 78.8492 134.86 80.0342 134.86H80.1842V134.155C80.0642 134.11 79.8542 134.08 79.6142 134.08C78.1742 134.08 77.5592 134.785 77.5592 136.375V137.065H76.3592V137.845ZM88.1146 142.345C88.1146 141.295 87.6796 140.38 86.2396 139.93C87.4246 139.54 87.8146 138.775 87.8146 137.875C87.8146 136.3 86.7496 135.19 84.6346 135.19C82.5796 135.19 81.4096 136.27 81.1546 138.04H82.1296C82.3246 136.795 83.1046 136.03 84.6196 136.03C86.0746 136.03 86.8246 136.72 86.8246 137.875C86.8246 138.625 86.4646 139.6 84.0946 139.6H83.8546V140.38H84.1396C86.6746 140.38 87.1246 141.4 87.1246 142.315C87.1246 143.575 86.2546 144.325 84.5746 144.325C82.9546 144.325 82.1296 143.53 81.9346 142.3H80.9446C81.1996 144.085 82.4596 145.165 84.5896 145.165C86.9296 145.165 88.1146 143.98 88.1146 142.345Z" fill="black"/>
<path d="M11.155 170H12.13V165.44C12.13 164.03 12.895 162.83 14.515 162.83C14.8 162.83 15.085 162.875 15.295 162.95V162.065C15.145 161.96 14.875 161.9 14.575 161.9C13.54 161.9 12.655 162.44 12.13 163.52V162.065H11.155V170ZM19.232 170.075C20.342 170.075 21.212 169.595 21.752 168.68V170.315C21.752 171.935 20.927 172.67 19.607 172.67C18.317 172.67 17.417 172.025 17.237 170.825H16.262C16.547 172.58 17.792 173.48 19.607 173.48C21.377 173.48 22.727 172.505 22.727 170.285V162.065H21.752V163.25C21.242 162.365 20.402 161.9 19.232 161.9C17.267 161.9 16.052 163.34 16.052 165.995C16.052 168.545 17.237 170.075 19.232 170.075ZM19.397 169.235C17.897 169.235 17.042 168.05 17.042 165.995C17.042 163.895 17.882 162.74 19.397 162.74C20.897 162.74 21.752 163.94 21.752 165.98C21.752 168.08 20.927 169.235 19.397 169.235ZM26.0314 170V168.77C26.5564 169.685 27.3814 170.165 28.4464 170.165C30.4714 170.165 31.7314 168.71 31.7314 166.01C31.7314 163.445 30.5164 161.9 28.4464 161.9C27.3814 161.9 26.5564 162.41 26.0314 163.34V159.2H25.0564V170H26.0314ZM28.3864 162.74C29.8714 162.74 30.7414 163.94 30.7414 166.01C30.7414 168.14 29.9014 169.325 28.3864 169.325C26.8864 169.325 26.0314 168.11 26.0314 166.025C26.0314 163.91 26.8564 162.74 28.3864 162.74ZM33.4611 164.105H34.7211V162.83H33.4611V164.105ZM33.4611 170H34.7211V168.74H33.4611V170ZM39.8631 170H46.4931V169.22H40.8531C41.2431 165.98 46.3431 166.25 46.3431 163.055C46.3431 161.39 45.3081 160.19 43.2831 160.19C41.2581 160.19 40.1031 161.27 39.8481 163.04H40.8531C41.0631 161.795 41.7831 161.03 43.2681 161.03C44.6331 161.03 45.3531 161.795 45.3531 163.07C45.3531 165.845 39.8631 165.365 39.8631 169.7V170ZM54.0707 170V167.6H55.5107V166.82H54.0707V160.355H53.1707L48.1607 166.715V167.6H53.0657V170H54.0707ZM49.0907 166.82L53.0657 161.675V166.82H49.0907ZM64.0033 167.345C64.0033 166.295 63.5683 165.38 62.1283 164.93C63.3133 164.54 63.7033 163.775 63.7033 162.875C63.7033 161.3 62.6383 160.19 60.5233 160.19C58.4683 160.19 57.2983 161.27 57.0433 163.04H58.0183C58.2133 161.795 58.9933 161.03 60.5083 161.03C61.9633 161.03 62.7133 161.72 62.7133 162.875C62.7133 163.625 62.3533 164.6 59.9833 164.6H59.7433V165.38H60.0283C62.5633 165.38 63.0133 166.4 63.0133 167.315C63.0133 168.575 62.1433 169.325 60.4633 169.325C58.8433 169.325 58.0183 168.53 57.8233 167.3H56.8333C57.0883 169.085 58.3483 170.165 60.4783 170.165C62.8183 170.165 64.0033 168.98 64.0033 167.345ZM65.7609 170H66.3009C66.3009 170.885 66.1509 171.44 65.8509 172.31H66.4059C66.8409 171.455 67.0209 170.69 67.0209 169.415V168.74H65.7609V170ZM72.1629 170H78.7929V169.22H73.1529C73.5429 165.98 78.6429 166.25 78.6429 163.055C78.6429 161.39 77.6079 160.19 75.5829 160.19C73.5579 160.19 72.4029 161.27 72.1479 163.04H73.1529C73.3629 161.795 74.0829 161.03 75.5679 161.03C76.9329 161.03 77.6529 161.795 77.6529 163.07C77.6529 165.845 72.1629 165.365 72.1629 169.7V170ZM86.3705 170V167.6H87.8105V166.82H86.3705V160.355H85.4705L80.4605 166.715V167.6H85.3655V170H86.3705ZM81.3905 166.82L85.3655 161.675V166.82H81.3905ZM96.3031 167.345C96.3031 166.295 95.8681 165.38 94.4281 164.93C95.6131 164.54 96.0031 163.775 96.0031 162.875C96.0031 161.3 94.9381 160.19 92.8231 160.19C90.7681 160.19 89.5981 161.27 89.3431 163.04H90.3181C90.5131 161.795 91.2931 161.03 92.8081 161.03C94.2631 161.03 95.0131 161.72 95.0131 162.875C95.0131 163.625 94.6531 164.6 92.2831 164.6H92.0431V165.38H92.3281C94.8631 165.38 95.3131 166.4 95.3131 167.315C95.3131 168.575 94.4431 169.325 92.7631 169.325C91.1431 169.325 90.3181 168.53 90.1231 167.3H89.1331C89.3881 169.085 90.6481 170.165 92.7781 170.165C95.1181 170.165 96.3031 168.98 96.3031 167.345ZM98.0607 170H98.6007C98.6007 170.885 98.4507 171.44 98.1507 172.31H98.7057C99.1407 171.455 99.3207 170.69 99.3207 169.415V168.74H98.0607V170ZM104.463 170H111.093V169.22H105.453C105.843 165.98 110.943 166.25 110.943 163.055C110.943 161.39 109.908 160.19 107.883 160.19C105.858 160.19 104.703 161.27 104.448 163.04H105.453C105.663 161.795 106.383 161.03 107.868 161.03C109.233 161.03 109.953 161.795 109.953 163.07C109.953 165.845 104.463 165.365 104.463 169.7V170ZM118.67 170V167.6H120.11V166.82H118.67V160.355H117.77L112.76 166.715V167.6H117.665V170H118.67ZM113.69 166.82L117.665 161.675V166.82H113.69ZM128.603 167.345C128.603 166.295 128.168 165.38 126.728 164.93C127.913 164.54 128.303 163.775 128.303 162.875C128.303 161.3 127.238 160.19 125.123 160.19C123.068 160.19 121.898 161.27 121.643 163.04H122.618C122.813 161.795 123.593 161.03 125.108 161.03C126.563 161.03 127.313 161.72 127.313 162.875C127.313 163.625 126.953 164.6 124.583 164.6H124.343V165.38H124.628C127.163 165.38 127.613 166.4 127.613 167.315C127.613 168.575 126.743 169.325 125.063 169.325C123.443 169.325 122.618 168.53 122.423 167.3H121.433C121.688 169.085 122.948 170.165 125.078 170.165C127.418 170.165 128.603 168.98 128.603 167.345Z" fill="black"/>
<rect width="282" height="90" transform="translate(0 180)" fill="black"/>
<path d="M14.32 200.165C16.63 200.165 18.01 198.41 18.01 195.185C18.01 192.05 16.66 190.19 14.32 190.19C12.01 190.19 10.615 191.96 10.615 195.185C10.615 198.305 11.965 200.165 14.32 200.165ZM14.32 199.325C12.595 199.325 11.605 197.78 11.605 195.185C11.605 192.5 12.565 191.03 14.32 191.03C16.03 191.03 17.02 192.56 17.02 195.185C17.02 197.84 16.06 199.325 14.32 199.325ZM26.5326 197.345C26.5326 196.295 26.0976 195.38 24.6576 194.93C25.8426 194.54 26.2326 193.775 26.2326 192.875C26.2326 191.3 25.1676 190.19 23.0526 190.19C20.9976 190.19 19.8276 191.27 19.5726 193.04H20.5476C20.7426 191.795 21.5226 191.03 23.0376 191.03C24.4926 191.03 25.2426 191.72 25.2426 192.875C25.2426 193.625 24.8826 194.6 22.5126 194.6H22.2726V195.38H22.5576C25.0926 195.38 25.5426 196.4 25.5426 197.315C25.5426 198.575 24.6726 199.325 22.9926 199.325C21.3726 199.325 20.5476 198.53 20.3526 197.3H19.3626C19.6176 199.085 20.8776 200.165 23.0076 200.165C25.3476 200.165 26.5326 198.98 26.5326 197.345Z" fill="white"/>
<path d="M227.206 200H231.091C233.176 200 234.481 198.965 234.481 197.18C234.481 195.935 233.716 194.975 232.261 194.645C233.356 194.285 233.926 193.46 233.926 192.44C233.926 190.82 232.606 189.8 230.581 189.8H227.206V200ZM230.566 190.625C231.991 190.625 232.891 191.345 232.891 192.5C232.891 193.61 232.006 194.345 230.536 194.345H228.211V190.625H230.566ZM230.821 195.155C232.426 195.155 233.446 195.935 233.446 197.165C233.446 198.38 232.531 199.175 231.076 199.175H228.211V195.155H230.821ZM236.478 200H242.853V199.175H237.483V189.8H236.478V200ZM252.017 200H253.082L248.987 189.8H247.802L243.722 200H244.727L245.792 197.33H250.952L252.017 200ZM248.102 191.585L248.372 190.805L248.657 191.585L250.622 196.505H246.122L248.102 191.585ZM262.26 192.62C261.735 190.685 260.115 189.635 258.24 189.635C255.42 189.635 253.71 191.675 253.71 194.915C253.71 198.17 255.405 200.165 258.195 200.165C260.055 200.165 261.645 199.1 262.23 197.225H261.165C260.67 198.575 259.56 199.295 258.21 199.295C256.035 199.295 254.745 197.63 254.745 194.915C254.745 192.2 256.035 190.505 258.21 190.505C259.605 190.505 260.775 191.27 261.195 192.62H262.26ZM264.252 200H265.257V195.02L270.327 200H271.707L266.442 194.81L271.617 189.8H270.327L265.257 194.75V189.8H264.252V200Z" fill="white"/>
<path d="M11.155 235H12.13V230.26C12.13 229.06 12.985 227.725 14.455 227.725C15.79 227.725 16.39 228.61 16.39 229.9V235H17.35V229.69C17.35 227.905 16.39 226.9 14.71 226.9C13.585 226.9 12.67 227.425 12.13 228.4V224.2H11.155V235ZM26.2807 232.42H25.2757C24.9607 233.68 24.0607 234.325 22.8157 234.325C21.2107 234.325 20.2657 233.185 20.2207 231.19H26.2357V230.92C26.2357 228.415 24.9307 226.9 22.7407 226.9C20.5807 226.9 19.2307 228.355 19.2307 231.04C19.2307 233.62 20.5657 235.165 22.8157 235.165C24.5557 235.165 25.8457 234.28 26.2807 232.42ZM22.7407 227.74C24.1957 227.74 25.0807 228.73 25.2307 230.44H20.2507C20.4007 228.685 21.2707 227.74 22.7407 227.74ZM33.1164 235H34.3464L31.2564 230.875L34.0914 227.065H32.9814L31.1214 229.63L30.7314 230.245L30.3264 229.63L28.4514 227.065H27.2364L30.0564 230.875L26.9814 235H28.0914L30.1914 232.105L30.5964 231.505L30.9864 232.105L33.1164 235ZM35.5118 229.105H36.7718V227.83H35.5118V229.105ZM35.5118 235H36.7718V233.74H35.5118V235ZM42.5439 235H43.4589L43.9839 232.465H46.9689L46.4439 235H47.3589L47.8839 232.465H49.3089V231.7H48.0339L48.7839 228.115H50.3139V227.335H48.9339L49.4589 224.8H48.5439L48.0189 227.335H45.0339L45.5589 224.8H44.6439L44.1189 227.335H42.6939V228.115H43.9689L43.2189 231.7H41.6889V232.465H43.0689L42.5439 235ZM44.1339 231.7L44.8839 228.115H47.8689L47.1189 231.7H44.1339ZM55.4382 235.165C57.7482 235.165 59.1282 233.41 59.1282 230.185C59.1282 227.05 57.7782 225.19 55.4382 225.19C53.1282 225.19 51.7332 226.96 51.7332 230.185C51.7332 233.305 53.0832 235.165 55.4382 235.165ZM55.4382 234.325C53.7132 234.325 52.7232 232.78 52.7232 230.185C52.7232 227.5 53.6832 226.03 55.4382 226.03C57.1482 226.03 58.1382 227.56 58.1382 230.185C58.1382 232.84 57.1782 234.325 55.4382 234.325ZM64.0807 235.165C66.3907 235.165 67.7707 233.41 67.7707 230.185C67.7707 227.05 66.4207 225.19 64.0807 225.19C61.7707 225.19 60.3757 226.96 60.3757 230.185C60.3757 233.305 61.7257 235.165 64.0807 235.165ZM64.0807 234.325C62.3557 234.325 61.3657 232.78 61.3657 230.185C61.3657 227.5 62.3257 226.03 64.0807 226.03C65.7907 226.03 66.7807 227.56 66.7807 230.185C66.7807 232.84 65.8207 234.325 64.0807 234.325ZM72.7233 235.165C75.0333 235.165 76.4133 233.41 76.4133 230.185C76.4133 227.05 75.0633 225.19 72.7233 225.19C70.4133 225.19 69.0183 226.96 69.0183 230.185C69.0183 233.305 70.3683 235.165 72.7233 235.165ZM72.7233 234.325C70.9983 234.325 70.0083 232.78 70.0083 230.185C70.0083 227.5 70.9683 226.03 72.7233 226.03C74.4333 226.03 75.4233 227.56 75.4233 230.185C75.4233 232.84 74.4633 234.325 72.7233 234.325ZM81.3659 235.165C83.6759 235.165 85.0559 233.41 85.0559 230.185C85.0559 227.05 83.7059 225.19 81.3659 225.19C79.0559 225.19 77.6609 226.96 77.6609 230.185C77.6609 233.305 79.0109 235.165 81.3659 235.165ZM81.3659 234.325C79.6409 234.325 78.6509 232.78 78.6509 230.185C78.6509 227.5 79.6109 226.03 81.3659 226.03C83.0759 226.03 84.0659 227.56 84.0659 230.185C84.0659 232.84 83.1059 234.325 81.3659 234.325ZM90.0085 235.165C92.3185 235.165 93.6985 233.41 93.6985 230.185C93.6985 227.05 92.3485 225.19 90.0085 225.19C87.6985 225.19 86.3035 226.96 86.3035 230.185C86.3035 233.305 87.6535 235.165 90.0085 235.165ZM90.0085 234.325C88.2835 234.325 87.2935 232.78 87.2935 230.185C87.2935 227.5 88.2535 226.03 90.0085 226.03C91.7185 226.03 92.7085 227.56 92.7085 230.185C92.7085 232.84 91.7485 234.325 90.0085 234.325ZM98.6511 235.165C100.961 235.165 102.341 233.41 102.341 230.185C102.341 227.05 100.991 225.19 98.6511 225.19C96.3411 225.19 94.9461 226.96 94.9461 230.185C94.9461 233.305 96.2961 235.165 98.6511 235.165ZM98.6511 234.325C96.9261 234.325 95.9361 232.78 95.9361 230.185C95.9361 227.5 96.8961 226.03 98.6511 226.03C100.361 226.03 101.351 227.56 101.351 230.185C101.351 232.84 100.391 234.325 98.6511 234.325Z" fill="white"/>
<path d="M11.155 260H12.13V255.44C12.13 254.03 12.895 252.83 14.515 252.83C14.8 252.83 15.085 252.875 15.295 252.95V252.065C15.145 251.96 14.875 251.9 14.575 251.9C13.54 251.9 12.655 252.44 12.13 253.52V252.065H11.155V260ZM19.232 260.075C20.342 260.075 21.212 259.595 21.752 258.68V260.315C21.752 261.935 20.927 262.67 19.607 262.67C18.317 262.67 17.417 262.025 17.237 260.825H16.262C16.547 262.58 17.792 263.48 19.607 263.48C21.377 263.48 22.727 262.505 22.727 260.285V252.065H21.752V253.25C21.242 252.365 20.402 251.9 19.232 251.9C17.267 251.9 16.052 253.34 16.052 255.995C16.052 258.545 17.237 260.075 19.232 260.075ZM19.397 259.235C17.897 259.235 17.042 258.05 17.042 255.995C17.042 253.895 17.882 252.74 19.397 252.74C20.897 252.74 21.752 253.94 21.752 255.98C21.752 258.08 20.927 259.235 19.397 259.235ZM26.0314 260V258.77C26.5564 259.685 27.3814 260.165 28.4464 260.165C30.4714 260.165 31.7314 258.71 31.7314 256.01C31.7314 253.445 30.5164 251.9 28.4464 251.9C27.3814 251.9 26.5564 252.41 26.0314 253.34V249.2H25.0564V260H26.0314ZM28.3864 252.74C29.8714 252.74 30.7414 253.94 30.7414 256.01C30.7414 258.14 29.9014 259.325 28.3864 259.325C26.8864 259.325 26.0314 258.11 26.0314 256.025C26.0314 253.91 26.8564 252.74 28.3864 252.74ZM33.4611 254.105H34.7211V252.83H33.4611V254.105ZM33.4611 260H34.7211V258.74H33.4611V260ZM43.1481 260.165C45.4581 260.165 46.8381 258.41 46.8381 255.185C46.8381 252.05 45.4881 250.19 43.1481 250.19C40.8381 250.19 39.4431 251.96 39.4431 255.185C39.4431 258.305 40.7931 260.165 43.1481 260.165ZM43.1481 259.325C41.4231 259.325 40.4331 257.78 40.4331 255.185C40.4331 252.5 41.3931 251.03 43.1481 251.03C44.8581 251.03 45.8481 252.56 45.8481 255.185C45.8481 257.84 44.8881 259.325 43.1481 259.325ZM48.4757 260H49.0157C49.0157 260.885 48.8657 261.44 48.5657 262.31H49.1207C49.5557 261.455 49.7357 260.69 49.7357 259.415V258.74H48.4757V260ZM58.1628 260.165C60.4728 260.165 61.8528 258.41 61.8528 255.185C61.8528 252.05 60.5028 250.19 58.1628 250.19C55.8528 250.19 54.4578 251.96 54.4578 255.185C54.4578 258.305 55.8078 260.165 58.1628 260.165ZM58.1628 259.325C56.4378 259.325 55.4478 257.78 55.4478 255.185C55.4478 252.5 56.4078 251.03 58.1628 251.03C59.8728 251.03 60.8628 252.56 60.8628 255.185C60.8628 257.84 59.9028 259.325 58.1628 259.325ZM63.4904 260H64.0304C64.0304 260.885 63.8804 261.44 63.5804 262.31H64.1354C64.5704 261.455 64.7504 260.69 64.7504 259.415V258.74H63.4904V260ZM73.1774 260.165C75.4874 260.165 76.8674 258.41 76.8674 255.185C76.8674 252.05 75.5174 250.19 73.1774 250.19C70.8674 250.19 69.4724 251.96 69.4724 255.185C69.4724 258.305 70.8224 260.165 73.1774 260.165ZM73.1774 259.325C71.4524 259.325 70.4624 257.78 70.4624 255.185C70.4624 252.5 71.4224 251.03 73.1774 251.03C74.8874 251.03 75.8774 252.56 75.8774 255.185C75.8774 257.84 74.9174 259.325 73.1774 259.325Z" fill="white"/>
</svg>
