<svg width="360" height="48" viewBox="0 0 360 48" fill="none" xmlns="http://www.w3.org/2000/svg">
<rect width="360" height="48" rx="24" fill="#262626" fill-opacity="0.83"/>
<path opacity="0.5" d="M25.4091 30V18.3636H32.4318V19.6136H26.8182V23.5455H32.0682V24.7955H26.8182V28.75H32.5227V30H25.4091ZM36.2307 24.75V30H34.8898V21.2727H36.1852V22.6364H36.2989C36.5034 22.1932 36.814 21.8371 37.2307 21.5682C37.6473 21.2955 38.1852 21.1591 38.8443 21.1591C39.4352 21.1591 39.9523 21.2803 40.3955 21.5227C40.8386 21.7614 41.1833 22.125 41.4295 22.6136C41.6758 23.0985 41.7989 23.7121 41.7989 24.4545V30H40.458V24.5455C40.458 23.8598 40.2799 23.3258 39.9239 22.9432C39.5678 22.5568 39.0792 22.3636 38.458 22.3636C38.0299 22.3636 37.6473 22.4564 37.3102 22.642C36.9769 22.8277 36.7136 23.0985 36.5205 23.4545C36.3273 23.8106 36.2307 24.2424 36.2307 24.75ZM48.1446 21.2727V22.4091H43.6219V21.2727H48.1446ZM44.9401 19.1818H46.281V27.5C46.281 27.8788 46.3359 28.1629 46.4457 28.3523C46.5594 28.5379 46.7033 28.6629 46.8776 28.7273C47.0556 28.7879 47.2431 28.8182 47.4401 28.8182C47.5878 28.8182 47.709 28.8106 47.8037 28.7955C47.8984 28.7765 47.9741 28.7614 48.031 28.75L48.3037 29.9545C48.2128 29.9886 48.0859 30.0227 47.923 30.0568C47.7601 30.0947 47.5537 30.1136 47.3037 30.1136C46.9249 30.1136 46.5537 30.0322 46.1901 29.8693C45.8302 29.7064 45.531 29.4583 45.2923 29.125C45.0575 28.7917 44.9401 28.3712 44.9401 27.8636V19.1818ZM53.827 30.1818C52.9861 30.1818 52.2607 29.9962 51.6509 29.625C51.0448 29.25 50.577 28.7273 50.2474 28.0568C49.9217 27.3826 49.7588 26.5985 49.7588 25.7045C49.7588 24.8106 49.9217 24.0227 50.2474 23.3409C50.577 22.6553 51.0353 22.1212 51.6224 21.7386C52.2134 21.3523 52.9027 21.1591 53.6906 21.1591C54.1452 21.1591 54.594 21.2348 55.0372 21.3864C55.4804 21.5379 55.8838 21.7841 56.2474 22.125C56.6111 22.4621 56.9009 22.9091 57.1168 23.4659C57.3327 24.0227 57.4406 24.7083 57.4406 25.5227V26.0909H50.7134V24.9318H56.077C56.077 24.4394 55.9785 24 55.7815 23.6136C55.5884 23.2273 55.3118 22.9223 54.952 22.6989C54.5959 22.4754 54.1755 22.3636 53.6906 22.3636C53.1565 22.3636 52.6944 22.4962 52.3043 22.7614C51.9179 23.0227 51.6205 23.3636 51.4122 23.7841C51.2039 24.2045 51.0997 24.6553 51.0997 25.1364V25.9091C51.0997 26.5682 51.2134 27.1269 51.4406 27.5852C51.6717 28.0398 51.9918 28.3864 52.4009 28.625C52.8099 28.8598 53.2853 28.9773 53.827 28.9773C54.1793 28.9773 54.4974 28.928 54.7815 28.8295C55.0694 28.7273 55.3175 28.5758 55.5259 28.375C55.7342 28.1705 55.8952 27.9167 56.0088 27.6136L57.3043 27.9773C57.1679 28.4167 56.9387 28.803 56.6168 29.1364C56.2948 29.4659 55.8971 29.7235 55.4236 29.9091C54.9501 30.0909 54.4179 30.1818 53.827 30.1818ZM59.5804 30V21.2727H60.8759V22.5909H60.9668C61.1259 22.1591 61.4137 21.8087 61.8304 21.5398C62.2471 21.2708 62.7168 21.1364 63.2395 21.1364C63.338 21.1364 63.4611 21.1383 63.6088 21.142C63.7565 21.1458 63.8683 21.1515 63.944 21.1591V22.5227C63.8986 22.5114 63.7944 22.4943 63.6315 22.4716C63.4724 22.4451 63.3039 22.4318 63.1259 22.4318C62.7016 22.4318 62.3228 22.5208 61.9895 22.6989C61.6599 22.8731 61.3986 23.1155 61.2054 23.4261C61.016 23.733 60.9213 24.0833 60.9213 24.4773V30H59.5804ZM73.8926 30.1818C73.0517 30.1818 72.3263 29.9962 71.7165 29.625C71.1104 29.25 70.6426 28.7273 70.3131 28.0568C69.9873 27.3826 69.8244 26.5985 69.8244 25.7045C69.8244 24.8106 69.9873 24.0227 70.3131 23.3409C70.6426 22.6553 71.1009 22.1212 71.6881 21.7386C72.279 21.3523 72.9684 21.1591 73.7562 21.1591C74.2108 21.1591 74.6597 21.2348 75.1028 21.3864C75.546 21.5379 75.9494 21.7841 76.3131 22.125C76.6767 22.4621 76.9665 22.9091 77.1824 23.4659C77.3983 24.0227 77.5062 24.7083 77.5062 25.5227V26.0909H70.779V24.9318H76.1426C76.1426 24.4394 76.0441 24 75.8472 23.6136C75.654 23.2273 75.3775 22.9223 75.0176 22.6989C74.6616 22.4754 74.2411 22.3636 73.7562 22.3636C73.2222 22.3636 72.76 22.4962 72.3699 22.7614C71.9835 23.0227 71.6862 23.3636 71.4778 23.7841C71.2695 24.2045 71.1653 24.6553 71.1653 25.1364V25.9091C71.1653 26.5682 71.279 27.1269 71.5062 27.5852C71.7373 28.0398 72.0574 28.3864 72.4665 28.625C72.8756 28.8598 73.3509 28.9773 73.8926 28.9773C74.2449 28.9773 74.5631 28.928 74.8472 28.8295C75.135 28.7273 75.3831 28.5758 75.5915 28.375C75.7998 28.1705 75.9608 27.9167 76.0744 27.6136L77.3699 27.9773C77.2335 28.4167 77.0044 28.803 76.6824 29.1364C76.3604 29.4659 75.9627 29.7235 75.4892 29.9091C75.0157 30.0909 74.4835 30.1818 73.8926 30.1818ZM79.646 30V21.2727H80.9415V22.6364H81.0551C81.2369 22.1705 81.5305 21.8087 81.9358 21.5511C82.3411 21.2898 82.8278 21.1591 83.396 21.1591C83.9718 21.1591 84.4509 21.2898 84.8335 21.5511C85.2199 21.8087 85.521 22.1705 85.7369 22.6364H85.8278C86.0513 22.1856 86.3866 21.8277 86.8335 21.5625C87.2805 21.2936 87.8165 21.1591 88.4415 21.1591C89.2218 21.1591 89.86 21.4034 90.3563 21.892C90.8525 22.3769 91.1006 23.1326 91.1006 24.1591V30H89.7597V24.1591C89.7597 23.5152 89.5835 23.0549 89.2313 22.7784C88.879 22.5019 88.4642 22.3636 87.9869 22.3636C87.3733 22.3636 86.8979 22.5492 86.5608 22.9205C86.2237 23.2879 86.0551 23.7538 86.0551 24.3182V30H84.6915V24.0227C84.6915 23.5265 84.5305 23.1269 84.2085 22.8239C83.8866 22.517 83.4718 22.3636 82.9642 22.3636C82.6157 22.3636 82.29 22.4564 81.9869 22.642C81.6877 22.8277 81.4453 23.0852 81.2597 23.4148C81.0778 23.7405 80.9869 24.1174 80.9869 24.5455V30H79.646ZM96.2205 30.2045C95.6674 30.2045 95.1655 30.1004 94.7148 29.892C94.264 29.6799 93.9061 29.375 93.6409 28.9773C93.3758 28.5758 93.2432 28.0909 93.2432 27.5227C93.2432 27.0227 93.3417 26.6174 93.5386 26.3068C93.7356 25.9924 93.9989 25.7462 94.3284 25.5682C94.658 25.3902 95.0216 25.2576 95.4193 25.1705C95.8208 25.0795 96.2242 25.0076 96.6295 24.9545C97.1599 24.8864 97.5898 24.8352 97.9193 24.8011C98.2527 24.7633 98.4951 24.7008 98.6466 24.6136C98.8019 24.5265 98.8795 24.375 98.8795 24.1591V24.1136C98.8795 23.553 98.7261 23.1174 98.4193 22.8068C98.1163 22.4962 97.6561 22.3409 97.0386 22.3409C96.3985 22.3409 95.8966 22.4811 95.533 22.7614C95.1693 23.0417 94.9136 23.3409 94.7659 23.6591L93.4932 23.2045C93.7205 22.6742 94.0235 22.2614 94.4023 21.9659C94.7849 21.6667 95.2015 21.4583 95.6523 21.3409C96.1068 21.2197 96.5538 21.1591 96.9932 21.1591C97.2735 21.1591 97.5955 21.1932 97.9591 21.2614C98.3265 21.3258 98.6807 21.4602 99.0216 21.6648C99.3663 21.8693 99.6523 22.178 99.8795 22.5909C100.107 23.0038 100.22 23.5568 100.22 24.25V30H98.8795V28.8182H98.8114C98.7205 29.0076 98.5689 29.2102 98.3568 29.4261C98.1447 29.642 97.8625 29.8258 97.5102 29.9773C97.158 30.1288 96.728 30.2045 96.2205 30.2045ZM96.425 29C96.9553 29 97.4023 28.8958 97.7659 28.6875C98.1333 28.4792 98.4099 28.2102 98.5955 27.8807C98.7849 27.5511 98.8795 27.2045 98.8795 26.8409V25.6136C98.8227 25.6818 98.6977 25.7443 98.5045 25.8011C98.3152 25.8542 98.0955 25.9015 97.8455 25.9432C97.5992 25.9811 97.3587 26.0152 97.1239 26.0455C96.8928 26.072 96.7053 26.0947 96.5614 26.1136C96.2129 26.1591 95.8871 26.233 95.5841 26.3352C95.2849 26.4337 95.0424 26.5833 94.8568 26.7841C94.675 26.9811 94.5841 27.25 94.5841 27.5909C94.5841 28.0568 94.7564 28.4091 95.1011 28.6477C95.4496 28.8826 95.8909 29 96.425 29ZM102.768 30V21.2727H104.109V30H102.768ZM103.45 19.8182C103.188 19.8182 102.963 19.7292 102.774 19.5511C102.588 19.3731 102.495 19.1591 102.495 18.9091C102.495 18.6591 102.588 18.4451 102.774 18.267C102.963 18.089 103.188 18 103.45 18C103.711 18 103.935 18.089 104.12 18.267C104.31 18.4451 104.404 18.6591 104.404 18.9091C104.404 19.1591 104.31 19.3731 104.12 19.5511C103.935 19.7292 103.711 19.8182 103.45 19.8182ZM108.006 18.3636V30H106.665V18.3636H108.006Z" fill="white"/>
<path fill-rule="evenodd" clip-rule="evenodd" d="M327.35 29.5L323.954 27.2148L322.585 28.3628L322.029 25.9189L327.959 20.7257L320.849 24.8097L317.5 22.3935L330.5 18.5L327.35 29.5Z" fill="white"/>
</svg>
