<svg width="17" height="27" viewBox="0 0 17 27" fill="none" xmlns="http://www.w3.org/2000/svg">
<path d="M1.15562 22V4.07034H8.92981C10.2955 4.07034 11.4424 4.25418 12.3704 4.62188C13.3043 4.98958 14.0076 5.50903 14.4803 6.18022C14.9589 6.85142 15.1982 7.64226 15.1982 8.55275C15.1982 9.21227 15.0523 9.81343 14.7605 10.3562C14.4745 10.899 14.0718 11.3543 13.5523 11.722C13.0329 12.0838 12.4259 12.3348 11.7313 12.4749V12.65C12.5017 12.6791 13.2021 12.8747 13.8325 13.2365C14.4628 13.5926 14.9647 14.0857 15.3383 14.7161C15.7118 15.3406 15.8986 16.076 15.8986 16.9223C15.8986 17.9028 15.6418 18.7753 15.1282 19.5399C14.6204 20.3045 13.8967 20.9057 12.957 21.3434C12.0173 21.7811 10.8967 22 9.59517 22H1.15562ZM6.02325 18.1129H8.29947C9.11658 18.1129 9.72941 17.9612 10.138 17.6577C10.5465 17.3483 10.7508 16.8931 10.7508 16.2919C10.7508 15.8717 10.6545 15.5157 10.4619 15.2238C10.2693 14.932 9.99497 14.7102 9.63895 14.5585C9.28876 14.4067 8.86561 14.3309 8.36951 14.3309H6.02325V18.1129ZM6.02325 11.3192H8.01932C8.44539 11.3192 8.82184 11.2521 9.14868 11.1179C9.47552 10.9836 9.72941 10.791 9.91034 10.5401C10.0971 10.2833 10.1905 9.97102 10.1905 9.60332C10.1905 9.04885 9.99205 8.62571 9.59517 8.33388C9.19829 8.03622 8.69635 7.88739 8.08936 7.88739H6.02325V11.3192Z" fill="black"/>
</svg>
