<svg width="529" height="602" viewBox="0 0 529 602" fill="none" xmlns="http://www.w3.org/2000/svg">
<path opacity="0.08" d="M602.933 258.561C639.644 282.418 658 312.121 658 347.671C658 368.955 652.154 388.485 640.462 406.26C628.771 423.801 613.104 435.847 593.463 442.396C595.333 448.944 596.269 456.662 596.269 465.55C596.269 501.335 585.045 530.102 562.597 551.854C540.383 573.839 511.154 584.832 474.91 584.832C457.373 584.832 442.057 581.207 428.963 573.956C419.609 592.434 405.463 607.168 386.522 618.16C367.582 629.387 347.94 635 327.597 635C294.627 635 267.619 627.049 246.575 611.144C225.53 595.24 211.851 573.254 205.537 545.188C191.741 547.293 180.05 548.346 170.462 548.346C133.751 548.346 104.055 537.353 81.3733 515.368C58.9254 493.383 47.7015 466.252 47.7015 433.976C47.7015 402.167 57.1716 376.556 76.1123 357.144C52.9627 349.192 34.49 335.392 20.694 315.746C6.89801 295.866 0 273.763 0 249.439C0 217.397 14.0299 186.056 42.0896 155.417C70.1493 124.544 104.522 105.015 145.209 96.8288C161.577 66.4236 188.117 42.6842 224.829 25.6105C261.773 8.5368 299.186 0 337.067 0C386.405 0 431.769 10.1741 473.156 30.5221C514.779 50.8702 547.515 78.2347 571.365 112.616C595.217 146.997 607.142 182.197 607.142 218.216C607.142 232.95 605.739 246.399 602.933 258.561ZM288.313 102.793C288.313 99.7522 286.326 97.0623 282.35 94.7242C280.948 96.8288 280.246 99.0509 280.246 101.39C280.246 105.132 281.649 107.003 284.455 107.003C287.027 107.003 288.313 105.6 288.313 102.793ZM378.806 153.663C366.88 154.599 357.527 159.393 350.746 168.047C343.965 176.467 340.575 186.29 340.575 197.517C340.575 213.655 345.836 227.805 356.358 239.967C361.035 233.886 364.425 225.7 366.529 215.409L367.933 218.216C367.933 225.232 364.776 233.185 358.462 242.072C363.373 248.153 370.154 253.181 378.806 257.158L383.015 259.262C395.174 264.642 408.619 268.033 423.351 269.437C436.913 270.84 445.682 271.308 449.656 270.84C467.662 269.202 481.692 262.771 491.746 251.545C502.035 240.318 507.179 226.167 507.179 209.094C507.179 203.949 506.711 197.283 505.776 189.097C503.438 168.281 496.306 149.102 484.38 131.561C469.883 110.277 445.096 93.4376 410.023 81.0413L406.164 79.638L400.903 80.34C398.097 80.34 396.226 78.9367 395.291 76.1301L393.187 75.428C391.316 76.3636 389.796 76.8314 388.627 76.8314C386.756 76.1301 385.119 75.1945 383.716 74.0247L380.91 73.3234C379.507 78.0012 376.584 80.34 372.141 80.34C368.167 80.34 365.594 78.0012 364.425 73.3234L362.321 72.6214C361.386 74.0247 359.398 74.7268 356.358 74.7268C354.721 74.7268 352.383 73.557 349.343 71.2181C348.642 73.557 346.771 74.7268 343.731 74.7268C342.094 74.7268 340.107 73.557 337.769 71.2181L329.351 73.6737C304.798 79.5212 289.833 85.8365 284.455 92.6188C288.898 95.4255 291.119 98.8166 291.119 102.793C291.119 108.874 288.898 111.914 284.455 111.914C279.779 111.914 277.44 107.939 277.44 99.9864C277.44 97.6476 278.142 95.4255 279.544 93.3201C273.932 91.449 269.139 90.5135 265.164 90.5135C251.368 90.5135 238.39 94.7242 226.231 103.144C214.072 111.564 206.94 122.205 204.836 135.069C202.731 148.167 204.368 161.615 209.746 175.414C216.06 191.552 227.751 202.662 244.821 208.743L247.276 209.796L245.172 211.199C240.495 211.199 234.064 208.275 225.881 202.428C217.696 196.347 211.149 187.109 206.239 174.712C201.328 162.317 199.925 149.102 202.03 135.069C204.134 120.802 211.149 109.342 223.075 100.688C235.234 92.0343 248.562 87.7069 263.059 87.7069C270.776 87.7069 276.973 88.8767 281.649 91.2155C287.261 85.1345 296.03 79.8722 307.955 75.428C319.881 70.9846 328.766 68.7625 334.612 68.7625L337.067 69.1135C339.873 66.0727 342.211 64.5525 344.082 64.5525L347.94 67.3592H350.746C351.214 65.0203 353.552 63.8509 357.761 63.8509C358.93 63.8509 360.216 65.0203 361.619 67.3592H364.425C365.594 62.6814 368.167 60.3426 372.141 60.3426C376.584 60.3426 379.741 62.9153 381.612 68.0608L383.716 69.1135C385.587 67.0083 387.224 65.9558 388.627 65.9558C391.666 65.9558 393.888 67.71 395.291 71.2181L398.097 72.6214L400.903 71.2181C403.007 71.2181 405.229 72.8557 407.567 76.1301C443.577 88.5257 469.883 105.482 486.485 127C497.241 144.074 505.075 165.475 509.985 191.202C510.687 193.774 511.038 198.101 511.038 204.183C511.038 224.063 505.426 240.435 494.202 253.298C483.211 265.929 468.363 272.711 449.656 273.647C441.238 274.114 432.236 273.647 422.649 272.243C406.281 269.904 393.069 266.513 383.015 262.069L378.806 259.964C370.622 255.988 363.139 250.96 356.358 244.878C347.473 253.767 337.652 260.549 326.896 265.227C320.348 268.033 310.527 270.372 297.433 272.243C287.378 273.647 276.388 274.349 264.462 274.349C234.766 274.349 207.642 266.279 183.089 250.141C158.537 233.769 142.52 211.667 135.038 183.834C132.699 175.181 131.53 164.89 131.53 152.961C131.53 134.017 135.622 116.826 143.806 101.39C106.627 109.108 74.9428 127.351 48.7537 156.119C22.5647 184.887 9.47015 215.175 9.47015 246.984C9.47015 271.073 15.7836 292.942 28.4104 312.588C41.0373 332.001 58.4577 345.332 80.6714 352.583C96.3385 339.251 113.525 332.586 132.232 332.586C150.003 332.586 158.888 336.679 158.888 344.865C158.888 350.244 154.445 354.454 145.56 357.495C136.674 360.535 124.866 362.055 110.134 362.055C99.8456 362.055 90.0247 360.652 80.6714 357.846C63.3681 375.387 54.7164 397.606 54.7164 424.503C54.7164 463.328 66.8756 492.681 91.1942 512.561C115.746 532.441 143.572 542.381 174.671 542.381C185.662 542.381 195.483 541.68 204.134 540.277L203.433 529.401L203.783 524.139L206.94 539.575C236.637 533.728 259.085 522.735 274.283 506.597C289.716 490.459 297.433 477.244 297.433 466.953C297.433 462.275 298.134 459.937 299.537 459.937L300.94 464.147C300.94 477.011 292.873 491.979 276.738 509.053C260.604 526.127 237.572 537.938 207.642 544.487C213.254 570.916 226.231 591.498 246.575 606.232C267.152 621.201 293.925 628.685 326.896 628.685C346.303 628.685 365.361 623.423 384.067 612.898C402.774 602.607 416.803 589.158 426.157 572.553C406.515 561.326 396.694 545.305 396.694 524.489C396.694 510.222 401.487 503.088 411.075 503.088C418.323 503.088 424.519 506.831 429.664 514.315C435.042 522.033 437.731 530.453 437.731 539.575C437.731 548.696 435.743 558.285 431.769 568.343C443.46 573.956 458.309 576.763 476.313 576.763C509.049 576.763 536.525 565.77 558.739 543.785C580.953 522.034 592.06 495.019 592.06 462.743C592.06 456.194 591.358 449.762 589.955 443.448C583.642 445.319 576.627 446.254 568.91 446.254C562.129 446.254 554.179 444.968 545.059 442.396C536.174 439.822 531.731 437.951 531.731 436.782L533.836 435.379L538.044 436.782C546.93 440.524 557.453 442.396 569.612 442.396C576.86 442.396 583.408 441.46 589.254 439.589C583.174 419.24 571.483 403.103 554.179 391.174C537.109 379.012 517.935 372.931 496.657 372.931C484.03 372.931 471.52 374.569 459.126 377.843C447.669 380.883 436.679 386.38 426.157 394.332C408.853 407.429 395.993 426.725 387.575 452.219L385.821 456.078L383.716 454.674C383.716 449.762 386.99 440.641 393.537 427.309C400.084 413.978 410.49 401.816 424.754 390.823C434.808 383.105 446.032 377.609 458.425 374.334C471.052 371.06 484.03 369.423 497.358 369.423C519.572 369.423 539.447 375.621 556.985 388.016C574.756 400.413 586.681 417.369 592.761 438.887C610.299 432.806 623.861 421.696 633.447 405.558C643.268 389.421 648.179 369.423 648.179 345.567C648.179 313.056 632.863 285.458 602.231 262.771C586.097 327.089 536.992 360.184 454.918 362.055C441.824 362.29 429.313 361.12 417.388 358.548C406.866 356.208 395.408 352.349 383.015 346.97L378.806 344.865C368.05 338.784 359.398 332.937 352.85 327.324C346.537 321.476 343.38 317.734 343.38 316.097L344.783 315.395C352.968 325.453 364.309 334.34 378.806 342.058L383.015 344.163C395.408 349.542 406.866 353.401 417.388 355.741C428.144 358.079 440.42 359.015 454.216 358.548C532.55 355.741 580.368 322.879 597.672 259.964C588.318 253.883 578.263 249.322 567.507 246.282C562.597 244.878 558.037 244.177 553.828 244.177H548.216C540.968 244.177 534.888 245.464 529.977 248.036C525.301 250.609 522.963 254.117 522.963 258.561C522.963 265.343 526.821 268.735 534.537 268.735C538.279 268.735 540.149 269.32 540.149 270.489C540.149 271.659 538.279 272.243 534.537 272.243C524.015 272.243 518.754 268.384 518.754 260.666C518.754 254.819 521.326 250.024 526.47 246.282C531.615 242.54 538.395 240.669 546.813 240.669H553.828C557.335 240.669 562.363 241.605 568.91 243.476C579.666 246.516 589.487 250.609 598.373 255.755C600.945 243.125 602.231 230.612 602.231 218.216C602.231 181.963 590.773 147.699 567.858 115.423C544.943 82.9124 513.609 57.3021 473.858 38.5912C434.107 19.6464 391.082 10.1741 344.783 10.1741C305.032 10.1741 267.268 17.8922 231.493 33.3287C195.95 48.5313 169.878 69.4645 153.276 96.1268C160.758 95.1912 166.955 94.7242 171.865 94.7242C177.244 94.7242 183.089 95.3087 189.403 96.4778C195.95 97.6476 199.224 98.8166 199.224 99.9864C199.224 101.39 198.171 102.091 196.067 102.091L193.612 101.39C188.701 99.2844 180.05 98.2321 167.656 98.2321C163.915 98.2321 158.303 98.8166 150.821 99.9864C141.935 115.891 137.493 132.379 137.493 149.453C137.493 160.679 138.661 171.205 141 181.028C147.781 209.796 162.863 232.132 186.246 248.036C209.629 263.707 236.87 271.542 267.97 271.542C278.492 271.542 288.08 270.84 296.731 269.437C305.851 268.033 315.905 265.343 326.896 261.368C338.821 257.158 347.94 250.96 354.253 242.774C341.861 228.74 335.664 211.784 335.664 191.903C335.664 179.508 339.522 169.099 347.238 160.679C354.955 152.026 365.477 147.348 378.806 146.646H383.015C397.98 146.646 411.425 151.207 423.351 160.329C435.276 169.45 441.238 180.209 441.238 192.605C441.238 200.791 438.9 207.574 434.224 212.953C429.781 218.098 423.702 220.672 415.985 220.672C412.243 220.672 408.619 219.736 405.112 217.865C401.838 215.76 398.33 210.732 394.589 202.779C390.848 194.827 386.99 190.968 383.015 191.202L378.806 201.726L376.701 202.428C371.791 202.428 369.335 200.323 369.335 196.113C369.335 190.968 372.492 188.044 378.806 187.343C379.975 187.109 381.378 187.109 383.015 187.343C388.159 187.81 392.602 192.138 396.343 200.323C400.084 208.275 403.358 213.187 406.164 215.058C409.204 216.695 412.478 217.514 415.985 217.514C430.015 217.514 437.03 209.445 437.03 193.307C437.03 183.016 431.535 173.894 420.545 165.942C409.554 157.756 397.045 153.663 383.015 153.663H378.806ZM326.896 265.227C327.831 271.776 328.299 277.272 328.299 281.715C328.299 315.863 320.699 346.034 305.5 372.23C334.261 383.456 348.641 402.401 348.641 429.064C348.641 441.693 345.251 452.219 338.47 460.639C331.922 469.292 327.363 473.62 324.791 473.62L324.09 471.865L325.493 469.76C328.766 465.784 330.403 459.118 330.403 449.762C330.403 441.577 327.714 434.209 322.336 427.66C317.191 420.878 303.863 412.926 282.35 403.804C266.216 420.644 247.51 433.625 226.231 442.747C204.953 451.633 183.674 456.078 162.395 456.078C144.157 456.078 130.127 451.751 120.306 443.097C110.485 434.209 105.574 423.685 105.574 411.523C105.574 402.401 108.147 394.916 113.291 389.07C118.669 382.988 125.918 379.948 135.038 379.948C153.276 379.948 162.395 389.07 162.395 407.313C162.395 413.394 160.291 418.188 156.082 421.696C152.107 424.971 146.846 426.608 140.299 426.608C136.09 426.608 131.763 425.205 127.321 422.398C123.112 419.591 120.423 416.551 119.254 413.276C119.254 422.866 120.306 430.116 122.41 435.028C124.749 439.94 129.426 444.149 136.44 447.658C143.689 450.932 152.575 452.569 163.097 452.569C181.804 452.569 201.446 447.891 222.023 438.536C242.833 429.18 260.371 416.2 274.634 399.594C250.082 386.731 237.806 368.488 237.806 344.865C237.806 332.001 242.131 320.307 250.784 309.782C259.669 299.257 265.398 293.995 267.97 293.995L271.828 295.398L269.022 297.854C259.669 304.169 254.992 313.407 254.992 325.569C254.992 334.925 257.682 342.877 263.059 349.426C268.438 355.741 278.726 361.821 293.925 367.669C299.771 351.999 302.694 334.106 302.694 313.992C302.694 298.79 300.94 284.873 297.433 272.243L296.731 269.437C282.234 218.683 253.239 187.343 209.746 175.414L206.239 174.712C196.184 172.608 188.117 171.556 182.037 171.556C167.072 171.556 153.393 174.712 141 181.028L135.038 183.834C123.345 191.319 114.343 201.142 108.03 213.304C101.716 225.466 98.56 238.213 98.56 251.545C98.56 269.32 104.055 283.704 115.045 294.696C126.269 305.689 140.883 311.185 158.888 311.185C178.063 311.185 193.729 306.507 205.888 297.152L207.642 296.1L209.746 297.503C209.746 299.374 204.602 302.882 194.313 308.028C184.259 312.939 172.216 315.395 158.187 315.395C136.44 315.395 117.968 307.326 102.768 291.188C87.5696 275.05 79.9703 255.287 79.9703 231.898C79.9703 217.163 84.5302 202.662 93.6492 188.395C102.768 174.128 115.396 162.317 131.53 152.961L137.493 149.453C155.03 139.864 174.555 135.069 196.067 135.069H204.836C237.338 137.642 264.697 150.506 286.91 173.66C309.358 196.581 322.687 225.817 326.896 261.368V265.227ZM505.776 189.097C488.94 178.806 480.522 165.591 480.522 149.453C480.522 143.138 481.808 137.174 484.38 131.561L486.485 127C491.162 119.515 497.124 113.552 504.373 109.108C511.855 104.43 518.286 102.091 523.664 102.091L526.821 103.494L521.91 105.951C509.751 109.926 503.672 116.943 503.672 127C503.672 132.146 505.308 137.291 508.582 142.437C511.855 147.348 521.326 154.599 536.992 164.188C552.659 173.543 562.831 182.548 567.507 191.202C572.418 199.622 574.873 208.392 574.873 217.514C574.873 227.103 572.886 235.757 568.91 243.476L567.507 246.282C563.298 254.234 557.92 260.549 551.373 265.227C545.059 269.904 539.447 272.243 534.537 272.243C530.796 272.243 528.925 271.659 528.925 270.489C528.925 269.32 530.796 268.735 534.537 268.735C538.512 268.735 542.488 266.513 546.462 262.069C550.671 257.391 553.127 251.427 553.828 244.177V240.669C553.828 232.716 551.723 225.232 547.515 218.216C543.305 211.199 532.783 203.247 515.948 194.359L509.985 191.202L505.776 189.097ZM383.015 288.031H418.791C419.258 284.054 420.545 278.792 422.649 272.243L423.351 269.437C432.002 240.669 443.46 219.385 457.724 205.585C472.221 191.552 481.574 184.536 485.784 184.536L487.186 185.238L482.978 189.799C463.803 205.469 452.697 232.483 449.656 270.84V273.647C449.189 277.622 448.955 284.405 448.955 293.995C448.955 320.424 450.708 341.941 454.216 358.548L454.918 362.055C456.32 367.903 457.49 371.995 458.425 374.334L459.126 377.843C468.48 405.207 484.03 418.889 505.776 418.889C516.766 418.889 526.47 413.51 534.888 402.752L538.746 398.893L539.447 400.296C539.447 407.78 524.599 422.398 494.903 444.149C485.082 451.4 475.027 462.626 464.738 477.829L463.336 475.724C463.336 473.151 468.597 464.731 479.119 450.464L475.261 448.36C451.644 439.004 435.276 420.995 426.157 394.332L424.754 390.823C421.48 383.105 419.025 372.346 417.388 358.548V355.741C416.452 344.28 415.985 334.457 415.985 326.271V314.694H383.015V429.064C383.015 432.572 382.313 434.327 380.91 434.327C379.507 434.327 378.806 432.572 378.806 429.064V119.984C378.806 116.475 379.507 114.721 380.91 114.721C382.313 114.721 383.015 116.475 383.015 119.984V288.031ZM84.8804 354.337C94.2336 357.144 104.289 358.548 115.045 358.548C124.866 358.548 133.751 357.261 141.702 354.688C149.885 352.116 153.978 349.309 153.978 346.268C153.978 343.461 152.107 341.122 148.366 339.251C144.624 337.147 139.948 336.095 134.336 336.095C114.927 336.095 98.4426 342.175 84.8804 354.337ZM428.963 566.94C432.236 558.52 433.873 551.035 433.873 544.487C433.873 535.599 431.535 527.296 426.858 519.578C422.415 511.859 417.154 508 411.075 508C407.801 508 405.112 509.755 403.007 513.263C401.136 516.771 400.201 520.513 400.201 524.489C400.201 542.966 409.788 557.116 428.963 566.94Z" fill="#BB9457"/>
</svg>
