<svg width="1352" height="820" viewBox="0 0 1352 820" fill="none" xmlns="http://www.w3.org/2000/svg">
<path d="M24.75 145.25L73.25 7.5C74.75 3.49999 75.5 1.99999 76 1.49999C76.5 0.999992 77.25 0.749995 78.75 0.749995H85C86 0.749995 87 0.749995 87.5 1.24999C88.25 1.75 88.75 3.49999 90.25 7.5L141.75 154.75C143.5 159.5 145.25 164.75 147.5 167.5C150 170.5 154.5 170.75 161.5 170.75C162.5 170.75 163 171 163 172.5C163 173.5 162.75 174 161.75 174C152.25 173.75 143.25 173.75 136.75 173.75C129.75 173.75 114.25 173.75 105.5 174C104.5 174 104.25 173.5 104.25 172.25C104.25 170.75 105 170.75 106 170.75C113 170.75 118.25 170.25 121 169.5C123.25 169 124 167.5 124 165.75C124 164.25 123.5 161 121.25 154.75L103.25 103.5H44.5L31.25 142C28 151 27 155.75 27 161.25C27 163.75 28.5 166.75 31 168C35 170 41.25 170.5 45 170.75C46 170.75 46.75 170.75 46.75 172.25C46.75 173.5 46.25 174 45.25 174C39 173.75 29 173.75 22 173.75C15.25 173.75 9.25 173.75 1.25 174C0.25 174 4.74975e-08 173.5 4.74975e-08 172.5C4.74975e-08 171 0.5 170.75 1.5 170.75C7 170.5 11.5 168.75 15 165.25C18 162.25 21 155.5 24.75 145.25ZM45.75 99.75H102C80.75 37.5 77.5 27.25 74.25 16.25C70.75 27.25 67 38 45.75 99.75ZM194.58 141.5V20.25C194.58 12.5 194.58 9.75 193.08 7.5C191.33 4.99999 188.83 4.24999 174.58 4C173.83 4 173.33 3.74999 173.33 2.49999C173.33 1.49999 173.58 0.749995 174.58 0.749995C180.83 0.749995 190.58 0.999992 197.58 0.999992C203.08 0.999992 209.58 0.749995 212.83 0.749995C215.08 0.749995 215.58 1.24999 218.08 8.24999C225.08 28 228.58 37 267.83 144.5C303.33 51 315.33 19.75 320.58 4.74999C321.83 0.749995 322.33 0.749995 324.33 0.749995C325.08 0.749995 335.83 0.999992 341.08 0.999992C349.08 0.999992 358.58 0.749995 362.08 0.749995C363.08 0.749995 363.33 1.24999 363.33 2.24999C363.33 3.24999 363.08 4 362.08 4C346.83 4 344.83 5.49999 343.33 7.74999C342.08 9.49999 342.08 14.25 342.08 20.25V154.75C342.08 159.25 342.08 164.75 343.33 167.25C344.58 169.5 347.08 170.75 362.08 170.75C363.08 170.75 363.33 171.25 363.33 172.5C363.33 173.5 363.08 174 362.08 174C358.58 174 340.08 173.75 332.08 173.75C325.08 173.75 309.33 174 303.08 174C302.08 174 301.83 173.25 301.83 172.25C301.83 171 302.33 170.75 303.08 170.75C317.08 170.75 320.33 169.75 321.58 167.5C323.08 164.75 323.08 160.25 323.08 154.75V10.25C319.08 21.75 314.58 34 263.08 169.25C262.58 170.75 261.58 171.75 260.33 171.75C259.08 171.75 258.58 171 257.83 169.25C209.08 37.25 203.58 22.5 199.08 9.75V141.5C199.08 157.25 201.08 162.25 204.33 165.75C206.58 168.25 213.08 170.25 221.33 170.75C222.33 170.75 222.58 171.5 222.58 172.5C222.58 173.5 222.33 174 221.33 174C217.83 174 204.83 173.75 196.83 173.75C189.83 173.75 180.33 174 174.08 174C173.08 174 172.83 173.25 172.83 172.25C172.83 171.25 173.33 170.75 174.08 170.75C185.58 169.5 189.33 167 191.08 164C192.58 161.75 194.58 157 194.58 141.5ZM399.018 145.25L447.518 7.5C449.018 3.49999 449.768 1.99999 450.268 1.49999C450.768 0.999992 451.518 0.749995 453.018 0.749995H459.268C460.268 0.749995 461.268 0.749995 461.768 1.24999C462.518 1.75 463.018 3.49999 464.518 7.5L516.018 154.75C517.768 159.5 519.518 164.75 521.768 167.5C524.268 170.5 528.768 170.75 535.768 170.75C536.768 170.75 537.268 171 537.268 172.5C537.268 173.5 537.018 174 536.018 174C526.518 173.75 517.518 173.75 511.018 173.75C504.018 173.75 488.518 173.75 479.768 174C478.768 174 478.518 173.5 478.518 172.25C478.518 170.75 479.268 170.75 480.268 170.75C487.268 170.75 492.518 170.25 495.268 169.5C497.518 169 498.268 167.5 498.268 165.75C498.268 164.25 497.768 161 495.518 154.75L477.518 103.5H418.768L405.518 142C402.268 151 401.268 155.75 401.268 161.25C401.268 163.75 402.768 166.75 405.268 168C409.268 170 415.518 170.5 419.268 170.75C420.268 170.75 421.018 170.75 421.018 172.25C421.018 173.5 420.518 174 419.518 174C413.268 173.75 403.268 173.75 396.268 173.75C389.518 173.75 383.518 173.75 375.518 174C374.518 174 374.268 173.5 374.268 172.5C374.268 171 374.768 170.75 375.768 170.75C381.268 170.5 385.768 168.75 389.268 165.25C392.268 162.25 395.268 155.5 399.018 145.25ZM420.018 99.75H476.268C455.018 37.5 451.768 27.25 448.518 16.25C445.018 27.25 441.268 38 420.018 99.75ZM682.098 145.5C681.848 131.5 681.848 103 681.598 32.5C681.598 16.75 679.848 11.75 676.348 8.49998C674.098 6.25 667.848 4.49999 659.848 4C658.848 4 658.598 3.74999 658.598 2.24999C658.598 1.24999 658.848 0.749995 659.848 0.749995C663.348 0.749995 675.848 0.999992 683.848 0.999992C690.848 0.999992 700.098 0.749995 706.098 0.749995C707.098 0.749995 707.348 1.49999 707.348 2.49999C707.348 4 706.848 4 706.098 4C694.348 5.25 691.098 7.5 689.348 10.5C688.098 12.75 686.098 17.5 686.098 32.5V176.75C686.098 178.5 685.098 179.25 683.848 179.25C682.598 179.25 681.848 178.5 680.848 176.75C587.098 35.5 580.348 25.5 573.098 14.75C573.348 27.25 573.348 54 573.348 141.75C573.348 157.75 575.098 162.75 578.598 166C580.848 168.25 587.348 170.25 595.348 170.75C596.348 170.75 596.848 171.25 596.848 172.5C596.848 173.5 596.598 174 595.598 174C592.098 174 579.098 173.75 571.098 173.75C564.098 173.75 554.848 174 548.598 174C547.598 174 547.348 173.25 547.348 172.25C547.348 171 547.848 170.75 548.598 170.75C560.598 169.5 563.848 167 565.598 164C566.848 161.75 568.848 157 568.848 141.75V20.25C568.848 12.5 568.848 9.75 567.348 7.5C565.598 4.99999 563.348 4.24999 548.848 4C548.098 4 547.598 3.74999 547.598 2.24999C547.598 1.24999 547.848 0.749995 548.848 0.749995C552.598 0.749995 562.348 0.999992 569.098 0.999992C574.598 0.999992 580.598 0.749995 583.848 0.749995C586.348 0.749995 587.348 1.99999 588.598 3.74999C668.348 123.75 674.848 133.25 682.098 145.5ZM762.871 511.5C761.621 514.5 760.621 515.25 758.621 515.25C757.121 515.25 756.121 514.75 756.121 513.25C756.121 512.25 756.871 510.75 757.621 509L835.371 322C836.621 319 836.871 318.25 839.621 318.25C841.621 318.25 842.121 318.75 842.121 319.75C842.121 320.5 841.371 322.5 840.621 324.5L762.871 511.5ZM861.115 473.375C861.032 476.958 861.199 479.958 861.615 482.375C862.115 484.708 862.865 486.542 863.865 487.875C864.865 489.292 866.199 490.25 867.865 490.75C869.532 491.25 871.49 491.5 873.74 491.5C879.99 491.5 885.365 490.542 889.865 488.625C894.365 486.625 897.824 483.667 900.24 479.75C902.74 475.75 903.99 470.875 903.99 465.125C903.99 462.625 903.49 460.042 902.49 457.375C901.574 454.625 899.99 451.542 897.74 448.125C895.49 444.625 892.324 440.542 888.24 435.875C884.324 431.125 881.157 426.792 878.74 422.875C876.324 418.958 874.615 415.333 873.615 412C872.615 408.583 872.115 405.292 872.115 402.125C872.115 394.792 874.074 388.292 877.99 382.625C881.907 376.958 887.074 372.542 893.49 369.375C899.907 366.125 906.907 364.5 914.49 364.5C919.657 364.5 923.74 365.042 926.74 366.125C929.74 367.208 931.865 368.667 933.115 370.5C934.449 372.333 935.115 374.5 935.115 377C935.115 379.083 934.615 380.875 933.615 382.375C932.615 383.792 930.99 384.875 928.74 385.625C926.574 386.375 923.615 386.75 919.865 386.75C920.199 382.75 920.157 379.625 919.74 377.375C919.407 375.125 918.74 373.417 917.74 372.25C916.74 371.083 915.532 370.292 914.115 369.875C912.782 369.458 910.907 369.25 908.49 369.25C900.824 369.25 894.49 371.333 889.49 375.5C884.574 379.667 882.115 385.458 882.115 392.875C882.115 395.542 882.532 398.292 883.365 401.125C884.282 403.958 885.865 407.167 888.115 410.75C890.365 414.333 893.574 418.625 897.74 423.625C901.907 428.625 905.115 433.083 907.365 437C909.615 440.833 911.157 444.333 911.99 447.5C912.907 450.583 913.365 453.583 913.365 456.5C913.365 464.583 911.282 471.708 907.115 477.875C902.949 483.958 897.282 488.75 890.115 492.25C882.949 495.75 874.949 497.5 866.115 497.5C861.032 497.5 856.907 496.958 853.74 495.875C850.657 494.792 848.407 493.25 846.99 491.25C845.574 489.25 844.865 486.917 844.865 484.25C844.865 481.833 845.407 479.833 846.49 478.25C847.574 476.583 849.282 475.375 851.615 474.625C854.032 473.792 857.199 473.375 861.115 473.375ZM940.385 484.875L980.76 370.875L983.76 376.125C981.426 375.292 978.26 375.542 974.26 376.875C970.343 378.208 965.551 381.125 959.885 385.625C954.218 390.125 947.551 396.833 939.885 405.75L938.885 405C945.468 395.083 951.551 387.167 957.135 381.25C962.718 375.333 967.885 371.083 972.635 368.5C977.468 365.833 981.968 364.5 986.135 364.5C989.551 364.5 991.76 365.333 992.76 367C993.76 368.667 993.635 371.167 992.385 374.5L951.01 490.375L947.885 485.375C950.051 486.375 953.135 486.292 957.135 485.125C961.218 483.875 966.218 481 972.135 476.5C978.051 471.917 984.885 465.25 992.635 456.5L993.635 457.25C986.301 467.5 979.801 475.583 974.135 481.5C968.468 487.417 963.343 491.583 958.76 494C954.26 496.333 950.01 497.5 946.01 497.5C942.01 497.5 939.718 496.458 939.135 494.375C938.551 492.292 938.968 489.125 940.385 484.875ZM988.635 322C988.635 320.083 989.093 318.292 990.01 316.625C990.926 314.875 992.218 313.5 993.885 312.5C995.635 311.417 997.676 310.875 1000.01 310.875C1003.59 310.875 1006.34 312 1008.26 314.25C1010.26 316.5 1011.26 319.083 1011.26 322C1011.26 324 1010.8 325.917 1009.88 327.75C1009.05 329.5 1007.8 330.917 1006.13 332C1004.47 333.083 1002.43 333.625 1000.01 333.625C996.426 333.625 993.635 332.458 991.635 330.125C989.635 327.708 988.635 325 988.635 322ZM1007.98 416.875L1006.73 416.25C1012.65 402.583 1018.11 392.042 1023.11 384.625C1028.19 377.208 1033.07 372.083 1037.73 369.25C1042.4 366.417 1047.02 365 1051.61 365C1053.36 365 1054.9 365.125 1056.23 365.375C1057.57 365.542 1058.77 365.833 1059.86 366.25C1061.02 366.667 1062.19 367.208 1063.36 367.875L1045.73 423.75L1043.36 426.625C1048.52 416.625 1053.57 407.792 1058.48 400.125C1063.48 392.375 1068.52 385.875 1073.61 380.625C1078.69 375.292 1083.9 371.292 1089.23 368.625C1094.65 365.875 1100.32 364.5 1106.23 364.5C1113.32 364.5 1118.57 366.083 1121.98 369.25C1125.48 372.333 1127.23 376.292 1127.23 381.125C1127.23 383.792 1126.77 386.833 1125.86 390.25C1124.94 393.667 1122.9 399.125 1119.73 406.625L1085.36 490.375L1082.36 485.75C1084.77 486.5 1088.15 486.208 1092.48 484.875C1096.82 483.458 1101.94 480.5 1107.86 476C1113.86 471.417 1120.57 464.917 1127.98 456.5L1128.98 457.25C1121.57 467.583 1114.98 475.708 1109.23 481.625C1103.48 487.458 1098.32 491.583 1093.73 494C1089.15 496.333 1084.86 497.5 1080.86 497.5C1076.61 497.5 1073.98 496.458 1072.98 494.375C1072.07 492.292 1072.48 489.167 1074.23 485L1105.86 408.125C1108.69 401.375 1110.57 396.458 1111.48 393.375C1112.48 390.292 1112.98 387.875 1112.98 386.125C1112.98 382.458 1111.73 379.833 1109.23 378.25C1106.73 376.667 1103.57 375.875 1099.73 375.875C1093.48 375.875 1087.48 377.708 1081.73 381.375C1076.07 384.958 1070.77 389.583 1065.86 395.25C1061.02 400.833 1056.73 406.708 1052.98 412.875C1049.23 419.042 1046.19 424.708 1043.86 429.875L1022.11 495H1009.11L1046.36 383.5C1047.11 381.333 1047.19 379.708 1046.61 378.625C1046.11 377.458 1045.07 376.875 1043.48 376.875C1041.73 376.875 1039.23 377.833 1035.98 379.75C1032.82 381.667 1028.9 385.5 1024.23 391.25C1019.57 396.917 1014.15 405.458 1007.98 416.875ZM1244.11 378.5C1242.86 378.5 1241.74 378.208 1240.74 377.625C1239.82 376.958 1238.69 376.167 1237.36 375.25C1236.03 374.333 1234.28 373.333 1232.11 372.25C1229.94 371.167 1227.03 370.208 1223.36 369.375C1219.78 368.542 1215.15 367.917 1209.49 367.5L1207.24 365.375C1215.82 366.292 1222.86 366.625 1228.36 366.375C1233.86 366.125 1238.24 365.75 1241.49 365.25C1244.74 364.667 1247.28 364.375 1249.11 364.375C1250.44 364.375 1251.4 364.708 1251.99 365.375C1252.57 365.958 1252.86 366.875 1252.86 368.125C1252.86 369.292 1252.65 370.5 1252.24 371.75C1251.82 372.917 1251.19 374.042 1250.36 375.125C1249.61 376.125 1248.69 376.958 1247.61 377.625C1246.61 378.208 1245.44 378.5 1244.11 378.5ZM1172.11 446.625C1176.11 446.625 1180.11 445.5 1184.11 443.25C1188.11 440.917 1191.9 437.75 1195.49 433.75C1199.15 429.667 1202.32 425.042 1204.99 419.875C1207.74 414.625 1209.86 408.958 1211.36 402.875C1212.94 396.792 1213.65 390.625 1213.49 384.375C1213.24 378.208 1212.32 373.833 1210.74 371.25C1209.15 368.667 1206.61 367.375 1203.11 367.375C1199.03 367.375 1194.99 368.542 1190.99 370.875C1186.99 373.125 1183.19 376.292 1179.61 380.375C1176.03 384.375 1172.86 389 1170.11 394.25C1167.36 399.5 1165.24 405.167 1163.74 411.25C1162.24 417.25 1161.57 423.375 1161.74 429.625C1161.99 435.792 1162.9 440.167 1164.49 442.75C1166.07 445.333 1168.61 446.625 1172.11 446.625ZM1201.99 364.5C1207.4 364.5 1211.86 365.625 1215.36 367.875C1218.86 370.042 1221.49 373.083 1223.24 377C1224.99 380.833 1225.86 385.333 1225.86 390.5C1225.86 397.667 1224.49 404.75 1221.74 411.75C1218.99 418.75 1215.19 425.083 1210.36 430.75C1205.53 436.417 1199.94 440.958 1193.61 444.375C1187.28 447.792 1180.49 449.5 1173.24 449.5C1167.82 449.5 1163.32 448.417 1159.74 446.25C1156.24 444.083 1153.61 441.125 1151.86 437.375C1150.19 433.542 1149.36 429.125 1149.36 424.125C1149.36 416.958 1150.69 409.875 1153.36 402.875C1156.11 395.875 1159.9 389.5 1164.74 383.75C1169.57 377.917 1175.15 373.25 1181.49 369.75C1187.82 366.25 1194.65 364.5 1201.99 364.5ZM1166.24 553.125C1158.49 553.125 1151.53 552.5 1145.36 551.25C1139.19 550 1133.94 548.125 1129.61 545.625C1125.19 543.208 1121.86 540.208 1119.61 536.625C1117.28 533.125 1116.11 529.083 1116.11 524.5C1116.11 518.25 1118.36 512.792 1122.86 508.125C1127.36 503.542 1133.99 499.667 1142.74 496.5C1151.49 493.417 1162.19 491.083 1174.86 489.5H1182.11V491.75C1174.86 492.083 1167.94 492.958 1161.36 494.375C1154.78 495.708 1148.94 497.667 1143.86 500.25C1138.78 502.833 1134.78 506.042 1131.86 509.875C1128.94 513.708 1127.49 518.25 1127.49 523.5C1127.49 529.417 1129.15 534.25 1132.49 538C1135.82 541.75 1140.53 544.542 1146.61 546.375C1152.69 548.208 1159.82 549.125 1167.99 549.125C1177.32 549.125 1185.28 547.958 1191.86 545.625C1198.53 543.375 1203.61 540.25 1207.11 536.25C1210.61 532.25 1212.36 527.667 1212.36 522.5C1212.36 519.833 1211.74 517.25 1210.49 514.75C1209.24 512.25 1207.19 509.875 1204.36 507.625C1201.53 505.375 1197.74 503.167 1192.99 501C1188.32 498.833 1182.44 496.667 1175.36 494.5C1166.11 491.667 1159.11 488.958 1154.36 486.375C1149.61 483.792 1146.36 481.083 1144.61 478.25C1142.94 475.417 1142.11 472.333 1142.11 469C1142.11 465.667 1143.11 462.583 1145.11 459.75C1147.11 456.917 1149.9 454.417 1153.49 452.25C1157.15 450 1161.44 448.208 1166.36 446.875L1168.36 448.625C1162.86 450.125 1158.74 452.125 1155.99 454.625C1153.24 457.125 1151.86 460.083 1151.86 463.5C1151.86 465.083 1152.15 466.583 1152.74 468C1153.4 469.333 1154.82 470.75 1156.99 472.25C1159.15 473.667 1162.4 475.333 1166.74 477.25C1171.07 479.083 1176.94 481.25 1184.36 483.75C1194.36 487.167 1202.07 490.625 1207.49 494.125C1212.99 497.625 1216.82 501.25 1218.99 505C1221.24 508.833 1222.36 513 1222.36 517.5C1222.36 522.167 1221.15 526.625 1218.74 530.875C1216.32 535.208 1212.74 539.042 1207.99 542.375C1203.24 545.708 1197.36 548.333 1190.36 550.25C1183.36 552.167 1175.32 553.125 1166.24 553.125ZM1266.37 429.875L1244.62 495H1231.49L1286.87 325.25C1285.37 324.75 1283.37 324.125 1280.87 323.375C1278.45 322.625 1275.87 321.792 1273.12 320.875C1270.37 319.958 1267.79 319.083 1265.37 318.25L1265.74 316.875L1303.49 309.5H1304.74L1268.12 423.75L1265.87 426.625C1270.95 416.625 1275.99 407.792 1280.99 400.125C1285.99 392.375 1291.04 385.875 1296.12 380.625C1301.2 375.292 1306.41 371.292 1311.74 368.625C1317.16 365.875 1322.83 364.5 1328.74 364.5C1335.74 364.5 1340.95 366.083 1344.37 369.25C1347.87 372.333 1349.62 376.292 1349.62 381.125C1349.62 383.792 1349.16 386.833 1348.24 390.25C1347.33 393.667 1345.33 399.125 1342.24 406.625L1307.87 490.375L1304.74 485.75C1307.24 486.5 1310.62 486.208 1314.87 484.875C1319.2 483.458 1324.37 480.5 1330.37 476C1336.37 471.417 1343.08 464.917 1350.49 456.5L1351.37 457.25C1344.04 467.583 1337.49 475.708 1331.74 481.625C1325.99 487.458 1320.83 491.583 1316.24 494C1311.66 496.333 1307.33 497.5 1303.24 497.5C1299.08 497.5 1296.49 496.458 1295.49 494.375C1294.58 492.292 1294.99 489.167 1296.74 485L1328.37 408.125C1331.2 401.375 1333.08 396.458 1333.99 393.375C1334.99 390.292 1335.49 387.875 1335.49 386.125C1335.49 382.458 1334.24 379.833 1331.74 378.25C1329.24 376.667 1326.08 375.875 1322.24 375.875C1315.99 375.875 1309.99 377.708 1304.24 381.375C1298.49 384.958 1293.16 389.583 1288.24 395.25C1283.41 400.833 1279.12 406.708 1275.37 412.875C1271.7 419.042 1268.7 424.708 1266.37 429.875ZM319.777 796.75V662.25C319.777 654.5 319.777 651.75 318.277 649.5C316.527 647 314.527 646.25 299.777 646C299.027 646 298.527 645.75 298.527 644.25C298.527 643.25 298.777 642.75 299.777 642.75C306.027 642.75 321.527 643 328.527 643C335.527 643 348.027 642.75 356.777 642.75C388.277 642.75 419.277 647.5 419.277 681.5C419.277 705.75 406.527 722.25 370.777 726C409.527 727 427.277 741 427.277 767C427.277 795.5 411.777 816 357.277 816C351.277 816 341.277 815.75 328.527 815.75C321.527 815.75 306.027 816 299.777 816C298.777 816 298.527 815.25 298.527 814.25C298.527 813 299.027 812.75 299.777 812.75C313.527 812.75 316.777 811.75 318.277 809.5C319.777 807.5 319.777 802.25 319.777 796.75ZM338.777 728.5V798.5C338.777 807.25 339.527 809.5 342.277 810.75C345.777 812.25 355.277 812.25 359.027 812.25C396.027 812.25 406.277 798.25 406.277 770.5C406.277 747 394.527 733 369.527 729.5C364.527 728.75 358.027 728.5 352.027 728.5H338.777ZM338.777 724.75H352.027C358.777 724.75 366.027 723.75 371.527 722.5C390.527 718.25 399.027 705.5 399.027 685C399.027 660.75 393.527 646.5 355.027 646.5C346.527 646.5 343.277 646.5 341.027 648C338.777 649.5 338.777 653 338.777 661.75V724.75ZM575.412 796.75V728.5H489.412V796.75C489.412 801.75 489.412 806.75 490.662 809.25C491.662 811.5 494.412 812.75 509.412 812.75C510.412 812.75 510.662 813 510.662 814.5C510.662 815.5 510.412 816 509.412 816C505.912 816 487.662 815.75 479.662 815.75C472.662 815.75 456.662 816 450.412 816C449.412 816 449.162 815.5 449.162 814.5C449.162 813 449.662 812.75 450.662 812.75C464.162 812.75 467.662 811.75 468.912 809.5C470.412 806.75 470.412 802.25 470.412 796.75V662.25C470.412 654.75 470.412 651.75 468.912 649.5C467.162 647 464.662 646.25 450.412 646C449.662 646 449.162 646 449.162 644.5C449.162 643.5 449.412 642.75 450.412 642.75C456.662 642.75 472.662 643 479.662 643C487.662 643 505.912 642.75 509.412 642.75C510.412 642.75 510.662 643.25 510.662 644.25C510.662 645.75 510.412 646 509.412 646C494.412 646 491.912 647.5 490.662 649.75C489.412 651.5 489.412 656 489.412 662.25V724.75H575.412V662.25C575.412 654.75 575.412 651.75 573.912 649.5C572.162 647 569.412 646.25 555.162 646C554.412 646 553.912 645.75 553.912 644.5C553.912 643.25 554.162 642.75 555.162 642.75C561.412 642.75 577.662 643 584.662 643C592.662 643 610.912 642.75 614.412 642.75C615.412 642.75 615.662 643.25 615.662 644.25C615.662 645.5 615.412 646 614.412 646C599.412 646 596.912 647.5 595.412 649.75C594.162 651.5 594.162 656 594.162 662.25V796.75C594.162 801.75 594.162 806.75 595.412 809.25C596.662 811.5 599.412 812.75 614.412 812.75C615.412 812.75 615.662 813 615.662 814.5C615.662 815.5 615.412 816 614.412 816C610.912 816 592.662 815.75 584.662 815.75C577.662 815.75 561.662 816 555.412 816C554.412 816 553.912 815.25 553.912 814.25C553.912 813 554.662 812.75 555.412 812.75C568.912 812.75 572.662 811.75 573.912 809.5C575.412 806.75 575.412 802.25 575.412 796.75ZM791.738 725.75C791.738 785.5 762.488 819.25 713.238 819.25C668.738 819.25 638.488 786.75 638.488 730.75C638.488 674.25 671.488 639.5 716.488 639.5C765.238 639.5 791.738 676.5 791.738 725.75ZM770.988 728.75C770.988 660.5 746.738 643.25 715.738 643.25C687.238 643.25 659.738 661.5 659.738 728.5C659.738 796.75 685.238 815.5 714.488 815.5C747.988 815.5 770.988 795.75 770.988 728.75ZM819.641 730C819.641 677.25 849.141 639.5 899.891 639.5C919.141 639.5 931.641 645.5 938.891 649.75C941.641 651.5 943.891 652.25 944.891 652.25C947.391 652.25 949.391 651 950.141 644.5C950.391 642.5 950.891 642.5 952.141 642.5C953.391 642.5 953.891 642.75 953.891 644C953.891 646.75 953.641 658.25 953.641 667.75C953.641 678.25 953.891 688.25 953.891 692.5C953.891 694.25 953.391 694.5 952.141 694.5C950.641 694.5 950.391 694.25 950.141 692C948.141 674.5 944.641 665.75 936.391 657.5C927.641 648.5 914.391 643.25 899.891 643.25C857.141 643.25 840.891 673.75 840.891 732C840.891 767 848.391 815.5 896.891 815.5C917.141 815.5 930.141 809.25 935.641 800C937.141 797.5 938.141 792.5 938.141 784.75V763.25C938.141 755.5 938.141 752.5 936.641 750.5C934.891 748 931.391 747.25 916.891 747C916.141 747 915.641 747 915.641 745.5C915.641 744.5 915.891 743.75 916.891 743.75C919.891 743.75 940.141 744 947.141 744C955.141 744 969.391 743.75 972.891 743.75C973.891 743.75 974.141 744.25 974.141 745.25C974.141 746.75 973.891 747 972.891 747C962.891 747 959.641 748.5 958.141 750.75C956.891 752.5 956.891 757.25 956.891 763.25V787C956.891 796.5 957.391 808.5 957.391 811.25C957.391 812.5 956.891 813 955.641 813C954.391 813 953.891 812.75 953.641 810.75C952.641 803.75 950.891 803.25 949.141 803.25C947.391 803.25 945.641 804.25 943.141 806C931.641 814.25 917.141 819.25 896.391 819.25C848.641 819.25 819.641 789 819.641 730ZM1000.09 787.25L1048.59 649.5C1050.09 645.5 1050.84 644 1051.34 643.5C1051.84 643 1052.59 642.75 1054.09 642.75H1060.34C1061.34 642.75 1062.34 642.75 1062.84 643.25C1063.59 643.75 1064.09 645.5 1065.59 649.5L1117.09 796.75C1118.84 801.5 1120.59 806.75 1122.84 809.5C1125.34 812.5 1129.84 812.75 1136.84 812.75C1137.84 812.75 1138.34 813 1138.34 814.5C1138.34 815.5 1138.09 816 1137.09 816C1127.59 815.75 1118.59 815.75 1112.09 815.75C1105.09 815.75 1089.59 815.75 1080.84 816C1079.84 816 1079.59 815.5 1079.59 814.25C1079.59 812.75 1080.34 812.75 1081.34 812.75C1088.34 812.75 1093.59 812.25 1096.34 811.5C1098.59 811 1099.34 809.5 1099.34 807.75C1099.34 806.25 1098.84 803 1096.59 796.75L1078.59 745.5H1019.84L1006.59 784C1003.34 793 1002.34 797.75 1002.34 803.25C1002.34 805.75 1003.84 808.75 1006.34 810C1010.34 812 1016.59 812.5 1020.34 812.75C1021.34 812.75 1022.09 812.75 1022.09 814.25C1022.09 815.5 1021.59 816 1020.59 816C1014.34 815.75 1004.34 815.75 997.342 815.75C990.592 815.75 984.592 815.75 976.592 816C975.592 816 975.342 815.5 975.342 814.5C975.342 813 975.842 812.75 976.842 812.75C982.342 812.5 986.842 810.75 990.342 807.25C993.342 804.25 996.342 797.5 1000.09 787.25ZM1021.09 741.75H1077.34C1056.09 679.5 1052.84 669.25 1049.59 658.25C1046.09 669.25 1042.34 680 1021.09 741.75ZM1167.92 796.75V662.25C1167.92 654.75 1167.92 651.75 1166.42 649.5C1164.67 647 1162.17 646.25 1147.92 646C1147.17 646 1146.67 645.75 1146.67 644.5C1146.67 643.5 1146.92 642.75 1147.92 642.75C1154.17 642.75 1170.17 643 1177.17 643C1185.17 643 1203.42 642.75 1206.92 642.75C1207.92 642.75 1208.17 643.25 1208.17 644.25C1208.17 645.5 1207.67 646 1206.67 646C1191.67 646 1189.67 647.5 1188.17 649.75C1186.92 651.5 1186.92 656 1186.92 662.25V796.75C1186.92 803.5 1186.92 807.25 1188.42 809.5C1189.92 811.75 1194.17 812.25 1198.17 812.25H1223.17C1235.67 812.25 1243.92 810.5 1248.17 808.5C1253.17 806.25 1257.17 802.25 1259.42 798.25C1261.92 793.75 1264.92 783.5 1265.92 775C1266.17 773.25 1266.67 773 1267.92 773C1269.42 773 1269.92 773 1269.92 775C1269.92 777.5 1269.67 787.25 1269.67 793C1269.67 798.75 1269.92 809.5 1269.92 812.25C1269.92 815 1269.42 816 1265.67 816C1244.67 816 1190.42 815.75 1176.67 815.75C1169.67 815.75 1154.17 816 1147.92 816C1146.92 816 1146.67 815.5 1146.67 814.5C1146.67 813 1147.17 812.75 1147.92 812.75C1159.17 812.75 1165.17 812.25 1166.42 809.5C1167.92 806.75 1167.92 802.25 1167.92 796.75Z" fill="#C5B29A"/>
</svg>
