<svg width="2383" height="1472" viewBox="0 0 2383 1472" fill="none" xmlns="http://www.w3.org/2000/svg">
<path d="M45.35 260.25L132.65 12.3C135.35 5.09998 136.7 2.39999 137.6 1.49997C138.5 0.599986 139.85 0.149992 142.55 0.149992H153.8C155.6 0.149992 157.4 0.149992 158.3 1.04998C159.65 1.95 160.55 5.09998 163.25 12.3L255.95 277.35C259.1 285.9 262.25 295.35 266.3 300.3C270.8 305.7 278.9 306.15 291.5 306.15C293.3 306.15 294.2 306.6 294.2 309.3C294.2 311.1 293.75 312 291.95 312C274.85 311.55 258.65 311.55 246.95 311.55C234.35 311.55 206.45 311.55 190.7 312C188.9 312 188.45 311.1 188.45 308.85C188.45 306.15 189.8 306.15 191.6 306.15C204.2 306.15 213.65 305.25 218.6 303.9C222.65 303 224 300.3 224 297.15C224 294.45 223.1 288.6 219.05 277.35L186.65 185.1H80.9L57.05 254.4C51.2 270.6 49.4 279.15 49.4 289.05C49.4 293.55 52.1 298.95 56.6 301.2C63.8 304.8 75.05 305.7 81.8 306.15C83.6 306.15 84.95 306.15 84.95 308.85C84.95 311.1 84.05 312 82.25 312C71 311.55 53 311.55 40.4 311.55C28.25 311.55 17.45 311.55 3.05 312C1.25 312 0.8 311.1 0.8 309.3C0.8 306.6 1.7 306.15 3.5 306.15C13.4 305.7 21.5 302.55 27.8 296.25C33.2 290.85 38.6 278.7 45.35 260.25ZM83.15 178.35H184.4C146.15 66.3 140.3 47.85 134.45 28.05C128.15 47.85 121.4 67.2 83.15 178.35ZM351.044 253.5V35.25C351.044 21.3 351.044 16.35 348.344 12.3C345.194 7.79997 340.694 6.44999 315.044 6C313.694 6 312.794 5.54998 312.794 3.29998C312.794 1.49997 313.244 0.149992 315.044 0.149992C326.294 0.149992 343.844 0.599986 356.444 0.599986C366.344 0.599986 378.044 0.149992 383.894 0.149992C387.944 0.149992 388.844 1.04998 393.344 13.65C405.944 49.2 412.244 65.4 482.894 258.9C546.794 90.6 568.394 34.35 577.844 7.34998C580.094 0.149992 580.994 0.149992 584.594 0.149992C585.944 0.149992 605.294 0.599986 614.744 0.599986C629.144 0.599986 646.244 0.149992 652.544 0.149992C654.344 0.149992 654.794 1.04998 654.794 2.84998C654.794 4.64999 654.344 6 652.544 6C625.094 6 621.494 8.69999 618.794 12.75C616.544 15.9 616.544 24.45 616.544 35.25V277.35C616.544 285.45 616.544 295.35 618.794 299.85C621.044 303.9 625.544 306.15 652.544 306.15C654.344 306.15 654.794 307.05 654.794 309.3C654.794 311.1 654.344 312 652.544 312C646.244 312 612.944 311.55 598.544 311.55C585.944 311.55 557.594 312 546.344 312C544.544 312 544.094 310.65 544.094 308.85C544.094 306.6 544.994 306.15 546.344 306.15C571.544 306.15 577.394 304.35 579.644 300.3C582.344 295.35 582.344 287.25 582.344 277.35V17.25C575.144 37.95 567.044 60 474.344 303.45C473.444 306.15 471.644 307.95 469.394 307.95C467.144 307.95 466.244 306.6 464.894 303.45C377.144 65.85 367.244 39.3 359.144 16.35V253.5C359.144 281.85 362.744 290.85 368.594 297.15C372.644 301.65 384.344 305.25 399.194 306.15C400.994 306.15 401.444 307.5 401.444 309.3C401.444 311.1 400.994 312 399.194 312C392.894 312 369.494 311.55 355.094 311.55C342.494 311.55 325.394 312 314.144 312C312.344 312 311.894 310.65 311.894 308.85C311.894 307.05 312.794 306.15 314.144 306.15C334.844 303.9 341.594 299.4 344.744 294C347.444 289.95 351.044 281.4 351.044 253.5ZM719.032 260.25L806.332 12.3C809.032 5.09998 810.382 2.39999 811.282 1.49997C812.182 0.599986 813.532 0.149992 816.232 0.149992H827.482C829.282 0.149992 831.082 0.149992 831.982 1.04998C833.332 1.95 834.232 5.09998 836.932 12.3L929.632 277.35C932.782 285.9 935.932 295.35 939.982 300.3C944.482 305.7 952.582 306.15 965.182 306.15C966.982 306.15 967.882 306.6 967.882 309.3C967.882 311.1 967.432 312 965.632 312C948.532 311.55 932.332 311.55 920.632 311.55C908.032 311.55 880.132 311.55 864.382 312C862.582 312 862.132 311.1 862.132 308.85C862.132 306.15 863.482 306.15 865.282 306.15C877.882 306.15 887.332 305.25 892.282 303.9C896.332 303 897.682 300.3 897.682 297.15C897.682 294.45 896.782 288.6 892.732 277.35L860.332 185.1H754.582L730.732 254.4C724.882 270.6 723.082 279.15 723.082 289.05C723.082 293.55 725.782 298.95 730.282 301.2C737.482 304.8 748.732 305.7 755.482 306.15C757.282 306.15 758.632 306.15 758.632 308.85C758.632 311.1 757.732 312 755.932 312C744.682 311.55 726.682 311.55 714.082 311.55C701.932 311.55 691.132 311.55 676.732 312C674.932 312 674.482 311.1 674.482 309.3C674.482 306.6 675.382 306.15 677.182 306.15C687.082 305.7 695.182 302.55 701.482 296.25C706.882 290.85 712.282 278.7 719.032 260.25ZM756.832 178.35H858.082C819.832 66.3 813.982 47.85 808.132 28.05C801.832 47.85 795.082 67.2 756.832 178.35ZM1228.58 260.7C1228.13 235.5 1228.13 184.2 1227.68 57.3C1227.68 28.95 1224.53 19.95 1218.23 14.1C1214.18 10.05 1202.93 6.89999 1188.53 6C1186.73 6 1186.28 5.54998 1186.28 2.84998C1186.28 1.04998 1186.73 0.149992 1188.53 0.149992C1194.83 0.149992 1217.33 0.599986 1231.73 0.599986C1244.33 0.599986 1260.98 0.149992 1271.78 0.149992C1273.58 0.149992 1274.03 1.49997 1274.03 3.29998C1274.03 6 1273.13 6 1271.78 6C1250.63 8.24999 1244.78 12.3 1241.63 17.7C1239.38 21.75 1235.78 30.3 1235.78 57.3V316.95C1235.78 320.1 1233.98 321.45 1231.73 321.45C1229.48 321.45 1228.13 320.1 1226.33 316.95C1057.58 62.7 1045.43 44.7 1032.38 25.35C1032.83 47.85 1032.83 96 1032.83 253.95C1032.83 282.75 1035.98 291.75 1042.28 297.6C1046.33 301.65 1058.03 305.25 1072.43 306.15C1074.23 306.15 1075.13 307.05 1075.13 309.3C1075.13 311.1 1074.68 312 1072.88 312C1066.58 312 1043.18 311.55 1028.78 311.55C1016.18 311.55 999.526 312 988.276 312C986.476 312 986.026 310.65 986.026 308.85C986.026 306.6 986.926 306.15 988.276 306.15C1009.88 303.9 1015.73 299.4 1018.88 294C1021.13 289.95 1024.73 281.4 1024.73 253.95V35.25C1024.73 21.3 1024.73 16.35 1022.03 12.3C1018.88 7.79997 1014.83 6.44999 988.726 6C987.376 6 986.476 5.54998 986.476 2.84998C986.476 1.04998 986.926 0.149992 988.726 0.149992C995.476 0.149992 1013.03 0.599986 1025.18 0.599986C1035.08 0.599986 1045.88 0.149992 1051.73 0.149992C1056.23 0.149992 1058.03 2.39999 1060.28 5.54998C1203.83 221.55 1215.53 238.65 1228.58 260.7ZM1267.71 889L1408 552.95H1423.98L1283.69 889H1267.71ZM1461.18 848.345C1461.03 855.082 1461.34 860.722 1462.12 865.265C1463.06 869.652 1464.47 873.098 1466.35 875.605C1468.23 878.268 1470.74 880.07 1473.87 881.01C1477.01 881.95 1480.69 882.42 1484.92 882.42C1496.67 882.42 1506.77 880.618 1515.23 877.015C1523.69 873.255 1530.19 867.693 1534.74 860.33C1539.44 852.81 1541.79 843.645 1541.79 832.835C1541.79 828.135 1540.85 823.278 1538.97 818.265C1537.24 813.095 1534.27 807.298 1530.04 800.875C1525.81 794.295 1519.85 786.618 1512.18 777.845C1504.81 768.915 1498.86 760.768 1494.32 753.405C1489.77 746.042 1486.56 739.227 1484.68 732.96C1482.8 726.537 1481.86 720.348 1481.86 714.395C1481.86 700.608 1485.54 688.388 1492.91 677.735C1500.27 667.082 1509.98 658.778 1522.05 652.825C1534.11 646.715 1547.27 643.66 1561.53 643.66C1571.24 643.66 1578.92 644.678 1584.56 646.715C1590.2 648.752 1594.19 651.493 1596.54 654.94C1599.05 658.387 1600.3 662.46 1600.3 667.16C1600.3 671.077 1599.36 674.445 1597.48 677.265C1595.6 679.928 1592.55 681.965 1588.32 683.375C1584.24 684.785 1578.68 685.49 1571.63 685.49C1572.26 677.97 1572.18 672.095 1571.4 667.865C1570.77 663.635 1569.52 660.423 1567.64 658.23C1565.76 656.037 1563.49 654.548 1560.82 653.765C1558.32 652.982 1554.79 652.59 1550.25 652.59C1535.83 652.59 1523.93 656.507 1514.53 664.34C1505.28 672.173 1500.66 683.062 1500.66 697.005C1500.66 702.018 1501.45 707.188 1503.01 712.515C1504.74 717.842 1507.71 723.873 1511.94 730.61C1516.17 737.347 1522.2 745.415 1530.04 754.815C1537.87 764.215 1543.9 772.597 1548.13 779.96C1552.36 787.167 1555.26 793.747 1556.83 799.7C1558.55 805.497 1559.41 811.137 1559.41 816.62C1559.41 831.817 1555.5 845.212 1547.66 856.805C1539.83 868.242 1529.18 877.25 1515.7 883.83C1502.23 890.41 1487.19 893.7 1470.58 893.7C1461.03 893.7 1453.27 892.682 1447.32 890.645C1441.52 888.608 1437.29 885.71 1434.63 881.95C1431.96 878.19 1430.63 873.803 1430.63 868.79C1430.63 864.247 1431.65 860.487 1433.69 857.51C1435.72 854.377 1438.94 852.105 1443.32 850.695C1447.87 849.128 1453.82 848.345 1461.18 848.345ZM1610.21 869.965L1686.11 655.645L1691.75 665.515C1687.37 663.948 1681.41 664.418 1673.89 666.925C1666.53 669.432 1657.52 674.915 1646.87 683.375C1636.22 691.835 1623.68 704.447 1609.27 721.21L1607.39 719.8C1619.77 701.157 1631.2 686.273 1641.7 675.15C1652.2 664.027 1661.91 656.037 1670.84 651.18C1679.93 646.167 1688.39 643.66 1696.22 643.66C1702.64 643.66 1706.79 645.227 1708.67 648.36C1710.55 651.493 1710.32 656.193 1707.97 662.46L1630.18 880.305L1624.31 870.905C1628.38 872.785 1634.18 872.628 1641.7 870.435C1649.38 868.085 1658.78 862.68 1669.9 854.22C1681.02 845.603 1693.87 833.07 1708.44 816.62L1710.32 818.03C1696.53 837.3 1684.31 852.497 1673.66 863.62C1663.01 874.743 1653.37 882.577 1644.75 887.12C1636.29 891.507 1628.3 893.7 1620.78 893.7C1613.26 893.7 1608.96 891.742 1607.86 887.825C1606.76 883.908 1607.55 877.955 1610.21 869.965ZM1700.92 563.76C1700.92 560.157 1701.78 556.788 1703.5 553.655C1705.23 550.365 1707.66 547.78 1710.79 545.9C1714.08 543.863 1717.92 542.845 1722.3 542.845C1729.04 542.845 1734.21 544.96 1737.81 549.19C1741.57 553.42 1743.45 558.277 1743.45 563.76C1743.45 567.52 1742.59 571.123 1740.87 574.57C1739.3 577.86 1736.95 580.523 1733.82 582.56C1730.69 584.597 1726.85 585.615 1722.3 585.615C1715.57 585.615 1710.32 583.422 1706.56 579.035C1702.8 574.492 1700.92 569.4 1700.92 563.76ZM1737.29 742.125L1734.94 740.95C1746.07 715.257 1756.33 695.438 1765.73 681.495C1775.28 667.552 1784.45 657.917 1793.22 652.59C1802 647.263 1810.69 644.6 1819.31 644.6C1822.6 644.6 1825.5 644.835 1828 645.305C1830.51 645.618 1832.78 646.167 1834.82 646.95C1837.01 647.733 1839.2 648.752 1841.4 650.005L1808.26 755.05L1803.8 760.455C1813.51 741.655 1822.99 725.048 1832.23 710.635C1841.63 696.065 1851.11 683.845 1860.67 673.975C1870.22 663.948 1880.02 656.428 1890.04 651.415C1900.23 646.245 1910.88 643.66 1922 643.66C1935.32 643.66 1945.19 646.637 1951.61 652.59C1958.19 658.387 1961.48 665.828 1961.48 674.915C1961.48 679.928 1960.62 685.647 1958.9 692.07C1957.17 698.493 1953.34 708.755 1947.38 722.855L1882.76 880.305L1877.12 871.61C1881.66 873.02 1888.01 872.472 1896.15 869.965C1904.3 867.302 1913.93 861.74 1925.06 853.28C1936.34 844.663 1948.95 832.443 1962.89 816.62L1964.77 818.03C1950.83 837.457 1938.45 852.732 1927.64 863.855C1916.83 874.822 1907.12 882.577 1898.5 887.12C1889.89 891.507 1881.82 893.7 1874.3 893.7C1866.31 893.7 1861.37 891.742 1859.49 887.825C1857.77 883.908 1858.55 878.033 1861.84 870.2L1921.3 725.675C1926.62 712.985 1930.15 703.742 1931.87 697.945C1933.75 692.148 1934.69 687.605 1934.69 684.315C1934.69 677.422 1932.34 672.487 1927.64 669.51C1922.94 666.533 1916.99 665.045 1909.78 665.045C1898.03 665.045 1886.75 668.492 1875.94 675.385C1865.29 682.122 1855.34 690.817 1846.1 701.47C1837.01 711.967 1828.94 723.012 1821.89 734.605C1814.84 746.198 1809.12 756.852 1804.74 766.565L1763.85 889H1739.41L1809.44 679.38C1810.85 675.307 1811 672.252 1809.91 670.215C1808.97 668.022 1807.01 666.925 1804.03 666.925C1800.74 666.925 1796.04 668.727 1789.93 672.33C1783.98 675.933 1776.62 683.14 1767.84 693.95C1759.07 704.603 1748.89 720.662 1737.29 742.125ZM2181.22 669.98C2178.87 669.98 2176.75 669.432 2174.87 668.335C2173.15 667.082 2171.03 665.593 2168.53 663.87C2166.02 662.147 2162.73 660.267 2158.66 658.23C2154.58 656.193 2149.1 654.392 2142.21 652.825C2135.47 651.258 2126.77 650.083 2116.12 649.3L2111.89 645.305C2128.03 647.028 2141.27 647.655 2151.61 647.185C2161.95 646.715 2170.17 646.01 2176.28 645.07C2182.39 643.973 2187.17 643.425 2190.62 643.425C2193.12 643.425 2194.92 644.052 2196.02 645.305C2197.12 646.402 2197.67 648.125 2197.67 650.475C2197.67 652.668 2197.27 654.94 2196.49 657.29C2195.71 659.483 2194.53 661.598 2192.97 663.635C2191.56 665.515 2189.83 667.082 2187.8 668.335C2185.92 669.432 2183.72 669.98 2181.22 669.98ZM2045.86 798.055C2053.38 798.055 2060.9 795.94 2068.42 791.71C2075.94 787.323 2083.06 781.37 2089.8 773.85C2096.69 766.173 2102.65 757.478 2107.66 747.765C2112.83 737.895 2116.83 727.242 2119.65 715.805C2122.62 704.368 2123.95 692.775 2123.64 681.025C2123.17 669.432 2121.45 661.207 2118.47 656.35C2115.49 651.493 2110.72 649.065 2104.14 649.065C2096.46 649.065 2088.86 651.258 2081.34 655.645C2073.82 659.875 2066.69 665.828 2059.96 673.505C2053.22 681.025 2047.27 689.72 2042.1 699.59C2036.93 709.46 2032.93 720.113 2030.11 731.55C2027.29 742.83 2026.04 754.345 2026.35 766.095C2026.82 777.688 2028.54 785.913 2031.52 790.77C2034.5 795.627 2039.28 798.055 2045.86 798.055ZM2102.02 643.66C2112.2 643.66 2120.59 645.775 2127.17 650.005C2133.75 654.078 2138.68 659.797 2141.97 667.16C2145.26 674.367 2146.91 682.827 2146.91 692.54C2146.91 706.013 2144.32 719.33 2139.15 732.49C2133.98 745.65 2126.85 757.557 2117.77 768.21C2108.68 778.863 2098.18 787.402 2086.28 793.825C2074.37 800.248 2061.6 803.46 2047.97 803.46C2037.79 803.46 2029.33 801.423 2022.59 797.35C2016.01 793.277 2011.08 787.715 2007.79 780.665C2004.65 773.458 2003.09 765.155 2003.09 755.755C2003.09 742.282 2005.59 728.965 2010.61 715.805C2015.78 702.645 2022.9 690.66 2031.99 679.85C2041.08 668.883 2051.57 660.11 2063.48 653.53C2075.39 646.95 2088.23 643.66 2102.02 643.66ZM2034.81 998.275C2020.24 998.275 2007.16 997.1 1995.57 994.75C1983.97 992.4 1974.1 988.875 1965.96 984.175C1957.65 979.632 1951.39 973.992 1947.16 967.255C1942.77 960.675 1940.58 953.077 1940.58 944.46C1940.58 932.71 1944.81 922.448 1953.27 913.675C1961.73 905.058 1974.18 897.773 1990.63 891.82C2007.08 886.023 2027.21 881.637 2051.03 878.66H2064.66V882.89C2051.03 883.517 2038.02 885.162 2025.65 887.825C2013.27 890.332 2002.3 894.013 1992.75 898.87C1983.19 903.727 1975.67 909.758 1970.19 916.965C1964.7 924.172 1961.96 932.71 1961.96 942.58C1961.96 953.703 1965.09 962.79 1971.36 969.84C1977.63 976.89 1986.48 982.138 1997.92 985.585C2009.35 989.032 2022.75 990.755 2038.1 990.755C2055.65 990.755 2070.61 988.562 2082.99 984.175C2095.52 979.945 2105.08 974.07 2111.66 966.55C2118.24 959.03 2121.53 950.413 2121.53 940.7C2121.53 935.687 2120.35 930.83 2118 926.13C2115.65 921.43 2111.81 916.965 2106.49 912.735C2101.16 908.505 2094.03 904.353 2085.1 900.28C2076.33 896.207 2065.28 892.133 2051.97 888.06C2034.58 882.733 2021.42 877.642 2012.49 872.785C2003.56 867.928 1997.45 862.837 1994.16 857.51C1991.02 852.183 1989.46 846.387 1989.46 840.12C1989.46 833.853 1991.34 828.057 1995.1 822.73C1998.86 817.403 2004.1 812.703 2010.84 808.63C2017.73 804.4 2025.8 801.032 2035.05 798.525L2038.81 801.815C2028.47 804.635 2020.71 808.395 2015.54 813.095C2010.37 817.795 2007.79 823.357 2007.79 829.78C2007.79 832.757 2008.33 835.577 2009.43 838.24C2010.68 840.747 2013.35 843.41 2017.42 846.23C2021.49 848.893 2027.6 852.027 2035.75 855.63C2043.9 859.077 2054.94 863.15 2068.89 867.85C2087.69 874.273 2102.18 880.775 2112.36 887.355C2122.7 893.935 2129.91 900.75 2133.98 907.8C2138.21 915.007 2140.33 922.84 2140.33 931.3C2140.33 940.073 2138.05 948.455 2133.51 956.445C2128.97 964.592 2122.23 971.798 2113.3 978.065C2104.37 984.332 2093.33 989.267 2080.17 992.87C2067.01 996.473 2051.89 998.275 2034.81 998.275ZM2223.06 766.565L2182.17 889H2157.5L2261.6 569.87C2258.78 568.93 2255.02 567.755 2250.32 566.345C2245.78 564.935 2240.92 563.368 2235.75 561.645C2230.58 559.922 2225.72 558.277 2221.18 556.71L2221.89 554.125L2292.86 540.26H2295.21L2226.35 755.05L2222.12 760.455C2231.68 741.655 2241.16 725.048 2250.56 710.635C2259.96 696.065 2269.43 683.845 2278.99 673.975C2288.55 663.948 2298.34 656.428 2308.37 651.415C2318.55 646.245 2329.2 643.66 2340.33 643.66C2353.49 643.66 2363.28 646.637 2369.7 652.59C2376.28 658.387 2379.57 665.828 2379.57 674.915C2379.57 679.928 2378.71 685.647 2376.99 692.07C2375.26 698.493 2371.5 708.755 2365.71 722.855L2301.08 880.305L2295.21 871.61C2299.91 873.02 2306.25 872.472 2314.24 869.965C2322.39 867.302 2332.1 861.74 2343.38 853.28C2354.66 844.663 2367.27 832.443 2381.22 816.62L2382.86 818.03C2369.07 837.457 2356.78 852.732 2345.97 863.855C2335.16 874.822 2325.44 882.577 2316.83 887.12C2308.21 891.507 2300.06 893.7 2292.39 893.7C2284.55 893.7 2279.7 891.742 2277.82 887.825C2276.09 883.908 2276.88 878.033 2280.17 870.2L2339.62 725.675C2344.95 712.985 2348.47 703.742 2350.2 697.945C2352.08 692.148 2353.02 687.605 2353.02 684.315C2353.02 677.422 2350.67 672.487 2345.97 669.51C2341.27 666.533 2335.31 665.045 2328.11 665.045C2316.36 665.045 2305.08 668.492 2294.27 675.385C2283.46 682.122 2273.43 690.817 2264.19 701.47C2255.1 711.967 2247.03 723.012 2239.98 734.605C2233.09 746.198 2227.45 756.852 2223.06 766.565ZM576.399 1431.35V1189.25C576.399 1175.3 576.399 1170.35 573.699 1166.3C570.549 1161.8 566.949 1160.45 540.399 1160C539.049 1160 538.149 1159.55 538.149 1156.85C538.149 1155.05 538.599 1154.15 540.399 1154.15C551.649 1154.15 579.549 1154.6 592.149 1154.6C604.749 1154.6 627.249 1154.15 642.999 1154.15C699.699 1154.15 755.499 1162.7 755.499 1223.9C755.499 1267.55 732.549 1297.25 668.199 1304C737.949 1305.8 769.899 1331 769.899 1377.8C769.899 1429.1 741.999 1466 643.899 1466C633.099 1466 615.099 1465.55 592.149 1465.55C579.549 1465.55 551.649 1466 540.399 1466C538.599 1466 538.149 1464.65 538.149 1462.85C538.149 1460.6 539.049 1460.15 540.399 1460.15C565.149 1460.15 570.999 1458.35 573.699 1454.3C576.399 1450.7 576.399 1441.25 576.399 1431.35ZM610.599 1308.5V1434.5C610.599 1450.25 611.949 1454.3 616.899 1456.55C623.199 1459.25 640.299 1459.25 647.049 1459.25C713.649 1459.25 732.099 1434.05 732.099 1384.1C732.099 1341.8 710.949 1316.6 665.949 1310.3C656.949 1308.95 645.249 1308.5 634.449 1308.5H610.599ZM610.599 1301.75H634.449C646.599 1301.75 659.649 1299.95 669.549 1297.7C703.749 1290.05 719.049 1267.1 719.049 1230.2C719.049 1186.55 709.149 1160.9 639.849 1160.9C624.549 1160.9 618.699 1160.9 614.649 1163.6C610.599 1166.3 610.599 1172.6 610.599 1188.35V1301.75ZM1036.54 1431.35V1308.5H881.742V1431.35C881.742 1440.35 881.742 1449.35 883.992 1453.85C885.792 1457.9 890.742 1460.15 917.742 1460.15C919.542 1460.15 919.992 1460.6 919.992 1463.3C919.992 1465.1 919.542 1466 917.742 1466C911.442 1466 878.592 1465.55 864.192 1465.55C851.592 1465.55 822.792 1466 811.542 1466C809.742 1466 809.292 1465.1 809.292 1463.3C809.292 1460.6 810.192 1460.15 811.992 1460.15C836.292 1460.15 842.592 1458.35 844.842 1454.3C847.542 1449.35 847.542 1441.25 847.542 1431.35V1189.25C847.542 1175.75 847.542 1170.35 844.842 1166.3C841.692 1161.8 837.192 1160.45 811.542 1160C810.192 1160 809.292 1160 809.292 1157.3C809.292 1155.5 809.742 1154.15 811.542 1154.15C822.792 1154.15 851.592 1154.6 864.192 1154.6C878.592 1154.6 911.442 1154.15 917.742 1154.15C919.542 1154.15 919.992 1155.05 919.992 1156.85C919.992 1159.55 919.542 1160 917.742 1160C890.742 1160 886.242 1162.7 883.992 1166.75C881.742 1169.9 881.742 1178 881.742 1189.25V1301.75H1036.54V1189.25C1036.54 1175.75 1036.54 1170.35 1033.84 1166.3C1030.69 1161.8 1025.74 1160.45 1000.09 1160C998.742 1160 997.842 1159.55 997.842 1157.3C997.842 1155.05 998.292 1154.15 1000.09 1154.15C1011.34 1154.15 1040.59 1154.6 1053.19 1154.6C1067.59 1154.6 1100.44 1154.15 1106.74 1154.15C1108.54 1154.15 1108.99 1155.05 1108.99 1156.85C1108.99 1159.1 1108.54 1160 1106.74 1160C1079.74 1160 1075.24 1162.7 1072.54 1166.75C1070.29 1169.9 1070.29 1178 1070.29 1189.25V1431.35C1070.29 1440.35 1070.29 1449.35 1072.54 1453.85C1074.79 1457.9 1079.74 1460.15 1106.74 1460.15C1108.54 1460.15 1108.99 1460.6 1108.99 1463.3C1108.99 1465.1 1108.54 1466 1106.74 1466C1100.44 1466 1067.59 1465.55 1053.19 1465.55C1040.59 1465.55 1011.79 1466 1000.54 1466C998.742 1466 997.842 1464.65 997.842 1462.85C997.842 1460.6 999.192 1460.15 1000.54 1460.15C1024.84 1460.15 1031.59 1458.35 1033.84 1454.3C1036.54 1449.35 1036.54 1441.25 1036.54 1431.35ZM1425.93 1303.55C1425.93 1411.1 1373.28 1471.85 1284.63 1471.85C1204.53 1471.85 1150.08 1413.35 1150.08 1312.55C1150.08 1210.85 1209.48 1148.3 1290.48 1148.3C1378.23 1148.3 1425.93 1214.9 1425.93 1303.55ZM1388.58 1308.95C1388.58 1186.1 1344.93 1155.05 1289.13 1155.05C1237.83 1155.05 1188.33 1187.9 1188.33 1308.5C1188.33 1431.35 1234.23 1465.1 1286.88 1465.1C1347.18 1465.1 1388.58 1429.55 1388.58 1308.95ZM1476.15 1311.2C1476.15 1216.25 1529.25 1148.3 1620.6 1148.3C1655.25 1148.3 1677.75 1159.1 1690.8 1166.75C1695.75 1169.9 1699.8 1171.25 1701.6 1171.25C1706.1 1171.25 1709.7 1169 1711.05 1157.3C1711.5 1153.7 1712.4 1153.7 1714.65 1153.7C1716.9 1153.7 1717.8 1154.15 1717.8 1156.4C1717.8 1161.35 1717.35 1182.05 1717.35 1199.15C1717.35 1218.05 1717.8 1236.05 1717.8 1243.7C1717.8 1246.85 1716.9 1247.3 1714.65 1247.3C1711.95 1247.3 1711.5 1246.85 1711.05 1242.8C1707.45 1211.3 1701.15 1195.55 1686.3 1180.7C1670.55 1164.5 1646.7 1155.05 1620.6 1155.05C1543.65 1155.05 1514.4 1209.95 1514.4 1314.8C1514.4 1377.8 1527.9 1465.1 1615.2 1465.1C1651.65 1465.1 1675.05 1453.85 1684.95 1437.2C1687.65 1432.7 1689.45 1423.7 1689.45 1409.75V1371.05C1689.45 1357.1 1689.45 1351.7 1686.75 1348.1C1683.6 1343.6 1677.3 1342.25 1651.2 1341.8C1649.85 1341.8 1648.95 1341.8 1648.95 1339.1C1648.95 1337.3 1649.4 1335.95 1651.2 1335.95C1656.6 1335.95 1693.05 1336.4 1705.65 1336.4C1720.05 1336.4 1745.7 1335.95 1752 1335.95C1753.8 1335.95 1754.25 1336.85 1754.25 1338.65C1754.25 1341.35 1753.8 1341.8 1752 1341.8C1734 1341.8 1728.15 1344.5 1725.45 1348.55C1723.2 1351.7 1723.2 1360.25 1723.2 1371.05V1413.8C1723.2 1430.9 1724.1 1452.5 1724.1 1457.45C1724.1 1459.7 1723.2 1460.6 1720.95 1460.6C1718.7 1460.6 1717.8 1460.15 1717.35 1456.55C1715.55 1443.95 1712.4 1443.05 1709.25 1443.05C1706.1 1443.05 1702.95 1444.85 1698.45 1448C1677.75 1462.85 1651.65 1471.85 1614.3 1471.85C1528.35 1471.85 1476.15 1417.4 1476.15 1311.2ZM1800.97 1414.25L1888.27 1166.3C1890.97 1159.1 1892.32 1156.4 1893.22 1155.5C1894.12 1154.6 1895.47 1154.15 1898.17 1154.15H1909.42C1911.22 1154.15 1913.02 1154.15 1913.92 1155.05C1915.27 1155.95 1916.17 1159.1 1918.87 1166.3L2011.57 1431.35C2014.72 1439.9 2017.87 1449.35 2021.92 1454.3C2026.42 1459.7 2034.52 1460.15 2047.12 1460.15C2048.92 1460.15 2049.82 1460.6 2049.82 1463.3C2049.82 1465.1 2049.37 1466 2047.57 1466C2030.47 1465.55 2014.27 1465.55 2002.57 1465.55C1989.97 1465.55 1962.07 1465.55 1946.32 1466C1944.52 1466 1944.07 1465.1 1944.07 1462.85C1944.07 1460.15 1945.42 1460.15 1947.22 1460.15C1959.82 1460.15 1969.27 1459.25 1974.22 1457.9C1978.27 1457 1979.62 1454.3 1979.62 1451.15C1979.62 1448.45 1978.72 1442.6 1974.67 1431.35L1942.27 1339.1H1836.52L1812.67 1408.4C1806.82 1424.6 1805.02 1433.15 1805.02 1443.05C1805.02 1447.55 1807.72 1452.95 1812.22 1455.2C1819.42 1458.8 1830.67 1459.7 1837.42 1460.15C1839.22 1460.15 1840.57 1460.15 1840.57 1462.85C1840.57 1465.1 1839.67 1466 1837.87 1466C1826.62 1465.55 1808.62 1465.55 1796.02 1465.55C1783.87 1465.55 1773.07 1465.55 1758.67 1466C1756.87 1466 1756.42 1465.1 1756.42 1463.3C1756.42 1460.6 1757.32 1460.15 1759.12 1460.15C1769.02 1459.7 1777.12 1456.55 1783.42 1450.25C1788.82 1444.85 1794.22 1432.7 1800.97 1414.25ZM1838.77 1332.35H1940.02C1901.77 1220.3 1895.92 1201.85 1890.07 1182.05C1883.77 1201.85 1877.02 1221.2 1838.77 1332.35ZM2103.06 1431.35V1189.25C2103.06 1175.75 2103.06 1170.35 2100.36 1166.3C2097.21 1161.8 2092.71 1160.45 2067.06 1160C2065.71 1160 2064.81 1159.55 2064.81 1157.3C2064.81 1155.5 2065.26 1154.15 2067.06 1154.15C2078.31 1154.15 2107.11 1154.6 2119.71 1154.6C2134.11 1154.6 2166.96 1154.15 2173.26 1154.15C2175.06 1154.15 2175.51 1155.05 2175.51 1156.85C2175.51 1159.1 2174.61 1160 2172.81 1160C2145.81 1160 2142.21 1162.7 2139.51 1166.75C2137.26 1169.9 2137.26 1178 2137.26 1189.25V1431.35C2137.26 1443.5 2137.26 1450.25 2139.96 1454.3C2142.66 1458.35 2150.31 1459.25 2157.51 1459.25H2202.51C2225.01 1459.25 2239.86 1456.1 2247.51 1452.5C2256.51 1448.45 2263.71 1441.25 2267.76 1434.05C2272.26 1425.95 2277.66 1407.5 2279.46 1392.2C2279.91 1389.05 2280.81 1388.6 2283.06 1388.6C2285.76 1388.6 2286.66 1388.6 2286.66 1392.2C2286.66 1396.7 2286.21 1414.25 2286.21 1424.6C2286.21 1434.95 2286.66 1454.3 2286.66 1459.25C2286.66 1464.2 2285.76 1466 2279.01 1466C2241.21 1466 2143.56 1465.55 2118.81 1465.55C2106.21 1465.55 2078.31 1466 2067.06 1466C2065.26 1466 2064.81 1465.1 2064.81 1463.3C2064.81 1460.6 2065.71 1460.15 2067.06 1460.15C2087.31 1460.15 2098.11 1459.25 2100.36 1454.3C2103.06 1449.35 2103.06 1441.25 2103.06 1431.35Z" fill="#C5B29A"/>
</svg>
