<?xml version="1.0" encoding="UTF-8"?>
<svg width="1352px" height="819px" viewBox="0 0 1352 819" version="1.1" xmlns="http://www.w3.org/2000/svg" xmlns:xlink="http://www.w3.org/1999/xlink">
    <title>Singh bhogal</title>
    <g id="Page-1" stroke="none" stroke-width="1" fill="none" fill-rule="evenodd">
        <g id="Singh-bhogal" fill="#C5B29A" fill-rule="nonzero">
            <path d="M24.75,144.5 L73.25,6.750005 C74.75,2.749995 75.5,1.249995 76,0.749995 C76.5,0.249997 77.25,0 78.75,0 L85,0 C86,0 87,0 87.5,0.5 C88.25,1 88.75,2.749995 90.25,6.750005 L141.75,154 C143.5,158.750005 145.25,164 147.5,166.750005 C150,169.750005 154.5,170 161.5,170 C162.5,170 163,170.250005 163,171.750005 C163,172.750005 162.75,173.250005 161.75,173.250005 C152.25,173 143.25,173 136.75,173 C129.75,173 114.25,173 105.5,173.250005 C104.5,173.250005 104.25,172.750005 104.25,171.5 C104.25,170 105,170 106,170 C113,170 118.25,169.5 121,168.750005 C123.25,168.250005 124,166.750005 124,165 C124,163.5 123.5,160.250005 121.25,154 L103.25,102.750005 L44.5,102.750005 L31.25,141.250005 C28,150.250005 27,155 27,160.5 C27,163 28.5,166 31,167.250005 C35,169.250005 41.25,169.750005 45,170 C46,170 46.75,170 46.75,171.5 C46.75,172.750005 46.25,173.250005 45.25,173.250005 C39,173 29,173 22,173 C15.25,173 9.24999995,173 1.24999995,173.250005 C0.249999953,173.250005 0,172.750005 0,171.750005 C0,170.250005 0.5,170 1.5,170 C7,169.750005 11.5,168 15,164.5 C18,161.5 21,154.750005 24.75,144.5 Z M45.75,99.000005 L102,99.000005 C80.75,36.750005 77.5,26.500005 74.25,15.500005 C70.75,26.500005 67,37.250005 45.75,99.000005 Z M194.58,140.750005 L194.58,19.5 C194.58,11.750005 194.58,9 193.08,6.750005 C191.33,4.249995 188.83,3.5 174.58,3.250005 C173.83,3.250005 173.33,3 173.33,1.749995 C173.33,0.749995 173.58,0 174.58,0 C180.83,0 190.58,0.249997 197.58,0.249997 C203.08,0.249997 209.58,0 212.83,0 C215.08,0 215.58,0.5 218.08,7.5 C225.08,27.250005 228.58,36.250005 267.83,143.750005 C303.33,50.250005 315.33,19 320.58,4 C321.83,0 322.33,0 324.33,0 C325.08,0 335.83,0.249997 341.08,0.249997 C349.08,0.249997 358.58,0 362.08,0 C363.08,0 363.33,0.5 363.33,1.5 C363.33,2.5 363.08,3.250005 362.08,3.250005 C346.83,3.250005 344.83,4.749995 343.33,7 C342.08,8.749995 342.08,13.5 342.08,19.5 L342.08,154 C342.08,158.5 342.08,164 343.33,166.5 C344.58,168.750005 347.08,170 362.08,170 C363.08,170 363.33,170.5 363.33,171.750005 C363.33,172.750005 363.08,173.250005 362.08,173.250005 C358.58,173.250005 340.08,173 332.08,173 C325.08,173 309.33,173.250005 303.08,173.250005 C302.08,173.250005 301.83,172.5 301.83,171.5 C301.83,170.250005 302.33,170 303.08,170 C317.08,170 320.33,169 321.58,166.750005 C323.08,164 323.08,159.5 323.08,154 L323.08,9.5 C319.08,21 314.58,33.250005 263.08,168.5 C262.58,170 261.58,171 260.33,171 C259.08,171 258.58,170.250005 257.83,168.5 C209.08,36.5 203.58,21.750005 199.08,9 L199.08,140.750005 C199.08,156.5 201.08,161.5 204.33,165 C206.58,167.5 213.08,169.5 221.33,170 C222.33,170 222.58,170.750005 222.58,171.750005 C222.58,172.750005 222.33,173.250005 221.33,173.250005 C217.83,173.250005 204.83,173 196.83,173 C189.83,173 180.33,173.250005 174.08,173.250005 C173.08,173.250005 172.83,172.5 172.83,171.5 C172.83,170.5 173.33,170 174.08,170 C185.58,168.750005 189.33,166.250005 191.08,163.250005 C192.58,161 194.58,156.250005 194.58,140.750005 Z M399.018,144.5 L447.518,6.750005 C449.018,2.749995 449.768,1.249995 450.268,0.749995 C450.768,0.249997 451.518,0 453.018,0 L459.268,0 C460.268,0 461.268,0 461.768,0.5 C462.518,1 463.018,2.749995 464.518,6.750005 L516.018,154 C517.768,158.750005 519.518,164 521.768,166.750005 C524.268,169.750005 528.768,170 535.768,170 C536.768,170 537.268,170.250005 537.268,171.750005 C537.268,172.750005 537.018,173.250005 536.018,173.250005 C526.518,173 517.518,173 511.018,173 C504.018,173 488.518,173 479.768,173.250005 C478.768,173.250005 478.518,172.750005 478.518,171.5 C478.518,170 479.268,170 480.268,170 C487.268,170 492.518,169.5 495.268,168.750005 C497.518,168.250005 498.268,166.750005 498.268,165 C498.268,163.5 497.768,160.250005 495.518,154 L477.518,102.750005 L418.768,102.750005 L405.518,141.250005 C402.268,150.250005 401.268,155 401.268,160.5 C401.268,163 402.768,166 405.268,167.250005 C409.268,169.250005 415.518,169.750005 419.268,170 C420.268,170 421.018,170 421.018,171.5 C421.018,172.750005 420.518,173.250005 419.518,173.250005 C413.268,173 403.268,173 396.268,173 C389.518,173 383.518,173 375.518,173.250005 C374.518,173.250005 374.268,172.750005 374.268,171.750005 C374.268,170.250005 374.768,170 375.768,170 C381.268,169.750005 385.768,168 389.268,164.5 C392.268,161.5 395.268,154.750005 399.018,144.5 Z M420.018,99.000005 L476.268,99.000005 C455.018,36.750005 451.768,26.500005 448.518,15.500005 C445.018,26.500005 441.268,37.250005 420.018,99.000005 Z M682.098,144.750005 C681.848,130.750005 681.848,102.250005 681.598,31.750005 C681.598,16 679.848,11 676.348,7.749985 C674.098,5.5 667.848,3.749995 659.848,3.250005 C658.848,3.250005 658.598,3 658.598,1.5 C658.598,0.5 658.848,0 659.848,0 C663.348,0 675.848,0.249997 683.848,0.249997 C690.848,0.249997 700.098,0 706.098,0 C707.098,0 707.348,0.749995 707.348,1.749995 C707.348,3.250005 706.848,3.250005 706.098,3.250005 C694.348,4.5 691.098,6.750005 689.348,9.750005 C688.098,12 686.098,16.750005 686.098,31.750005 L686.098,176 C686.098,177.750005 685.098,178.5 683.848,178.5 C682.598,178.5 681.848,177.750005 680.848,176 C587.098,34.750005 580.348,24.750005 573.098,14 C573.348,26.5 573.348,53.250005 573.348,141 C573.348,157 575.098,162 578.598,165.250005 C580.848,167.5 587.348,169.5 595.348,170 C596.348,170 596.848,170.5 596.848,171.750005 C596.848,172.750005 596.598,173.250005 595.598,173.250005 C592.098,173.250005 579.098,173 571.098,173 C564.098,173 554.848,173.250005 548.598,173.250005 C547.598,173.250005 547.348,172.5 547.348,171.5 C547.348,170.250005 547.848,170 548.598,170 C560.598,168.750005 563.848,166.250005 565.598,163.250005 C566.848,161 568.848,156.250005 568.848,141 L568.848,19.5 C568.848,11.750005 568.848,9 567.348,6.750005 C565.598,4.249995 563.348,3.5 548.848,3.250005 C548.098,3.250005 547.598,3 547.598,1.5 C547.598,0.5 547.848,0 548.848,0 C552.598,0 562.348,0.249997 569.098,0.249997 C574.598,0.249997 580.598,0 583.848,0 C586.348,0 587.348,1.249995 588.598,3 C668.348,123 674.848,132.5 682.098,144.750005 Z M861.115,472.625005 C861.032,476.208005 861.199,479.208005 861.615,481.625005 C862.115,483.958005 862.865,485.792005 863.865,487.125005 C864.865,488.542005 866.199,489.500005 867.865,490.000005 C869.532,490.500005 871.49,490.750005 873.74,490.750005 C879.99,490.750005 885.365,489.792005 889.865,487.875005 C894.365,485.875005 897.824,482.917005 900.24,479.000005 C902.74,475.000005 903.99,470.125005 903.99,464.375005 C903.99,461.875005 903.49,459.292005 902.49,456.625005 C901.574,453.875005 899.99,450.792005 897.74,447.375005 C895.49,443.875005 892.324,439.792005 888.24,435.125005 C884.324,430.375005 881.157,426.042005 878.74,422.125005 C876.324,418.208005 874.615,414.583005 873.615,411.250005 C872.615,407.833005 872.115,404.542005 872.115,401.375005 C872.115,394.042005 874.074,387.542005 877.99,381.875005 C881.907,376.208005 887.074,371.792005 893.49,368.625005 C899.907,365.375005 906.907,363.750005 914.49,363.750005 C919.657,363.750005 923.74,364.292005 926.74,365.375005 C929.74,366.458005 931.865,367.917005 933.115,369.750005 C934.449,371.583005 935.115,373.750005 935.115,376.250005 C935.115,378.333005 934.615,380.125005 933.615,381.625005 C932.615,383.042005 930.99,384.125005 928.74,384.875005 C926.574,385.625005 923.615,386.000005 919.865,386.000005 C920.199,382.000005 920.157,378.875005 919.74,376.625005 C919.407,374.375005 918.74,372.667005 917.74,371.500005 C916.74,370.333005 915.532,369.542005 914.115,369.125005 C912.782,368.708005 910.907,368.500005 908.49,368.500005 C900.824,368.500005 894.49,370.583005 889.49,374.750005 C884.574,378.917005 882.115,384.708005 882.115,392.125005 C882.115,394.792005 882.532,397.542005 883.365,400.375005 C884.282,403.208005 885.865,406.417005 888.115,410.000005 C890.365,413.583005 893.574,417.875005 897.74,422.875005 C901.907,427.875005 905.115,432.333005 907.365,436.250005 C909.615,440.083005 911.157,443.583005 911.99,446.750005 C912.907,449.833005 913.365,452.833005 913.365,455.750005 C913.365,463.833005 911.282,470.958005 907.115,477.125005 C902.949,483.208005 897.282,488.000005 890.115,491.500005 C882.949,495.000005 874.949,496.750005 866.115,496.750005 C861.032,496.750005 856.907,496.208005 853.74,495.125005 C850.657,494.042005 848.407,492.500005 846.99,490.500005 C845.574,488.500005 844.865,486.167005 844.865,483.500005 C844.865,481.083005 845.407,479.083005 846.49,477.500005 C847.574,475.833005 849.282,474.625005 851.615,473.875005 C854.032,473.042005 857.199,472.625005 861.115,472.625005 Z M940.385,484.125005 L980.76,370.125005 L983.76,375.375005 C981.426,374.542005 978.26,374.792005 974.26,376.125005 C970.343,377.458005 965.551,380.375005 959.885,384.875005 C954.218,389.375005 947.551,396.083005 939.885,405.000005 L938.885,404.250005 C945.468,394.333005 951.551,386.417005 957.135,380.500005 C962.718,374.583005 967.885,370.333005 972.635,367.750005 C977.468,365.083005 981.968,363.750005 986.135,363.750005 C989.551,363.750005 991.76,364.583005 992.76,366.250005 C993.76,367.917005 993.635,370.417005 992.385,373.750005 L951.01,489.625005 L947.885,484.625005 C950.051,485.625005 953.135,485.542005 957.135,484.375005 C961.218,483.125005 966.218,480.250005 972.135,475.750005 C978.051,471.167005 984.885,464.500005 992.635,455.750005 L993.635,456.500005 C986.301,466.750005 979.801,474.833005 974.135,480.750005 C968.468,486.667005 963.343,490.833005 958.76,493.250005 C954.26,495.583005 950.01,496.750005 946.01,496.750005 C942.01,496.750005 939.718,495.708005 939.135,493.625005 C938.551,491.542005 938.968,488.375005 940.385,484.125005 Z M988.635,321.250005 C988.635,319.333005 989.093,317.542005 990.01,315.875005 C990.926,314.125005 992.218,312.750005 993.885,311.750005 C995.635,310.667005 997.676,310.125005 1000.01,310.125005 C1003.59,310.125005 1006.34,311.250005 1008.26,313.500005 C1010.26,315.750005 1011.26,318.333005 1011.26,321.250005 C1011.26,323.250005 1010.8,325.167005 1009.88,327.000005 C1009.05,328.750005 1007.8,330.167005 1006.13,331.250005 C1004.47,332.333005 1002.43,332.875005 1000.01,332.875005 C996.426,332.875005 993.635,331.708005 991.635,329.375005 C989.635,326.958005 988.635,324.250005 988.635,321.250005 Z M1007.98,416.125005 L1006.73,415.500005 C1012.65,401.833005 1018.11,391.292005 1023.11,383.875005 C1028.19,376.458005 1033.07,371.333005 1037.73,368.500005 C1042.4,365.667005 1047.02,364.250005 1051.61,364.250005 C1053.36,364.250005 1054.9,364.375005 1056.23,364.625005 C1057.57,364.792005 1058.77,365.083005 1059.86,365.500005 C1061.02,365.917005 1062.19,366.458005 1063.36,367.125005 L1045.73,423.000005 L1043.36,425.875005 C1048.52,415.875005 1053.57,407.042005 1058.48,399.375005 C1063.48,391.625005 1068.52,385.125005 1073.61,379.875005 C1078.69,374.542005 1083.9,370.542005 1089.23,367.875005 C1094.65,365.125005 1100.32,363.750005 1106.23,363.750005 C1113.32,363.750005 1118.57,365.333005 1121.98,368.500005 C1125.48,371.583005 1127.23,375.542005 1127.23,380.375005 C1127.23,383.042005 1126.77,386.083005 1125.86,389.500005 C1124.94,392.917005 1122.9,398.375005 1119.73,405.875005 L1085.36,489.625005 L1082.36,485.000005 C1084.77,485.750005 1088.15,485.458005 1092.48,484.125005 C1096.82,482.708005 1101.94,479.750005 1107.86,475.250005 C1113.86,470.667005 1120.57,464.167005 1127.98,455.750005 L1128.98,456.500005 C1121.57,466.833005 1114.98,474.958005 1109.23,480.875005 C1103.48,486.708005 1098.32,490.833005 1093.73,493.250005 C1089.15,495.583005 1084.86,496.750005 1080.86,496.750005 C1076.61,496.750005 1073.98,495.708005 1072.98,493.625005 C1072.07,491.542005 1072.48,488.417005 1074.23,484.250005 L1105.86,407.375005 C1108.69,400.625005 1110.57,395.708005 1111.48,392.625005 C1112.48,389.542005 1112.98,387.125005 1112.98,385.375005 C1112.98,381.708005 1111.73,379.083005 1109.23,377.500005 C1106.73,375.917005 1103.57,375.125005 1099.73,375.125005 C1093.48,375.125005 1087.48,376.958005 1081.73,380.625005 C1076.07,384.208005 1070.77,388.833005 1065.86,394.500005 C1061.02,400.083005 1056.73,405.958005 1052.98,412.125005 C1049.23,418.292005 1046.19,423.958005 1043.86,429.125005 L1022.11,494.250005 L1009.11,494.250005 L1046.36,382.750005 C1047.11,380.583005 1047.19,378.958005 1046.61,377.875005 C1046.11,376.708005 1045.07,376.125005 1043.48,376.125005 C1041.73,376.125005 1039.23,377.083005 1035.98,379.000005 C1032.82,380.917005 1028.9,384.750005 1024.23,390.500005 C1019.57,396.167005 1014.15,404.708005 1007.98,416.125005 Z M1244.11,377.750005 C1242.86,377.750005 1241.74,377.458005 1240.74,376.875005 C1239.82,376.208005 1238.69,375.417005 1237.36,374.500005 C1236.03,373.583005 1234.28,372.583005 1232.11,371.500005 C1229.94,370.417005 1227.03,369.458005 1223.36,368.625005 C1219.78,367.792005 1215.15,367.167005 1209.49,366.750005 L1207.24,364.625005 C1215.82,365.542005 1222.86,365.875005 1228.36,365.625005 C1233.86,365.375005 1238.24,365.000005 1241.49,364.500005 C1244.74,363.917005 1247.28,363.625005 1249.11,363.625005 C1250.44,363.625005 1251.4,363.958005 1251.99,364.625005 C1252.57,365.208005 1252.86,366.125005 1252.86,367.375005 C1252.86,368.542005 1252.65,369.750005 1252.24,371.000005 C1251.82,372.167005 1251.19,373.292005 1250.36,374.375005 C1249.61,375.375005 1248.69,376.208005 1247.61,376.875005 C1246.61,377.458005 1245.44,377.750005 1244.11,377.750005 Z M1172.11,445.875005 C1176.11,445.875005 1180.11,444.750005 1184.11,442.500005 C1188.11,440.167005 1191.9,437.000005 1195.49,433.000005 C1199.15,428.917005 1202.32,424.292005 1204.99,419.125005 C1207.74,413.875005 1209.86,408.208005 1211.36,402.125005 C1212.94,396.042005 1213.65,389.875005 1213.49,383.625005 C1213.24,377.458005 1212.32,373.083005 1210.74,370.500005 C1209.15,367.917005 1206.61,366.625005 1203.11,366.625005 C1199.03,366.625005 1194.99,367.792005 1190.99,370.125005 C1186.99,372.375005 1183.19,375.542005 1179.61,379.625005 C1176.03,383.625005 1172.86,388.250005 1170.11,393.500005 C1167.36,398.750005 1165.24,404.417005 1163.74,410.500005 C1162.24,416.500005 1161.57,422.625005 1161.74,428.875005 C1161.99,435.042005 1162.9,439.417005 1164.49,442.000005 C1166.07,444.583005 1168.61,445.875005 1172.11,445.875005 Z M1201.99,363.750005 C1207.4,363.750005 1211.86,364.875005 1215.36,367.125005 C1218.86,369.292005 1221.49,372.333005 1223.24,376.250005 C1224.99,380.083005 1225.86,384.583005 1225.86,389.750005 C1225.86,396.917005 1224.49,404.000005 1221.74,411.000005 C1218.99,418.000005 1215.19,424.333005 1210.36,430.000005 C1205.53,435.667005 1199.94,440.208005 1193.61,443.625005 C1187.28,447.042005 1180.49,448.750005 1173.24,448.750005 C1167.82,448.750005 1163.32,447.667005 1159.74,445.500005 C1156.24,443.333005 1153.61,440.375005 1151.86,436.625005 C1150.19,432.792005 1149.36,428.375005 1149.36,423.375005 C1149.36,416.208005 1150.69,409.125005 1153.36,402.125005 C1156.11,395.125005 1159.9,388.750005 1164.74,383.000005 C1169.57,377.167005 1175.15,372.500005 1181.49,369.000005 C1187.82,365.500005 1194.65,363.750005 1201.99,363.750005 Z M1166.24,552.375005 C1158.49,552.375005 1151.53,551.750005 1145.36,550.500005 C1139.19,549.250005 1133.94,547.375005 1129.61,544.875005 C1125.19,542.458005 1121.86,539.458005 1119.61,535.875005 C1117.28,532.375005 1116.11,528.333005 1116.11,523.750005 C1116.11,517.500005 1118.36,512.042005 1122.86,507.375005 C1127.36,502.792005 1133.99,498.917005 1142.74,495.750005 C1151.49,492.667005 1162.19,490.333005 1174.86,488.750005 L1182.11,488.750005 L1182.11,491.000005 C1174.86,491.333005 1167.94,492.208005 1161.36,493.625005 C1154.78,494.958005 1148.94,496.917005 1143.86,499.500005 C1138.78,502.083005 1134.78,505.292005 1131.86,509.125005 C1128.94,512.958005 1127.49,517.500005 1127.49,522.750005 C1127.49,528.667005 1129.15,533.500005 1132.49,537.250005 C1135.82,541.000005 1140.53,543.792005 1146.61,545.625005 C1152.69,547.458005 1159.82,548.375005 1167.99,548.375005 C1177.32,548.375005 1185.28,547.208005 1191.86,544.875005 C1198.53,542.625005 1203.61,539.500005 1207.11,535.500005 C1210.61,531.500005 1212.36,526.917005 1212.36,521.750005 C1212.36,519.083005 1211.74,516.500005 1210.49,514.000005 C1209.24,511.500005 1207.19,509.125005 1204.36,506.875005 C1201.53,504.625005 1197.74,502.417005 1192.99,500.250005 C1188.32,498.083005 1182.44,495.917005 1175.36,493.750005 C1166.11,490.917005 1159.11,488.208005 1154.36,485.625005 C1149.61,483.042005 1146.36,480.333005 1144.61,477.500005 C1142.94,474.667005 1142.11,471.583005 1142.11,468.250005 C1142.11,464.917005 1143.11,461.833005 1145.11,459.000005 C1147.11,456.167005 1149.9,453.667005 1153.49,451.500005 C1157.15,449.250005 1161.44,447.458005 1166.36,446.125005 L1168.36,447.875005 C1162.86,449.375005 1158.74,451.375005 1155.99,453.875005 C1153.24,456.375005 1151.86,459.333005 1151.86,462.750005 C1151.86,464.333005 1152.15,465.833005 1152.74,467.250005 C1153.4,468.583005 1154.82,470.000005 1156.99,471.500005 C1159.15,472.917005 1162.4,474.583005 1166.74,476.500005 C1171.07,478.333005 1176.94,480.500005 1184.36,483.000005 C1194.36,486.417005 1202.07,489.875005 1207.49,493.375005 C1212.99,496.875005 1216.82,500.500005 1218.99,504.250005 C1221.24,508.083005 1222.36,512.250005 1222.36,516.750005 C1222.36,521.417005 1221.15,525.875005 1218.74,530.125005 C1216.32,534.458005 1212.74,538.292005 1207.99,541.625005 C1203.24,544.958005 1197.36,547.583005 1190.36,549.500005 C1183.36,551.417005 1175.32,552.375005 1166.24,552.375005 Z M1266.37,429.125005 L1244.62,494.250005 L1231.49,494.250005 L1286.87,324.500005 C1285.37,324.000005 1283.37,323.375005 1280.87,322.625005 C1278.45,321.875005 1275.87,321.042005 1273.12,320.125005 C1270.37,319.208005 1267.79,318.333005 1265.37,317.500005 L1265.74,316.125005 L1303.49,308.750005 L1304.74,308.750005 L1268.12,423.000005 L1265.87,425.875005 C1270.95,415.875005 1275.99,407.042005 1280.99,399.375005 C1285.99,391.625005 1291.04,385.125005 1296.12,379.875005 C1301.2,374.542005 1306.41,370.542005 1311.74,367.875005 C1317.16,365.125005 1322.83,363.750005 1328.74,363.750005 C1335.74,363.750005 1340.95,365.333005 1344.37,368.500005 C1347.87,371.583005 1349.62,375.542005 1349.62,380.375005 C1349.62,383.042005 1349.16,386.083005 1348.24,389.500005 C1347.33,392.917005 1345.33,398.375005 1342.24,405.875005 L1307.87,489.625005 L1304.74,485.000005 C1307.24,485.750005 1310.62,485.458005 1314.87,484.125005 C1319.2,482.708005 1324.37,479.750005 1330.37,475.250005 C1336.37,470.667005 1343.08,464.167005 1350.49,455.750005 L1351.37,456.500005 C1344.04,466.833005 1337.49,474.958005 1331.74,480.875005 C1325.99,486.708005 1320.83,490.833005 1316.24,493.250005 C1311.66,495.583005 1307.33,496.750005 1303.24,496.750005 C1299.08,496.750005 1296.49,495.708005 1295.49,493.625005 C1294.58,491.542005 1294.99,488.417005 1296.74,484.250005 L1328.37,407.375005 C1331.2,400.625005 1333.08,395.708005 1333.99,392.625005 C1334.99,389.542005 1335.49,387.125005 1335.49,385.375005 C1335.49,381.708005 1334.24,379.083005 1331.74,377.500005 C1329.24,375.917005 1326.08,375.125005 1322.24,375.125005 C1315.99,375.125005 1309.99,376.958005 1304.24,380.625005 C1298.49,384.208005 1293.16,388.833005 1288.24,394.500005 C1283.41,400.083005 1279.12,405.958005 1275.37,412.125005 C1271.7,418.292005 1268.7,423.958005 1266.37,429.125005 Z M319.777,796.000005 L319.777,661.500005 C319.777,653.750005 319.777,651.000005 318.277,648.750005 C316.527,646.250005 314.527,645.500005 299.777,645.250005 C299.027,645.250005 298.527,645.000005 298.527,643.500005 C298.527,642.500005 298.777,642.000005 299.777,642.000005 C306.027,642.000005 321.527,642.250005 328.527,642.250005 C335.527,642.250005 348.027,642.000005 356.777,642.000005 C388.277,642.000005 419.277,646.750005 419.277,680.750005 C419.277,705.000005 406.527,721.500005 370.777,725.250005 C409.527,726.250005 427.277,740.250005 427.277,766.250005 C427.277,794.750005 411.777,815.250005 357.277,815.250005 C351.277,815.250005 341.277,815.000005 328.527,815.000005 C321.527,815.000005 306.027,815.250005 299.777,815.250005 C298.777,815.250005 298.527,814.500005 298.527,813.500005 C298.527,812.250005 299.027,812.000005 299.777,812.000005 C313.527,812.000005 316.777,811.000005 318.277,808.750005 C319.777,806.750005 319.777,801.500005 319.777,796.000005 Z M338.777,727.750005 L338.777,797.750005 C338.777,806.500005 339.527,808.750005 342.277,810.000005 C345.777,811.500005 355.277,811.500005 359.027,811.500005 C396.027,811.500005 406.277,797.500005 406.277,769.750005 C406.277,746.250005 394.527,732.250005 369.527,728.750005 C364.527,728.000005 358.027,727.750005 352.027,727.750005 L338.777,727.750005 Z M338.777,724.000005 L352.027,724.000005 C358.777,724.000005 366.027,723.000005 371.527,721.750005 C390.527,717.500005 399.027,704.750005 399.027,684.250005 C399.027,660.000005 393.527,645.750005 355.027,645.750005 C346.527,645.750005 343.277,645.750005 341.027,647.250005 C338.777,648.750005 338.777,652.250005 338.777,661.000005 L338.777,724.000005 Z M575.412,796.000005 L575.412,727.750005 L489.412,727.750005 L489.412,796.000005 C489.412,801.000005 489.412,806.000005 490.662,808.500005 C491.662,810.750005 494.412,812.000005 509.412,812.000005 C510.412,812.000005 510.662,812.250005 510.662,813.750005 C510.662,814.750005 510.412,815.250005 509.412,815.250005 C505.912,815.250005 487.662,815.000005 479.662,815.000005 C472.662,815.000005 456.662,815.250005 450.412,815.250005 C449.412,815.250005 449.162,814.750005 449.162,813.750005 C449.162,812.250005 449.662,812.000005 450.662,812.000005 C464.162,812.000005 467.662,811.000005 468.912,808.750005 C470.412,806.000005 470.412,801.500005 470.412,796.000005 L470.412,661.500005 C470.412,654.000005 470.412,651.000005 468.912,648.750005 C467.162,646.250005 464.662,645.500005 450.412,645.250005 C449.662,645.250005 449.162,645.250005 449.162,643.750005 C449.162,642.750005 449.412,642.000005 450.412,642.000005 C456.662,642.000005 472.662,642.250005 479.662,642.250005 C487.662,642.250005 505.912,642.000005 509.412,642.000005 C510.412,642.000005 510.662,642.500005 510.662,643.500005 C510.662,645.000005 510.412,645.250005 509.412,645.250005 C494.412,645.250005 491.912,646.750005 490.662,649.000005 C489.412,650.750005 489.412,655.250005 489.412,661.500005 L489.412,724.000005 L575.412,724.000005 L575.412,661.500005 C575.412,654.000005 575.412,651.000005 573.912,648.750005 C572.162,646.250005 569.412,645.500005 555.162,645.250005 C554.412,645.250005 553.912,645.000005 553.912,643.750005 C553.912,642.500005 554.162,642.000005 555.162,642.000005 C561.412,642.000005 577.662,642.250005 584.662,642.250005 C592.662,642.250005 610.912,642.000005 614.412,642.000005 C615.412,642.000005 615.662,642.500005 615.662,643.500005 C615.662,644.750005 615.412,645.250005 614.412,645.250005 C599.412,645.250005 596.912,646.750005 595.412,649.000005 C594.162,650.750005 594.162,655.250005 594.162,661.500005 L594.162,796.000005 C594.162,801.000005 594.162,806.000005 595.412,808.500005 C596.662,810.750005 599.412,812.000005 614.412,812.000005 C615.412,812.000005 615.662,812.250005 615.662,813.750005 C615.662,814.750005 615.412,815.250005 614.412,815.250005 C610.912,815.250005 592.662,815.000005 584.662,815.000005 C577.662,815.000005 561.662,815.250005 555.412,815.250005 C554.412,815.250005 553.912,814.500005 553.912,813.500005 C553.912,812.250005 554.662,812.000005 555.412,812.000005 C568.912,812.000005 572.662,811.000005 573.912,808.750005 C575.412,806.000005 575.412,801.500005 575.412,796.000005 Z M791.738,725.000005 C791.738,784.750005 762.488,818.500005 713.238,818.500005 C668.738,818.500005 638.488,786.000005 638.488,730.000005 C638.488,673.500005 671.488,638.750005 716.488,638.750005 C765.238,638.750005 791.738,675.750005 791.738,725.000005 Z M770.988,728.000005 C770.988,659.750005 746.738,642.500005 715.738,642.500005 C687.238,642.500005 659.738,660.750005 659.738,727.750005 C659.738,796.000005 685.238,814.750005 714.488,814.750005 C747.988,814.750005 770.988,795.000005 770.988,728.000005 Z M819.641,729.250005 C819.641,676.500005 849.141,638.750005 899.891,638.750005 C919.141,638.750005 931.641,644.750005 938.891,649.000005 C941.641,650.750005 943.891,651.500005 944.891,651.500005 C947.391,651.500005 949.391,650.250005 950.141,643.750005 C950.391,641.750005 950.891,641.750005 952.141,641.750005 C953.391,641.750005 953.891,642.000005 953.891,643.250005 C953.891,646.000005 953.641,657.500005 953.641,667.000005 C953.641,677.500005 953.891,687.500005 953.891,691.750005 C953.891,693.500005 953.391,693.750005 952.141,693.750005 C950.641,693.750005 950.391,693.500005 950.141,691.250005 C948.141,673.750005 944.641,665.000005 936.391,656.750005 C927.641,647.750005 914.391,642.500005 899.891,642.500005 C857.141,642.500005 840.891,673.000005 840.891,731.250005 C840.891,766.250005 848.391,814.750005 896.891,814.750005 C917.141,814.750005 930.141,808.500005 935.641,799.250005 C937.141,796.750005 938.141,791.750005 938.141,784.000005 L938.141,762.500005 C938.141,754.750005 938.141,751.750005 936.641,749.750005 C934.891,747.250005 931.391,746.500005 916.891,746.250005 C916.141,746.250005 915.641,746.250005 915.641,744.750005 C915.641,743.750005 915.891,743.000005 916.891,743.000005 C919.891,743.000005 940.141,743.250005 947.141,743.250005 C955.141,743.250005 969.391,743.000005 972.891,743.000005 C973.891,743.000005 974.141,743.500005 974.141,744.500005 C974.141,746.000005 973.891,746.250005 972.891,746.250005 C962.891,746.250005 959.641,747.750005 958.141,750.000005 C956.891,751.750005 956.891,756.500005 956.891,762.500005 L956.891,786.250005 C956.891,795.750005 957.391,807.750005 957.391,810.500005 C957.391,811.750005 956.891,812.250005 955.641,812.250005 C954.391,812.250005 953.891,812.000005 953.641,810.000005 C952.641,803.000005 950.891,802.500005 949.141,802.500005 C947.391,802.500005 945.641,803.500005 943.141,805.250005 C931.641,813.500005 917.141,818.500005 896.391,818.500005 C848.641,818.500005 819.641,788.250005 819.641,729.250005 Z M1000.09,786.500005 L1048.59,648.750005 C1050.09,644.750005 1050.84,643.250005 1051.34,642.750005 C1051.84,642.250005 1052.59,642.000005 1054.09,642.000005 L1060.34,642.000005 C1061.34,642.000005 1062.34,642.000005 1062.84,642.500005 C1063.59,643.000005 1064.09,644.750005 1065.59,648.750005 L1117.09,796.000005 C1118.84,800.750005 1120.59,806.000005 1122.84,808.750005 C1125.34,811.750005 1129.84,812.000005 1136.84,812.000005 C1137.84,812.000005 1138.34,812.250005 1138.34,813.750005 C1138.34,814.750005 1138.09,815.250005 1137.09,815.250005 C1127.59,815.000005 1118.59,815.000005 1112.09,815.000005 C1105.09,815.000005 1089.59,815.000005 1080.84,815.250005 C1079.84,815.250005 1079.59,814.750005 1079.59,813.500005 C1079.59,812.000005 1080.34,812.000005 1081.34,812.000005 C1088.34,812.000005 1093.59,811.500005 1096.34,810.750005 C1098.59,810.250005 1099.34,808.750005 1099.34,807.000005 C1099.34,805.500005 1098.84,802.250005 1096.59,796.000005 L1078.59,744.750005 L1019.84,744.750005 L1006.59,783.250005 C1003.34,792.250005 1002.34,797.000005 1002.34,802.500005 C1002.34,805.000005 1003.84,808.000005 1006.34,809.250005 C1010.34,811.250005 1016.59,811.750005 1020.34,812.000005 C1021.34,812.000005 1022.09,812.000005 1022.09,813.500005 C1022.09,814.750005 1021.59,815.250005 1020.59,815.250005 C1014.34,815.000005 1004.34,815.000005 997.342,815.000005 C990.592,815.000005 984.592,815.000005 976.592,815.250005 C975.592,815.250005 975.342,814.750005 975.342,813.750005 C975.342,812.250005 975.842,812.000005 976.842,812.000005 C982.342,811.750005 986.842,810.000005 990.342,806.500005 C993.342,803.500005 996.342,796.750005 1000.09,786.500005 Z M1021.09,741.000005 L1077.34,741.000005 C1056.09,678.750005 1052.84,668.500005 1049.59,657.500005 C1046.09,668.500005 1042.34,679.250005 1021.09,741.000005 Z M1167.92,796.000005 L1167.92,661.500005 C1167.92,654.000005 1167.92,651.000005 1166.42,648.750005 C1164.67,646.250005 1162.17,645.500005 1147.92,645.250005 C1147.17,645.250005 1146.67,645.000005 1146.67,643.750005 C1146.67,642.750005 1146.92,642.000005 1147.92,642.000005 C1154.17,642.000005 1170.17,642.250005 1177.17,642.250005 C1185.17,642.250005 1203.42,642.000005 1206.92,642.000005 C1207.92,642.000005 1208.17,642.500005 1208.17,643.500005 C1208.17,644.750005 1207.67,645.250005 1206.67,645.250005 C1191.67,645.250005 1189.67,646.750005 1188.17,649.000005 C1186.92,650.750005 1186.92,655.250005 1186.92,661.500005 L1186.92,796.000005 C1186.92,802.750005 1186.92,806.500005 1188.42,808.750005 C1189.92,811.000005 1194.17,811.500005 1198.17,811.500005 L1223.17,811.500005 C1235.67,811.500005 1243.92,809.750005 1248.17,807.750005 C1253.17,805.500005 1257.17,801.500005 1259.42,797.500005 C1261.92,793.000005 1264.92,782.750005 1265.92,774.250005 C1266.17,772.500005 1266.67,772.250005 1267.92,772.250005 C1269.42,772.250005 1269.92,772.250005 1269.92,774.250005 C1269.92,776.750005 1269.67,786.500005 1269.67,792.250005 C1269.67,798.000005 1269.92,808.750005 1269.92,811.500005 C1269.92,814.250005 1269.42,815.250005 1265.67,815.250005 C1244.67,815.250005 1190.42,815.000005 1176.67,815.000005 C1169.67,815.000005 1154.17,815.250005 1147.92,815.250005 C1146.92,815.250005 1146.67,814.750005 1146.67,813.750005 C1146.67,812.250005 1147.17,812.000005 1147.92,812.000005 C1159.17,812.000005 1165.17,811.500005 1166.42,808.750005 C1167.92,806.000005 1167.92,801.500005 1167.92,796.000005 Z" id="Shape"></path>
        </g>
    </g>
</svg>