<svg width="2000" height="2000" viewBox="0 0 2000 2000" fill="none" xmlns="http://www.w3.org/2000/svg">
<rect width="2000" height="2000" rx="10" fill="#0D0C0B"/>
<g clip-path="url(#clip0_765_1364)">
<path d="M1395.29 1369.39V1367.03C1526.35 1333.98 1585.39 1260.8 1585.39 1180.56C1585.39 1079.06 1500.39 992.916 1307.92 992.916H1074.92L974.827 747.547C1043.37 775.517 1080.7 832.131 1080.7 898.729V970.984H1099.74V896.202C1099.74 841.697 1123.83 718.739 1123.83 718.739H1107.34C1094.66 754.239 1084.51 773.244 1050.26 774.517C1033.16 757.422 1006.03 736.999 965.111 723.759L762.93 228H745.227L478.363 925.481C458.294 977.403 438.225 995.117 401.617 995.117H378V1012.81H596.429V995.117H561.004C506.692 995.117 480.71 967.965 497.249 925.481L572.812 728.396H756.325C658.237 764.587 608.929 850.445 608.929 957.017C608.929 1271.39 1089.58 1172.51 1089.58 1389.27C1089.58 1489.4 1000.81 1546.45 885.4 1546.45C734.492 1546.45 633.037 1455.19 633.037 1353.77V1287.86H614.005V1390.54C614.005 1469.12 605.126 1556.6 605.126 1556.6H621.611C626.687 1529.98 640.643 1489.42 667.262 1484.35C704.033 1521.1 772.519 1565.48 885.4 1565.48C983.961 1565.48 1053.36 1531.59 1096.57 1481.24V1755.32H991.476V1773.02H1320.89C1533.43 1773.02 1621.98 1676.25 1621.98 1562.95C1621.98 1463.81 1547.6 1397.73 1395.27 1369.39H1395.29ZM1212.27 1010.61H1304.37C1398.84 1010.61 1463.78 1059.01 1463.78 1195.89C1463.78 1332.78 1397.66 1364.66 1309.1 1364.66H1212.29V1010.61H1212.27ZM703.888 384.966L837.311 710.701H578.726L703.888 384.966ZM671.083 898.711C671.083 802.942 731.799 738.072 844.953 729.779L953.012 995.117H870.353V1012.81H1096.55V1174.07C970.279 1039.11 671.064 1068.74 671.064 898.693L671.083 898.711ZM1319.73 1755.3H1212.29V1382.36H1317.38C1435.45 1382.36 1500.4 1430.75 1500.4 1557.02C1500.4 1683.29 1439 1755.29 1319.75 1755.29L1319.73 1755.3Z" fill="#C5B29A"/>
</g>
<defs>
<clipPath id="clip0_765_1364">
<rect width="1244" height="1545" fill="white" transform="translate(378 228)"/>
</clipPath>
</defs>
</svg>
