<svg width="2000" height="2000" viewBox="0 0 2000 2000" fill="none" xmlns="http://www.w3.org/2000/svg">
<rect width="2000" height="2000" rx="10" fill="#0D0C0B"/>
<g clip-path="url(#clip0_765_1364)">
<path d="M1441.68 1412.11V1409.47C1588.12 1372.55 1654.1 1290.8 1654.1 1201.16C1654.1 1087.77 1559.11 991.528 1344.06 991.528H1083.71L971.873 717.413C1048.46 748.66 1090.17 811.906 1090.17 886.307V967.026H1111.44V883.483C1111.44 822.593 1138.36 685.231 1138.36 685.231H1119.94C1105.77 724.889 1094.42 746.12 1056.16 747.543C1037.05 728.445 1006.74 705.629 961.017 690.838L735.107 137H715.326L417.142 916.193C394.717 974.198 372.293 993.986 331.389 993.986H305V1013.75H549.065V993.986H509.482C448.796 993.986 419.764 963.653 438.245 916.193L522.676 696.019H727.727C618.127 736.449 563.032 832.365 563.032 951.422C563.032 1302.62 1100.1 1192.16 1100.1 1434.31C1100.1 1546.18 1000.9 1609.91 871.95 1609.91C703.331 1609.91 589.969 1507.96 589.969 1394.66V1321.03H568.704V1435.74C568.704 1523.53 558.783 1621.25 558.783 1621.25H577.202C582.874 1591.51 598.467 1546.2 628.21 1540.53C669.298 1581.59 745.821 1631.16 871.95 1631.16C982.079 1631.16 1059.62 1593.31 1107.9 1537.06V1843.25H990.475V1863.02H1358.55C1596.03 1863.02 1694.98 1754.91 1694.98 1628.34C1694.98 1517.59 1611.87 1443.76 1441.66 1412.11H1441.68ZM1237.18 1011.3H1340.09C1445.65 1011.3 1518.21 1065.36 1518.21 1218.28C1518.21 1371.21 1444.33 1406.83 1345.38 1406.83H1237.2V1011.3H1237.18ZM669.135 312.355L818.217 676.251H529.283L669.135 312.355ZM632.48 886.286C632.48 779.298 700.322 706.827 826.756 697.563L947.497 993.986H855.137V1013.75H1107.88V1193.9C966.791 1043.13 632.459 1076.23 632.459 886.266L632.48 886.286ZM1357.25 1843.23H1237.2V1426.59H1354.63C1486.55 1426.59 1559.13 1480.66 1559.13 1621.72C1559.13 1762.78 1490.52 1843.21 1357.27 1843.21L1357.25 1843.23Z" fill="#C5B29A"/>
</g>
<defs>
<clipPath id="clip0_765_1364">
<rect width="1390" height="1726" fill="white" transform="translate(305 137)"/>
</clipPath>
</defs>
</svg>
