<svg width="16" height="16" viewBox="0 0 16 16" fill="none" xmlns="http://www.w3.org/2000/svg">
<g clipPath="url(#clip0_677_1360)">
<path d="M14 1C14.2652 1 14.5196 1.10536 14.7071 1.29289C14.8946 1.48043 15 1.73478 15 2V14C15 14.2652 14.8946 14.5196 14.7071 14.7071C14.5196 14.8946 14.2652 15 14 15H2C1.73478 15 1.48043 14.8946 1.29289 14.7071C1.10536 14.5196 1 14.2652 1 14V2C1 1.73478 1.10536 1.48043 1.29289 1.29289C1.48043 1.10536 1.73478 1 2 1H14ZM2 0C1.46957 0 0.960859 0.210714 0.585786 0.585786C0.210714 0.960859 0 1.46957 0 2L0 14C0 14.5304 0.210714 15.0391 0.585786 15.4142C0.960859 15.7893 1.46957 16 2 16H14C14.5304 16 15.0391 15.7893 15.4142 15.4142C15.7893 15.0391 16 14.5304 16 14V2C16 1.46957 15.7893 0.960859 15.4142 0.585786C15.0391 0.210714 14.5304 0 14 0L2 0Z" fill="#C6C0C4"/>
<path d="M6.85489 4.64689C6.90146 4.69334 6.9384 4.74851 6.96361 4.80926C6.98881 4.87001 7.00179 4.93513 7.00179 5.00089C7.00179 5.06666 6.98881 5.13178 6.96361 5.19253C6.9384 5.25327 6.90146 5.30845 6.85489 5.35489L4.20789 8.00089L6.85489 10.6469C6.94878 10.7408 7.00153 10.8681 7.00153 11.0009C7.00153 11.1337 6.94878 11.261 6.85489 11.3549C6.76101 11.4488 6.63367 11.5015 6.50089 11.5015C6.36812 11.5015 6.24078 11.4488 6.14689 11.3549L3.14689 8.35489C3.10033 8.30845 3.06339 8.25327 3.03818 8.19253C3.01297 8.13178 3 8.06666 3 8.00089C3 7.93513 3.01297 7.87001 3.03818 7.80926C3.06339 7.74851 3.10033 7.69334 3.14689 7.64689L6.14689 4.64689C6.19334 4.60033 6.24851 4.56339 6.30926 4.53818C6.37001 4.51297 6.43513 4.5 6.50089 4.5C6.56666 4.5 6.63178 4.51297 6.69253 4.53818C6.75327 4.56339 6.80845 4.60033 6.85489 4.64689ZM9.14689 4.64689C9.10033 4.69334 9.06339 4.74851 9.03818 4.80926C9.01297 4.87001 9 4.93513 9 5.00089C9 5.06666 9.01297 5.13178 9.03818 5.19253C9.06339 5.25327 9.10033 5.30845 9.14689 5.35489L11.7939 8.00089L9.14689 10.6469C9.05301 10.7408 9.00026 10.8681 9.00026 11.0009C9.00026 11.1337 9.05301 11.261 9.14689 11.3549C9.24078 11.4488 9.36812 11.5015 9.50089 11.5015C9.63367 11.5015 9.76101 11.4488 9.85489 11.3549L12.8549 8.35489C12.9015 8.30845 12.9384 8.25327 12.9636 8.19253C12.9888 8.13178 13.0018 8.06666 13.0018 8.00089C13.0018 7.93513 12.9888 7.87001 12.9636 7.80926C12.9384 7.74851 12.9015 7.69334 12.8549 7.64689L9.85489 4.64689C9.80845 4.60033 9.75327 4.56339 9.69253 4.53818C9.63178 4.51297 9.56666 4.5 9.50089 4.5C9.43513 4.5 9.37001 4.51297 9.30926 4.53818C9.24852 4.56339 9.19334 4.60033 9.14689 4.64689Z" fill="#C6C0C4"/>
</g>
<defs>
<clipPath id="clip0_677_1360">
<rect width="16" height="16" fill="white"/>
</clipPath>
</defs>
</svg>
