<svg width="100" height="100" viewBox="0 0 100 100" fill="none" xmlns="http://www.w3.org/2000/svg">
<g clipPath="url(#clip0_32_10)">
<path d="M74.3319 71.7051V71.5628C82.2333 69.5737 85.7929 65.1686 85.7929 60.3387C85.7929 54.2292 80.6679 49.0435 69.0643 49.0435H55.0167L48.9824 34.2737C53.1146 35.9573 55.3655 39.3652 55.3655 43.374V47.7233H56.513V43.2218C56.513 39.941 57.9653 32.5397 57.9653 32.5397H56.9715C56.2069 34.6765 55.5948 35.8205 53.5303 35.8971C52.4992 34.8681 50.8636 33.6387 48.3966 32.8418L36.2072 3H35.1399L19.0508 44.9843C17.8409 48.1097 16.6309 49.176 14.4238 49.176H13V50.2411H26.169V49.176H24.0332C20.7588 49.176 19.1923 47.5416 20.1895 44.9843L24.7451 33.1209H35.809C29.8953 35.2994 26.9226 40.4675 26.9226 46.8825C26.9226 65.8057 55.9009 59.8538 55.9009 72.9016C55.9009 78.9291 50.5488 82.3632 43.5908 82.3632C34.4927 82.3632 28.376 76.8699 28.376 70.7648V66.7975H27.2286V72.9783C27.2286 77.7085 26.6933 82.974 26.6933 82.974H27.6871C27.9932 81.3714 28.8346 78.9302 30.4394 78.6248C32.6564 80.8372 36.7853 83.5083 43.5908 83.5083C49.533 83.5083 53.7168 81.4688 56.3221 78.4376V94.9359H49.9861V96.0011H69.8465C82.66 96.0011 87.9989 90.1761 87.9989 83.3561C87.9989 77.3888 83.5145 73.4107 74.3308 71.7051H74.3319ZM63.2976 50.1087H68.8504C74.5458 50.1087 78.4609 53.0217 78.4609 61.2616C78.4609 69.5015 74.4745 71.4205 69.1356 71.4205H63.2987V50.1087H63.2976ZM32.6476 12.4484L40.6916 32.0558H25.1016L32.6476 12.4484ZM30.6698 43.3729C30.6698 37.6082 34.3303 33.7033 41.1523 33.2041L47.6671 49.176H42.6836V50.2411H56.321V59.9479C48.7081 51.8241 30.6687 53.6074 30.6687 43.3718L30.6698 43.3729ZM69.7763 94.9349H63.2987V72.4856H69.6348C76.7529 72.4856 80.669 75.3987 80.669 82.9992C80.669 90.5998 76.9668 94.9338 69.7774 94.9338L69.7763 94.9349Z" fill="#222222"/>
</g>
<defs>
<clipPath id="clip0_32_10">
<rect width="75" height="93" fill="white" transform="translate(13 3)"/>
</clipPath>
</defs>
</svg>
