<svg width="188" height="44" viewBox="0 0 188 44" fill="none" xmlns="http://www.w3.org/2000/svg">
<mask id="mask0_15_28" style="mask-type:alpha" maskUnits="userSpaceOnUse" x="0" y="7" width="32" height="30">
<ellipse cx="16" cy="22" rx="16" ry="14.5" fill="white"/>
</mask>
<g mask="url(#mask0_15_28)">
<path d="M15.6 23.8125C7.27998 16.2725 0.399976 20.6708 -2.00002 23.8125L-10.4 35.775L6.39998 54.625L36.8 45.925L32 21.6375C30 25.5042 23.92 31.3525 15.6 23.8125Z" fill="#D9D9D9"/>
</g>
<path d="M54.984 34.48C52.68 34.48 50.7067 33.9787 49.064 32.976C47.4213 31.9627 46.1573 30.5547 45.272 28.752C44.3973 26.9493 43.96 24.8587 43.96 22.48C43.96 20.1013 44.3973 18.0107 45.272 16.208C46.1573 14.4053 47.4213 13.0027 49.064 12C50.7067 10.9867 52.68 10.48 54.984 10.48C57.288 10.48 59.2613 10.9867 60.904 12C62.5573 13.0027 63.8213 14.4053 64.696 16.208C65.5813 18.0107 66.024 20.1013 66.024 22.48C66.024 24.8587 65.5813 26.9493 64.696 28.752C63.8213 30.5547 62.5573 31.9627 60.904 32.976C59.2613 33.9787 57.288 34.48 54.984 34.48ZM54.984 30.848C56.5307 30.8587 57.816 30.5173 58.84 29.824C59.8747 29.1307 60.648 28.1547 61.16 26.896C61.6827 25.6373 61.944 24.1653 61.944 22.48C61.944 20.7947 61.6827 19.3333 61.16 18.096C60.648 16.848 59.8747 15.8773 58.84 15.184C57.816 14.4907 56.5307 14.1333 54.984 14.112C53.4373 14.1013 52.152 14.4427 51.128 15.136C50.104 15.8293 49.3307 16.8053 48.808 18.064C48.296 19.3227 48.04 20.7947 48.04 22.48C48.04 24.1653 48.296 25.632 48.808 26.88C49.32 28.1173 50.088 29.0827 51.112 29.776C52.1467 30.4693 53.4373 30.8267 54.984 30.848ZM76.7128 34.48C74.9314 34.48 73.4114 34.0853 72.1528 33.296C70.8941 32.496 69.9288 31.408 69.2568 30.032C68.5954 28.656 68.2594 27.0987 68.2488 25.36C68.2594 23.5893 68.6061 22.0213 69.2888 20.656C69.9821 19.28 70.9634 18.2027 72.2328 17.424C73.5021 16.6347 75.0114 16.24 76.7608 16.24C78.7234 16.24 80.3821 16.736 81.7368 17.728C83.1021 18.7093 83.9928 20.0533 84.4088 21.76L80.5688 22.8C80.2701 21.872 79.7741 21.152 79.0808 20.64C78.3874 20.1173 77.5981 19.856 76.7128 19.856C75.7101 19.856 74.8834 20.096 74.2328 20.576C73.5821 21.0453 73.1021 21.696 72.7928 22.528C72.4834 23.36 72.3288 24.304 72.3288 25.36C72.3288 27.0027 72.6968 28.3307 73.4328 29.344C74.1688 30.3573 75.2621 30.864 76.7128 30.864C77.7368 30.864 78.5421 30.6293 79.1288 30.16C79.7261 29.6907 80.1741 29.0133 80.4728 28.128L84.4088 29.008C83.8754 30.768 82.9421 32.1227 81.6088 33.072C80.2754 34.0107 78.6434 34.48 76.7128 34.48ZM95.0023 34.48C93.2529 34.48 91.7169 34.1013 90.3943 33.344C89.0716 32.5867 88.0369 31.536 87.2903 30.192C86.5543 28.848 86.1863 27.3013 86.1863 25.552C86.1863 23.664 86.5489 22.0267 87.2743 20.64C87.9996 19.2427 89.0076 18.16 90.2983 17.392C91.5889 16.624 93.0823 16.24 94.7783 16.24C96.5703 16.24 98.0903 16.6613 99.3383 17.504C100.597 18.336 101.53 19.5147 102.138 21.04C102.746 22.5653 102.976 24.3627 102.826 26.432H99.0023V25.024C98.9916 23.1467 98.6609 21.776 98.0103 20.912C97.3596 20.048 96.3356 19.616 94.9383 19.616C93.3596 19.616 92.1863 20.1067 91.4183 21.088C90.6503 22.0587 90.2663 23.4827 90.2663 25.36C90.2663 27.1093 90.6503 28.464 91.4183 29.424C92.1863 30.384 93.3063 30.864 94.7783 30.864C95.7276 30.864 96.5436 30.656 97.2263 30.24C97.9196 29.8133 98.4529 29.2 98.8263 28.4L102.634 29.552C101.973 31.1093 100.949 32.32 99.5623 33.184C98.1863 34.048 96.6663 34.48 95.0023 34.48ZM89.0503 26.432V23.52H100.938V26.432H89.0503ZM110.916 34.48C109.668 34.48 108.612 34.2453 107.748 33.776C106.884 33.296 106.228 32.6613 105.78 31.872C105.342 31.0827 105.124 30.2133 105.124 29.264C105.124 28.432 105.262 27.6853 105.54 27.024C105.817 26.352 106.244 25.776 106.82 25.296C107.396 24.8053 108.142 24.4053 109.06 24.096C109.753 23.872 110.564 23.6693 111.492 23.488C112.43 23.3067 113.444 23.1413 114.532 22.992C115.63 22.832 116.777 22.6613 117.972 22.48L116.596 23.264C116.606 22.0693 116.34 21.1893 115.796 20.624C115.252 20.0587 114.334 19.776 113.044 19.776C112.265 19.776 111.513 19.9573 110.788 20.32C110.062 20.6827 109.556 21.3067 109.268 22.192L105.748 21.088C106.174 19.6267 106.985 18.4533 108.18 17.568C109.385 16.6827 111.006 16.24 113.044 16.24C114.58 16.24 115.929 16.4907 117.092 16.992C118.265 17.4933 119.134 18.3147 119.7 19.456C120.009 20.064 120.196 20.688 120.26 21.328C120.324 21.9573 120.356 22.6453 120.356 23.392V34H116.98V30.256L117.54 30.864C116.761 32.112 115.849 33.0293 114.804 33.616C113.769 34.192 112.473 34.48 110.916 34.48ZM111.684 31.408C112.558 31.408 113.305 31.2533 113.924 30.944C114.542 30.6347 115.033 30.256 115.396 29.808C115.769 29.36 116.02 28.9387 116.148 28.544C116.35 28.0533 116.462 27.4933 116.484 26.864C116.516 26.224 116.532 25.7067 116.532 25.312L117.716 25.664C116.553 25.8453 115.556 26.0053 114.724 26.144C113.892 26.2827 113.177 26.416 112.58 26.544C111.982 26.6613 111.454 26.7947 110.996 26.944C110.548 27.104 110.169 27.2907 109.86 27.504C109.55 27.7173 109.31 27.9627 109.14 28.24C108.98 28.5173 108.9 28.8427 108.9 29.216C108.9 29.6427 109.006 30.0213 109.22 30.352C109.433 30.672 109.742 30.928 110.148 31.12C110.564 31.312 111.076 31.408 111.684 31.408ZM136.473 34V25.68C136.473 25.136 136.436 24.5333 136.361 23.872C136.287 23.2107 136.111 22.576 135.833 21.968C135.567 21.3493 135.161 20.8427 134.617 20.448C134.084 20.0533 133.359 19.856 132.441 19.856C131.951 19.856 131.465 19.936 130.985 20.096C130.505 20.256 130.068 20.5333 129.673 20.928C129.289 21.312 128.98 21.8453 128.745 22.528C128.511 23.2 128.393 24.064 128.393 25.12L126.105 24.144C126.105 22.672 126.388 21.3387 126.953 20.144C127.529 18.9493 128.372 18 129.481 17.296C130.591 16.5813 131.956 16.224 133.577 16.224C134.857 16.224 135.913 16.4373 136.745 16.864C137.577 17.2907 138.239 17.8347 138.729 18.496C139.22 19.1573 139.583 19.8613 139.817 20.608C140.052 21.3547 140.201 22.064 140.265 22.736C140.34 23.3973 140.377 23.936 140.377 24.352V34H136.473ZM124.489 34V16.72H127.929V22.08H128.393V34H124.489ZM144.873 14.096V10.56H148.729V14.096H144.873ZM144.873 34V16.72H148.729V34H144.873ZM161.025 34.48C159.244 34.48 157.724 34.0853 156.465 33.296C155.207 32.496 154.241 31.408 153.569 30.032C152.908 28.656 152.572 27.0987 152.561 25.36C152.572 23.5893 152.919 22.0213 153.601 20.656C154.295 19.28 155.276 18.2027 156.545 17.424C157.815 16.6347 159.324 16.24 161.073 16.24C163.036 16.24 164.695 16.736 166.049 17.728C167.415 18.7093 168.305 20.0533 168.721 21.76L164.881 22.8C164.583 21.872 164.087 21.152 163.393 20.64C162.7 20.1173 161.911 19.856 161.025 19.856C160.023 19.856 159.196 20.096 158.545 20.576C157.895 21.0453 157.415 21.696 157.105 22.528C156.796 23.36 156.641 24.304 156.641 25.36C156.641 27.0027 157.009 28.3307 157.745 29.344C158.481 30.3573 159.575 30.864 161.025 30.864C162.049 30.864 162.855 30.6293 163.441 30.16C164.039 29.6907 164.487 29.0133 164.785 28.128L168.721 29.008C168.188 30.768 167.255 32.1227 165.921 33.072C164.588 34.0107 162.956 34.48 161.025 34.48ZM176.478 34.48C175.23 34.48 174.174 34.2453 173.31 33.776C172.446 33.296 171.79 32.6613 171.342 31.872C170.905 31.0827 170.686 30.2133 170.686 29.264C170.686 28.432 170.825 27.6853 171.102 27.024C171.38 26.352 171.806 25.776 172.382 25.296C172.958 24.8053 173.705 24.4053 174.622 24.096C175.316 23.872 176.126 23.6693 177.054 23.488C177.993 23.3067 179.006 23.1413 180.094 22.992C181.193 22.832 182.34 22.6613 183.534 22.48L182.158 23.264C182.169 22.0693 181.902 21.1893 181.358 20.624C180.814 20.0587 179.897 19.776 178.606 19.776C177.828 19.776 177.076 19.9573 176.35 20.32C175.625 20.6827 175.118 21.3067 174.83 22.192L171.31 21.088C171.737 19.6267 172.548 18.4533 173.742 17.568C174.948 16.6827 176.569 16.24 178.606 16.24C180.142 16.24 181.492 16.4907 182.654 16.992C183.828 17.4933 184.697 18.3147 185.262 19.456C185.572 20.064 185.758 20.688 185.822 21.328C185.886 21.9573 185.918 22.6453 185.918 23.392V34H182.542V30.256L183.102 30.864C182.324 32.112 181.412 33.0293 180.366 33.616C179.332 34.192 178.036 34.48 176.478 34.48ZM177.246 31.408C178.121 31.408 178.868 31.2533 179.486 30.944C180.105 30.6347 180.596 30.256 180.958 29.808C181.332 29.36 181.582 28.9387 181.71 28.544C181.913 28.0533 182.025 27.4933 182.046 26.864C182.078 26.224 182.094 25.7067 182.094 25.312L183.278 25.664C182.116 25.8453 181.118 26.0053 180.286 26.144C179.454 26.2827 178.74 26.416 178.142 26.544C177.545 26.6613 177.017 26.7947 176.558 26.944C176.11 27.104 175.732 27.2907 175.422 27.504C175.113 27.7173 174.873 27.9627 174.702 28.24C174.542 28.5173 174.462 28.8427 174.462 29.216C174.462 29.6427 174.569 30.0213 174.782 30.352C174.996 30.672 175.305 30.928 175.71 31.12C176.126 31.312 176.638 31.408 177.246 31.408Z" fill="#D9D9D9"/>
</svg>
