<svg width="108" height="99" viewBox="0 0 108 99" fill="none" xmlns="http://www.w3.org/2000/svg">
<path d="M21.68 26V8.72H24.572V15.992H32.756V8.72H35.636V26H32.756V18.704H24.572V26H21.68ZM44.7243 26.36C43.4283 26.36 42.2963 26.068 41.3283 25.484C40.3603 24.9 39.6083 24.096 39.0723 23.072C38.5443 22.04 38.2803 20.856 38.2803 19.52C38.2803 18.16 38.5523 16.968 39.0963 15.944C39.6403 14.92 40.3963 14.12 41.3643 13.544C42.3323 12.968 43.4523 12.68 44.7243 12.68C46.0283 12.68 47.1643 12.972 48.1323 13.556C49.1003 14.14 49.8523 14.948 50.3883 15.98C50.9243 17.004 51.1923 18.184 51.1923 19.52C51.1923 20.864 50.9203 22.052 50.3763 23.084C49.8403 24.108 49.0883 24.912 48.1203 25.496C47.1523 26.072 46.0203 26.36 44.7243 26.36ZM44.7243 23.648C45.8763 23.648 46.7323 23.264 47.2923 22.496C47.8523 21.728 48.1323 20.736 48.1323 19.52C48.1323 18.264 47.8483 17.264 47.2803 16.52C46.7123 15.768 45.8603 15.392 44.7243 15.392C43.9483 15.392 43.3083 15.568 42.8043 15.92C42.3083 16.264 41.9403 16.748 41.7003 17.372C41.4603 17.988 41.3403 18.704 41.3403 19.52C41.3403 20.776 41.6243 21.78 42.1923 22.532C42.7683 23.276 43.6123 23.648 44.7243 23.648ZM69.4003 26V18.128C69.4003 17.24 69.1803 16.548 68.7403 16.052C68.3003 15.548 67.7043 15.296 66.9523 15.296C66.4883 15.296 66.0723 15.404 65.7043 15.62C65.3363 15.828 65.0443 16.14 64.8282 16.556C64.6123 16.964 64.5043 17.452 64.5043 18.02L63.2203 17.264C63.2123 16.368 63.4123 15.58 63.8203 14.9C64.2363 14.212 64.7963 13.676 65.5003 13.292C66.2043 12.908 66.9883 12.716 67.8523 12.716C69.2843 12.716 70.3803 13.148 71.1403 14.012C71.9083 14.868 72.2923 15.996 72.2923 17.396V26H69.4003ZM53.8123 26V13.04H56.3683V17.06H56.7283V26H53.8123ZM61.6243 26V18.164C61.6243 17.26 61.4043 16.556 60.9643 16.052C60.5243 15.548 59.9243 15.296 59.1643 15.296C58.4283 15.296 57.8363 15.548 57.3883 16.052C56.9483 16.556 56.7283 17.212 56.7283 18.02L55.4323 17.156C55.4323 16.316 55.6403 15.56 56.0563 14.888C56.4723 14.216 57.0323 13.688 57.7363 13.304C58.4483 12.912 59.2443 12.716 60.1243 12.716C61.0923 12.716 61.9003 12.924 62.5483 13.34C63.2043 13.748 63.6923 14.308 64.0123 15.02C64.3403 15.724 64.5043 16.52 64.5043 17.408V26H61.6243ZM81.1033 26.36C79.7913 26.36 78.6393 26.076 77.6473 25.508C76.6553 24.94 75.8793 24.152 75.3193 23.144C74.7673 22.136 74.4913 20.976 74.4913 19.664C74.4913 18.248 74.7633 17.02 75.3073 15.98C75.8513 14.932 76.6073 14.12 77.5753 13.544C78.5433 12.968 79.6633 12.68 80.9353 12.68C82.2793 12.68 83.4193 12.996 84.3553 13.628C85.2993 14.252 85.9993 15.136 86.4553 16.28C86.9113 17.424 87.0833 18.772 86.9713 20.324H84.1033V19.268C84.0953 17.86 83.8473 16.832 83.3593 16.184C82.8713 15.536 82.1033 15.212 81.0553 15.212C79.8713 15.212 78.9913 15.58 78.4153 16.316C77.8393 17.044 77.5513 18.112 77.5513 19.52C77.5513 20.832 77.8393 21.848 78.4153 22.568C78.9913 23.288 79.8313 23.648 80.9353 23.648C81.6473 23.648 82.2593 23.492 82.7713 23.18C83.2913 22.86 83.6913 22.4 83.9713 21.8L86.8273 22.664C86.3313 23.832 85.5633 24.74 84.5233 25.388C83.4913 26.036 82.3513 26.36 81.1033 26.36ZM76.6393 20.324V18.14H85.5553V20.324H76.6393Z" fill="white"/>
<path d="M21.68 59V41.72H23.444V49.508H32.996V41.72H34.748V59H32.996V51.2H23.444V59H21.68ZM43.5217 59.36C42.2337 59.36 41.1337 59.068 40.2217 58.484C39.3097 57.9 38.6097 57.092 38.1217 56.06C37.6337 55.028 37.3897 53.844 37.3897 52.508C37.3897 51.148 37.6377 49.956 38.1337 48.932C38.6297 47.908 39.3337 47.112 40.2457 46.544C41.1657 45.968 42.2577 45.68 43.5217 45.68C44.8177 45.68 45.9217 45.972 46.8337 46.556C47.7537 47.132 48.4537 47.936 48.9337 48.968C49.4217 49.992 49.6657 51.172 49.6657 52.508C49.6657 53.868 49.4217 55.064 48.9337 56.096C48.4457 57.12 47.7417 57.92 46.8217 58.496C45.9017 59.072 44.8017 59.36 43.5217 59.36ZM43.5217 57.668C44.9617 57.668 46.0337 57.192 46.7377 56.24C47.4417 55.28 47.7937 54.036 47.7937 52.508C47.7937 50.94 47.4377 49.692 46.7257 48.764C46.0217 47.836 44.9537 47.372 43.5217 47.372C42.5537 47.372 41.7537 47.592 41.1217 48.032C40.4977 48.464 40.0297 49.068 39.7177 49.844C39.4137 50.612 39.2617 51.5 39.2617 52.508C39.2617 54.068 39.6217 55.32 40.3417 56.264C41.0617 57.2 42.1217 57.668 43.5217 57.668ZM67.7688 59L67.7808 50.492C67.7808 49.492 67.5008 48.708 66.9408 48.14C66.3888 47.564 65.6848 47.276 64.8288 47.276C64.3408 47.276 63.8648 47.388 63.4008 47.612C62.9368 47.836 62.5528 48.196 62.2488 48.692C61.9528 49.188 61.8048 49.836 61.8048 50.636L60.7608 50.336C60.7368 49.408 60.9168 48.596 61.3008 47.9C61.6928 47.204 62.2288 46.664 62.9088 46.28C63.5968 45.888 64.3728 45.692 65.2368 45.692C66.5408 45.692 67.5848 46.096 68.3688 46.904C69.1528 47.704 69.5448 48.788 69.5448 50.156L69.5328 59H67.7688ZM52.3008 59V46.04H53.8848V49.232H54.0768V59H52.3008ZM60.0528 59L60.0648 50.612C60.0648 49.58 59.7888 48.768 59.2368 48.176C58.6928 47.576 57.9728 47.276 57.0768 47.276C56.1808 47.276 55.4568 47.584 54.9048 48.2C54.3528 48.808 54.0768 49.62 54.0768 50.636L53.0208 50.06C53.0208 49.228 53.2168 48.484 53.6088 47.828C54.0008 47.164 54.5368 46.644 55.2168 46.268C55.8968 45.884 56.6688 45.692 57.5328 45.692C58.3568 45.692 59.0888 45.868 59.7288 46.22C60.3768 46.572 60.8848 47.084 61.2528 47.756C61.6208 48.428 61.8048 49.244 61.8048 50.204L61.7928 59H60.0528ZM78.0703 59.36C76.8063 59.36 75.7103 59.08 74.7823 58.52C73.8623 57.96 73.1463 57.172 72.6343 56.156C72.1223 55.14 71.8663 53.948 71.8663 52.58C71.8663 51.164 72.1183 49.94 72.6223 48.908C73.1263 47.876 73.8343 47.08 74.7463 46.52C75.6663 45.96 76.7503 45.68 77.9983 45.68C79.2783 45.68 80.3703 45.976 81.2743 46.568C82.1783 47.152 82.8623 47.992 83.3263 49.088C83.7903 50.184 84.0023 51.492 83.9623 53.012H82.1623V52.388C82.1303 50.708 81.7663 49.44 81.0703 48.584C80.3823 47.728 79.3743 47.3 78.0463 47.3C76.6543 47.3 75.5863 47.752 74.8423 48.656C74.1063 49.56 73.7383 50.848 73.7383 52.52C73.7383 54.152 74.1063 55.42 74.8423 56.324C75.5863 57.22 76.6383 57.668 77.9983 57.668C78.9263 57.668 79.7343 57.456 80.4223 57.032C81.1183 56.6 81.6663 55.98 82.0663 55.172L83.7103 55.808C83.1983 56.936 82.4423 57.812 81.4423 58.436C80.4503 59.052 79.3263 59.36 78.0703 59.36ZM73.1143 53.012V51.536H83.0143V53.012H73.1143Z" fill="white"/>
<path d="M21.68 92V74.72H23.444V82.508H32.996V74.72H34.748V92H32.996V84.2H23.444V92H21.68ZM43.5217 92.36C42.2337 92.36 41.1337 92.068 40.2217 91.484C39.3097 90.9 38.6097 90.092 38.1217 89.06C37.6337 88.028 37.3897 86.844 37.3897 85.508C37.3897 84.148 37.6377 82.956 38.1337 81.932C38.6297 80.908 39.3337 80.112 40.2457 79.544C41.1657 78.968 42.2577 78.68 43.5217 78.68C44.8177 78.68 45.9217 78.972 46.8337 79.556C47.7537 80.132 48.4537 80.936 48.9337 81.968C49.4217 82.992 49.6657 84.172 49.6657 85.508C49.6657 86.868 49.4217 88.064 48.9337 89.096C48.4457 90.12 47.7417 90.92 46.8217 91.496C45.9017 92.072 44.8017 92.36 43.5217 92.36ZM43.5217 90.668C44.9617 90.668 46.0337 90.192 46.7377 89.24C47.4417 88.28 47.7937 87.036 47.7937 85.508C47.7937 83.94 47.4377 82.692 46.7257 81.764C46.0217 80.836 44.9537 80.372 43.5217 80.372C42.5537 80.372 41.7537 80.592 41.1217 81.032C40.4977 81.464 40.0297 82.068 39.7177 82.844C39.4137 83.612 39.2617 84.5 39.2617 85.508C39.2617 87.068 39.6217 88.32 40.3417 89.264C41.0617 90.2 42.1217 90.668 43.5217 90.668ZM67.7688 92L67.7808 83.492C67.7808 82.492 67.5008 81.708 66.9408 81.14C66.3888 80.564 65.6848 80.276 64.8288 80.276C64.3408 80.276 63.8648 80.388 63.4008 80.612C62.9368 80.836 62.5528 81.196 62.2488 81.692C61.9528 82.188 61.8048 82.836 61.8048 83.636L60.7608 83.336C60.7368 82.408 60.9168 81.596 61.3008 80.9C61.6928 80.204 62.2288 79.664 62.9088 79.28C63.5968 78.888 64.3728 78.692 65.2368 78.692C66.5408 78.692 67.5848 79.096 68.3688 79.904C69.1528 80.704 69.5448 81.788 69.5448 83.156L69.5328 92H67.7688ZM52.3008 92V79.04H53.8848V82.232H54.0768V92H52.3008ZM60.0528 92L60.0648 83.612C60.0648 82.58 59.7888 81.768 59.2368 81.176C58.6928 80.576 57.9728 80.276 57.0768 80.276C56.1808 80.276 55.4568 80.584 54.9048 81.2C54.3528 81.808 54.0768 82.62 54.0768 83.636L53.0208 83.06C53.0208 82.228 53.2168 81.484 53.6088 80.828C54.0008 80.164 54.5368 79.644 55.2168 79.268C55.8968 78.884 56.6688 78.692 57.5328 78.692C58.3568 78.692 59.0888 78.868 59.7288 79.22C60.3768 79.572 60.8848 80.084 61.2528 80.756C61.6208 81.428 61.8048 82.244 61.8048 83.204L61.7928 92H60.0528ZM78.0703 92.36C76.8063 92.36 75.7103 92.08 74.7823 91.52C73.8623 90.96 73.1463 90.172 72.6343 89.156C72.1223 88.14 71.8663 86.948 71.8663 85.58C71.8663 84.164 72.1183 82.94 72.6223 81.908C73.1263 80.876 73.8343 80.08 74.7463 79.52C75.6663 78.96 76.7503 78.68 77.9983 78.68C79.2783 78.68 80.3703 78.976 81.2743 79.568C82.1783 80.152 82.8623 80.992 83.3263 82.088C83.7903 83.184 84.0023 84.492 83.9623 86.012H82.1623V85.388C82.1303 83.708 81.7663 82.44 81.0703 81.584C80.3823 80.728 79.3743 80.3 78.0463 80.3C76.6543 80.3 75.5863 80.752 74.8423 81.656C74.1063 82.56 73.7383 83.848 73.7383 85.52C73.7383 87.152 74.1063 88.42 74.8423 89.324C75.5863 90.22 76.6383 90.668 77.9983 90.668C78.9263 90.668 79.7343 90.456 80.4223 90.032C81.1183 89.6 81.6663 88.98 82.0663 88.172L83.7103 88.808C83.1983 89.936 82.4423 90.812 81.4423 91.436C80.4503 92.052 79.3263 92.36 78.0703 92.36ZM73.1143 86.012V84.536H83.0143V86.012H73.1143Z" fill="#68B1C8"/>
<rect x="0.5" y="0.5" width="107" height="98" rx="4.5" stroke="#9747FF" stroke-dasharray="10 5"/>
</svg>
