<svg width="140" height="390" viewBox="0 0 140 390" fill="none" xmlns="http://www.w3.org/2000/svg">
<path d="M97.5642 360C97.6181 363.242 97.0259 366.463 95.8222 369.475C94.6185 372.487 92.8273 375.229 90.5531 377.541C88.2789 379.853 85.5671 381.69 82.5759 382.944C79.5846 384.197 76.3738 384.843 73.1304 384.843C69.8871 384.843 66.6763 384.197 63.6851 382.944C60.6938 381.69 57.982 379.853 55.7078 377.541C53.4336 375.229 51.6424 372.487 50.4387 369.475C49.235 366.463 48.6428 363.242 48.6967 360C48.6428 356.757 49.235 353.536 50.4387 350.524C51.6424 347.512 53.4336 344.77 55.7078 342.458C57.982 340.146 60.6938 338.309 63.6851 337.055C66.6763 335.802 69.8871 335.156 73.1304 335.156C76.3738 335.156 79.5846 335.802 82.5759 337.055C85.5671 338.309 88.2789 340.146 90.5531 342.458C92.8273 344.77 94.6185 347.512 95.8222 350.524C97.0259 353.536 97.6181 356.757 97.5642 360Z" fill="white" stroke="black" stroke-width="1.1252"/>
<path d="M74.6992 266.357L115.849 195.087V118.117" stroke="white" stroke-width="15" stroke-linejoin="round"/>
<path d="M133.352 103.844H96.5488V143.229H133.352V103.844Z" fill="white" stroke="white" stroke-width="10"/>
<path d="M74.7008 319.927L26.5508 236.527V166.547" stroke="white" stroke-width="15" stroke-linejoin="round"/>
<path d="M51.4333 162.14C51.4872 165.383 50.8951 168.604 49.6914 171.616C48.4876 174.627 46.6965 177.369 44.4222 179.682C42.148 181.994 39.4363 183.831 36.445 185.084C33.4538 186.338 30.2429 186.983 26.9996 186.983C23.7563 186.983 20.5454 186.338 17.5542 185.084C14.563 183.831 11.8512 181.994 9.57695 179.682C7.30272 177.369 5.51157 174.627 4.30786 171.616C3.10415 168.604 2.51197 165.383 2.56588 162.14C2.51197 158.897 3.10415 155.676 4.30786 152.664C5.51157 149.653 7.30272 146.911 9.57695 144.599C11.8512 142.286 14.563 140.45 17.5542 139.196C20.5454 137.942 23.7563 137.297 26.9996 137.297C30.2429 137.297 33.4538 137.942 36.445 139.196C39.4363 140.45 42.148 142.286 44.4222 144.599C46.6965 146.911 48.4876 149.653 49.6914 152.664C50.8951 155.676 51.4872 158.897 51.4333 162.14Z" fill="white" stroke="white" stroke-width="1.125"/>
<path fill-rule="evenodd" clip-rule="evenodd" d="M73.6289 367.5V32.5Z" fill="white"/>
<path d="M73.6289 367.5V32.5" stroke="white" stroke-width="15"/>
<path fill-rule="evenodd" clip-rule="evenodd" d="M73.9695 13.9062L47.5195 59.6963H100.39L73.9695 13.9062Z" fill="white" stroke="white" stroke-width="8"/>
</svg>
