<svg width="100%" height="100%" viewBox="0 0 1002 1244" fill="none" xmlns="http://www.w3.org/2000/svg">
<g clip-path="url(#clip0_29_2)">
<path d="M819.394 919.023V917.119C924.957 890.513 972.513 831.588 972.513 766.983C972.513 685.259 904.044 615.894 749.02 615.894H561.343L480.724 418.327C535.931 440.849 566.004 486.433 566.004 540.057V598.234H581.333V538.021C581.333 494.135 600.737 395.133 600.737 395.133H587.459C577.244 423.716 569.067 439.018 541.485 440.043C527.709 426.279 505.858 409.834 472.898 399.174L310.048 0H295.789L80.8388 561.597C64.674 603.403 48.5092 617.666 19.0226 617.666H0V631.913H175.937V617.666H147.403C103.657 617.666 82.7294 595.803 96.0511 561.597L156.915 402.908H304.728C225.721 432.048 186.006 501.179 186.006 586.988C186.006 840.111 573.156 760.496 573.156 935.028C573.156 1015.65 501.652 1061.59 408.693 1061.59C287.142 1061.59 205.424 988.11 205.424 906.445V853.378H190.094V936.053C190.094 999.326 182.943 1069.76 182.943 1069.76H196.22C200.309 1048.32 211.55 1015.67 232.991 1011.58C262.609 1041.18 317.772 1076.91 408.693 1076.91C488.081 1076.91 543.977 1049.63 578.783 1009.08V1229.77H494.134V1244.01H759.469C930.658 1244.01 1001.99 1166.1 1001.99 1074.87C1001.99 995.051 942.074 941.837 819.38 919.023H819.394ZM671.976 630.142H746.162C822.252 630.142 874.557 669.107 874.557 779.327C874.557 889.546 821.3 915.216 749.972 915.216H671.991V630.142H671.976ZM262.492 126.386L369.959 388.66H161.678L262.492 126.386ZM236.068 540.042C236.068 462.931 284.973 410.698 376.115 404.021L463.153 617.666H396.573V631.913H578.769V761.755C477.061 653.088 236.054 676.941 236.054 540.027L236.068 540.042ZM758.531 1229.75H671.991V929.464H756.64C851.739 929.464 904.058 968.429 904.058 1070.1C904.058 1171.77 854.597 1229.74 758.546 1229.74L758.531 1229.75Z" fill="white"/>
</g>
<defs>
<clipPath id="clip0_29_2">
<rect width="1002" height="1244" fill="white"/>
</clipPath>
</defs>
</svg>
