<svg width="75" height="75" viewBox="0 0 100 100" fill="none" xmlns="http://www.w3.org/2000/svg">
<g clip-path="url(#clip0_36_4)">
<path d="M73.5142 72.2051V72.0628C81.3102 70.0737 84.8224 65.6686 84.8224 60.8387C84.8224 54.7292 79.7657 49.5435 68.3168 49.5435H54.4565L48.5026 34.7737C52.5797 36.4573 54.8007 39.8652 54.8007 43.874V48.2233H55.9328V43.7218C55.9328 40.441 57.3658 33.0397 57.3658 33.0397H56.3852C55.6308 35.1765 55.0269 36.3205 52.9899 36.3971C51.9725 35.3681 50.3588 34.1387 47.9246 33.3418L35.8978 3.5H34.8447L18.9701 45.4843C17.7763 48.6097 16.5825 49.676 14.4049 49.676H13V50.7411H25.9934V49.676H23.8861C20.6553 49.676 19.1098 48.0416 20.0936 45.4843L24.5885 33.6209H35.5049C29.6701 35.7994 26.7369 40.9675 26.7369 47.3825C26.7369 66.3057 55.3289 60.3538 55.3289 73.4016C55.3289 79.4291 50.0482 82.8632 43.1829 82.8632C34.2061 82.8632 28.171 77.3699 28.171 71.2647V67.2975H27.0389V73.4782C27.0389 78.2085 26.5107 83.474 26.5107 83.474H27.4913C27.7933 81.8714 28.6234 79.4302 30.2069 79.1248C32.3943 81.3372 36.4682 84.0083 43.1829 84.0083C49.0459 84.0083 53.1739 81.9688 55.7445 78.9376V95.4359H49.4929V96.5011H69.0885C81.7312 96.5011 86.9989 90.6761 86.9989 83.8561C86.9989 77.8888 82.5744 73.9107 73.5131 72.2051H73.5142ZM62.627 50.6087H68.1058C73.7252 50.6087 77.5881 53.5217 77.5881 61.7616C77.5881 70.0015 73.6549 71.9205 68.3872 71.9205H62.6281V50.6087H62.627ZM32.3856 12.9484L40.3223 32.5558H24.9403L32.3856 12.9484ZM30.4342 43.8729C30.4342 38.1082 34.0459 34.2033 40.7769 33.7041L47.2049 49.676H42.2879V50.7411H55.7434V60.4479C48.232 52.3241 30.4331 54.1074 30.4331 43.8718L30.4342 43.8729ZM69.0193 95.4348H62.6281V72.9856H68.8796C75.9029 72.9856 79.7668 75.8987 79.7668 83.4992C79.7668 91.0998 76.1139 95.4338 69.0203 95.4338L69.0193 95.4348Z" fill="white" fill-opacity="0.5"/>
</g>
<defs>
<clipPath id="clip0_36_4">
<rect width="74" height="93" fill="white" transform="translate(13 3.5)"/>
</clipPath>
</defs>
</svg>
