<svg width="84" height="40" viewBox="0 0 84 40" fill="none" xmlns="http://www.w3.org/2000/svg">
<g clip-path="url(#clip0_639_1354)">
<rect width="84" height="40" rx="20" fill="black"/>
<path d="M19.0686 26H16.4322L20.4493 14.3636H23.6197L27.6311 26H24.9947L22.08 17.0227H21.9891L19.0686 26ZM18.9038 21.4261H25.1311V23.3466H18.9038V21.4261ZM32.6232 26.1705C31.7292 26.1705 30.9603 25.9811 30.3163 25.6023C29.6762 25.2197 29.1838 24.6894 28.8391 24.0114C28.4982 23.3333 28.3277 22.553 28.3277 21.6705C28.3277 20.7765 28.5 19.9924 28.8447 19.3182C29.1932 18.6402 29.6875 18.1117 30.3277 17.733C30.9679 17.3504 31.7292 17.1591 32.6118 17.1591C33.3732 17.1591 34.0398 17.2973 34.6118 17.5739C35.1838 17.8504 35.6364 18.2386 35.9697 18.7386C36.3031 19.2386 36.4868 19.8258 36.5209 20.5H34.2368C34.1724 20.0644 34.0019 19.714 33.7254 19.4489C33.4527 19.1799 33.0947 19.0455 32.6516 19.0455C32.2766 19.0455 31.9489 19.1477 31.6686 19.3523C31.3921 19.553 31.1762 19.8466 31.0209 20.233C30.8656 20.6193 30.7879 21.0871 30.7879 21.6364C30.7879 22.1932 30.8637 22.6667 31.0152 23.0568C31.1705 23.447 31.3883 23.7443 31.6686 23.9489C31.9489 24.1534 32.2766 24.2557 32.6516 24.2557C32.9281 24.2557 33.1762 24.1989 33.3959 24.0852C33.6194 23.9716 33.8031 23.8068 33.947 23.5909C34.0947 23.3712 34.1913 23.108 34.2368 22.8011H36.5209C36.483 23.4678 36.3012 24.0549 35.9754 24.5625C35.6535 25.0663 35.2084 25.4602 34.6402 25.7443C34.072 26.0284 33.3997 26.1705 32.6232 26.1705ZM42.8126 17.2727V19.0909H37.557V17.2727H42.8126ZM38.7501 15.1818H41.1706V23.3182C41.1706 23.5417 41.2047 23.7159 41.2729 23.8409C41.3411 23.9621 41.4357 24.0473 41.557 24.0966C41.682 24.1458 41.8259 24.1705 41.9888 24.1705C42.1024 24.1705 42.2161 24.161 42.3297 24.142C42.4433 24.1193 42.5304 24.1023 42.5911 24.0909L42.9717 25.892C42.8505 25.9299 42.6801 25.9735 42.4604 26.0227C42.2407 26.0758 41.9736 26.108 41.6592 26.1193C41.0759 26.142 40.5645 26.0644 40.1251 25.8864C39.6895 25.7083 39.3505 25.4318 39.1081 25.0568C38.8657 24.6818 38.7464 24.2083 38.7501 23.6364V15.1818ZM44.4893 26V17.2727H46.9098V26H44.4893ZM45.7053 16.1477C45.3454 16.1477 45.0367 16.0284 44.7791 15.7898C44.5253 15.5473 44.3984 15.2576 44.3984 14.9205C44.3984 14.5871 44.5253 14.3011 44.7791 14.0625C45.0367 13.8201 45.3454 13.6989 45.7053 13.6989C46.0651 13.6989 46.3719 13.8201 46.6257 14.0625C46.8833 14.3011 47.0121 14.5871 47.0121 14.9205C47.0121 15.2576 46.8833 15.5473 46.6257 15.7898C46.3719 16.0284 46.0651 16.1477 45.7053 16.1477ZM52.8919 26.1705C52.0093 26.1705 51.2461 25.983 50.6021 25.608C49.962 25.2292 49.4677 24.7027 49.1192 24.0284C48.7707 23.3504 48.5964 22.5644 48.5964 21.6705C48.5964 20.7689 48.7707 19.9811 49.1192 19.3068C49.4677 18.6288 49.962 18.1023 50.6021 17.7273C51.2461 17.3485 52.0093 17.1591 52.8919 17.1591C53.7745 17.1591 54.5358 17.3485 55.176 17.7273C55.8199 18.1023 56.3161 18.6288 56.6646 19.3068C57.0131 19.9811 57.1874 20.7689 57.1874 21.6705C57.1874 22.5644 57.0131 23.3504 56.6646 24.0284C56.3161 24.7027 55.8199 25.2292 55.176 25.608C54.5358 25.983 53.7745 26.1705 52.8919 26.1705ZM52.9033 24.2955C53.3048 24.2955 53.64 24.1818 53.9089 23.9545C54.1779 23.7235 54.3805 23.4091 54.5169 23.0114C54.6571 22.6136 54.7271 22.161 54.7271 21.6534C54.7271 21.1458 54.6571 20.6932 54.5169 20.2955C54.3805 19.8977 54.1779 19.5833 53.9089 19.3523C53.64 19.1212 53.3048 19.0057 52.9033 19.0057C52.498 19.0057 52.1571 19.1212 51.8805 19.3523C51.6078 19.5833 51.4014 19.8977 51.2612 20.2955C51.1249 20.6932 51.0567 21.1458 51.0567 21.6534C51.0567 22.161 51.1249 22.6136 51.2612 23.0114C51.4014 23.4091 51.6078 23.7235 51.8805 23.9545C52.1571 24.1818 52.498 24.2955 52.9033 24.2955ZM61.2817 20.9545V26H58.8612V17.2727H61.168V18.8125H61.2703C61.4635 18.3049 61.7874 17.9034 62.2419 17.608C62.6964 17.3087 63.2476 17.1591 63.8953 17.1591C64.5014 17.1591 65.0298 17.2917 65.4805 17.5568C65.9313 17.822 66.2817 18.2008 66.5317 18.6932C66.7817 19.1818 66.9067 19.7652 66.9067 20.4432V26H64.4862V20.875C64.49 20.3409 64.3536 19.9242 64.0771 19.625C63.8006 19.322 63.4199 19.1705 62.9351 19.1705C62.6093 19.1705 62.3214 19.2405 62.0714 19.3807C61.8252 19.5208 61.6321 19.7254 61.4919 19.9943C61.3555 20.2595 61.2855 20.5795 61.2817 20.9545Z" fill="white"/>
</g>
<defs>
<clipPath id="clip0_639_1354">
<rect width="84" height="40" fill="white"/>
</clipPath>
</defs>
</svg>
